G04 #@! TF.GenerationSoftware,KiCad,Pcbnew,(6.0.9)*
G04 #@! TF.CreationDate,2022-11-30T10:01:03+01:00*
G04 #@! TF.ProjectId,LDAD ATOM PRO,4c444144-2041-4544-9f4d-2050524f2e6b,5.3*
G04 #@! TF.SameCoordinates,Original*
G04 #@! TF.FileFunction,Soldermask,Top*
G04 #@! TF.FilePolarity,Negative*
%FSLAX46Y46*%
G04 Gerber Fmt 4.6, Leading zero omitted, Abs format (unit mm)*
G04 Created by KiCad (PCBNEW (6.0.9)) date 2022-11-30 10:01:03*
%MOMM*%
%LPD*%
G01*
G04 APERTURE LIST*
G04 Aperture macros list*
%AMRoundRect*
0 Rectangle with rounded corners*
0 $1 Rounding radius*
0 $2 $3 $4 $5 $6 $7 $8 $9 X,Y pos of 4 corners*
0 Add a 4 corners polygon primitive as box body*
4,1,4,$2,$3,$4,$5,$6,$7,$8,$9,$2,$3,0*
0 Add four circle primitives for the rounded corners*
1,1,$1+$1,$2,$3*
1,1,$1+$1,$4,$5*
1,1,$1+$1,$6,$7*
1,1,$1+$1,$8,$9*
0 Add four rect primitives between the rounded corners*
20,1,$1+$1,$2,$3,$4,$5,0*
20,1,$1+$1,$4,$5,$6,$7,0*
20,1,$1+$1,$6,$7,$8,$9,0*
20,1,$1+$1,$8,$9,$2,$3,0*%
%AMRotRect*
0 Rectangle, with rotation*
0 The origin of the aperture is its center*
0 $1 length*
0 $2 width*
0 $3 Rotation angle, in degrees counterclockwise*
0 Add horizontal line*
21,1,$1,$2,0,0,$3*%
%AMFreePoly0*
4,1,6,0.500000,-0.850000,-0.500000,-0.850000,-0.500000,0.550000,-0.200000,0.850000,0.500000,0.850000,0.500000,-0.850000,0.500000,-0.850000,$1*%
G04 Aperture macros list end*
%ADD10C,0.100000*%
%ADD11C,0.150000*%
%ADD12C,0.300000*%
%ADD13C,0.400000*%
G04 #@! TA.AperFunction,Profile*
%ADD14C,0.120000*%
G04 #@! TD*
%ADD15RoundRect,0.225000X-0.250000X0.225000X-0.250000X-0.225000X0.250000X-0.225000X0.250000X0.225000X0*%
%ADD16RoundRect,0.250000X-0.262500X-0.450000X0.262500X-0.450000X0.262500X0.450000X-0.262500X0.450000X0*%
%ADD17RoundRect,0.250000X0.475000X-0.250000X0.475000X0.250000X-0.475000X0.250000X-0.475000X-0.250000X0*%
%ADD18RoundRect,0.250000X0.350000X0.450000X-0.350000X0.450000X-0.350000X-0.450000X0.350000X-0.450000X0*%
%ADD19RoundRect,0.200000X-0.200000X-0.275000X0.200000X-0.275000X0.200000X0.275000X-0.200000X0.275000X0*%
%ADD20R,1.300000X1.000000*%
%ADD21RoundRect,0.225000X0.225000X0.250000X-0.225000X0.250000X-0.225000X-0.250000X0.225000X-0.250000X0*%
%ADD22R,1.000000X1.000000*%
%ADD23O,1.000000X1.000000*%
%ADD24RoundRect,0.050000X-0.238649X-0.309359X0.309359X0.238649X0.238649X0.309359X-0.309359X-0.238649X0*%
%ADD25RoundRect,0.050000X0.238649X-0.309359X0.309359X-0.238649X-0.238649X0.309359X-0.309359X0.238649X0*%
%ADD26RotRect,5.600000X5.600000X45.000000*%
%ADD27RoundRect,0.250001X-0.624999X0.462499X-0.624999X-0.462499X0.624999X-0.462499X0.624999X0.462499X0*%
%ADD28RoundRect,0.200000X0.275000X-0.200000X0.275000X0.200000X-0.275000X0.200000X-0.275000X-0.200000X0*%
%ADD29RoundRect,0.200000X0.200000X0.275000X-0.200000X0.275000X-0.200000X-0.275000X0.200000X-0.275000X0*%
%ADD30RoundRect,0.225000X-0.225000X-0.250000X0.225000X-0.250000X0.225000X0.250000X-0.225000X0.250000X0*%
%ADD31R,0.400000X2.000000*%
%ADD32O,1.100000X1.700000*%
%ADD33RoundRect,0.225000X0.250000X-0.225000X0.250000X0.225000X-0.250000X0.225000X-0.250000X-0.225000X0*%
%ADD34R,0.250000X0.550000*%
%ADD35FreePoly0,90.000000*%
%ADD36RoundRect,0.250000X-0.450000X0.262500X-0.450000X-0.262500X0.450000X-0.262500X0.450000X0.262500X0*%
%ADD37RoundRect,0.250000X0.337500X0.475000X-0.337500X0.475000X-0.337500X-0.475000X0.337500X-0.475000X0*%
%ADD38C,1.000000*%
%ADD39RoundRect,0.250000X0.250000X0.475000X-0.250000X0.475000X-0.250000X-0.475000X0.250000X-0.475000X0*%
%ADD40RoundRect,0.250000X-0.600000X-0.725000X0.600000X-0.725000X0.600000X0.725000X-0.600000X0.725000X0*%
%ADD41O,1.700000X1.950000*%
%ADD42RoundRect,0.250000X-0.375000X-1.075000X0.375000X-1.075000X0.375000X1.075000X-0.375000X1.075000X0*%
%ADD43RoundRect,0.150000X-0.150000X0.587500X-0.150000X-0.587500X0.150000X-0.587500X0.150000X0.587500X0*%
%ADD44RoundRect,0.150000X0.150000X-0.587500X0.150000X0.587500X-0.150000X0.587500X-0.150000X-0.587500X0*%
%ADD45RoundRect,0.218750X0.381250X-0.218750X0.381250X0.218750X-0.381250X0.218750X-0.381250X-0.218750X0*%
%ADD46R,25.500000X0.400000*%
%ADD47RoundRect,0.250000X-0.250000X-0.475000X0.250000X-0.475000X0.250000X0.475000X-0.250000X0.475000X0*%
%ADD48R,0.400000X20.500000*%
%ADD49RoundRect,0.100000X-0.100000X-0.550000X0.100000X-0.550000X0.100000X0.550000X-0.100000X0.550000X0*%
%ADD50RoundRect,0.262500X0.737500X0.262500X-0.737500X0.262500X-0.737500X-0.262500X0.737500X-0.262500X0*%
%ADD51RoundRect,0.100000X0.100000X0.550000X-0.100000X0.550000X-0.100000X-0.550000X0.100000X-0.550000X0*%
%ADD52R,0.700000X1.525000*%
%ADD53R,3.402000X2.513000*%
%ADD54RoundRect,0.218750X-0.218750X-0.381250X0.218750X-0.381250X0.218750X0.381250X-0.218750X0.381250X0*%
%ADD55RoundRect,0.250000X-0.350000X-0.450000X0.350000X-0.450000X0.350000X0.450000X-0.350000X0.450000X0*%
%ADD56RoundRect,0.250000X0.600000X0.750000X-0.600000X0.750000X-0.600000X-0.750000X0.600000X-0.750000X0*%
%ADD57O,1.700000X2.000000*%
%ADD58R,0.400000X5.700000*%
%ADD59R,0.500000X0.500000*%
%ADD60RoundRect,0.200000X-0.275000X0.200000X-0.275000X-0.200000X0.275000X-0.200000X0.275000X0.200000X0*%
%ADD61R,25.400000X0.400000*%
%ADD62RoundRect,0.250001X0.462499X0.624999X-0.462499X0.624999X-0.462499X-0.624999X0.462499X-0.624999X0*%
%ADD63R,0.400000X13.300000*%
%ADD64RoundRect,0.041300X0.948700X0.253700X-0.948700X0.253700X-0.948700X-0.253700X0.948700X-0.253700X0*%
%ADD65R,0.350000X0.580000*%
%ADD66R,0.580000X0.350000*%
%ADD67R,1.000000X1.300000*%
%ADD68RoundRect,0.250000X0.262500X0.450000X-0.262500X0.450000X-0.262500X-0.450000X0.262500X-0.450000X0*%
%ADD69C,0.700000*%
%ADD70O,1.500000X0.800000*%
G04 APERTURE END LIST*
D10*
D11*
X177002200Y-166007200D02*
X177002200Y-198007200D01*
X285002200Y-198007200D01*
X285002200Y-166007200D01*
X177002200Y-166007200D01*
D10*
D11*
X10000000Y-10000000D02*
X10000000Y-200007200D01*
X287002200Y-200007200D01*
X287002200Y-10000000D01*
X10000000Y-10000000D01*
D10*
D11*
X12000000Y-12000000D02*
X12000000Y-198007200D01*
X285002200Y-198007200D01*
X285002200Y-12000000D01*
X12000000Y-12000000D01*
D10*
D11*
X60000000Y-12000000D02*
X60000000Y-10000000D01*
D10*
D11*
X110000000Y-12000000D02*
X110000000Y-10000000D01*
D10*
D11*
X160000000Y-12000000D02*
X160000000Y-10000000D01*
D10*
D11*
X210000000Y-12000000D02*
X210000000Y-10000000D01*
D10*
D11*
X260000000Y-12000000D02*
X260000000Y-10000000D01*
D10*
D11*
X36065476Y-11588095D02*
X35322619Y-11588095D01*
X35694047Y-11588095D02*
X35694047Y-10288095D01*
X35570238Y-10473809D01*
X35446428Y-10597619D01*
X35322619Y-10659523D01*
D10*
D11*
X85322619Y-10411904D02*
X85384523Y-10350000D01*
X85508333Y-10288095D01*
X85817857Y-10288095D01*
X85941666Y-10350000D01*
X86003571Y-10411904D01*
X86065476Y-10535714D01*
X86065476Y-10659523D01*
X86003571Y-10845238D01*
X85260714Y-11588095D01*
X86065476Y-11588095D01*
D10*
D11*
X135260714Y-10288095D02*
X136065476Y-10288095D01*
X135632142Y-10783333D01*
X135817857Y-10783333D01*
X135941666Y-10845238D01*
X136003571Y-10907142D01*
X136065476Y-11030952D01*
X136065476Y-11340476D01*
X136003571Y-11464285D01*
X135941666Y-11526190D01*
X135817857Y-11588095D01*
X135446428Y-11588095D01*
X135322619Y-11526190D01*
X135260714Y-11464285D01*
D10*
D11*
X185941666Y-10721428D02*
X185941666Y-11588095D01*
X185632142Y-10226190D02*
X185322619Y-11154761D01*
X186127380Y-11154761D01*
D10*
D11*
X236003571Y-10288095D02*
X235384523Y-10288095D01*
X235322619Y-10907142D01*
X235384523Y-10845238D01*
X235508333Y-10783333D01*
X235817857Y-10783333D01*
X235941666Y-10845238D01*
X236003571Y-10907142D01*
X236065476Y-11030952D01*
X236065476Y-11340476D01*
X236003571Y-11464285D01*
X235941666Y-11526190D01*
X235817857Y-11588095D01*
X235508333Y-11588095D01*
X235384523Y-11526190D01*
X235322619Y-11464285D01*
D10*
D11*
X285941666Y-10288095D02*
X285694047Y-10288095D01*
X285570238Y-10350000D01*
X285508333Y-10411904D01*
X285384523Y-10597619D01*
X285322619Y-10845238D01*
X285322619Y-11340476D01*
X285384523Y-11464285D01*
X285446428Y-11526190D01*
X285570238Y-11588095D01*
X285817857Y-11588095D01*
X285941666Y-11526190D01*
X286003571Y-11464285D01*
X286065476Y-11340476D01*
X286065476Y-11030952D01*
X286003571Y-10907142D01*
X285941666Y-10845238D01*
X285817857Y-10783333D01*
X285570238Y-10783333D01*
X285446428Y-10845238D01*
X285384523Y-10907142D01*
X285322619Y-11030952D01*
D10*
D11*
X60000000Y-198007200D02*
X60000000Y-200007200D01*
D10*
D11*
X110000000Y-198007200D02*
X110000000Y-200007200D01*
D10*
D11*
X160000000Y-198007200D02*
X160000000Y-200007200D01*
D10*
D11*
X210000000Y-198007200D02*
X210000000Y-200007200D01*
D10*
D11*
X260000000Y-198007200D02*
X260000000Y-200007200D01*
D10*
D11*
X36065476Y-199595295D02*
X35322619Y-199595295D01*
X35694047Y-199595295D02*
X35694047Y-198295295D01*
X35570238Y-198481009D01*
X35446428Y-198604819D01*
X35322619Y-198666723D01*
D10*
D11*
X85322619Y-198419104D02*
X85384523Y-198357200D01*
X85508333Y-198295295D01*
X85817857Y-198295295D01*
X85941666Y-198357200D01*
X86003571Y-198419104D01*
X86065476Y-198542914D01*
X86065476Y-198666723D01*
X86003571Y-198852438D01*
X85260714Y-199595295D01*
X86065476Y-199595295D01*
D10*
D11*
X135260714Y-198295295D02*
X136065476Y-198295295D01*
X135632142Y-198790533D01*
X135817857Y-198790533D01*
X135941666Y-198852438D01*
X136003571Y-198914342D01*
X136065476Y-199038152D01*
X136065476Y-199347676D01*
X136003571Y-199471485D01*
X135941666Y-199533390D01*
X135817857Y-199595295D01*
X135446428Y-199595295D01*
X135322619Y-199533390D01*
X135260714Y-199471485D01*
D10*
D11*
X185941666Y-198728628D02*
X185941666Y-199595295D01*
X185632142Y-198233390D02*
X185322619Y-199161961D01*
X186127380Y-199161961D01*
D10*
D11*
X236003571Y-198295295D02*
X235384523Y-198295295D01*
X235322619Y-198914342D01*
X235384523Y-198852438D01*
X235508333Y-198790533D01*
X235817857Y-198790533D01*
X235941666Y-198852438D01*
X236003571Y-198914342D01*
X236065476Y-199038152D01*
X236065476Y-199347676D01*
X236003571Y-199471485D01*
X235941666Y-199533390D01*
X235817857Y-199595295D01*
X235508333Y-199595295D01*
X235384523Y-199533390D01*
X235322619Y-199471485D01*
D10*
D11*
X285941666Y-198295295D02*
X285694047Y-198295295D01*
X285570238Y-198357200D01*
X285508333Y-198419104D01*
X285384523Y-198604819D01*
X285322619Y-198852438D01*
X285322619Y-199347676D01*
X285384523Y-199471485D01*
X285446428Y-199533390D01*
X285570238Y-199595295D01*
X285817857Y-199595295D01*
X285941666Y-199533390D01*
X286003571Y-199471485D01*
X286065476Y-199347676D01*
X286065476Y-199038152D01*
X286003571Y-198914342D01*
X285941666Y-198852438D01*
X285817857Y-198790533D01*
X285570238Y-198790533D01*
X285446428Y-198852438D01*
X285384523Y-198914342D01*
X285322619Y-199038152D01*
D10*
D11*
X10000000Y-60000000D02*
X12000000Y-60000000D01*
D10*
D11*
X10000000Y-110000000D02*
X12000000Y-110000000D01*
D10*
D11*
X10000000Y-160000000D02*
X12000000Y-160000000D01*
D10*
D11*
X10690476Y-35216666D02*
X11309523Y-35216666D01*
X10566666Y-35588095D02*
X11000000Y-34288095D01*
X11433333Y-35588095D01*
D10*
D11*
X11092857Y-84907142D02*
X11278571Y-84969047D01*
X11340476Y-85030952D01*
X11402380Y-85154761D01*
X11402380Y-85340476D01*
X11340476Y-85464285D01*
X11278571Y-85526190D01*
X11154761Y-85588095D01*
X10659523Y-85588095D01*
X10659523Y-84288095D01*
X11092857Y-84288095D01*
X11216666Y-84350000D01*
X11278571Y-84411904D01*
X11340476Y-84535714D01*
X11340476Y-84659523D01*
X11278571Y-84783333D01*
X11216666Y-84845238D01*
X11092857Y-84907142D01*
X10659523Y-84907142D01*
D10*
D11*
X11402380Y-135464285D02*
X11340476Y-135526190D01*
X11154761Y-135588095D01*
X11030952Y-135588095D01*
X10845238Y-135526190D01*
X10721428Y-135402380D01*
X10659523Y-135278571D01*
X10597619Y-135030952D01*
X10597619Y-134845238D01*
X10659523Y-134597619D01*
X10721428Y-134473809D01*
X10845238Y-134350000D01*
X11030952Y-134288095D01*
X11154761Y-134288095D01*
X11340476Y-134350000D01*
X11402380Y-134411904D01*
D10*
D11*
X10659523Y-185588095D02*
X10659523Y-184288095D01*
X10969047Y-184288095D01*
X11154761Y-184350000D01*
X11278571Y-184473809D01*
X11340476Y-184597619D01*
X11402380Y-184845238D01*
X11402380Y-185030952D01*
X11340476Y-185278571D01*
X11278571Y-185402380D01*
X11154761Y-185526190D01*
X10969047Y-185588095D01*
X10659523Y-185588095D01*
D10*
D11*
X287002200Y-60000000D02*
X285002200Y-60000000D01*
D10*
D11*
X287002200Y-110000000D02*
X285002200Y-110000000D01*
D10*
D11*
X287002200Y-160000000D02*
X285002200Y-160000000D01*
D10*
D11*
X285692676Y-35216666D02*
X286311723Y-35216666D01*
X285568866Y-35588095D02*
X286002200Y-34288095D01*
X286435533Y-35588095D01*
D10*
D11*
X286095057Y-84907142D02*
X286280771Y-84969047D01*
X286342676Y-85030952D01*
X286404580Y-85154761D01*
X286404580Y-85340476D01*
X286342676Y-85464285D01*
X286280771Y-85526190D01*
X286156961Y-85588095D01*
X285661723Y-85588095D01*
X285661723Y-84288095D01*
X286095057Y-84288095D01*
X286218866Y-84350000D01*
X286280771Y-84411904D01*
X286342676Y-84535714D01*
X286342676Y-84659523D01*
X286280771Y-84783333D01*
X286218866Y-84845238D01*
X286095057Y-84907142D01*
X285661723Y-84907142D01*
D10*
D11*
X286404580Y-135464285D02*
X286342676Y-135526190D01*
X286156961Y-135588095D01*
X286033152Y-135588095D01*
X285847438Y-135526190D01*
X285723628Y-135402380D01*
X285661723Y-135278571D01*
X285599819Y-135030952D01*
X285599819Y-134845238D01*
X285661723Y-134597619D01*
X285723628Y-134473809D01*
X285847438Y-134350000D01*
X286033152Y-134288095D01*
X286156961Y-134288095D01*
X286342676Y-134350000D01*
X286404580Y-134411904D01*
D10*
D11*
X285661723Y-185588095D02*
X285661723Y-184288095D01*
X285971247Y-184288095D01*
X286156961Y-184350000D01*
X286280771Y-184473809D01*
X286342676Y-184597619D01*
X286404580Y-184845238D01*
X286404580Y-185030952D01*
X286342676Y-185278571D01*
X286280771Y-185402380D01*
X286156961Y-185526190D01*
X285971247Y-185588095D01*
X285661723Y-185588095D01*
D10*
D11*
X200434342Y-193785771D02*
X200434342Y-192285771D01*
X200791485Y-192285771D01*
X201005771Y-192357200D01*
X201148628Y-192500057D01*
X201220057Y-192642914D01*
X201291485Y-192928628D01*
X201291485Y-193142914D01*
X201220057Y-193428628D01*
X201148628Y-193571485D01*
X201005771Y-193714342D01*
X200791485Y-193785771D01*
X200434342Y-193785771D01*
X202577200Y-193785771D02*
X202577200Y-193000057D01*
X202505771Y-192857200D01*
X202362914Y-192785771D01*
X202077200Y-192785771D01*
X201934342Y-192857200D01*
X202577200Y-193714342D02*
X202434342Y-193785771D01*
X202077200Y-193785771D01*
X201934342Y-193714342D01*
X201862914Y-193571485D01*
X201862914Y-193428628D01*
X201934342Y-193285771D01*
X202077200Y-193214342D01*
X202434342Y-193214342D01*
X202577200Y-193142914D01*
X203077200Y-192785771D02*
X203648628Y-192785771D01*
X203291485Y-192285771D02*
X203291485Y-193571485D01*
X203362914Y-193714342D01*
X203505771Y-193785771D01*
X203648628Y-193785771D01*
X204720057Y-193714342D02*
X204577200Y-193785771D01*
X204291485Y-193785771D01*
X204148628Y-193714342D01*
X204077200Y-193571485D01*
X204077200Y-193000057D01*
X204148628Y-192857200D01*
X204291485Y-192785771D01*
X204577200Y-192785771D01*
X204720057Y-192857200D01*
X204791485Y-193000057D01*
X204791485Y-193142914D01*
X204077200Y-193285771D01*
X205434342Y-193642914D02*
X205505771Y-193714342D01*
X205434342Y-193785771D01*
X205362914Y-193714342D01*
X205434342Y-193642914D01*
X205434342Y-193785771D01*
X205434342Y-192857200D02*
X205505771Y-192928628D01*
X205434342Y-193000057D01*
X205362914Y-192928628D01*
X205434342Y-192857200D01*
X205434342Y-193000057D01*
X207220057Y-192428628D02*
X207291485Y-192357200D01*
X207434342Y-192285771D01*
X207791485Y-192285771D01*
X207934342Y-192357200D01*
X208005771Y-192428628D01*
X208077200Y-192571485D01*
X208077200Y-192714342D01*
X208005771Y-192928628D01*
X207148628Y-193785771D01*
X208077200Y-193785771D01*
X209005771Y-192285771D02*
X209148628Y-192285771D01*
X209291485Y-192357200D01*
X209362914Y-192428628D01*
X209434342Y-192571485D01*
X209505771Y-192857200D01*
X209505771Y-193214342D01*
X209434342Y-193500057D01*
X209362914Y-193642914D01*
X209291485Y-193714342D01*
X209148628Y-193785771D01*
X209005771Y-193785771D01*
X208862914Y-193714342D01*
X208791485Y-193642914D01*
X208720057Y-193500057D01*
X208648628Y-193214342D01*
X208648628Y-192857200D01*
X208720057Y-192571485D01*
X208791485Y-192428628D01*
X208862914Y-192357200D01*
X209005771Y-192285771D01*
X210077200Y-192428628D02*
X210148628Y-192357200D01*
X210291485Y-192285771D01*
X210648628Y-192285771D01*
X210791485Y-192357200D01*
X210862914Y-192428628D01*
X210934342Y-192571485D01*
X210934342Y-192714342D01*
X210862914Y-192928628D01*
X210005771Y-193785771D01*
X210934342Y-193785771D01*
X212362914Y-193785771D02*
X211505771Y-193785771D01*
X211934342Y-193785771D02*
X211934342Y-192285771D01*
X211791485Y-192500057D01*
X211648628Y-192642914D01*
X211505771Y-192714342D01*
X213005771Y-193214342D02*
X214148628Y-193214342D01*
X215648628Y-193785771D02*
X214791485Y-193785771D01*
X215220057Y-193785771D02*
X215220057Y-192285771D01*
X215077200Y-192500057D01*
X214934342Y-192642914D01*
X214791485Y-192714342D01*
X216220057Y-192428628D02*
X216291485Y-192357200D01*
X216434342Y-192285771D01*
X216791485Y-192285771D01*
X216934342Y-192357200D01*
X217005771Y-192428628D01*
X217077200Y-192571485D01*
X217077200Y-192714342D01*
X217005771Y-192928628D01*
X216148628Y-193785771D01*
X217077200Y-193785771D01*
X217720057Y-193214342D02*
X218862914Y-193214342D01*
X219505771Y-192428628D02*
X219577200Y-192357200D01*
X219720057Y-192285771D01*
X220077200Y-192285771D01*
X220220057Y-192357200D01*
X220291485Y-192428628D01*
X220362914Y-192571485D01*
X220362914Y-192714342D01*
X220291485Y-192928628D01*
X219434342Y-193785771D01*
X220362914Y-193785771D01*
X221220057Y-192928628D02*
X221077200Y-192857200D01*
X221005771Y-192785771D01*
X220934342Y-192642914D01*
X220934342Y-192571485D01*
X221005771Y-192428628D01*
X221077200Y-192357200D01*
X221220057Y-192285771D01*
X221505771Y-192285771D01*
X221648628Y-192357200D01*
X221720057Y-192428628D01*
X221791485Y-192571485D01*
X221791485Y-192642914D01*
X221720057Y-192785771D01*
X221648628Y-192857200D01*
X221505771Y-192928628D01*
X221220057Y-192928628D01*
X221077200Y-193000057D01*
X221005771Y-193071485D01*
X220934342Y-193214342D01*
X220934342Y-193500057D01*
X221005771Y-193642914D01*
X221077200Y-193714342D01*
X221220057Y-193785771D01*
X221505771Y-193785771D01*
X221648628Y-193714342D01*
X221720057Y-193642914D01*
X221791485Y-193500057D01*
X221791485Y-193214342D01*
X221720057Y-193071485D01*
X221648628Y-193000057D01*
X221505771Y-192928628D01*
D10*
D11*
X177002200Y-194507200D02*
X285002200Y-194507200D01*
D10*
D11*
X178434342Y-196585771D02*
X178434342Y-195085771D01*
X179291485Y-196585771D02*
X178648628Y-195728628D01*
X179291485Y-195085771D02*
X178434342Y-195942914D01*
X179934342Y-196585771D02*
X179934342Y-195585771D01*
X179934342Y-195085771D02*
X179862914Y-195157200D01*
X179934342Y-195228628D01*
X180005771Y-195157200D01*
X179934342Y-195085771D01*
X179934342Y-195228628D01*
X181505771Y-196442914D02*
X181434342Y-196514342D01*
X181220057Y-196585771D01*
X181077200Y-196585771D01*
X180862914Y-196514342D01*
X180720057Y-196371485D01*
X180648628Y-196228628D01*
X180577200Y-195942914D01*
X180577200Y-195728628D01*
X180648628Y-195442914D01*
X180720057Y-195300057D01*
X180862914Y-195157200D01*
X181077200Y-195085771D01*
X181220057Y-195085771D01*
X181434342Y-195157200D01*
X181505771Y-195228628D01*
X182791485Y-196585771D02*
X182791485Y-195800057D01*
X182720057Y-195657200D01*
X182577200Y-195585771D01*
X182291485Y-195585771D01*
X182148628Y-195657200D01*
X182791485Y-196514342D02*
X182648628Y-196585771D01*
X182291485Y-196585771D01*
X182148628Y-196514342D01*
X182077200Y-196371485D01*
X182077200Y-196228628D01*
X182148628Y-196085771D01*
X182291485Y-196014342D01*
X182648628Y-196014342D01*
X182791485Y-195942914D01*
X184148628Y-196585771D02*
X184148628Y-195085771D01*
X184148628Y-196514342D02*
X184005771Y-196585771D01*
X183720057Y-196585771D01*
X183577200Y-196514342D01*
X183505771Y-196442914D01*
X183434342Y-196300057D01*
X183434342Y-195871485D01*
X183505771Y-195728628D01*
X183577200Y-195657200D01*
X183720057Y-195585771D01*
X184005771Y-195585771D01*
X184148628Y-195657200D01*
X186005771Y-195800057D02*
X186505771Y-195800057D01*
X186720057Y-196585771D02*
X186005771Y-196585771D01*
X186005771Y-195085771D01*
X186720057Y-195085771D01*
X187362914Y-196442914D02*
X187434342Y-196514342D01*
X187362914Y-196585771D01*
X187291485Y-196514342D01*
X187362914Y-196442914D01*
X187362914Y-196585771D01*
X188077200Y-196585771D02*
X188077200Y-195085771D01*
X188434342Y-195085771D01*
X188648628Y-195157200D01*
X188791485Y-195300057D01*
X188862914Y-195442914D01*
X188934342Y-195728628D01*
X188934342Y-195942914D01*
X188862914Y-196228628D01*
X188791485Y-196371485D01*
X188648628Y-196514342D01*
X188434342Y-196585771D01*
X188077200Y-196585771D01*
X189577200Y-196442914D02*
X189648628Y-196514342D01*
X189577200Y-196585771D01*
X189505771Y-196514342D01*
X189577200Y-196442914D01*
X189577200Y-196585771D01*
X190220057Y-196157200D02*
X190934342Y-196157200D01*
X190077200Y-196585771D02*
X190577200Y-195085771D01*
X191077200Y-196585771D01*
X191577200Y-196442914D02*
X191648628Y-196514342D01*
X191577200Y-196585771D01*
X191505771Y-196514342D01*
X191577200Y-196442914D01*
X191577200Y-196585771D01*
X194577200Y-196585771D02*
X194577200Y-195085771D01*
X194720057Y-196014342D02*
X195148628Y-196585771D01*
X195148628Y-195585771D02*
X194577200Y-196157200D01*
X195791485Y-196585771D02*
X195791485Y-195585771D01*
X195791485Y-195085771D02*
X195720057Y-195157200D01*
X195791485Y-195228628D01*
X195862914Y-195157200D01*
X195791485Y-195085771D01*
X195791485Y-195228628D01*
X197148628Y-196514342D02*
X197005771Y-196585771D01*
X196720057Y-196585771D01*
X196577200Y-196514342D01*
X196505771Y-196442914D01*
X196434342Y-196300057D01*
X196434342Y-195871485D01*
X196505771Y-195728628D01*
X196577200Y-195657200D01*
X196720057Y-195585771D01*
X197005771Y-195585771D01*
X197148628Y-195657200D01*
X198434342Y-196585771D02*
X198434342Y-195800057D01*
X198362914Y-195657200D01*
X198220057Y-195585771D01*
X197934342Y-195585771D01*
X197791485Y-195657200D01*
X198434342Y-196514342D02*
X198291485Y-196585771D01*
X197934342Y-196585771D01*
X197791485Y-196514342D01*
X197720057Y-196371485D01*
X197720057Y-196228628D01*
X197791485Y-196085771D01*
X197934342Y-196014342D01*
X198291485Y-196014342D01*
X198434342Y-195942914D01*
X199791485Y-196585771D02*
X199791485Y-195085771D01*
X199791485Y-196514342D02*
X199648628Y-196585771D01*
X199362914Y-196585771D01*
X199220057Y-196514342D01*
X199148628Y-196442914D01*
X199077200Y-196300057D01*
X199077200Y-195871485D01*
X199148628Y-195728628D01*
X199220057Y-195657200D01*
X199362914Y-195585771D01*
X199648628Y-195585771D01*
X199791485Y-195657200D01*
X202077200Y-197157200D02*
X202005771Y-197085771D01*
X201862914Y-196871485D01*
X201791485Y-196728628D01*
X201720057Y-196514342D01*
X201648628Y-196157200D01*
X201648628Y-195871485D01*
X201720057Y-195514342D01*
X201791485Y-195300057D01*
X201862914Y-195157200D01*
X202005771Y-194942914D01*
X202077200Y-194871485D01*
X203291485Y-195085771D02*
X203005771Y-195085771D01*
X202862914Y-195157200D01*
X202791485Y-195228628D01*
X202648628Y-195442914D01*
X202577200Y-195728628D01*
X202577200Y-196300057D01*
X202648628Y-196442914D01*
X202720057Y-196514342D01*
X202862914Y-196585771D01*
X203148628Y-196585771D01*
X203291485Y-196514342D01*
X203362914Y-196442914D01*
X203434342Y-196300057D01*
X203434342Y-195942914D01*
X203362914Y-195800057D01*
X203291485Y-195728628D01*
X203148628Y-195657200D01*
X202862914Y-195657200D01*
X202720057Y-195728628D01*
X202648628Y-195800057D01*
X202577200Y-195942914D01*
X204077200Y-196442914D02*
X204148628Y-196514342D01*
X204077200Y-196585771D01*
X204005771Y-196514342D01*
X204077200Y-196442914D01*
X204077200Y-196585771D01*
X205077200Y-195085771D02*
X205220057Y-195085771D01*
X205362914Y-195157200D01*
X205434342Y-195228628D01*
X205505771Y-195371485D01*
X205577200Y-195657200D01*
X205577200Y-196014342D01*
X205505771Y-196300057D01*
X205434342Y-196442914D01*
X205362914Y-196514342D01*
X205220057Y-196585771D01*
X205077200Y-196585771D01*
X204934342Y-196514342D01*
X204862914Y-196442914D01*
X204791485Y-196300057D01*
X204720057Y-196014342D01*
X204720057Y-195657200D01*
X204791485Y-195371485D01*
X204862914Y-195228628D01*
X204934342Y-195157200D01*
X205077200Y-195085771D01*
X206220057Y-196442914D02*
X206291485Y-196514342D01*
X206220057Y-196585771D01*
X206148628Y-196514342D01*
X206220057Y-196442914D01*
X206220057Y-196585771D01*
X207005771Y-196585771D02*
X207291485Y-196585771D01*
X207434342Y-196514342D01*
X207505771Y-196442914D01*
X207648628Y-196228628D01*
X207720057Y-195942914D01*
X207720057Y-195371485D01*
X207648628Y-195228628D01*
X207577200Y-195157200D01*
X207434342Y-195085771D01*
X207148628Y-195085771D01*
X207005771Y-195157200D01*
X206934342Y-195228628D01*
X206862914Y-195371485D01*
X206862914Y-195728628D01*
X206934342Y-195871485D01*
X207005771Y-195942914D01*
X207148628Y-196014342D01*
X207434342Y-196014342D01*
X207577200Y-195942914D01*
X207648628Y-195871485D01*
X207720057Y-195728628D01*
X208220057Y-197157200D02*
X208291485Y-197085771D01*
X208434342Y-196871485D01*
X208505771Y-196728628D01*
X208577200Y-196514342D01*
X208648628Y-196157200D01*
X208648628Y-195871485D01*
X208577200Y-195514342D01*
X208505771Y-195300057D01*
X208434342Y-195157200D01*
X208291485Y-194942914D01*
X208220057Y-194871485D01*
D10*
D11*
X177002200Y-191507200D02*
X285002200Y-191507200D01*
D10*
D12*
X264411485Y-193785771D02*
X263911485Y-193071485D01*
X263554342Y-193785771D02*
X263554342Y-192285771D01*
X264125771Y-192285771D01*
X264268628Y-192357200D01*
X264340057Y-192428628D01*
X264411485Y-192571485D01*
X264411485Y-192785771D01*
X264340057Y-192928628D01*
X264268628Y-193000057D01*
X264125771Y-193071485D01*
X263554342Y-193071485D01*
X265625771Y-193714342D02*
X265482914Y-193785771D01*
X265197200Y-193785771D01*
X265054342Y-193714342D01*
X264982914Y-193571485D01*
X264982914Y-193000057D01*
X265054342Y-192857200D01*
X265197200Y-192785771D01*
X265482914Y-192785771D01*
X265625771Y-192857200D01*
X265697200Y-193000057D01*
X265697200Y-193142914D01*
X264982914Y-193285771D01*
X266197200Y-192785771D02*
X266554342Y-193785771D01*
X266911485Y-192785771D01*
X267482914Y-193642914D02*
X267554342Y-193714342D01*
X267482914Y-193785771D01*
X267411485Y-193714342D01*
X267482914Y-193642914D01*
X267482914Y-193785771D01*
X267482914Y-192857200D02*
X267554342Y-192928628D01*
X267482914Y-193000057D01*
X267411485Y-192928628D01*
X267482914Y-192857200D01*
X267482914Y-193000057D01*
X270054342Y-192285771D02*
X269340057Y-192285771D01*
X269268628Y-193000057D01*
X269340057Y-192928628D01*
X269482914Y-192857200D01*
X269840057Y-192857200D01*
X269982914Y-192928628D01*
X270054342Y-193000057D01*
X270125771Y-193142914D01*
X270125771Y-193500057D01*
X270054342Y-193642914D01*
X269982914Y-193714342D01*
X269840057Y-193785771D01*
X269482914Y-193785771D01*
X269340057Y-193714342D01*
X269268628Y-193642914D01*
X270768628Y-193642914D02*
X270840057Y-193714342D01*
X270768628Y-193785771D01*
X270697200Y-193714342D01*
X270768628Y-193642914D01*
X270768628Y-193785771D01*
X271340057Y-192285771D02*
X272268628Y-192285771D01*
X271768628Y-192857200D01*
X271982914Y-192857200D01*
X272125771Y-192928628D01*
X272197200Y-193000057D01*
X272268628Y-193142914D01*
X272268628Y-193500057D01*
X272197200Y-193642914D01*
X272125771Y-193714342D01*
X271982914Y-193785771D01*
X271554342Y-193785771D01*
X271411485Y-193714342D01*
X271340057Y-193642914D01*
D10*
D11*
X178362914Y-193714342D02*
X178577200Y-193785771D01*
X178934342Y-193785771D01*
X179077200Y-193714342D01*
X179148628Y-193642914D01*
X179220057Y-193500057D01*
X179220057Y-193357200D01*
X179148628Y-193214342D01*
X179077200Y-193142914D01*
X178934342Y-193071485D01*
X178648628Y-193000057D01*
X178505771Y-192928628D01*
X178434342Y-192857200D01*
X178362914Y-192714342D01*
X178362914Y-192571485D01*
X178434342Y-192428628D01*
X178505771Y-192357200D01*
X178648628Y-192285771D01*
X179005771Y-192285771D01*
X179220057Y-192357200D01*
X179862914Y-193785771D02*
X179862914Y-192785771D01*
X179862914Y-192285771D02*
X179791485Y-192357200D01*
X179862914Y-192428628D01*
X179934342Y-192357200D01*
X179862914Y-192285771D01*
X179862914Y-192428628D01*
X180434342Y-192785771D02*
X181220057Y-192785771D01*
X180434342Y-193785771D01*
X181220057Y-193785771D01*
X182362914Y-193714342D02*
X182220057Y-193785771D01*
X181934342Y-193785771D01*
X181791485Y-193714342D01*
X181720057Y-193571485D01*
X181720057Y-193000057D01*
X181791485Y-192857200D01*
X181934342Y-192785771D01*
X182220057Y-192785771D01*
X182362914Y-192857200D01*
X182434342Y-193000057D01*
X182434342Y-193142914D01*
X181720057Y-193285771D01*
X183077200Y-193642914D02*
X183148628Y-193714342D01*
X183077200Y-193785771D01*
X183005771Y-193714342D01*
X183077200Y-193642914D01*
X183077200Y-193785771D01*
X183077200Y-192857200D02*
X183148628Y-192928628D01*
X183077200Y-193000057D01*
X183005771Y-192928628D01*
X183077200Y-192857200D01*
X183077200Y-193000057D01*
X184862914Y-193357200D02*
X185577200Y-193357200D01*
X184720057Y-193785771D02*
X185220057Y-192285771D01*
X185720057Y-193785771D01*
X186862914Y-192785771D02*
X186862914Y-193785771D01*
X186505771Y-192214342D02*
X186148628Y-193285771D01*
X187077200Y-193285771D01*
D10*
D11*
X263434342Y-196585771D02*
X263434342Y-195085771D01*
X264791485Y-196585771D02*
X264791485Y-195085771D01*
X264791485Y-196514342D02*
X264648628Y-196585771D01*
X264362914Y-196585771D01*
X264220057Y-196514342D01*
X264148628Y-196442914D01*
X264077200Y-196300057D01*
X264077200Y-195871485D01*
X264148628Y-195728628D01*
X264220057Y-195657200D01*
X264362914Y-195585771D01*
X264648628Y-195585771D01*
X264791485Y-195657200D01*
X265505771Y-196442914D02*
X265577200Y-196514342D01*
X265505771Y-196585771D01*
X265434342Y-196514342D01*
X265505771Y-196442914D01*
X265505771Y-196585771D01*
X265505771Y-195657200D02*
X265577200Y-195728628D01*
X265505771Y-195800057D01*
X265434342Y-195728628D01*
X265505771Y-195657200D01*
X265505771Y-195800057D01*
X268148628Y-196585771D02*
X267291485Y-196585771D01*
X267720057Y-196585771D02*
X267720057Y-195085771D01*
X267577200Y-195300057D01*
X267434342Y-195442914D01*
X267291485Y-195514342D01*
X269862914Y-195014342D02*
X268577200Y-196942914D01*
X271148628Y-196585771D02*
X270291485Y-196585771D01*
X270720057Y-196585771D02*
X270720057Y-195085771D01*
X270577200Y-195300057D01*
X270434342Y-195442914D01*
X270291485Y-195514342D01*
D10*
D11*
X177002200Y-187507200D02*
X285002200Y-187507200D01*
D10*
D13*
X178714580Y-188211961D02*
X179857438Y-188211961D01*
X179036009Y-190211961D02*
X179286009Y-188211961D01*
X180274104Y-190211961D02*
X180440771Y-188878628D01*
X180524104Y-188211961D02*
X180416961Y-188307200D01*
X180500295Y-188402438D01*
X180607438Y-188307200D01*
X180524104Y-188211961D01*
X180500295Y-188402438D01*
X181107438Y-188878628D02*
X181869342Y-188878628D01*
X181476485Y-188211961D02*
X181262200Y-189926247D01*
X181333628Y-190116723D01*
X181512200Y-190211961D01*
X181702676Y-190211961D01*
X182655057Y-190211961D02*
X182476485Y-190116723D01*
X182405057Y-189926247D01*
X182619342Y-188211961D01*
X184190771Y-190116723D02*
X183988390Y-190211961D01*
X183607438Y-190211961D01*
X183428866Y-190116723D01*
X183357438Y-189926247D01*
X183452676Y-189164342D01*
X183571723Y-188973866D01*
X183774104Y-188878628D01*
X184155057Y-188878628D01*
X184333628Y-188973866D01*
X184405057Y-189164342D01*
X184381247Y-189354819D01*
X183405057Y-189545295D01*
X185155057Y-190021485D02*
X185238390Y-190116723D01*
X185131247Y-190211961D01*
X185047914Y-190116723D01*
X185155057Y-190021485D01*
X185131247Y-190211961D01*
X185286009Y-188973866D02*
X185369342Y-189069104D01*
X185262200Y-189164342D01*
X185178866Y-189069104D01*
X185286009Y-188973866D01*
X185262200Y-189164342D01*
D10*
D11*
X178934342Y-185600057D02*
X178434342Y-185600057D01*
X178434342Y-186385771D02*
X178434342Y-184885771D01*
X179148628Y-184885771D01*
X179720057Y-186385771D02*
X179720057Y-185385771D01*
X179720057Y-184885771D02*
X179648628Y-184957200D01*
X179720057Y-185028628D01*
X179791485Y-184957200D01*
X179720057Y-184885771D01*
X179720057Y-185028628D01*
X180648628Y-186385771D02*
X180505771Y-186314342D01*
X180434342Y-186171485D01*
X180434342Y-184885771D01*
X181791485Y-186314342D02*
X181648628Y-186385771D01*
X181362914Y-186385771D01*
X181220057Y-186314342D01*
X181148628Y-186171485D01*
X181148628Y-185600057D01*
X181220057Y-185457200D01*
X181362914Y-185385771D01*
X181648628Y-185385771D01*
X181791485Y-185457200D01*
X181862914Y-185600057D01*
X181862914Y-185742914D01*
X181148628Y-185885771D01*
X182505771Y-186242914D02*
X182577200Y-186314342D01*
X182505771Y-186385771D01*
X182434342Y-186314342D01*
X182505771Y-186242914D01*
X182505771Y-186385771D01*
X182505771Y-185457200D02*
X182577200Y-185528628D01*
X182505771Y-185600057D01*
X182434342Y-185528628D01*
X182505771Y-185457200D01*
X182505771Y-185600057D01*
X185077200Y-186385771D02*
X184362914Y-186385771D01*
X184362914Y-184885771D01*
X185577200Y-186385771D02*
X185577200Y-184885771D01*
X185934342Y-184885771D01*
X186148628Y-184957200D01*
X186291485Y-185100057D01*
X186362914Y-185242914D01*
X186434342Y-185528628D01*
X186434342Y-185742914D01*
X186362914Y-186028628D01*
X186291485Y-186171485D01*
X186148628Y-186314342D01*
X185934342Y-186385771D01*
X185577200Y-186385771D01*
X187005771Y-185957200D02*
X187720057Y-185957200D01*
X186862914Y-186385771D02*
X187362914Y-184885771D01*
X187862914Y-186385771D01*
X188362914Y-186385771D02*
X188362914Y-184885771D01*
X188720057Y-184885771D01*
X188934342Y-184957200D01*
X189077200Y-185100057D01*
X189148628Y-185242914D01*
X189220057Y-185528628D01*
X189220057Y-185742914D01*
X189148628Y-186028628D01*
X189077200Y-186171485D01*
X188934342Y-186314342D01*
X188720057Y-186385771D01*
X188362914Y-186385771D01*
X190934342Y-185957200D02*
X191648628Y-185957200D01*
X190791485Y-186385771D02*
X191291485Y-184885771D01*
X191791485Y-186385771D01*
X192077200Y-184885771D02*
X192934342Y-184885771D01*
X192505771Y-186385771D02*
X192505771Y-184885771D01*
X193720057Y-184885771D02*
X194005771Y-184885771D01*
X194148628Y-184957200D01*
X194291485Y-185100057D01*
X194362914Y-185385771D01*
X194362914Y-185885771D01*
X194291485Y-186171485D01*
X194148628Y-186314342D01*
X194005771Y-186385771D01*
X193720057Y-186385771D01*
X193577200Y-186314342D01*
X193434342Y-186171485D01*
X193362914Y-185885771D01*
X193362914Y-185385771D01*
X193434342Y-185100057D01*
X193577200Y-184957200D01*
X193720057Y-184885771D01*
X195005771Y-186385771D02*
X195005771Y-184885771D01*
X195505771Y-185957200D01*
X196005771Y-184885771D01*
X196005771Y-186385771D01*
X197862914Y-186385771D02*
X197862914Y-184885771D01*
X198434342Y-184885771D01*
X198577200Y-184957200D01*
X198648628Y-185028628D01*
X198720057Y-185171485D01*
X198720057Y-185385771D01*
X198648628Y-185528628D01*
X198577200Y-185600057D01*
X198434342Y-185671485D01*
X197862914Y-185671485D01*
X200220057Y-186385771D02*
X199720057Y-185671485D01*
X199362914Y-186385771D02*
X199362914Y-184885771D01*
X199934342Y-184885771D01*
X200077200Y-184957200D01*
X200148628Y-185028628D01*
X200220057Y-185171485D01*
X200220057Y-185385771D01*
X200148628Y-185528628D01*
X200077200Y-185600057D01*
X199934342Y-185671485D01*
X199362914Y-185671485D01*
X201148628Y-184885771D02*
X201434342Y-184885771D01*
X201577200Y-184957200D01*
X201720057Y-185100057D01*
X201791485Y-185385771D01*
X201791485Y-185885771D01*
X201720057Y-186171485D01*
X201577200Y-186314342D01*
X201434342Y-186385771D01*
X201148628Y-186385771D01*
X201005771Y-186314342D01*
X200862914Y-186171485D01*
X200791485Y-185885771D01*
X200791485Y-185385771D01*
X200862914Y-185100057D01*
X201005771Y-184957200D01*
X201148628Y-184885771D01*
X202434342Y-186242914D02*
X202505771Y-186314342D01*
X202434342Y-186385771D01*
X202362914Y-186314342D01*
X202434342Y-186242914D01*
X202434342Y-186385771D01*
X203148628Y-186385771D02*
X203148628Y-184885771D01*
X203291485Y-185814342D02*
X203720057Y-186385771D01*
X203720057Y-185385771D02*
X203148628Y-185957200D01*
X204362914Y-186385771D02*
X204362914Y-185385771D01*
X204362914Y-184885771D02*
X204291485Y-184957200D01*
X204362914Y-185028628D01*
X204434342Y-184957200D01*
X204362914Y-184885771D01*
X204362914Y-185028628D01*
X205720057Y-186314342D02*
X205577200Y-186385771D01*
X205291485Y-186385771D01*
X205148628Y-186314342D01*
X205077200Y-186242914D01*
X205005771Y-186100057D01*
X205005771Y-185671485D01*
X205077200Y-185528628D01*
X205148628Y-185457200D01*
X205291485Y-185385771D01*
X205577200Y-185385771D01*
X205720057Y-185457200D01*
X207005771Y-186385771D02*
X207005771Y-185600057D01*
X206934342Y-185457200D01*
X206791485Y-185385771D01*
X206505771Y-185385771D01*
X206362914Y-185457200D01*
X207005771Y-186314342D02*
X206862914Y-186385771D01*
X206505771Y-186385771D01*
X206362914Y-186314342D01*
X206291485Y-186171485D01*
X206291485Y-186028628D01*
X206362914Y-185885771D01*
X206505771Y-185814342D01*
X206862914Y-185814342D01*
X207005771Y-185742914D01*
X208362914Y-186385771D02*
X208362914Y-184885771D01*
X208362914Y-186314342D02*
X208220057Y-186385771D01*
X207934342Y-186385771D01*
X207791485Y-186314342D01*
X207720057Y-186242914D01*
X207648628Y-186100057D01*
X207648628Y-185671485D01*
X207720057Y-185528628D01*
X207791485Y-185457200D01*
X207934342Y-185385771D01*
X208220057Y-185385771D01*
X208362914Y-185457200D01*
X208720057Y-186528628D02*
X209862914Y-186528628D01*
X210220057Y-185385771D02*
X210220057Y-186885771D01*
X210220057Y-185457200D02*
X210362914Y-185385771D01*
X210648628Y-185385771D01*
X210791485Y-185457200D01*
X210862914Y-185528628D01*
X210934342Y-185671485D01*
X210934342Y-186100057D01*
X210862914Y-186242914D01*
X210791485Y-186314342D01*
X210648628Y-186385771D01*
X210362914Y-186385771D01*
X210220057Y-186314342D01*
X212220057Y-186314342D02*
X212077200Y-186385771D01*
X211791485Y-186385771D01*
X211648628Y-186314342D01*
X211577200Y-186242914D01*
X211505771Y-186100057D01*
X211505771Y-185671485D01*
X211577200Y-185528628D01*
X211648628Y-185457200D01*
X211791485Y-185385771D01*
X212077200Y-185385771D01*
X212220057Y-185457200D01*
X212862914Y-186385771D02*
X212862914Y-184885771D01*
X212862914Y-185457200D02*
X213005771Y-185385771D01*
X213291485Y-185385771D01*
X213434342Y-185457200D01*
X213505771Y-185528628D01*
X213577200Y-185671485D01*
X213577200Y-186100057D01*
X213505771Y-186242914D01*
X213434342Y-186314342D01*
X213291485Y-186385771D01*
X213005771Y-186385771D01*
X212862914Y-186314342D01*
D10*
D11*
X177002200Y-181507200D02*
X285002200Y-181507200D01*
D10*
D11*
X178362914Y-183614342D02*
X178577200Y-183685771D01*
X178934342Y-183685771D01*
X179077200Y-183614342D01*
X179148628Y-183542914D01*
X179220057Y-183400057D01*
X179220057Y-183257200D01*
X179148628Y-183114342D01*
X179077200Y-183042914D01*
X178934342Y-182971485D01*
X178648628Y-182900057D01*
X178505771Y-182828628D01*
X178434342Y-182757200D01*
X178362914Y-182614342D01*
X178362914Y-182471485D01*
X178434342Y-182328628D01*
X178505771Y-182257200D01*
X178648628Y-182185771D01*
X179005771Y-182185771D01*
X179220057Y-182257200D01*
X179862914Y-183685771D02*
X179862914Y-182185771D01*
X180505771Y-183685771D02*
X180505771Y-182900057D01*
X180434342Y-182757200D01*
X180291485Y-182685771D01*
X180077200Y-182685771D01*
X179934342Y-182757200D01*
X179862914Y-182828628D01*
X181791485Y-183614342D02*
X181648628Y-183685771D01*
X181362914Y-183685771D01*
X181220057Y-183614342D01*
X181148628Y-183471485D01*
X181148628Y-182900057D01*
X181220057Y-182757200D01*
X181362914Y-182685771D01*
X181648628Y-182685771D01*
X181791485Y-182757200D01*
X181862914Y-182900057D01*
X181862914Y-183042914D01*
X181148628Y-183185771D01*
X183077200Y-183614342D02*
X182934342Y-183685771D01*
X182648628Y-183685771D01*
X182505771Y-183614342D01*
X182434342Y-183471485D01*
X182434342Y-182900057D01*
X182505771Y-182757200D01*
X182648628Y-182685771D01*
X182934342Y-182685771D01*
X183077200Y-182757200D01*
X183148628Y-182900057D01*
X183148628Y-183042914D01*
X182434342Y-183185771D01*
X183577200Y-182685771D02*
X184148628Y-182685771D01*
X183791485Y-182185771D02*
X183791485Y-183471485D01*
X183862914Y-183614342D01*
X184005771Y-183685771D01*
X184148628Y-183685771D01*
X184648628Y-183542914D02*
X184720057Y-183614342D01*
X184648628Y-183685771D01*
X184577200Y-183614342D01*
X184648628Y-183542914D01*
X184648628Y-183685771D01*
X184648628Y-182757200D02*
X184720057Y-182828628D01*
X184648628Y-182900057D01*
X184577200Y-182828628D01*
X184648628Y-182757200D01*
X184648628Y-182900057D01*
D10*
D12*
X178482914Y-180257200D02*
X179197200Y-180257200D01*
X178340057Y-180685771D02*
X178840057Y-179185771D01*
X179340057Y-180685771D01*
X180411485Y-180614342D02*
X180268628Y-180685771D01*
X179982914Y-180685771D01*
X179840057Y-180614342D01*
X179768628Y-180471485D01*
X179768628Y-179900057D01*
X179840057Y-179757200D01*
X179982914Y-179685771D01*
X180268628Y-179685771D01*
X180411485Y-179757200D01*
X180482914Y-179900057D01*
X180482914Y-180042914D01*
X179768628Y-180185771D01*
X181340057Y-180685771D02*
X181197200Y-180614342D01*
X181125771Y-180542914D01*
X181054342Y-180400057D01*
X181054342Y-179971485D01*
X181125771Y-179828628D01*
X181197200Y-179757200D01*
X181340057Y-179685771D01*
X181554342Y-179685771D01*
X181697200Y-179757200D01*
X181768628Y-179828628D01*
X181840057Y-179971485D01*
X181840057Y-180400057D01*
X181768628Y-180542914D01*
X181697200Y-180614342D01*
X181554342Y-180685771D01*
X181340057Y-180685771D01*
X182482914Y-179685771D02*
X182482914Y-180685771D01*
X182482914Y-179828628D02*
X182554342Y-179757200D01*
X182697200Y-179685771D01*
X182911485Y-179685771D01*
X183054342Y-179757200D01*
X183125771Y-179900057D01*
X183125771Y-180685771D01*
X184554342Y-180685771D02*
X183840057Y-180685771D01*
X183840057Y-179185771D01*
X185697200Y-180685771D02*
X185697200Y-179900057D01*
X185625771Y-179757200D01*
X185482914Y-179685771D01*
X185197200Y-179685771D01*
X185054342Y-179757200D01*
X185697200Y-180614342D02*
X185554342Y-180685771D01*
X185197200Y-180685771D01*
X185054342Y-180614342D01*
X184982914Y-180471485D01*
X184982914Y-180328628D01*
X185054342Y-180185771D01*
X185197200Y-180114342D01*
X185554342Y-180114342D01*
X185697200Y-180042914D01*
X186411485Y-180685771D02*
X186411485Y-179185771D01*
X186411485Y-179757200D02*
X186554342Y-179685771D01*
X186840057Y-179685771D01*
X186982914Y-179757200D01*
X187054342Y-179828628D01*
X187125771Y-179971485D01*
X187125771Y-180400057D01*
X187054342Y-180542914D01*
X186982914Y-180614342D01*
X186840057Y-180685771D01*
X186554342Y-180685771D01*
X186411485Y-180614342D01*
X187697200Y-180614342D02*
X187840057Y-180685771D01*
X188125771Y-180685771D01*
X188268628Y-180614342D01*
X188340057Y-180471485D01*
X188340057Y-180400057D01*
X188268628Y-180257200D01*
X188125771Y-180185771D01*
X187911485Y-180185771D01*
X187768628Y-180114342D01*
X187697200Y-179971485D01*
X187697200Y-179900057D01*
X187768628Y-179757200D01*
X187911485Y-179685771D01*
X188125771Y-179685771D01*
X188268628Y-179757200D01*
D10*
D11*
D10*
D11*
D10*
D11*
D10*
D11*
D10*
D11*
X197002200Y-191507200D02*
X197002200Y-194507200D01*
D10*
D11*
X261002200Y-191507200D02*
X261002200Y-198007200D01*
D14*
G04 #@! TO.C,G\u002A\u002A\u002A*
X160787671Y-74711851D02*
X160776866Y-79300755D01*
X133369724Y-74646254D02*
X133358919Y-79235158D01*
X169409371Y-83672874D02*
X169413426Y-111599452D01*
X164086708Y-82643099D02*
X168448275Y-82646023D01*
X115706575Y-83505000D02*
X115726417Y-111467344D01*
X116687513Y-112494195D02*
X119756575Y-112495000D01*
X168386575Y-112560548D02*
X155153427Y-112589452D01*
X116733426Y-82543904D02*
X130016575Y-82545000D01*
X123045479Y-121048149D02*
X123066417Y-115837344D01*
X151803426Y-121083904D02*
X151811083Y-115899294D01*
X124006575Y-122075000D02*
X150776575Y-122045000D01*
X134406575Y-73695000D02*
X159826575Y-73685000D01*
X116733426Y-82543903D02*
G75*
G03*
X115706575Y-83505000I-16851J-1011097D01*
G01*
X123045478Y-121048149D02*
G75*
G03*
X124006575Y-122075000I1011097J-16851D01*
G01*
X123066417Y-115837344D02*
G75*
G03*
X119756575Y-112495000I-3309842J32344D01*
G01*
X155153427Y-112589446D02*
G75*
G03*
X151811083Y-115899294I-32342J-3309844D01*
G01*
X168386575Y-112560548D02*
G75*
G03*
X169413426Y-111599452I16850J1011098D01*
G01*
X130016575Y-82545000D02*
G75*
G03*
X133358919Y-79235158I32344J3309842D01*
G01*
X160787672Y-74711851D02*
G75*
G03*
X159826575Y-73685000I-1011097J16851D01*
G01*
X150776575Y-122044998D02*
G75*
G03*
X151803426Y-121083904I16850J1011098D01*
G01*
X160776864Y-79300755D02*
G75*
G03*
X164086708Y-82643099I3309841J-32345D01*
G01*
X134396575Y-73694999D02*
G75*
G03*
X133369724Y-74656096I-16851J-1011097D01*
G01*
X169409348Y-83672874D02*
G75*
G03*
X168448275Y-82646023I-1011073J16874D01*
G01*
X115726416Y-111467344D02*
G75*
G03*
X116687513Y-112494195I1011097J-16851D01*
G01*
G04 #@! TD*
D15*
G04 #@! TO.C,EC20*
X132490000Y-103765000D03*
X132490000Y-105315000D03*
G04 #@! TD*
D16*
G04 #@! TO.C,MR1*
X145977500Y-119770000D03*
X147802500Y-119770000D03*
G04 #@! TD*
D17*
G04 #@! TO.C,EC18*
X142960000Y-107490000D03*
X142960000Y-105590000D03*
G04 #@! TD*
D15*
G04 #@! TO.C,AUC1*
X146860000Y-105625000D03*
X146860000Y-107175000D03*
G04 #@! TD*
D18*
G04 #@! TO.C,AR1*
X164100000Y-88360000D03*
X162100000Y-88360000D03*
G04 #@! TD*
D19*
G04 #@! TO.C,LR1*
X141215000Y-86810000D03*
X142865000Y-86810000D03*
G04 #@! TD*
D20*
G04 #@! TO.C,ECY3*
X133020000Y-95412500D03*
X135220000Y-95412500D03*
X135220000Y-93612500D03*
X133020000Y-93612500D03*
G04 #@! TD*
D21*
G04 #@! TO.C,EC60*
X133255000Y-91730000D03*
X131705000Y-91730000D03*
G04 #@! TD*
G04 #@! TO.C,EC61*
X133355000Y-97350000D03*
X131805000Y-97350000D03*
G04 #@! TD*
D22*
G04 #@! TO.C,J1*
X123305000Y-92325000D03*
D23*
X124575000Y-92325000D03*
X123305000Y-93595000D03*
X124575000Y-93595000D03*
X123305000Y-94865000D03*
X124575000Y-94865000D03*
X123305000Y-96135000D03*
X124575000Y-96135000D03*
X123305000Y-97405000D03*
X124575000Y-97405000D03*
X123305000Y-98675000D03*
X124575000Y-98675000D03*
G04 #@! TD*
D24*
G04 #@! TO.C,ESP32S3*
X136180894Y-100062202D03*
X136463737Y-100345045D03*
X136746579Y-100627887D03*
X137029422Y-100910730D03*
X137312265Y-101193573D03*
X137595107Y-101476415D03*
X137877950Y-101759258D03*
X138160793Y-102042101D03*
X138443636Y-102324944D03*
X138726478Y-102607786D03*
X139009321Y-102890629D03*
X139292164Y-103173472D03*
X139575006Y-103456314D03*
X139857849Y-103739157D03*
D25*
X141042253Y-103739157D03*
X141325096Y-103456314D03*
X141607938Y-103173472D03*
X141890781Y-102890629D03*
X142173624Y-102607786D03*
X142456466Y-102324944D03*
X142739309Y-102042101D03*
X143022152Y-101759258D03*
X143304995Y-101476415D03*
X143587837Y-101193573D03*
X143870680Y-100910730D03*
X144153523Y-100627887D03*
X144436365Y-100345045D03*
X144719208Y-100062202D03*
D24*
X144719208Y-98877798D03*
X144436365Y-98594955D03*
X144153523Y-98312113D03*
X143870680Y-98029270D03*
X143587837Y-97746427D03*
X143304995Y-97463585D03*
X143022152Y-97180742D03*
X142739309Y-96897899D03*
X142456466Y-96615056D03*
X142173624Y-96332214D03*
X141890781Y-96049371D03*
X141607938Y-95766528D03*
X141325096Y-95483686D03*
X141042253Y-95200843D03*
D25*
X139857849Y-95200843D03*
X139575006Y-95483686D03*
X139292164Y-95766528D03*
X139009321Y-96049371D03*
X138726478Y-96332214D03*
X138443636Y-96615056D03*
X138160793Y-96897899D03*
X137877950Y-97180742D03*
X137595107Y-97463585D03*
X137312265Y-97746427D03*
X137029422Y-98029270D03*
X136746579Y-98312113D03*
X136463737Y-98594955D03*
X136180894Y-98877798D03*
D26*
X140450051Y-99470000D03*
G04 #@! TD*
D27*
G04 #@! TO.C,HLD1*
X157790000Y-98615000D03*
X157790000Y-101590000D03*
G04 #@! TD*
D28*
G04 #@! TO.C,ER1*
X138220000Y-107567500D03*
X138220000Y-105917500D03*
G04 #@! TD*
D29*
G04 #@! TO.C,ER3*
X124575000Y-90310000D03*
X122925000Y-90310000D03*
G04 #@! TD*
D30*
G04 #@! TO.C,EC38*
X126415000Y-105320000D03*
X127965000Y-105320000D03*
G04 #@! TD*
D31*
G04 #@! TO.C,J2*
X163060000Y-93825000D03*
X163860000Y-93825000D03*
X164665000Y-93830000D03*
X165455000Y-93820000D03*
X166235000Y-93830000D03*
D32*
X168230000Y-93490000D03*
X168250000Y-96970000D03*
X161030000Y-96970000D03*
X161040000Y-93500000D03*
G04 #@! TD*
D33*
G04 #@! TO.C,SHC1*
X160220000Y-107585000D03*
X160220000Y-106035000D03*
G04 #@! TD*
D34*
G04 #@! TO.C,SH1*
X157010000Y-108635000D03*
X157510000Y-108635000D03*
X158010000Y-108635000D03*
X158510000Y-108635000D03*
X158510000Y-106285000D03*
X158010000Y-106285000D03*
X157510000Y-106285000D03*
X157010000Y-106285000D03*
D35*
X157760000Y-107460000D03*
G04 #@! TD*
D30*
G04 #@! TO.C,EC26*
X144875000Y-103770000D03*
X146425000Y-103770000D03*
G04 #@! TD*
D36*
G04 #@! TO.C,MR2*
X150230000Y-118927500D03*
X150230000Y-120752500D03*
G04 #@! TD*
D37*
G04 #@! TO.C,AC1*
X154357500Y-87190000D03*
X152282500Y-87190000D03*
G04 #@! TD*
D15*
G04 #@! TO.C,MCPC2*
X130640000Y-85455000D03*
X130640000Y-87005000D03*
G04 #@! TD*
D17*
G04 #@! TO.C,EC40*
X136280000Y-105520000D03*
X136280000Y-103620000D03*
G04 #@! TD*
D38*
G04 #@! TO.C,TP2*
X150660000Y-87530000D03*
G04 #@! TD*
D33*
G04 #@! TO.C,EC17*
X144870000Y-107295000D03*
X144870000Y-105745000D03*
G04 #@! TD*
D39*
G04 #@! TO.C,TPC1*
X132340000Y-110960000D03*
X130440000Y-110960000D03*
G04 #@! TD*
D40*
G04 #@! TO.C,I2C1*
X151850000Y-77720000D03*
D41*
X154350000Y-77720000D03*
X156850000Y-77720000D03*
G04 #@! TD*
D42*
G04 #@! TO.C,AL1*
X157020000Y-87400000D03*
X159820000Y-87400000D03*
G04 #@! TD*
D19*
G04 #@! TO.C,ICR1*
X133175000Y-86890000D03*
X134825000Y-86890000D03*
G04 #@! TD*
D30*
G04 #@! TO.C,EC16*
X138975000Y-93570000D03*
X140525000Y-93570000D03*
G04 #@! TD*
G04 #@! TO.C,IMUC1*
X131685000Y-89870000D03*
X133235000Y-89870000D03*
G04 #@! TD*
D43*
G04 #@! TO.C,U1*
X128730000Y-86722500D03*
X126830000Y-86722500D03*
X127780000Y-88597500D03*
G04 #@! TD*
D44*
G04 #@! TO.C,Q5*
X122970000Y-88217500D03*
X124870000Y-88217500D03*
X123920000Y-86342500D03*
G04 #@! TD*
D33*
G04 #@! TO.C,EC51*
X143720000Y-91475000D03*
X143720000Y-89925000D03*
G04 #@! TD*
D30*
G04 #@! TO.C,EC15*
X131925000Y-101070000D03*
X133475000Y-101070000D03*
G04 #@! TD*
D38*
G04 #@! TO.C,TP3*
X124450000Y-102705000D03*
G04 #@! TD*
D19*
G04 #@! TO.C,IDR1*
X137455000Y-86900000D03*
X139105000Y-86900000D03*
G04 #@! TD*
G04 #@! TO.C,QR1*
X122625000Y-84360000D03*
X124275000Y-84360000D03*
G04 #@! TD*
D45*
G04 #@! TO.C,L2*
X134480000Y-105672500D03*
X134480000Y-103547500D03*
G04 #@! TD*
D37*
G04 #@! TO.C,AC2*
X158987500Y-95470000D03*
X156912500Y-95470000D03*
G04 #@! TD*
D21*
G04 #@! TO.C,EC19*
X134205000Y-107260000D03*
X132655000Y-107260000D03*
G04 #@! TD*
D46*
G04 #@! TO.C,*
X142930000Y-108670000D03*
G04 #@! TD*
D47*
G04 #@! TO.C,EC14*
X131880000Y-99220000D03*
X133780000Y-99220000D03*
G04 #@! TD*
D48*
G04 #@! TO.C,REF\u002A\u002A*
X155530000Y-98650000D03*
G04 #@! TD*
D43*
G04 #@! TO.C,PWDSWT1*
X148170000Y-115820000D03*
X146270000Y-115820000D03*
X147220000Y-117695000D03*
G04 #@! TD*
D49*
G04 #@! TO.C,AU1*
X158440000Y-90290000D03*
X157500000Y-90295000D03*
D50*
X157475000Y-92010000D03*
D49*
X156515000Y-90295000D03*
D51*
X156545000Y-93685000D03*
X157460000Y-93680000D03*
X158420000Y-93680000D03*
G04 #@! TD*
D40*
G04 #@! TO.C,I2C2*
X137810000Y-77890000D03*
D41*
X140310000Y-77890000D03*
X142810000Y-77890000D03*
X145310000Y-77890000D03*
G04 #@! TD*
D29*
G04 #@! TO.C,EXP_R3*
X128255000Y-97680000D03*
X126605000Y-97680000D03*
G04 #@! TD*
D33*
G04 #@! TO.C,EC50*
X138620000Y-91575000D03*
X138620000Y-90025000D03*
G04 #@! TD*
D29*
G04 #@! TO.C,EXP_R4*
X128145000Y-100180000D03*
X126495000Y-100180000D03*
G04 #@! TD*
D33*
G04 #@! TO.C,EC37*
X122320000Y-103735000D03*
X122320000Y-102185000D03*
G04 #@! TD*
D52*
G04 #@! TO.C,TPU1*
X140375000Y-118522000D03*
X141645000Y-118522000D03*
X142915000Y-118522000D03*
X144185000Y-118522000D03*
X144185000Y-113098000D03*
X142915000Y-113098000D03*
X141645000Y-113098000D03*
X140375000Y-113098000D03*
D53*
X142280000Y-115810000D03*
G04 #@! TD*
D21*
G04 #@! TO.C,MCPC1*
X128595000Y-84680000D03*
X127045000Y-84680000D03*
G04 #@! TD*
D54*
G04 #@! TO.C,EL4*
X122087500Y-105430000D03*
X124212500Y-105430000D03*
G04 #@! TD*
D55*
G04 #@! TO.C,AR2*
X162130000Y-90620000D03*
X164130000Y-90620000D03*
G04 #@! TD*
D56*
G04 #@! TO.C,J3*
X131420000Y-117950000D03*
D57*
X128920000Y-117950000D03*
G04 #@! TD*
D58*
G04 #@! TO.C,*
X130430000Y-105980000D03*
G04 #@! TD*
D29*
G04 #@! TO.C,EXP_R2*
X128315000Y-95870000D03*
X126665000Y-95870000D03*
G04 #@! TD*
D59*
G04 #@! TO.C,REF\u002A\u002A*
X119205000Y-107135000D03*
X119210000Y-106510000D03*
G04 #@! TD*
D29*
G04 #@! TO.C,EXP_R1*
X128335000Y-94050000D03*
X126685000Y-94050000D03*
G04 #@! TD*
D60*
G04 #@! TO.C,PWSWR1*
X148200000Y-112015000D03*
X148200000Y-113665000D03*
G04 #@! TD*
D61*
G04 #@! TO.C,*
X142890000Y-88610000D03*
G04 #@! TD*
D62*
G04 #@! TO.C,F1*
X134627500Y-113740000D03*
X131652500Y-113740000D03*
G04 #@! TD*
D63*
G04 #@! TO.C,REF\u002A\u002A*
X130430000Y-95190000D03*
G04 #@! TD*
D64*
G04 #@! TO.C,U2*
X153870000Y-107585000D03*
X153870000Y-106315000D03*
X153870000Y-105045000D03*
X153870000Y-103775000D03*
X148930000Y-103775000D03*
X148930000Y-105045000D03*
X148930000Y-106315000D03*
X148930000Y-107585000D03*
G04 #@! TD*
D65*
G04 #@! TO.C,IMU1*
X136760000Y-89655000D03*
X136260000Y-89655000D03*
X135760000Y-89655000D03*
X135260000Y-89655000D03*
D66*
X135085000Y-90330000D03*
X135085000Y-90830000D03*
X135085000Y-91330000D03*
D65*
X135260000Y-92005000D03*
X135760000Y-92005000D03*
X136260000Y-92005000D03*
X136760000Y-92005000D03*
D66*
X136935000Y-91330000D03*
X136935000Y-90830000D03*
X136935000Y-90330000D03*
G04 #@! TD*
D19*
G04 #@! TO.C,ER2*
X126695000Y-91900000D03*
X128345000Y-91900000D03*
G04 #@! TD*
D67*
G04 #@! TO.C,ECY2*
X142060000Y-92000000D03*
X142060000Y-89800000D03*
X140260000Y-89800000D03*
X140260000Y-92000000D03*
G04 #@! TD*
D68*
G04 #@! TO.C,TPR3*
X143152500Y-120700000D03*
X141327500Y-120700000D03*
G04 #@! TD*
D38*
G04 #@! TO.C,TP1*
X148300000Y-84290000D03*
G04 #@! TD*
D69*
G04 #@! TO.C,ICSP1*
X119615500Y-87670000D03*
X119615500Y-86400000D03*
X119615500Y-88940000D03*
X119615500Y-83860000D03*
X119615500Y-85130000D03*
D70*
X118460500Y-88305000D03*
X118460500Y-87035000D03*
X118460500Y-85765000D03*
X118460500Y-84495000D03*
G04 #@! TD*
M02*
