%TF.GenerationSoftware,KiCad,Pcbnew,(6.0.9)*%
%TF.CreationDate,2022-11-30T10:01:07+01:00*%
%TF.ProjectId,LDAD ATOM PRO,4c444144-2041-4544-9f4d-2050524f2e6b,5.3*%
%TF.SameCoordinates,Original*%
%TF.FileFunction,Drillmap*%
%TF.FilePolarity,Positive*%
%FSLAX45Y45*%
G04 Gerber Fmt 4.5, Leading zero omitted, Abs format (unit mm)*
G04 Created by KiCad (PCBNEW (6.0.9)) date 2022-11-30 10:01:07*
%MOMM*%
%LPD*%
G01*
G04 APERTURE LIST*
%ADD10C,0.200000*%
%ADD11C,0.040000*%
%ADD12C,0.050000*%
%ADD13C,0.065000*%
%ADD14C,0.095000*%
%ADD15C,0.100000*%
G04 APERTURE END LIST*
D10*
D11*
X11674000Y-8458000D02*
X11714000Y-8498000D01*
X11714000Y-8458000D02*
X11674000Y-8498000D01*
X11872000Y-9064450D02*
X11912000Y-9104450D01*
X11912000Y-9064450D02*
X11872000Y-9104450D01*
X11891000Y-10398000D02*
X11931000Y-10438000D01*
X11931000Y-10398000D02*
X11891000Y-10438000D01*
X11902000Y-10775000D02*
X11942000Y-10815000D01*
X11942000Y-10775000D02*
X11902000Y-10815000D01*
X12063000Y-8685000D02*
X12103000Y-8725000D01*
X12103000Y-8685000D02*
X12063000Y-8725000D01*
X12093000Y-8360000D02*
X12133000Y-8400000D01*
X12133000Y-8360000D02*
X12093000Y-8400000D01*
X12150000Y-9026000D02*
X12190000Y-9066000D01*
X12190000Y-9026000D02*
X12150000Y-9066000D01*
X12179000Y-8532000D02*
X12219000Y-8572000D01*
X12219000Y-8532000D02*
X12179000Y-8572000D01*
X12360000Y-8863000D02*
X12400000Y-8903000D01*
X12400000Y-8863000D02*
X12360000Y-8903000D01*
X12562000Y-8802000D02*
X12602000Y-8842000D01*
X12602000Y-8802000D02*
X12562000Y-8842000D01*
X12591000Y-9048000D02*
X12631000Y-9088000D01*
X12631000Y-9048000D02*
X12591000Y-9088000D01*
X12634000Y-8873000D02*
X12674000Y-8913000D01*
X12674000Y-8873000D02*
X12634000Y-8913000D01*
X12794500Y-9867500D02*
X12834500Y-9907500D01*
X12834500Y-9867500D02*
X12794500Y-9907500D01*
X12827000Y-9048000D02*
X12867000Y-9088000D01*
X12867000Y-9048000D02*
X12827000Y-9088000D01*
X12861000Y-8895000D02*
X12901000Y-8935000D01*
X12901000Y-8895000D02*
X12861000Y-8935000D01*
X12917000Y-9664000D02*
X12957000Y-9704000D01*
X12957000Y-9664000D02*
X12917000Y-9704000D01*
X12929000Y-10048000D02*
X12969000Y-10088000D01*
X12969000Y-10048000D02*
X12929000Y-10088000D01*
X13021000Y-10309000D02*
X13061000Y-10349000D01*
X13061000Y-10309000D02*
X13021000Y-10349000D01*
X13024000Y-10849000D02*
X13064000Y-10889000D01*
X13064000Y-10849000D02*
X13024000Y-10889000D01*
X13026000Y-10130000D02*
X13066000Y-10170000D01*
X13066000Y-10130000D02*
X13026000Y-10170000D01*
X13032000Y-8853000D02*
X13072000Y-8893000D01*
X13072000Y-8853000D02*
X13032000Y-8893000D01*
X13033000Y-8407000D02*
X13073000Y-8447000D01*
X13073000Y-8407000D02*
X13033000Y-8447000D01*
X13033000Y-9506000D02*
X13073000Y-9546000D01*
X13073000Y-9506000D02*
X13033000Y-9546000D01*
X13224000Y-10175000D02*
X13264000Y-10215000D01*
X13264000Y-10175000D02*
X13224000Y-10215000D01*
X13307000Y-10616000D02*
X13347000Y-10656000D01*
X13347000Y-10616000D02*
X13307000Y-10656000D01*
X13363500Y-8592500D02*
X13403500Y-8632500D01*
X13403500Y-8592500D02*
X13363500Y-8632500D01*
X13419000Y-8959000D02*
X13459000Y-8999000D01*
X13459000Y-8959000D02*
X13419000Y-8999000D01*
X13516000Y-8840000D02*
X13556000Y-8880000D01*
X13556000Y-8840000D02*
X13516000Y-8880000D01*
X13548000Y-9908000D02*
X13588000Y-9948000D01*
X13588000Y-9908000D02*
X13548000Y-9948000D01*
X13560000Y-8742000D02*
X13600000Y-8782000D01*
X13600000Y-8742000D02*
X13560000Y-8782000D01*
X13579000Y-9661000D02*
X13619000Y-9701000D01*
X13619000Y-9661000D02*
X13579000Y-9701000D01*
X13581000Y-9060000D02*
X13621000Y-9100000D01*
X13621000Y-9060000D02*
X13581000Y-9100000D01*
X13602000Y-10151000D02*
X13642000Y-10191000D01*
X13642000Y-10151000D02*
X13602000Y-10191000D01*
X13606000Y-11354000D02*
X13646000Y-11394000D01*
X13646000Y-11354000D02*
X13606000Y-11394000D01*
X13612000Y-10627000D02*
X13652000Y-10667000D01*
X13652000Y-10627000D02*
X13612000Y-10667000D01*
X13623000Y-9507000D02*
X13663000Y-9547000D01*
X13663000Y-9507000D02*
X13623000Y-9547000D01*
X13631000Y-7991000D02*
X13671000Y-8031000D01*
X13671000Y-7991000D02*
X13631000Y-8031000D01*
X13657000Y-10200000D02*
X13697000Y-10240000D01*
X13697000Y-10200000D02*
X13657000Y-10240000D01*
X13714000Y-10259000D02*
X13754000Y-10299000D01*
X13754000Y-10259000D02*
X13714000Y-10299000D01*
X13715000Y-9429000D02*
X13755000Y-9469000D01*
X13755000Y-9429000D02*
X13715000Y-9469000D01*
X13723000Y-9338000D02*
X13763000Y-9378000D01*
X13763000Y-9338000D02*
X13723000Y-9378000D01*
X13724000Y-8954000D02*
X13764000Y-8994000D01*
X13764000Y-8954000D02*
X13724000Y-8994000D01*
X13725000Y-9188000D02*
X13765000Y-9228000D01*
X13765000Y-9188000D02*
X13725000Y-9228000D01*
X13749000Y-9062000D02*
X13789000Y-9102000D01*
X13789000Y-9062000D02*
X13749000Y-9102000D01*
X13775000Y-10351000D02*
X13815000Y-10391000D01*
X13815000Y-10351000D02*
X13775000Y-10391000D01*
X13781000Y-8749000D02*
X13821000Y-8789000D01*
X13821000Y-8749000D02*
X13781000Y-8789000D01*
X13784000Y-10442000D02*
X13824000Y-10482000D01*
X13824000Y-10442000D02*
X13784000Y-10482000D01*
X13791000Y-9875000D02*
X13831000Y-9915000D01*
X13831000Y-9875000D02*
X13791000Y-9915000D01*
X13844000Y-9483000D02*
X13884000Y-9523000D01*
X13884000Y-9483000D02*
X13844000Y-9523000D01*
X13847000Y-8843000D02*
X13887000Y-8883000D01*
X13887000Y-8843000D02*
X13847000Y-8883000D01*
X13885000Y-10453000D02*
X13925000Y-10493000D01*
X13925000Y-10453000D02*
X13885000Y-10493000D01*
X13901000Y-9759000D02*
X13941000Y-9799000D01*
X13941000Y-9759000D02*
X13901000Y-9799000D01*
X13916000Y-10625000D02*
X13956000Y-10665000D01*
X13956000Y-10625000D02*
X13916000Y-10665000D01*
X13923000Y-10021000D02*
X13963000Y-10061000D01*
X13963000Y-10021000D02*
X13923000Y-10061000D01*
X13955000Y-9434000D02*
X13995000Y-9474000D01*
X13995000Y-9434000D02*
X13955000Y-9474000D01*
X13988000Y-10422000D02*
X14028000Y-10462000D01*
X14028000Y-10422000D02*
X13988000Y-10462000D01*
X14015000Y-11117000D02*
X14055000Y-11157000D01*
X14055000Y-11117000D02*
X14015000Y-11157000D01*
X14026000Y-9619000D02*
X14066000Y-9659000D01*
X14066000Y-9619000D02*
X14026000Y-9659000D01*
X14043000Y-9886000D02*
X14083000Y-9926000D01*
X14083000Y-9886000D02*
X14043000Y-9926000D01*
X14061000Y-10167000D02*
X14101000Y-10207000D01*
X14101000Y-10167000D02*
X14061000Y-10207000D01*
X14091000Y-9063000D02*
X14131000Y-9103000D01*
X14131000Y-9063000D02*
X14091000Y-9103000D01*
X14130000Y-9413000D02*
X14170000Y-9453000D01*
X14170000Y-9413000D02*
X14130000Y-9453000D01*
X14140000Y-8771000D02*
X14180000Y-8811000D01*
X14180000Y-8771000D02*
X14140000Y-8811000D01*
X14148000Y-10601000D02*
X14188000Y-10641000D01*
X14188000Y-10601000D02*
X14148000Y-10641000D01*
X14152000Y-10693000D02*
X14192000Y-10733000D01*
X14192000Y-10693000D02*
X14152000Y-10733000D01*
X14166000Y-9755000D02*
X14206000Y-9795000D01*
X14206000Y-9755000D02*
X14166000Y-9795000D01*
X14173000Y-9292000D02*
X14213000Y-9332000D01*
X14213000Y-9292000D02*
X14173000Y-9332000D01*
X14183000Y-8843000D02*
X14223000Y-8883000D01*
X14223000Y-8843000D02*
X14183000Y-8883000D01*
X14183000Y-10030000D02*
X14223000Y-10070000D01*
X14223000Y-10030000D02*
X14183000Y-10070000D01*
X14230000Y-10442000D02*
X14270000Y-10482000D01*
X14270000Y-10442000D02*
X14230000Y-10482000D01*
X14236000Y-10329000D02*
X14276000Y-10369000D01*
X14276000Y-10329000D02*
X14236000Y-10369000D01*
X14280000Y-8301000D02*
X14320000Y-8341000D01*
X14320000Y-8301000D02*
X14280000Y-8341000D01*
X14308000Y-9903000D02*
X14348000Y-9943000D01*
X14348000Y-9903000D02*
X14308000Y-9943000D01*
X14316000Y-10438000D02*
X14356000Y-10478000D01*
X14356000Y-10438000D02*
X14316000Y-10478000D01*
X14321000Y-10328000D02*
X14361000Y-10368000D01*
X14361000Y-10328000D02*
X14321000Y-10368000D01*
X14354000Y-9248000D02*
X14394000Y-9288000D01*
X14394000Y-9248000D02*
X14354000Y-9288000D01*
X14367000Y-10266000D02*
X14407000Y-10306000D01*
X14407000Y-10266000D02*
X14367000Y-10306000D01*
X14372000Y-10194000D02*
X14412000Y-10234000D01*
X14412000Y-10194000D02*
X14372000Y-10234000D01*
X14386000Y-8409000D02*
X14426000Y-8449000D01*
X14426000Y-8409000D02*
X14386000Y-8449000D01*
X14386000Y-8747000D02*
X14426000Y-8787000D01*
X14426000Y-8747000D02*
X14386000Y-8787000D01*
X14417000Y-9315000D02*
X14457000Y-9355000D01*
X14457000Y-9315000D02*
X14417000Y-9355000D01*
X14477000Y-9244000D02*
X14517000Y-9284000D01*
X14517000Y-9244000D02*
X14477000Y-9284000D01*
X14501000Y-11768000D02*
X14541000Y-11808000D01*
X14541000Y-11768000D02*
X14501000Y-11808000D01*
X14517000Y-8972000D02*
X14557000Y-9012000D01*
X14557000Y-8972000D02*
X14517000Y-9012000D01*
X14544817Y-10107450D02*
X14584817Y-10147450D01*
X14584817Y-10107450D02*
X14544817Y-10147450D01*
X14545500Y-8739500D02*
X14585500Y-8779500D01*
X14585500Y-8739500D02*
X14545500Y-8779500D01*
X14552000Y-8373000D02*
X14592000Y-8413000D01*
X14592000Y-8373000D02*
X14552000Y-8413000D01*
X14568000Y-10715000D02*
X14608000Y-10755000D01*
X14608000Y-10715000D02*
X14568000Y-10755000D01*
X14585000Y-10779000D02*
X14625000Y-10819000D01*
X14625000Y-10779000D02*
X14585000Y-10819000D01*
X14598000Y-11348000D02*
X14638000Y-11388000D01*
X14638000Y-11348000D02*
X14598000Y-11388000D01*
X14629160Y-10236571D02*
X14669160Y-10276571D01*
X14669160Y-10236571D02*
X14629160Y-10276571D01*
X14656000Y-8341000D02*
X14696000Y-8381000D01*
X14696000Y-8341000D02*
X14656000Y-8381000D01*
X14702000Y-10980000D02*
X14742000Y-11020000D01*
X14742000Y-10980000D02*
X14702000Y-11020000D01*
X14745000Y-10240000D02*
X14785000Y-10280000D01*
X14785000Y-10240000D02*
X14745000Y-10280000D01*
X14758000Y-9789000D02*
X14798000Y-9829000D01*
X14798000Y-9789000D02*
X14758000Y-9829000D01*
X14799050Y-10179228D02*
X14839050Y-10219228D01*
X14839050Y-10179228D02*
X14799050Y-10219228D01*
X14802000Y-11080000D02*
X14842000Y-11120000D01*
X14842000Y-11080000D02*
X14802000Y-11120000D01*
X14808000Y-9430000D02*
X14848000Y-9470000D01*
X14848000Y-9430000D02*
X14808000Y-9470000D01*
X14822000Y-8545000D02*
X14862000Y-8585000D01*
X14862000Y-8545000D02*
X14822000Y-8585000D01*
X14869000Y-11877000D02*
X14909000Y-11917000D01*
X14909000Y-11877000D02*
X14869000Y-11917000D01*
X14939000Y-8705000D02*
X14979000Y-8745000D01*
X14979000Y-8705000D02*
X14939000Y-8745000D01*
X15031000Y-10374000D02*
X15071000Y-10414000D01*
X15071000Y-10374000D02*
X15031000Y-10414000D01*
X15033000Y-10486000D02*
X15073000Y-10526000D01*
X15073000Y-10486000D02*
X15033000Y-10526000D01*
X15167000Y-10561000D02*
X15207000Y-10601000D01*
X15207000Y-10561000D02*
X15167000Y-10601000D01*
X15213000Y-8834000D02*
X15253000Y-8874000D01*
X15253000Y-8834000D02*
X15213000Y-8874000D01*
X15231000Y-10291000D02*
X15271000Y-10331000D01*
X15271000Y-10291000D02*
X15231000Y-10331000D01*
X15341000Y-10115000D02*
X15381000Y-10155000D01*
X15381000Y-10115000D02*
X15341000Y-10155000D01*
X15503000Y-8591000D02*
X15543000Y-8631000D01*
X15543000Y-8591000D02*
X15503000Y-8631000D01*
X15514000Y-8741000D02*
X15554000Y-8781000D01*
X15554000Y-8741000D02*
X15514000Y-8781000D01*
X15553000Y-10447000D02*
X15593000Y-10487000D01*
X15593000Y-10447000D02*
X15553000Y-10487000D01*
X15606000Y-10586000D02*
X15646000Y-10626000D01*
X15646000Y-10586000D02*
X15606000Y-10626000D01*
X15608000Y-10756000D02*
X15648000Y-10796000D01*
X15648000Y-10756000D02*
X15608000Y-10796000D01*
X15639225Y-10336550D02*
X15679225Y-10376550D01*
X15679225Y-10336550D02*
X15639225Y-10376550D01*
X15676000Y-9661625D02*
X15716000Y-9701625D01*
X15716000Y-9661625D02*
X15676000Y-9701625D01*
X15706000Y-10276000D02*
X15746000Y-10316000D01*
X15746000Y-10276000D02*
X15706000Y-10316000D01*
X15746000Y-10358550D02*
X15786000Y-10398550D01*
X15786000Y-10358550D02*
X15746000Y-10398550D01*
X15895000Y-10761000D02*
X15935000Y-10801000D01*
X15935000Y-10761000D02*
X15895000Y-10801000D01*
X15905000Y-10571000D02*
X15945000Y-10611000D01*
X15945000Y-10571000D02*
X15905000Y-10611000D01*
X15920000Y-9248000D02*
X15960000Y-9288000D01*
X15960000Y-9248000D02*
X15920000Y-9288000D01*
X15994000Y-9874000D02*
X16034000Y-9914000D01*
X16034000Y-9874000D02*
X15994000Y-9914000D01*
X16214500Y-9916500D02*
X16254500Y-9956500D01*
X16254500Y-9916500D02*
X16214500Y-9956500D01*
X16243000Y-10248000D02*
X16283000Y-10288000D01*
X16283000Y-10248000D02*
X16243000Y-10288000D01*
X16390000Y-8636000D02*
X16430000Y-8676000D01*
X16430000Y-8636000D02*
X16390000Y-8676000D01*
D12*
X16128000Y-9697000D02*
G75*
G03*
X16128000Y-9697000I-25000J0D01*
G01*
D10*
X16078000Y-9662000D02*
X16078000Y-9732000D01*
X16128000Y-9662000D02*
X16128000Y-9732000D01*
X16078000Y-9732000D02*
G75*
G03*
X16128000Y-9732000I25000J0D01*
G01*
X16128000Y-9662000D02*
G75*
G03*
X16078000Y-9662000I-25000J0D01*
G01*
D12*
X16129000Y-9350000D02*
G75*
G03*
X16129000Y-9350000I-25000J0D01*
G01*
D10*
X16079000Y-9315000D02*
X16079000Y-9385000D01*
X16129000Y-9315000D02*
X16129000Y-9385000D01*
X16079000Y-9385000D02*
G75*
G03*
X16129000Y-9385000I25000J0D01*
G01*
X16129000Y-9315000D02*
G75*
G03*
X16079000Y-9315000I-25000J0D01*
G01*
D12*
X16848000Y-9349000D02*
G75*
G03*
X16848000Y-9349000I-25000J0D01*
G01*
D10*
X16798000Y-9314000D02*
X16798000Y-9384000D01*
X16848000Y-9314000D02*
X16848000Y-9384000D01*
X16798000Y-9384000D02*
G75*
G03*
X16848000Y-9384000I25000J0D01*
G01*
X16848000Y-9314000D02*
G75*
G03*
X16798000Y-9314000I-25000J0D01*
G01*
D12*
X16850000Y-9697000D02*
G75*
G03*
X16850000Y-9697000I-25000J0D01*
G01*
D10*
X16800000Y-9662000D02*
X16800000Y-9732000D01*
X16850000Y-9662000D02*
X16850000Y-9732000D01*
X16800000Y-9732000D02*
G75*
G03*
X16850000Y-9732000I25000J0D01*
G01*
X16850000Y-9662000D02*
G75*
G03*
X16800000Y-9662000I-25000J0D01*
G01*
D13*
X12330500Y-9200000D02*
X12330500Y-9265000D01*
X12298000Y-9232500D02*
X12363000Y-9232500D01*
X12330500Y-9327000D02*
X12330500Y-9392000D01*
X12298000Y-9359500D02*
X12363000Y-9359500D01*
X12330500Y-9454000D02*
X12330500Y-9519000D01*
X12298000Y-9486500D02*
X12363000Y-9486500D01*
X12330500Y-9581000D02*
X12330500Y-9646000D01*
X12298000Y-9613500D02*
X12363000Y-9613500D01*
X12330500Y-9708000D02*
X12330500Y-9773000D01*
X12298000Y-9740500D02*
X12363000Y-9740500D01*
X12330500Y-9835000D02*
X12330500Y-9900000D01*
X12298000Y-9867500D02*
X12363000Y-9867500D01*
X12457500Y-9200000D02*
X12457500Y-9265000D01*
X12425000Y-9232500D02*
X12490000Y-9232500D01*
X12457500Y-9327000D02*
X12457500Y-9392000D01*
X12425000Y-9359500D02*
X12490000Y-9359500D01*
X12457500Y-9454000D02*
X12457500Y-9519000D01*
X12425000Y-9486500D02*
X12490000Y-9486500D01*
X12457500Y-9581000D02*
X12457500Y-9646000D01*
X12425000Y-9613500D02*
X12490000Y-9613500D01*
X12457500Y-9708000D02*
X12457500Y-9773000D01*
X12425000Y-9740500D02*
X12490000Y-9740500D01*
X12457500Y-9835000D02*
X12457500Y-9900000D01*
X12425000Y-9867500D02*
X12490000Y-9867500D01*
D14*
X13814588Y-7822588D02*
X13814588Y-7755412D01*
X13747412Y-7755412D01*
X13747412Y-7822588D01*
X13814588Y-7822588D01*
X14064588Y-7822588D02*
X14064588Y-7755412D01*
X13997412Y-7755412D01*
X13997412Y-7822588D01*
X14064588Y-7822588D01*
X14314588Y-7822588D02*
X14314588Y-7755412D01*
X14247412Y-7755412D01*
X14247412Y-7822588D01*
X14314588Y-7822588D01*
X14564588Y-7822588D02*
X14564588Y-7755412D01*
X14497412Y-7755412D01*
X14497412Y-7822588D01*
X14564588Y-7822588D01*
X15218588Y-7805588D02*
X15218588Y-7738412D01*
X15151412Y-7738412D01*
X15151412Y-7805588D01*
X15218588Y-7805588D01*
X15468588Y-7805588D02*
X15468588Y-7738412D01*
X15401412Y-7738412D01*
X15401412Y-7805588D01*
X15468588Y-7805588D01*
X15718588Y-7805588D02*
X15718588Y-7738412D01*
X15651412Y-7738412D01*
X15651412Y-7805588D01*
X15718588Y-7805588D01*
D15*
X12892000Y-11845000D02*
X12942000Y-11795000D01*
X12892000Y-11745000D01*
X12842000Y-11795000D01*
X12892000Y-11845000D01*
X13142000Y-11845000D02*
X13192000Y-11795000D01*
X13142000Y-11745000D01*
X13092000Y-11795000D01*
X13142000Y-11845000D01*
D10*
X11822276Y-12523976D02*
X11822276Y-12323976D01*
X11869895Y-12323976D01*
X11898467Y-12333500D01*
X11917515Y-12352548D01*
X11927038Y-12371595D01*
X11936562Y-12409690D01*
X11936562Y-12438262D01*
X11927038Y-12476357D01*
X11917515Y-12495405D01*
X11898467Y-12514452D01*
X11869895Y-12523976D01*
X11822276Y-12523976D01*
X12022276Y-12523976D02*
X12022276Y-12390643D01*
X12022276Y-12428738D02*
X12031800Y-12409690D01*
X12041324Y-12400167D01*
X12060372Y-12390643D01*
X12079419Y-12390643D01*
X12146086Y-12523976D02*
X12146086Y-12390643D01*
X12146086Y-12323976D02*
X12136562Y-12333500D01*
X12146086Y-12343024D01*
X12155610Y-12333500D01*
X12146086Y-12323976D01*
X12146086Y-12343024D01*
X12269895Y-12523976D02*
X12250848Y-12514452D01*
X12241324Y-12495405D01*
X12241324Y-12323976D01*
X12374657Y-12523976D02*
X12355610Y-12514452D01*
X12346086Y-12495405D01*
X12346086Y-12323976D01*
X12603229Y-12523976D02*
X12603229Y-12323976D01*
X12669895Y-12466833D01*
X12736562Y-12323976D01*
X12736562Y-12523976D01*
X12917515Y-12523976D02*
X12917515Y-12419214D01*
X12907991Y-12400167D01*
X12888943Y-12390643D01*
X12850848Y-12390643D01*
X12831800Y-12400167D01*
X12917515Y-12514452D02*
X12898467Y-12523976D01*
X12850848Y-12523976D01*
X12831800Y-12514452D01*
X12822276Y-12495405D01*
X12822276Y-12476357D01*
X12831800Y-12457309D01*
X12850848Y-12447786D01*
X12898467Y-12447786D01*
X12917515Y-12438262D01*
X13012753Y-12390643D02*
X13012753Y-12590643D01*
X13012753Y-12400167D02*
X13031800Y-12390643D01*
X13069895Y-12390643D01*
X13088943Y-12400167D01*
X13098467Y-12409690D01*
X13107991Y-12428738D01*
X13107991Y-12485881D01*
X13098467Y-12504928D01*
X13088943Y-12514452D01*
X13069895Y-12523976D01*
X13031800Y-12523976D01*
X13012753Y-12514452D01*
X13193705Y-12504928D02*
X13203229Y-12514452D01*
X13193705Y-12523976D01*
X13184181Y-12514452D01*
X13193705Y-12504928D01*
X13193705Y-12523976D01*
X13193705Y-12400167D02*
X13203229Y-12409690D01*
X13193705Y-12419214D01*
X13184181Y-12409690D01*
X13193705Y-12400167D01*
X13193705Y-12419214D01*
D11*
X11524657Y-12833500D02*
X11564657Y-12873500D01*
X11564657Y-12833500D02*
X11524657Y-12873500D01*
D10*
X11860372Y-12743976D02*
X11879419Y-12743976D01*
X11898467Y-12753500D01*
X11907991Y-12763024D01*
X11917515Y-12782071D01*
X11927038Y-12820167D01*
X11927038Y-12867786D01*
X11917515Y-12905881D01*
X11907991Y-12924928D01*
X11898467Y-12934452D01*
X11879419Y-12943976D01*
X11860372Y-12943976D01*
X11841324Y-12934452D01*
X11831800Y-12924928D01*
X11822276Y-12905881D01*
X11812753Y-12867786D01*
X11812753Y-12820167D01*
X11822276Y-12782071D01*
X11831800Y-12763024D01*
X11841324Y-12753500D01*
X11860372Y-12743976D01*
X12012753Y-12924928D02*
X12022276Y-12934452D01*
X12012753Y-12943976D01*
X12003229Y-12934452D01*
X12012753Y-12924928D01*
X12012753Y-12943976D01*
X12193705Y-12810643D02*
X12193705Y-12943976D01*
X12146086Y-12734452D02*
X12098467Y-12877309D01*
X12222276Y-12877309D01*
X12336562Y-12743976D02*
X12355610Y-12743976D01*
X12374657Y-12753500D01*
X12384181Y-12763024D01*
X12393705Y-12782071D01*
X12403229Y-12820167D01*
X12403229Y-12867786D01*
X12393705Y-12905881D01*
X12384181Y-12924928D01*
X12374657Y-12934452D01*
X12355610Y-12943976D01*
X12336562Y-12943976D01*
X12317515Y-12934452D01*
X12307991Y-12924928D01*
X12298467Y-12905881D01*
X12288943Y-12867786D01*
X12288943Y-12820167D01*
X12298467Y-12782071D01*
X12307991Y-12763024D01*
X12317515Y-12753500D01*
X12336562Y-12743976D01*
X12527038Y-12743976D02*
X12546086Y-12743976D01*
X12565134Y-12753500D01*
X12574657Y-12763024D01*
X12584181Y-12782071D01*
X12593705Y-12820167D01*
X12593705Y-12867786D01*
X12584181Y-12905881D01*
X12574657Y-12924928D01*
X12565134Y-12934452D01*
X12546086Y-12943976D01*
X12527038Y-12943976D01*
X12507991Y-12934452D01*
X12498467Y-12924928D01*
X12488943Y-12905881D01*
X12479419Y-12867786D01*
X12479419Y-12820167D01*
X12488943Y-12782071D01*
X12498467Y-12763024D01*
X12507991Y-12753500D01*
X12527038Y-12743976D01*
X12679419Y-12943976D02*
X12679419Y-12810643D01*
X12679419Y-12829690D02*
X12688943Y-12820167D01*
X12707991Y-12810643D01*
X12736562Y-12810643D01*
X12755610Y-12820167D01*
X12765134Y-12839214D01*
X12765134Y-12943976D01*
X12765134Y-12839214D02*
X12774657Y-12820167D01*
X12793705Y-12810643D01*
X12822276Y-12810643D01*
X12841324Y-12820167D01*
X12850848Y-12839214D01*
X12850848Y-12943976D01*
X12946086Y-12943976D02*
X12946086Y-12810643D01*
X12946086Y-12829690D02*
X12955610Y-12820167D01*
X12974657Y-12810643D01*
X13003229Y-12810643D01*
X13022276Y-12820167D01*
X13031800Y-12839214D01*
X13031800Y-12943976D01*
X13031800Y-12839214D02*
X13041324Y-12820167D01*
X13060372Y-12810643D01*
X13088943Y-12810643D01*
X13107991Y-12820167D01*
X13117515Y-12839214D01*
X13117515Y-12943976D01*
X13507991Y-12734452D02*
X13336562Y-12991595D01*
X13765134Y-12743976D02*
X13784181Y-12743976D01*
X13803229Y-12753500D01*
X13812753Y-12763024D01*
X13822276Y-12782071D01*
X13831800Y-12820167D01*
X13831800Y-12867786D01*
X13822276Y-12905881D01*
X13812753Y-12924928D01*
X13803229Y-12934452D01*
X13784181Y-12943976D01*
X13765134Y-12943976D01*
X13746086Y-12934452D01*
X13736562Y-12924928D01*
X13727038Y-12905881D01*
X13717515Y-12867786D01*
X13717515Y-12820167D01*
X13727038Y-12782071D01*
X13736562Y-12763024D01*
X13746086Y-12753500D01*
X13765134Y-12743976D01*
X13917515Y-12924928D02*
X13927038Y-12934452D01*
X13917515Y-12943976D01*
X13907991Y-12934452D01*
X13917515Y-12924928D01*
X13917515Y-12943976D01*
X14050848Y-12743976D02*
X14069895Y-12743976D01*
X14088943Y-12753500D01*
X14098467Y-12763024D01*
X14107991Y-12782071D01*
X14117515Y-12820167D01*
X14117515Y-12867786D01*
X14107991Y-12905881D01*
X14098467Y-12924928D01*
X14088943Y-12934452D01*
X14069895Y-12943976D01*
X14050848Y-12943976D01*
X14031800Y-12934452D01*
X14022276Y-12924928D01*
X14012753Y-12905881D01*
X14003229Y-12867786D01*
X14003229Y-12820167D01*
X14012753Y-12782071D01*
X14022276Y-12763024D01*
X14031800Y-12753500D01*
X14050848Y-12743976D01*
X14307991Y-12943976D02*
X14193705Y-12943976D01*
X14250848Y-12943976D02*
X14250848Y-12743976D01*
X14231800Y-12772548D01*
X14212753Y-12791595D01*
X14193705Y-12801119D01*
X14488943Y-12743976D02*
X14393705Y-12743976D01*
X14384181Y-12839214D01*
X14393705Y-12829690D01*
X14412753Y-12820167D01*
X14460372Y-12820167D01*
X14479419Y-12829690D01*
X14488943Y-12839214D01*
X14498467Y-12858262D01*
X14498467Y-12905881D01*
X14488943Y-12924928D01*
X14479419Y-12934452D01*
X14460372Y-12943976D01*
X14412753Y-12943976D01*
X14393705Y-12934452D01*
X14384181Y-12924928D01*
X14565134Y-12743976D02*
X14698467Y-12743976D01*
X14612753Y-12943976D01*
X14765134Y-12743976D02*
X14765134Y-12782071D01*
X14841324Y-12743976D02*
X14841324Y-12782071D01*
X15136562Y-13020167D02*
X15127038Y-13010643D01*
X15107991Y-12982071D01*
X15098467Y-12963024D01*
X15088943Y-12934452D01*
X15079419Y-12886833D01*
X15079419Y-12848738D01*
X15088943Y-12801119D01*
X15098467Y-12772548D01*
X15107991Y-12753500D01*
X15127038Y-12724928D01*
X15136562Y-12715405D01*
X15317515Y-12943976D02*
X15203229Y-12943976D01*
X15260372Y-12943976D02*
X15260372Y-12743976D01*
X15241324Y-12772548D01*
X15222276Y-12791595D01*
X15203229Y-12801119D01*
X15393705Y-12763024D02*
X15403229Y-12753500D01*
X15422276Y-12743976D01*
X15469895Y-12743976D01*
X15488943Y-12753500D01*
X15498467Y-12763024D01*
X15507991Y-12782071D01*
X15507991Y-12801119D01*
X15498467Y-12829690D01*
X15384181Y-12943976D01*
X15507991Y-12943976D01*
X15574657Y-12743976D02*
X15698467Y-12743976D01*
X15631800Y-12820167D01*
X15660372Y-12820167D01*
X15679419Y-12829690D01*
X15688943Y-12839214D01*
X15698467Y-12858262D01*
X15698467Y-12905881D01*
X15688943Y-12924928D01*
X15679419Y-12934452D01*
X15660372Y-12943976D01*
X15603229Y-12943976D01*
X15584181Y-12934452D01*
X15574657Y-12924928D01*
X15936562Y-12943976D02*
X15936562Y-12743976D01*
X16022276Y-12943976D02*
X16022276Y-12839214D01*
X16012753Y-12820167D01*
X15993705Y-12810643D01*
X15965134Y-12810643D01*
X15946086Y-12820167D01*
X15936562Y-12829690D01*
X16146086Y-12943976D02*
X16127038Y-12934452D01*
X16117515Y-12924928D01*
X16107991Y-12905881D01*
X16107991Y-12848738D01*
X16117515Y-12829690D01*
X16127038Y-12820167D01*
X16146086Y-12810643D01*
X16174657Y-12810643D01*
X16193705Y-12820167D01*
X16203229Y-12829690D01*
X16212753Y-12848738D01*
X16212753Y-12905881D01*
X16203229Y-12924928D01*
X16193705Y-12934452D01*
X16174657Y-12943976D01*
X16146086Y-12943976D01*
X16327038Y-12943976D02*
X16307991Y-12934452D01*
X16298467Y-12915405D01*
X16298467Y-12743976D01*
X16479419Y-12934452D02*
X16460372Y-12943976D01*
X16422276Y-12943976D01*
X16403229Y-12934452D01*
X16393705Y-12915405D01*
X16393705Y-12839214D01*
X16403229Y-12820167D01*
X16422276Y-12810643D01*
X16460372Y-12810643D01*
X16479419Y-12820167D01*
X16488943Y-12839214D01*
X16488943Y-12858262D01*
X16393705Y-12877309D01*
X16565134Y-12934452D02*
X16584181Y-12943976D01*
X16622276Y-12943976D01*
X16641324Y-12934452D01*
X16650848Y-12915405D01*
X16650848Y-12905881D01*
X16641324Y-12886833D01*
X16622276Y-12877309D01*
X16593705Y-12877309D01*
X16574657Y-12867786D01*
X16565134Y-12848738D01*
X16565134Y-12839214D01*
X16574657Y-12820167D01*
X16593705Y-12810643D01*
X16622276Y-12810643D01*
X16641324Y-12820167D01*
X16717515Y-13020167D02*
X16727038Y-13010643D01*
X16746086Y-12982071D01*
X16755610Y-12963024D01*
X16765134Y-12934452D01*
X16774657Y-12886833D01*
X16774657Y-12848738D01*
X16765134Y-12801119D01*
X16755610Y-12772548D01*
X16746086Y-12753500D01*
X16727038Y-12724928D01*
X16717515Y-12715405D01*
D12*
X11564657Y-13117500D02*
G75*
G03*
X11564657Y-13117500I-25000J0D01*
G01*
D10*
X11860372Y-13007976D02*
X11879419Y-13007976D01*
X11898467Y-13017500D01*
X11907991Y-13027024D01*
X11917515Y-13046071D01*
X11927038Y-13084167D01*
X11927038Y-13131786D01*
X11917515Y-13169881D01*
X11907991Y-13188928D01*
X11898467Y-13198452D01*
X11879419Y-13207976D01*
X11860372Y-13207976D01*
X11841324Y-13198452D01*
X11831800Y-13188928D01*
X11822276Y-13169881D01*
X11812753Y-13131786D01*
X11812753Y-13084167D01*
X11822276Y-13046071D01*
X11831800Y-13027024D01*
X11841324Y-13017500D01*
X11860372Y-13007976D01*
X12012753Y-13188928D02*
X12022276Y-13198452D01*
X12012753Y-13207976D01*
X12003229Y-13198452D01*
X12012753Y-13188928D01*
X12012753Y-13207976D01*
X12203229Y-13007976D02*
X12107991Y-13007976D01*
X12098467Y-13103214D01*
X12107991Y-13093690D01*
X12127038Y-13084167D01*
X12174657Y-13084167D01*
X12193705Y-13093690D01*
X12203229Y-13103214D01*
X12212753Y-13122262D01*
X12212753Y-13169881D01*
X12203229Y-13188928D01*
X12193705Y-13198452D01*
X12174657Y-13207976D01*
X12127038Y-13207976D01*
X12107991Y-13198452D01*
X12098467Y-13188928D01*
X12336562Y-13007976D02*
X12355610Y-13007976D01*
X12374657Y-13017500D01*
X12384181Y-13027024D01*
X12393705Y-13046071D01*
X12403229Y-13084167D01*
X12403229Y-13131786D01*
X12393705Y-13169881D01*
X12384181Y-13188928D01*
X12374657Y-13198452D01*
X12355610Y-13207976D01*
X12336562Y-13207976D01*
X12317515Y-13198452D01*
X12307991Y-13188928D01*
X12298467Y-13169881D01*
X12288943Y-13131786D01*
X12288943Y-13084167D01*
X12298467Y-13046071D01*
X12307991Y-13027024D01*
X12317515Y-13017500D01*
X12336562Y-13007976D01*
X12527038Y-13007976D02*
X12546086Y-13007976D01*
X12565134Y-13017500D01*
X12574657Y-13027024D01*
X12584181Y-13046071D01*
X12593705Y-13084167D01*
X12593705Y-13131786D01*
X12584181Y-13169881D01*
X12574657Y-13188928D01*
X12565134Y-13198452D01*
X12546086Y-13207976D01*
X12527038Y-13207976D01*
X12507991Y-13198452D01*
X12498467Y-13188928D01*
X12488943Y-13169881D01*
X12479419Y-13131786D01*
X12479419Y-13084167D01*
X12488943Y-13046071D01*
X12498467Y-13027024D01*
X12507991Y-13017500D01*
X12527038Y-13007976D01*
X12679419Y-13207976D02*
X12679419Y-13074643D01*
X12679419Y-13093690D02*
X12688943Y-13084167D01*
X12707991Y-13074643D01*
X12736562Y-13074643D01*
X12755610Y-13084167D01*
X12765134Y-13103214D01*
X12765134Y-13207976D01*
X12765134Y-13103214D02*
X12774657Y-13084167D01*
X12793705Y-13074643D01*
X12822276Y-13074643D01*
X12841324Y-13084167D01*
X12850848Y-13103214D01*
X12850848Y-13207976D01*
X12946086Y-13207976D02*
X12946086Y-13074643D01*
X12946086Y-13093690D02*
X12955610Y-13084167D01*
X12974657Y-13074643D01*
X13003229Y-13074643D01*
X13022276Y-13084167D01*
X13031800Y-13103214D01*
X13031800Y-13207976D01*
X13031800Y-13103214D02*
X13041324Y-13084167D01*
X13060372Y-13074643D01*
X13088943Y-13074643D01*
X13107991Y-13084167D01*
X13117515Y-13103214D01*
X13117515Y-13207976D01*
X13507991Y-12998452D02*
X13336562Y-13255595D01*
X13765134Y-13007976D02*
X13784181Y-13007976D01*
X13803229Y-13017500D01*
X13812753Y-13027024D01*
X13822276Y-13046071D01*
X13831800Y-13084167D01*
X13831800Y-13131786D01*
X13822276Y-13169881D01*
X13812753Y-13188928D01*
X13803229Y-13198452D01*
X13784181Y-13207976D01*
X13765134Y-13207976D01*
X13746086Y-13198452D01*
X13736562Y-13188928D01*
X13727038Y-13169881D01*
X13717515Y-13131786D01*
X13717515Y-13084167D01*
X13727038Y-13046071D01*
X13736562Y-13027024D01*
X13746086Y-13017500D01*
X13765134Y-13007976D01*
X13917515Y-13188928D02*
X13927038Y-13198452D01*
X13917515Y-13207976D01*
X13907991Y-13198452D01*
X13917515Y-13188928D01*
X13917515Y-13207976D01*
X14050848Y-13007976D02*
X14069895Y-13007976D01*
X14088943Y-13017500D01*
X14098467Y-13027024D01*
X14107991Y-13046071D01*
X14117515Y-13084167D01*
X14117515Y-13131786D01*
X14107991Y-13169881D01*
X14098467Y-13188928D01*
X14088943Y-13198452D01*
X14069895Y-13207976D01*
X14050848Y-13207976D01*
X14031800Y-13198452D01*
X14022276Y-13188928D01*
X14012753Y-13169881D01*
X14003229Y-13131786D01*
X14003229Y-13084167D01*
X14012753Y-13046071D01*
X14022276Y-13027024D01*
X14031800Y-13017500D01*
X14050848Y-13007976D01*
X14307991Y-13207976D02*
X14193705Y-13207976D01*
X14250848Y-13207976D02*
X14250848Y-13007976D01*
X14231800Y-13036548D01*
X14212753Y-13055595D01*
X14193705Y-13065119D01*
X14403229Y-13207976D02*
X14441324Y-13207976D01*
X14460372Y-13198452D01*
X14469895Y-13188928D01*
X14488943Y-13160357D01*
X14498467Y-13122262D01*
X14498467Y-13046071D01*
X14488943Y-13027024D01*
X14479419Y-13017500D01*
X14460372Y-13007976D01*
X14422276Y-13007976D01*
X14403229Y-13017500D01*
X14393705Y-13027024D01*
X14384181Y-13046071D01*
X14384181Y-13093690D01*
X14393705Y-13112738D01*
X14403229Y-13122262D01*
X14422276Y-13131786D01*
X14460372Y-13131786D01*
X14479419Y-13122262D01*
X14488943Y-13112738D01*
X14498467Y-13093690D01*
X14565134Y-13007976D02*
X14698467Y-13007976D01*
X14612753Y-13207976D01*
X14765134Y-13007976D02*
X14765134Y-13046071D01*
X14841324Y-13007976D02*
X14841324Y-13046071D01*
X15136562Y-13284167D02*
X15127038Y-13274643D01*
X15107991Y-13246071D01*
X15098467Y-13227024D01*
X15088943Y-13198452D01*
X15079419Y-13150833D01*
X15079419Y-13112738D01*
X15088943Y-13065119D01*
X15098467Y-13036548D01*
X15107991Y-13017500D01*
X15127038Y-12988928D01*
X15136562Y-12979405D01*
X15250848Y-13007976D02*
X15269895Y-13007976D01*
X15288943Y-13017500D01*
X15298467Y-13027024D01*
X15307991Y-13046071D01*
X15317515Y-13084167D01*
X15317515Y-13131786D01*
X15307991Y-13169881D01*
X15298467Y-13188928D01*
X15288943Y-13198452D01*
X15269895Y-13207976D01*
X15250848Y-13207976D01*
X15231800Y-13198452D01*
X15222276Y-13188928D01*
X15212753Y-13169881D01*
X15203229Y-13131786D01*
X15203229Y-13084167D01*
X15212753Y-13046071D01*
X15222276Y-13027024D01*
X15231800Y-13017500D01*
X15250848Y-13007976D01*
X15555610Y-13207976D02*
X15555610Y-13007976D01*
X15641324Y-13207976D02*
X15641324Y-13103214D01*
X15631800Y-13084167D01*
X15612753Y-13074643D01*
X15584181Y-13074643D01*
X15565134Y-13084167D01*
X15555610Y-13093690D01*
X15765134Y-13207976D02*
X15746086Y-13198452D01*
X15736562Y-13188928D01*
X15727038Y-13169881D01*
X15727038Y-13112738D01*
X15736562Y-13093690D01*
X15746086Y-13084167D01*
X15765134Y-13074643D01*
X15793705Y-13074643D01*
X15812753Y-13084167D01*
X15822276Y-13093690D01*
X15831800Y-13112738D01*
X15831800Y-13169881D01*
X15822276Y-13188928D01*
X15812753Y-13198452D01*
X15793705Y-13207976D01*
X15765134Y-13207976D01*
X15946086Y-13207976D02*
X15927038Y-13198452D01*
X15917515Y-13179405D01*
X15917515Y-13007976D01*
X16098467Y-13198452D02*
X16079419Y-13207976D01*
X16041324Y-13207976D01*
X16022276Y-13198452D01*
X16012753Y-13179405D01*
X16012753Y-13103214D01*
X16022276Y-13084167D01*
X16041324Y-13074643D01*
X16079419Y-13074643D01*
X16098467Y-13084167D01*
X16107991Y-13103214D01*
X16107991Y-13122262D01*
X16012753Y-13141309D01*
X16184181Y-13198452D02*
X16203229Y-13207976D01*
X16241324Y-13207976D01*
X16260372Y-13198452D01*
X16269895Y-13179405D01*
X16269895Y-13169881D01*
X16260372Y-13150833D01*
X16241324Y-13141309D01*
X16212753Y-13141309D01*
X16193705Y-13131786D01*
X16184181Y-13112738D01*
X16184181Y-13103214D01*
X16193705Y-13084167D01*
X16212753Y-13074643D01*
X16241324Y-13074643D01*
X16260372Y-13084167D01*
X16507991Y-13131786D02*
X16660372Y-13131786D01*
X16584181Y-13207976D02*
X16584181Y-13055595D01*
X16993705Y-13074643D02*
X16993705Y-13207976D01*
X16946086Y-12998452D02*
X16898467Y-13141309D01*
X17022277Y-13141309D01*
X17241324Y-13198452D02*
X17260372Y-13207976D01*
X17298467Y-13207976D01*
X17317515Y-13198452D01*
X17327038Y-13179405D01*
X17327038Y-13169881D01*
X17317515Y-13150833D01*
X17298467Y-13141309D01*
X17269896Y-13141309D01*
X17250848Y-13131786D01*
X17241324Y-13112738D01*
X17241324Y-13103214D01*
X17250848Y-13084167D01*
X17269896Y-13074643D01*
X17298467Y-13074643D01*
X17317515Y-13084167D01*
X17441324Y-13207976D02*
X17422277Y-13198452D01*
X17412753Y-13179405D01*
X17412753Y-13007976D01*
X17546086Y-13207976D02*
X17527038Y-13198452D01*
X17517515Y-13188928D01*
X17507991Y-13169881D01*
X17507991Y-13112738D01*
X17517515Y-13093690D01*
X17527038Y-13084167D01*
X17546086Y-13074643D01*
X17574657Y-13074643D01*
X17593705Y-13084167D01*
X17603229Y-13093690D01*
X17612753Y-13112738D01*
X17612753Y-13169881D01*
X17603229Y-13188928D01*
X17593705Y-13198452D01*
X17574657Y-13207976D01*
X17546086Y-13207976D01*
X17669896Y-13074643D02*
X17746086Y-13074643D01*
X17698467Y-13007976D02*
X17698467Y-13179405D01*
X17707991Y-13198452D01*
X17727038Y-13207976D01*
X17746086Y-13207976D01*
X17803229Y-13198452D02*
X17822277Y-13207976D01*
X17860372Y-13207976D01*
X17879419Y-13198452D01*
X17888943Y-13179405D01*
X17888943Y-13169881D01*
X17879419Y-13150833D01*
X17860372Y-13141309D01*
X17831800Y-13141309D01*
X17812753Y-13131786D01*
X17803229Y-13112738D01*
X17803229Y-13103214D01*
X17812753Y-13084167D01*
X17831800Y-13074643D01*
X17860372Y-13074643D01*
X17879419Y-13084167D01*
X17955610Y-13284167D02*
X17965134Y-13274643D01*
X17984181Y-13246071D01*
X17993705Y-13227024D01*
X18003229Y-13198452D01*
X18012753Y-13150833D01*
X18012753Y-13112738D01*
X18003229Y-13065119D01*
X17993705Y-13036548D01*
X17984181Y-13017500D01*
X17965134Y-12988928D01*
X17955610Y-12979405D01*
D13*
X11532157Y-13349000D02*
X11532157Y-13414000D01*
X11499657Y-13381500D02*
X11564657Y-13381500D01*
D10*
X11860372Y-13271976D02*
X11879419Y-13271976D01*
X11898467Y-13281500D01*
X11907991Y-13291024D01*
X11917515Y-13310071D01*
X11927038Y-13348167D01*
X11927038Y-13395786D01*
X11917515Y-13433881D01*
X11907991Y-13452928D01*
X11898467Y-13462452D01*
X11879419Y-13471976D01*
X11860372Y-13471976D01*
X11841324Y-13462452D01*
X11831800Y-13452928D01*
X11822276Y-13433881D01*
X11812753Y-13395786D01*
X11812753Y-13348167D01*
X11822276Y-13310071D01*
X11831800Y-13291024D01*
X11841324Y-13281500D01*
X11860372Y-13271976D01*
X12012753Y-13452928D02*
X12022276Y-13462452D01*
X12012753Y-13471976D01*
X12003229Y-13462452D01*
X12012753Y-13452928D01*
X12012753Y-13471976D01*
X12193705Y-13271976D02*
X12155610Y-13271976D01*
X12136562Y-13281500D01*
X12127038Y-13291024D01*
X12107991Y-13319595D01*
X12098467Y-13357690D01*
X12098467Y-13433881D01*
X12107991Y-13452928D01*
X12117515Y-13462452D01*
X12136562Y-13471976D01*
X12174657Y-13471976D01*
X12193705Y-13462452D01*
X12203229Y-13452928D01*
X12212753Y-13433881D01*
X12212753Y-13386262D01*
X12203229Y-13367214D01*
X12193705Y-13357690D01*
X12174657Y-13348167D01*
X12136562Y-13348167D01*
X12117515Y-13357690D01*
X12107991Y-13367214D01*
X12098467Y-13386262D01*
X12393705Y-13271976D02*
X12298467Y-13271976D01*
X12288943Y-13367214D01*
X12298467Y-13357690D01*
X12317515Y-13348167D01*
X12365134Y-13348167D01*
X12384181Y-13357690D01*
X12393705Y-13367214D01*
X12403229Y-13386262D01*
X12403229Y-13433881D01*
X12393705Y-13452928D01*
X12384181Y-13462452D01*
X12365134Y-13471976D01*
X12317515Y-13471976D01*
X12298467Y-13462452D01*
X12288943Y-13452928D01*
X12527038Y-13271976D02*
X12546086Y-13271976D01*
X12565134Y-13281500D01*
X12574657Y-13291024D01*
X12584181Y-13310071D01*
X12593705Y-13348167D01*
X12593705Y-13395786D01*
X12584181Y-13433881D01*
X12574657Y-13452928D01*
X12565134Y-13462452D01*
X12546086Y-13471976D01*
X12527038Y-13471976D01*
X12507991Y-13462452D01*
X12498467Y-13452928D01*
X12488943Y-13433881D01*
X12479419Y-13395786D01*
X12479419Y-13348167D01*
X12488943Y-13310071D01*
X12498467Y-13291024D01*
X12507991Y-13281500D01*
X12527038Y-13271976D01*
X12679419Y-13471976D02*
X12679419Y-13338643D01*
X12679419Y-13357690D02*
X12688943Y-13348167D01*
X12707991Y-13338643D01*
X12736562Y-13338643D01*
X12755610Y-13348167D01*
X12765134Y-13367214D01*
X12765134Y-13471976D01*
X12765134Y-13367214D02*
X12774657Y-13348167D01*
X12793705Y-13338643D01*
X12822276Y-13338643D01*
X12841324Y-13348167D01*
X12850848Y-13367214D01*
X12850848Y-13471976D01*
X12946086Y-13471976D02*
X12946086Y-13338643D01*
X12946086Y-13357690D02*
X12955610Y-13348167D01*
X12974657Y-13338643D01*
X13003229Y-13338643D01*
X13022276Y-13348167D01*
X13031800Y-13367214D01*
X13031800Y-13471976D01*
X13031800Y-13367214D02*
X13041324Y-13348167D01*
X13060372Y-13338643D01*
X13088943Y-13338643D01*
X13107991Y-13348167D01*
X13117515Y-13367214D01*
X13117515Y-13471976D01*
X13507991Y-13262452D02*
X13336562Y-13519595D01*
X13765134Y-13271976D02*
X13784181Y-13271976D01*
X13803229Y-13281500D01*
X13812753Y-13291024D01*
X13822276Y-13310071D01*
X13831800Y-13348167D01*
X13831800Y-13395786D01*
X13822276Y-13433881D01*
X13812753Y-13452928D01*
X13803229Y-13462452D01*
X13784181Y-13471976D01*
X13765134Y-13471976D01*
X13746086Y-13462452D01*
X13736562Y-13452928D01*
X13727038Y-13433881D01*
X13717515Y-13395786D01*
X13717515Y-13348167D01*
X13727038Y-13310071D01*
X13736562Y-13291024D01*
X13746086Y-13281500D01*
X13765134Y-13271976D01*
X13917515Y-13452928D02*
X13927038Y-13462452D01*
X13917515Y-13471976D01*
X13907991Y-13462452D01*
X13917515Y-13452928D01*
X13917515Y-13471976D01*
X14050848Y-13271976D02*
X14069895Y-13271976D01*
X14088943Y-13281500D01*
X14098467Y-13291024D01*
X14107991Y-13310071D01*
X14117515Y-13348167D01*
X14117515Y-13395786D01*
X14107991Y-13433881D01*
X14098467Y-13452928D01*
X14088943Y-13462452D01*
X14069895Y-13471976D01*
X14050848Y-13471976D01*
X14031800Y-13462452D01*
X14022276Y-13452928D01*
X14012753Y-13433881D01*
X14003229Y-13395786D01*
X14003229Y-13348167D01*
X14012753Y-13310071D01*
X14022276Y-13291024D01*
X14031800Y-13281500D01*
X14050848Y-13271976D01*
X14193705Y-13291024D02*
X14203229Y-13281500D01*
X14222276Y-13271976D01*
X14269895Y-13271976D01*
X14288943Y-13281500D01*
X14298467Y-13291024D01*
X14307991Y-13310071D01*
X14307991Y-13329119D01*
X14298467Y-13357690D01*
X14184181Y-13471976D01*
X14307991Y-13471976D01*
X14488943Y-13271976D02*
X14393705Y-13271976D01*
X14384181Y-13367214D01*
X14393705Y-13357690D01*
X14412753Y-13348167D01*
X14460372Y-13348167D01*
X14479419Y-13357690D01*
X14488943Y-13367214D01*
X14498467Y-13386262D01*
X14498467Y-13433881D01*
X14488943Y-13452928D01*
X14479419Y-13462452D01*
X14460372Y-13471976D01*
X14412753Y-13471976D01*
X14393705Y-13462452D01*
X14384181Y-13452928D01*
X14669895Y-13271976D02*
X14631800Y-13271976D01*
X14612753Y-13281500D01*
X14603229Y-13291024D01*
X14584181Y-13319595D01*
X14574657Y-13357690D01*
X14574657Y-13433881D01*
X14584181Y-13452928D01*
X14593705Y-13462452D01*
X14612753Y-13471976D01*
X14650848Y-13471976D01*
X14669895Y-13462452D01*
X14679419Y-13452928D01*
X14688943Y-13433881D01*
X14688943Y-13386262D01*
X14679419Y-13367214D01*
X14669895Y-13357690D01*
X14650848Y-13348167D01*
X14612753Y-13348167D01*
X14593705Y-13357690D01*
X14584181Y-13367214D01*
X14574657Y-13386262D01*
X14765134Y-13271976D02*
X14765134Y-13310071D01*
X14841324Y-13271976D02*
X14841324Y-13310071D01*
X15136562Y-13548167D02*
X15127038Y-13538643D01*
X15107991Y-13510071D01*
X15098467Y-13491024D01*
X15088943Y-13462452D01*
X15079419Y-13414833D01*
X15079419Y-13376738D01*
X15088943Y-13329119D01*
X15098467Y-13300548D01*
X15107991Y-13281500D01*
X15127038Y-13252928D01*
X15136562Y-13243405D01*
X15317515Y-13471976D02*
X15203229Y-13471976D01*
X15260372Y-13471976D02*
X15260372Y-13271976D01*
X15241324Y-13300548D01*
X15222276Y-13319595D01*
X15203229Y-13329119D01*
X15393705Y-13291024D02*
X15403229Y-13281500D01*
X15422276Y-13271976D01*
X15469895Y-13271976D01*
X15488943Y-13281500D01*
X15498467Y-13291024D01*
X15507991Y-13310071D01*
X15507991Y-13329119D01*
X15498467Y-13357690D01*
X15384181Y-13471976D01*
X15507991Y-13471976D01*
X15746086Y-13471976D02*
X15746086Y-13271976D01*
X15831800Y-13471976D02*
X15831800Y-13367214D01*
X15822276Y-13348167D01*
X15803229Y-13338643D01*
X15774657Y-13338643D01*
X15755610Y-13348167D01*
X15746086Y-13357690D01*
X15955610Y-13471976D02*
X15936562Y-13462452D01*
X15927038Y-13452928D01*
X15917515Y-13433881D01*
X15917515Y-13376738D01*
X15927038Y-13357690D01*
X15936562Y-13348167D01*
X15955610Y-13338643D01*
X15984181Y-13338643D01*
X16003229Y-13348167D01*
X16012753Y-13357690D01*
X16022276Y-13376738D01*
X16022276Y-13433881D01*
X16012753Y-13452928D01*
X16003229Y-13462452D01*
X15984181Y-13471976D01*
X15955610Y-13471976D01*
X16136562Y-13471976D02*
X16117515Y-13462452D01*
X16107991Y-13443405D01*
X16107991Y-13271976D01*
X16288943Y-13462452D02*
X16269895Y-13471976D01*
X16231800Y-13471976D01*
X16212753Y-13462452D01*
X16203229Y-13443405D01*
X16203229Y-13367214D01*
X16212753Y-13348167D01*
X16231800Y-13338643D01*
X16269895Y-13338643D01*
X16288943Y-13348167D01*
X16298467Y-13367214D01*
X16298467Y-13386262D01*
X16203229Y-13405309D01*
X16374657Y-13462452D02*
X16393705Y-13471976D01*
X16431800Y-13471976D01*
X16450848Y-13462452D01*
X16460372Y-13443405D01*
X16460372Y-13433881D01*
X16450848Y-13414833D01*
X16431800Y-13405309D01*
X16403229Y-13405309D01*
X16384181Y-13395786D01*
X16374657Y-13376738D01*
X16374657Y-13367214D01*
X16384181Y-13348167D01*
X16403229Y-13338643D01*
X16431800Y-13338643D01*
X16450848Y-13348167D01*
X16527038Y-13548167D02*
X16536562Y-13538643D01*
X16555610Y-13510071D01*
X16565134Y-13491024D01*
X16574657Y-13462452D01*
X16584181Y-13414833D01*
X16584181Y-13376738D01*
X16574657Y-13329119D01*
X16565134Y-13300548D01*
X16555610Y-13281500D01*
X16536562Y-13252928D01*
X16527038Y-13243405D01*
D14*
X11550745Y-13679088D02*
X11550745Y-13611912D01*
X11483570Y-13611912D01*
X11483570Y-13679088D01*
X11550745Y-13679088D01*
D10*
X11860372Y-13535976D02*
X11879419Y-13535976D01*
X11898467Y-13545500D01*
X11907991Y-13555024D01*
X11917515Y-13574071D01*
X11927038Y-13612167D01*
X11927038Y-13659786D01*
X11917515Y-13697881D01*
X11907991Y-13716928D01*
X11898467Y-13726452D01*
X11879419Y-13735976D01*
X11860372Y-13735976D01*
X11841324Y-13726452D01*
X11831800Y-13716928D01*
X11822276Y-13697881D01*
X11812753Y-13659786D01*
X11812753Y-13612167D01*
X11822276Y-13574071D01*
X11831800Y-13555024D01*
X11841324Y-13545500D01*
X11860372Y-13535976D01*
X12012753Y-13716928D02*
X12022276Y-13726452D01*
X12012753Y-13735976D01*
X12003229Y-13726452D01*
X12012753Y-13716928D01*
X12012753Y-13735976D01*
X12117515Y-13735976D02*
X12155610Y-13735976D01*
X12174657Y-13726452D01*
X12184181Y-13716928D01*
X12203229Y-13688357D01*
X12212753Y-13650262D01*
X12212753Y-13574071D01*
X12203229Y-13555024D01*
X12193705Y-13545500D01*
X12174657Y-13535976D01*
X12136562Y-13535976D01*
X12117515Y-13545500D01*
X12107991Y-13555024D01*
X12098467Y-13574071D01*
X12098467Y-13621690D01*
X12107991Y-13640738D01*
X12117515Y-13650262D01*
X12136562Y-13659786D01*
X12174657Y-13659786D01*
X12193705Y-13650262D01*
X12203229Y-13640738D01*
X12212753Y-13621690D01*
X12393705Y-13535976D02*
X12298467Y-13535976D01*
X12288943Y-13631214D01*
X12298467Y-13621690D01*
X12317515Y-13612167D01*
X12365134Y-13612167D01*
X12384181Y-13621690D01*
X12393705Y-13631214D01*
X12403229Y-13650262D01*
X12403229Y-13697881D01*
X12393705Y-13716928D01*
X12384181Y-13726452D01*
X12365134Y-13735976D01*
X12317515Y-13735976D01*
X12298467Y-13726452D01*
X12288943Y-13716928D01*
X12527038Y-13535976D02*
X12546086Y-13535976D01*
X12565134Y-13545500D01*
X12574657Y-13555024D01*
X12584181Y-13574071D01*
X12593705Y-13612167D01*
X12593705Y-13659786D01*
X12584181Y-13697881D01*
X12574657Y-13716928D01*
X12565134Y-13726452D01*
X12546086Y-13735976D01*
X12527038Y-13735976D01*
X12507991Y-13726452D01*
X12498467Y-13716928D01*
X12488943Y-13697881D01*
X12479419Y-13659786D01*
X12479419Y-13612167D01*
X12488943Y-13574071D01*
X12498467Y-13555024D01*
X12507991Y-13545500D01*
X12527038Y-13535976D01*
X12679419Y-13735976D02*
X12679419Y-13602643D01*
X12679419Y-13621690D02*
X12688943Y-13612167D01*
X12707991Y-13602643D01*
X12736562Y-13602643D01*
X12755610Y-13612167D01*
X12765134Y-13631214D01*
X12765134Y-13735976D01*
X12765134Y-13631214D02*
X12774657Y-13612167D01*
X12793705Y-13602643D01*
X12822276Y-13602643D01*
X12841324Y-13612167D01*
X12850848Y-13631214D01*
X12850848Y-13735976D01*
X12946086Y-13735976D02*
X12946086Y-13602643D01*
X12946086Y-13621690D02*
X12955610Y-13612167D01*
X12974657Y-13602643D01*
X13003229Y-13602643D01*
X13022276Y-13612167D01*
X13031800Y-13631214D01*
X13031800Y-13735976D01*
X13031800Y-13631214D02*
X13041324Y-13612167D01*
X13060372Y-13602643D01*
X13088943Y-13602643D01*
X13107991Y-13612167D01*
X13117515Y-13631214D01*
X13117515Y-13735976D01*
X13507991Y-13526452D02*
X13336562Y-13783595D01*
X13765134Y-13535976D02*
X13784181Y-13535976D01*
X13803229Y-13545500D01*
X13812753Y-13555024D01*
X13822276Y-13574071D01*
X13831800Y-13612167D01*
X13831800Y-13659786D01*
X13822276Y-13697881D01*
X13812753Y-13716928D01*
X13803229Y-13726452D01*
X13784181Y-13735976D01*
X13765134Y-13735976D01*
X13746086Y-13726452D01*
X13736562Y-13716928D01*
X13727038Y-13697881D01*
X13717515Y-13659786D01*
X13717515Y-13612167D01*
X13727038Y-13574071D01*
X13736562Y-13555024D01*
X13746086Y-13545500D01*
X13765134Y-13535976D01*
X13917515Y-13716928D02*
X13927038Y-13726452D01*
X13917515Y-13735976D01*
X13907991Y-13726452D01*
X13917515Y-13716928D01*
X13917515Y-13735976D01*
X14050848Y-13535976D02*
X14069895Y-13535976D01*
X14088943Y-13545500D01*
X14098467Y-13555024D01*
X14107991Y-13574071D01*
X14117515Y-13612167D01*
X14117515Y-13659786D01*
X14107991Y-13697881D01*
X14098467Y-13716928D01*
X14088943Y-13726452D01*
X14069895Y-13735976D01*
X14050848Y-13735976D01*
X14031800Y-13726452D01*
X14022276Y-13716928D01*
X14012753Y-13697881D01*
X14003229Y-13659786D01*
X14003229Y-13612167D01*
X14012753Y-13574071D01*
X14022276Y-13555024D01*
X14031800Y-13545500D01*
X14050848Y-13535976D01*
X14184181Y-13535976D02*
X14307991Y-13535976D01*
X14241324Y-13612167D01*
X14269895Y-13612167D01*
X14288943Y-13621690D01*
X14298467Y-13631214D01*
X14307991Y-13650262D01*
X14307991Y-13697881D01*
X14298467Y-13716928D01*
X14288943Y-13726452D01*
X14269895Y-13735976D01*
X14212753Y-13735976D01*
X14193705Y-13726452D01*
X14184181Y-13716928D01*
X14374657Y-13535976D02*
X14507991Y-13535976D01*
X14422276Y-13735976D01*
X14669895Y-13602643D02*
X14669895Y-13735976D01*
X14622276Y-13526452D02*
X14574657Y-13669309D01*
X14698467Y-13669309D01*
X14765134Y-13535976D02*
X14765134Y-13574071D01*
X14841324Y-13535976D02*
X14841324Y-13574071D01*
X15136562Y-13812167D02*
X15127038Y-13802643D01*
X15107991Y-13774071D01*
X15098467Y-13755024D01*
X15088943Y-13726452D01*
X15079419Y-13678833D01*
X15079419Y-13640738D01*
X15088943Y-13593119D01*
X15098467Y-13564548D01*
X15107991Y-13545500D01*
X15127038Y-13516928D01*
X15136562Y-13507405D01*
X15193705Y-13535976D02*
X15327038Y-13535976D01*
X15241324Y-13735976D01*
X15555610Y-13735976D02*
X15555610Y-13535976D01*
X15641324Y-13735976D02*
X15641324Y-13631214D01*
X15631800Y-13612167D01*
X15612753Y-13602643D01*
X15584181Y-13602643D01*
X15565134Y-13612167D01*
X15555610Y-13621690D01*
X15765134Y-13735976D02*
X15746086Y-13726452D01*
X15736562Y-13716928D01*
X15727038Y-13697881D01*
X15727038Y-13640738D01*
X15736562Y-13621690D01*
X15746086Y-13612167D01*
X15765134Y-13602643D01*
X15793705Y-13602643D01*
X15812753Y-13612167D01*
X15822276Y-13621690D01*
X15831800Y-13640738D01*
X15831800Y-13697881D01*
X15822276Y-13716928D01*
X15812753Y-13726452D01*
X15793705Y-13735976D01*
X15765134Y-13735976D01*
X15946086Y-13735976D02*
X15927038Y-13726452D01*
X15917515Y-13707405D01*
X15917515Y-13535976D01*
X16098467Y-13726452D02*
X16079419Y-13735976D01*
X16041324Y-13735976D01*
X16022276Y-13726452D01*
X16012753Y-13707405D01*
X16012753Y-13631214D01*
X16022276Y-13612167D01*
X16041324Y-13602643D01*
X16079419Y-13602643D01*
X16098467Y-13612167D01*
X16107991Y-13631214D01*
X16107991Y-13650262D01*
X16012753Y-13669309D01*
X16184181Y-13726452D02*
X16203229Y-13735976D01*
X16241324Y-13735976D01*
X16260372Y-13726452D01*
X16269895Y-13707405D01*
X16269895Y-13697881D01*
X16260372Y-13678833D01*
X16241324Y-13669309D01*
X16212753Y-13669309D01*
X16193705Y-13659786D01*
X16184181Y-13640738D01*
X16184181Y-13631214D01*
X16193705Y-13612167D01*
X16212753Y-13602643D01*
X16241324Y-13602643D01*
X16260372Y-13612167D01*
X16336562Y-13812167D02*
X16346086Y-13802643D01*
X16365134Y-13774071D01*
X16374657Y-13755024D01*
X16384181Y-13726452D01*
X16393705Y-13678833D01*
X16393705Y-13640738D01*
X16384181Y-13593119D01*
X16374657Y-13564548D01*
X16365134Y-13545500D01*
X16346086Y-13516928D01*
X16336562Y-13507405D01*
D15*
X11514657Y-13959500D02*
X11564657Y-13909500D01*
X11514657Y-13859500D01*
X11464657Y-13909500D01*
X11514657Y-13959500D01*
D10*
X11927038Y-13999976D02*
X11812753Y-13999976D01*
X11869895Y-13999976D02*
X11869895Y-13799976D01*
X11850848Y-13828548D01*
X11831800Y-13847595D01*
X11812753Y-13857119D01*
X12012753Y-13980928D02*
X12022276Y-13990452D01*
X12012753Y-13999976D01*
X12003229Y-13990452D01*
X12012753Y-13980928D01*
X12012753Y-13999976D01*
X12146086Y-13799976D02*
X12165134Y-13799976D01*
X12184181Y-13809500D01*
X12193705Y-13819024D01*
X12203229Y-13838071D01*
X12212753Y-13876167D01*
X12212753Y-13923786D01*
X12203229Y-13961881D01*
X12193705Y-13980928D01*
X12184181Y-13990452D01*
X12165134Y-13999976D01*
X12146086Y-13999976D01*
X12127038Y-13990452D01*
X12117515Y-13980928D01*
X12107991Y-13961881D01*
X12098467Y-13923786D01*
X12098467Y-13876167D01*
X12107991Y-13838071D01*
X12117515Y-13819024D01*
X12127038Y-13809500D01*
X12146086Y-13799976D01*
X12336562Y-13799976D02*
X12355610Y-13799976D01*
X12374657Y-13809500D01*
X12384181Y-13819024D01*
X12393705Y-13838071D01*
X12403229Y-13876167D01*
X12403229Y-13923786D01*
X12393705Y-13961881D01*
X12384181Y-13980928D01*
X12374657Y-13990452D01*
X12355610Y-13999976D01*
X12336562Y-13999976D01*
X12317515Y-13990452D01*
X12307991Y-13980928D01*
X12298467Y-13961881D01*
X12288943Y-13923786D01*
X12288943Y-13876167D01*
X12298467Y-13838071D01*
X12307991Y-13819024D01*
X12317515Y-13809500D01*
X12336562Y-13799976D01*
X12527038Y-13799976D02*
X12546086Y-13799976D01*
X12565134Y-13809500D01*
X12574657Y-13819024D01*
X12584181Y-13838071D01*
X12593705Y-13876167D01*
X12593705Y-13923786D01*
X12584181Y-13961881D01*
X12574657Y-13980928D01*
X12565134Y-13990452D01*
X12546086Y-13999976D01*
X12527038Y-13999976D01*
X12507991Y-13990452D01*
X12498467Y-13980928D01*
X12488943Y-13961881D01*
X12479419Y-13923786D01*
X12479419Y-13876167D01*
X12488943Y-13838071D01*
X12498467Y-13819024D01*
X12507991Y-13809500D01*
X12527038Y-13799976D01*
X12679419Y-13999976D02*
X12679419Y-13866643D01*
X12679419Y-13885690D02*
X12688943Y-13876167D01*
X12707991Y-13866643D01*
X12736562Y-13866643D01*
X12755610Y-13876167D01*
X12765134Y-13895214D01*
X12765134Y-13999976D01*
X12765134Y-13895214D02*
X12774657Y-13876167D01*
X12793705Y-13866643D01*
X12822276Y-13866643D01*
X12841324Y-13876167D01*
X12850848Y-13895214D01*
X12850848Y-13999976D01*
X12946086Y-13999976D02*
X12946086Y-13866643D01*
X12946086Y-13885690D02*
X12955610Y-13876167D01*
X12974657Y-13866643D01*
X13003229Y-13866643D01*
X13022276Y-13876167D01*
X13031800Y-13895214D01*
X13031800Y-13999976D01*
X13031800Y-13895214D02*
X13041324Y-13876167D01*
X13060372Y-13866643D01*
X13088943Y-13866643D01*
X13107991Y-13876167D01*
X13117515Y-13895214D01*
X13117515Y-13999976D01*
X13507991Y-13790452D02*
X13336562Y-14047595D01*
X13765134Y-13799976D02*
X13784181Y-13799976D01*
X13803229Y-13809500D01*
X13812753Y-13819024D01*
X13822276Y-13838071D01*
X13831800Y-13876167D01*
X13831800Y-13923786D01*
X13822276Y-13961881D01*
X13812753Y-13980928D01*
X13803229Y-13990452D01*
X13784181Y-13999976D01*
X13765134Y-13999976D01*
X13746086Y-13990452D01*
X13736562Y-13980928D01*
X13727038Y-13961881D01*
X13717515Y-13923786D01*
X13717515Y-13876167D01*
X13727038Y-13838071D01*
X13736562Y-13819024D01*
X13746086Y-13809500D01*
X13765134Y-13799976D01*
X13917515Y-13980928D02*
X13927038Y-13990452D01*
X13917515Y-13999976D01*
X13907991Y-13990452D01*
X13917515Y-13980928D01*
X13917515Y-13999976D01*
X14050848Y-13799976D02*
X14069895Y-13799976D01*
X14088943Y-13809500D01*
X14098467Y-13819024D01*
X14107991Y-13838071D01*
X14117515Y-13876167D01*
X14117515Y-13923786D01*
X14107991Y-13961881D01*
X14098467Y-13980928D01*
X14088943Y-13990452D01*
X14069895Y-13999976D01*
X14050848Y-13999976D01*
X14031800Y-13990452D01*
X14022276Y-13980928D01*
X14012753Y-13961881D01*
X14003229Y-13923786D01*
X14003229Y-13876167D01*
X14012753Y-13838071D01*
X14022276Y-13819024D01*
X14031800Y-13809500D01*
X14050848Y-13799976D01*
X14184181Y-13799976D02*
X14307991Y-13799976D01*
X14241324Y-13876167D01*
X14269895Y-13876167D01*
X14288943Y-13885690D01*
X14298467Y-13895214D01*
X14307991Y-13914262D01*
X14307991Y-13961881D01*
X14298467Y-13980928D01*
X14288943Y-13990452D01*
X14269895Y-13999976D01*
X14212753Y-13999976D01*
X14193705Y-13990452D01*
X14184181Y-13980928D01*
X14403229Y-13999976D02*
X14441324Y-13999976D01*
X14460372Y-13990452D01*
X14469895Y-13980928D01*
X14488943Y-13952357D01*
X14498467Y-13914262D01*
X14498467Y-13838071D01*
X14488943Y-13819024D01*
X14479419Y-13809500D01*
X14460372Y-13799976D01*
X14422276Y-13799976D01*
X14403229Y-13809500D01*
X14393705Y-13819024D01*
X14384181Y-13838071D01*
X14384181Y-13885690D01*
X14393705Y-13904738D01*
X14403229Y-13914262D01*
X14422276Y-13923786D01*
X14460372Y-13923786D01*
X14479419Y-13914262D01*
X14488943Y-13904738D01*
X14498467Y-13885690D01*
X14669895Y-13866643D02*
X14669895Y-13999976D01*
X14622276Y-13790452D02*
X14574657Y-13933309D01*
X14698467Y-13933309D01*
X14765134Y-13799976D02*
X14765134Y-13838071D01*
X14841324Y-13799976D02*
X14841324Y-13838071D01*
X15136562Y-14076167D02*
X15127038Y-14066643D01*
X15107991Y-14038071D01*
X15098467Y-14019024D01*
X15088943Y-13990452D01*
X15079419Y-13942833D01*
X15079419Y-13904738D01*
X15088943Y-13857119D01*
X15098467Y-13828548D01*
X15107991Y-13809500D01*
X15127038Y-13780928D01*
X15136562Y-13771405D01*
X15203229Y-13819024D02*
X15212753Y-13809500D01*
X15231800Y-13799976D01*
X15279419Y-13799976D01*
X15298467Y-13809500D01*
X15307991Y-13819024D01*
X15317515Y-13838071D01*
X15317515Y-13857119D01*
X15307991Y-13885690D01*
X15193705Y-13999976D01*
X15317515Y-13999976D01*
X15555610Y-13999976D02*
X15555610Y-13799976D01*
X15641324Y-13999976D02*
X15641324Y-13895214D01*
X15631800Y-13876167D01*
X15612753Y-13866643D01*
X15584181Y-13866643D01*
X15565134Y-13876167D01*
X15555610Y-13885690D01*
X15765134Y-13999976D02*
X15746086Y-13990452D01*
X15736562Y-13980928D01*
X15727038Y-13961881D01*
X15727038Y-13904738D01*
X15736562Y-13885690D01*
X15746086Y-13876167D01*
X15765134Y-13866643D01*
X15793705Y-13866643D01*
X15812753Y-13876167D01*
X15822276Y-13885690D01*
X15831800Y-13904738D01*
X15831800Y-13961881D01*
X15822276Y-13980928D01*
X15812753Y-13990452D01*
X15793705Y-13999976D01*
X15765134Y-13999976D01*
X15946086Y-13999976D02*
X15927038Y-13990452D01*
X15917515Y-13971405D01*
X15917515Y-13799976D01*
X16098467Y-13990452D02*
X16079419Y-13999976D01*
X16041324Y-13999976D01*
X16022276Y-13990452D01*
X16012753Y-13971405D01*
X16012753Y-13895214D01*
X16022276Y-13876167D01*
X16041324Y-13866643D01*
X16079419Y-13866643D01*
X16098467Y-13876167D01*
X16107991Y-13895214D01*
X16107991Y-13914262D01*
X16012753Y-13933309D01*
X16184181Y-13990452D02*
X16203229Y-13999976D01*
X16241324Y-13999976D01*
X16260372Y-13990452D01*
X16269895Y-13971405D01*
X16269895Y-13961881D01*
X16260372Y-13942833D01*
X16241324Y-13933309D01*
X16212753Y-13933309D01*
X16193705Y-13923786D01*
X16184181Y-13904738D01*
X16184181Y-13895214D01*
X16193705Y-13876167D01*
X16212753Y-13866643D01*
X16241324Y-13866643D01*
X16260372Y-13876167D01*
X16336562Y-14076167D02*
X16346086Y-14066643D01*
X16365134Y-14038071D01*
X16374657Y-14019024D01*
X16384181Y-13990452D01*
X16393705Y-13942833D01*
X16393705Y-13904738D01*
X16384181Y-13857119D01*
X16374657Y-13828548D01*
X16365134Y-13809500D01*
X16346086Y-13780928D01*
X16336562Y-13771405D01*
M02*
