G04 #@! TF.GenerationSoftware,KiCad,Pcbnew,(6.0.9)*
G04 #@! TF.CreationDate,2022-11-30T10:01:03+01:00*
G04 #@! TF.ProjectId,LDAD ATOM PRO,4c444144-2041-4544-9f4d-2050524f2e6b,5.3*
G04 #@! TF.SameCoordinates,Original*
G04 #@! TF.FileFunction,Legend,Bot*
G04 #@! TF.FilePolarity,Positive*
%FSLAX46Y46*%
G04 Gerber Fmt 4.6, Leading zero omitted, Abs format (unit mm)*
G04 Created by KiCad (PCBNEW (6.0.9)) date 2022-11-30 10:01:03*
%MOMM*%
%LPD*%
G01*
G04 APERTURE LIST*
%ADD10C,0.100000*%
%ADD11C,0.150000*%
%ADD12C,0.300000*%
%ADD13C,0.400000*%
%ADD14C,0.280000*%
%ADD15C,0.340000*%
%ADD16C,0.200000*%
%ADD17C,0.350000*%
%ADD18C,0.500000*%
%ADD19C,0.254000*%
G04 #@! TA.AperFunction,Profile*
%ADD20C,0.120000*%
G04 #@! TD*
%ADD21C,0.120000*%
%ADD22C,0.127000*%
%ADD23C,0.381000*%
%ADD24C,0.508000*%
G04 APERTURE END LIST*
D10*
D11*
X177002200Y-166007200D02*
X177002200Y-198007200D01*
X285002200Y-198007200D01*
X285002200Y-166007200D01*
X177002200Y-166007200D01*
D10*
D11*
X10000000Y-10000000D02*
X10000000Y-200007200D01*
X287002200Y-200007200D01*
X287002200Y-10000000D01*
X10000000Y-10000000D01*
D10*
D11*
X12000000Y-12000000D02*
X12000000Y-198007200D01*
X285002200Y-198007200D01*
X285002200Y-12000000D01*
X12000000Y-12000000D01*
D10*
D11*
X60000000Y-12000000D02*
X60000000Y-10000000D01*
D10*
D11*
X110000000Y-12000000D02*
X110000000Y-10000000D01*
D10*
D11*
X160000000Y-12000000D02*
X160000000Y-10000000D01*
D10*
D11*
X210000000Y-12000000D02*
X210000000Y-10000000D01*
D10*
D11*
X260000000Y-12000000D02*
X260000000Y-10000000D01*
D10*
D11*
X36065476Y-11588095D02*
X35322619Y-11588095D01*
X35694047Y-11588095D02*
X35694047Y-10288095D01*
X35570238Y-10473809D01*
X35446428Y-10597619D01*
X35322619Y-10659523D01*
D10*
D11*
X85322619Y-10411904D02*
X85384523Y-10350000D01*
X85508333Y-10288095D01*
X85817857Y-10288095D01*
X85941666Y-10350000D01*
X86003571Y-10411904D01*
X86065476Y-10535714D01*
X86065476Y-10659523D01*
X86003571Y-10845238D01*
X85260714Y-11588095D01*
X86065476Y-11588095D01*
D10*
D11*
X135260714Y-10288095D02*
X136065476Y-10288095D01*
X135632142Y-10783333D01*
X135817857Y-10783333D01*
X135941666Y-10845238D01*
X136003571Y-10907142D01*
X136065476Y-11030952D01*
X136065476Y-11340476D01*
X136003571Y-11464285D01*
X135941666Y-11526190D01*
X135817857Y-11588095D01*
X135446428Y-11588095D01*
X135322619Y-11526190D01*
X135260714Y-11464285D01*
D10*
D11*
X185941666Y-10721428D02*
X185941666Y-11588095D01*
X185632142Y-10226190D02*
X185322619Y-11154761D01*
X186127380Y-11154761D01*
D10*
D11*
X236003571Y-10288095D02*
X235384523Y-10288095D01*
X235322619Y-10907142D01*
X235384523Y-10845238D01*
X235508333Y-10783333D01*
X235817857Y-10783333D01*
X235941666Y-10845238D01*
X236003571Y-10907142D01*
X236065476Y-11030952D01*
X236065476Y-11340476D01*
X236003571Y-11464285D01*
X235941666Y-11526190D01*
X235817857Y-11588095D01*
X235508333Y-11588095D01*
X235384523Y-11526190D01*
X235322619Y-11464285D01*
D10*
D11*
X285941666Y-10288095D02*
X285694047Y-10288095D01*
X285570238Y-10350000D01*
X285508333Y-10411904D01*
X285384523Y-10597619D01*
X285322619Y-10845238D01*
X285322619Y-11340476D01*
X285384523Y-11464285D01*
X285446428Y-11526190D01*
X285570238Y-11588095D01*
X285817857Y-11588095D01*
X285941666Y-11526190D01*
X286003571Y-11464285D01*
X286065476Y-11340476D01*
X286065476Y-11030952D01*
X286003571Y-10907142D01*
X285941666Y-10845238D01*
X285817857Y-10783333D01*
X285570238Y-10783333D01*
X285446428Y-10845238D01*
X285384523Y-10907142D01*
X285322619Y-11030952D01*
D10*
D11*
X60000000Y-198007200D02*
X60000000Y-200007200D01*
D10*
D11*
X110000000Y-198007200D02*
X110000000Y-200007200D01*
D10*
D11*
X160000000Y-198007200D02*
X160000000Y-200007200D01*
D10*
D11*
X210000000Y-198007200D02*
X210000000Y-200007200D01*
D10*
D11*
X260000000Y-198007200D02*
X260000000Y-200007200D01*
D10*
D11*
X36065476Y-199595295D02*
X35322619Y-199595295D01*
X35694047Y-199595295D02*
X35694047Y-198295295D01*
X35570238Y-198481009D01*
X35446428Y-198604819D01*
X35322619Y-198666723D01*
D10*
D11*
X85322619Y-198419104D02*
X85384523Y-198357200D01*
X85508333Y-198295295D01*
X85817857Y-198295295D01*
X85941666Y-198357200D01*
X86003571Y-198419104D01*
X86065476Y-198542914D01*
X86065476Y-198666723D01*
X86003571Y-198852438D01*
X85260714Y-199595295D01*
X86065476Y-199595295D01*
D10*
D11*
X135260714Y-198295295D02*
X136065476Y-198295295D01*
X135632142Y-198790533D01*
X135817857Y-198790533D01*
X135941666Y-198852438D01*
X136003571Y-198914342D01*
X136065476Y-199038152D01*
X136065476Y-199347676D01*
X136003571Y-199471485D01*
X135941666Y-199533390D01*
X135817857Y-199595295D01*
X135446428Y-199595295D01*
X135322619Y-199533390D01*
X135260714Y-199471485D01*
D10*
D11*
X185941666Y-198728628D02*
X185941666Y-199595295D01*
X185632142Y-198233390D02*
X185322619Y-199161961D01*
X186127380Y-199161961D01*
D10*
D11*
X236003571Y-198295295D02*
X235384523Y-198295295D01*
X235322619Y-198914342D01*
X235384523Y-198852438D01*
X235508333Y-198790533D01*
X235817857Y-198790533D01*
X235941666Y-198852438D01*
X236003571Y-198914342D01*
X236065476Y-199038152D01*
X236065476Y-199347676D01*
X236003571Y-199471485D01*
X235941666Y-199533390D01*
X235817857Y-199595295D01*
X235508333Y-199595295D01*
X235384523Y-199533390D01*
X235322619Y-199471485D01*
D10*
D11*
X285941666Y-198295295D02*
X285694047Y-198295295D01*
X285570238Y-198357200D01*
X285508333Y-198419104D01*
X285384523Y-198604819D01*
X285322619Y-198852438D01*
X285322619Y-199347676D01*
X285384523Y-199471485D01*
X285446428Y-199533390D01*
X285570238Y-199595295D01*
X285817857Y-199595295D01*
X285941666Y-199533390D01*
X286003571Y-199471485D01*
X286065476Y-199347676D01*
X286065476Y-199038152D01*
X286003571Y-198914342D01*
X285941666Y-198852438D01*
X285817857Y-198790533D01*
X285570238Y-198790533D01*
X285446428Y-198852438D01*
X285384523Y-198914342D01*
X285322619Y-199038152D01*
D10*
D11*
X10000000Y-60000000D02*
X12000000Y-60000000D01*
D10*
D11*
X10000000Y-110000000D02*
X12000000Y-110000000D01*
D10*
D11*
X10000000Y-160000000D02*
X12000000Y-160000000D01*
D10*
D11*
X10690476Y-35216666D02*
X11309523Y-35216666D01*
X10566666Y-35588095D02*
X11000000Y-34288095D01*
X11433333Y-35588095D01*
D10*
D11*
X11092857Y-84907142D02*
X11278571Y-84969047D01*
X11340476Y-85030952D01*
X11402380Y-85154761D01*
X11402380Y-85340476D01*
X11340476Y-85464285D01*
X11278571Y-85526190D01*
X11154761Y-85588095D01*
X10659523Y-85588095D01*
X10659523Y-84288095D01*
X11092857Y-84288095D01*
X11216666Y-84350000D01*
X11278571Y-84411904D01*
X11340476Y-84535714D01*
X11340476Y-84659523D01*
X11278571Y-84783333D01*
X11216666Y-84845238D01*
X11092857Y-84907142D01*
X10659523Y-84907142D01*
D10*
D11*
X11402380Y-135464285D02*
X11340476Y-135526190D01*
X11154761Y-135588095D01*
X11030952Y-135588095D01*
X10845238Y-135526190D01*
X10721428Y-135402380D01*
X10659523Y-135278571D01*
X10597619Y-135030952D01*
X10597619Y-134845238D01*
X10659523Y-134597619D01*
X10721428Y-134473809D01*
X10845238Y-134350000D01*
X11030952Y-134288095D01*
X11154761Y-134288095D01*
X11340476Y-134350000D01*
X11402380Y-134411904D01*
D10*
D11*
X10659523Y-185588095D02*
X10659523Y-184288095D01*
X10969047Y-184288095D01*
X11154761Y-184350000D01*
X11278571Y-184473809D01*
X11340476Y-184597619D01*
X11402380Y-184845238D01*
X11402380Y-185030952D01*
X11340476Y-185278571D01*
X11278571Y-185402380D01*
X11154761Y-185526190D01*
X10969047Y-185588095D01*
X10659523Y-185588095D01*
D10*
D11*
X287002200Y-60000000D02*
X285002200Y-60000000D01*
D10*
D11*
X287002200Y-110000000D02*
X285002200Y-110000000D01*
D10*
D11*
X287002200Y-160000000D02*
X285002200Y-160000000D01*
D10*
D11*
X285692676Y-35216666D02*
X286311723Y-35216666D01*
X285568866Y-35588095D02*
X286002200Y-34288095D01*
X286435533Y-35588095D01*
D10*
D11*
X286095057Y-84907142D02*
X286280771Y-84969047D01*
X286342676Y-85030952D01*
X286404580Y-85154761D01*
X286404580Y-85340476D01*
X286342676Y-85464285D01*
X286280771Y-85526190D01*
X286156961Y-85588095D01*
X285661723Y-85588095D01*
X285661723Y-84288095D01*
X286095057Y-84288095D01*
X286218866Y-84350000D01*
X286280771Y-84411904D01*
X286342676Y-84535714D01*
X286342676Y-84659523D01*
X286280771Y-84783333D01*
X286218866Y-84845238D01*
X286095057Y-84907142D01*
X285661723Y-84907142D01*
D10*
D11*
X286404580Y-135464285D02*
X286342676Y-135526190D01*
X286156961Y-135588095D01*
X286033152Y-135588095D01*
X285847438Y-135526190D01*
X285723628Y-135402380D01*
X285661723Y-135278571D01*
X285599819Y-135030952D01*
X285599819Y-134845238D01*
X285661723Y-134597619D01*
X285723628Y-134473809D01*
X285847438Y-134350000D01*
X286033152Y-134288095D01*
X286156961Y-134288095D01*
X286342676Y-134350000D01*
X286404580Y-134411904D01*
D10*
D11*
X285661723Y-185588095D02*
X285661723Y-184288095D01*
X285971247Y-184288095D01*
X286156961Y-184350000D01*
X286280771Y-184473809D01*
X286342676Y-184597619D01*
X286404580Y-184845238D01*
X286404580Y-185030952D01*
X286342676Y-185278571D01*
X286280771Y-185402380D01*
X286156961Y-185526190D01*
X285971247Y-185588095D01*
X285661723Y-185588095D01*
D10*
D11*
X200434342Y-193785771D02*
X200434342Y-192285771D01*
X200791485Y-192285771D01*
X201005771Y-192357200D01*
X201148628Y-192500057D01*
X201220057Y-192642914D01*
X201291485Y-192928628D01*
X201291485Y-193142914D01*
X201220057Y-193428628D01*
X201148628Y-193571485D01*
X201005771Y-193714342D01*
X200791485Y-193785771D01*
X200434342Y-193785771D01*
X202577200Y-193785771D02*
X202577200Y-193000057D01*
X202505771Y-192857200D01*
X202362914Y-192785771D01*
X202077200Y-192785771D01*
X201934342Y-192857200D01*
X202577200Y-193714342D02*
X202434342Y-193785771D01*
X202077200Y-193785771D01*
X201934342Y-193714342D01*
X201862914Y-193571485D01*
X201862914Y-193428628D01*
X201934342Y-193285771D01*
X202077200Y-193214342D01*
X202434342Y-193214342D01*
X202577200Y-193142914D01*
X203077200Y-192785771D02*
X203648628Y-192785771D01*
X203291485Y-192285771D02*
X203291485Y-193571485D01*
X203362914Y-193714342D01*
X203505771Y-193785771D01*
X203648628Y-193785771D01*
X204720057Y-193714342D02*
X204577200Y-193785771D01*
X204291485Y-193785771D01*
X204148628Y-193714342D01*
X204077200Y-193571485D01*
X204077200Y-193000057D01*
X204148628Y-192857200D01*
X204291485Y-192785771D01*
X204577200Y-192785771D01*
X204720057Y-192857200D01*
X204791485Y-193000057D01*
X204791485Y-193142914D01*
X204077200Y-193285771D01*
X205434342Y-193642914D02*
X205505771Y-193714342D01*
X205434342Y-193785771D01*
X205362914Y-193714342D01*
X205434342Y-193642914D01*
X205434342Y-193785771D01*
X205434342Y-192857200D02*
X205505771Y-192928628D01*
X205434342Y-193000057D01*
X205362914Y-192928628D01*
X205434342Y-192857200D01*
X205434342Y-193000057D01*
X207220057Y-192428628D02*
X207291485Y-192357200D01*
X207434342Y-192285771D01*
X207791485Y-192285771D01*
X207934342Y-192357200D01*
X208005771Y-192428628D01*
X208077200Y-192571485D01*
X208077200Y-192714342D01*
X208005771Y-192928628D01*
X207148628Y-193785771D01*
X208077200Y-193785771D01*
X209005771Y-192285771D02*
X209148628Y-192285771D01*
X209291485Y-192357200D01*
X209362914Y-192428628D01*
X209434342Y-192571485D01*
X209505771Y-192857200D01*
X209505771Y-193214342D01*
X209434342Y-193500057D01*
X209362914Y-193642914D01*
X209291485Y-193714342D01*
X209148628Y-193785771D01*
X209005771Y-193785771D01*
X208862914Y-193714342D01*
X208791485Y-193642914D01*
X208720057Y-193500057D01*
X208648628Y-193214342D01*
X208648628Y-192857200D01*
X208720057Y-192571485D01*
X208791485Y-192428628D01*
X208862914Y-192357200D01*
X209005771Y-192285771D01*
X210077200Y-192428628D02*
X210148628Y-192357200D01*
X210291485Y-192285771D01*
X210648628Y-192285771D01*
X210791485Y-192357200D01*
X210862914Y-192428628D01*
X210934342Y-192571485D01*
X210934342Y-192714342D01*
X210862914Y-192928628D01*
X210005771Y-193785771D01*
X210934342Y-193785771D01*
X212362914Y-193785771D02*
X211505771Y-193785771D01*
X211934342Y-193785771D02*
X211934342Y-192285771D01*
X211791485Y-192500057D01*
X211648628Y-192642914D01*
X211505771Y-192714342D01*
X213005771Y-193214342D02*
X214148628Y-193214342D01*
X215648628Y-193785771D02*
X214791485Y-193785771D01*
X215220057Y-193785771D02*
X215220057Y-192285771D01*
X215077200Y-192500057D01*
X214934342Y-192642914D01*
X214791485Y-192714342D01*
X216220057Y-192428628D02*
X216291485Y-192357200D01*
X216434342Y-192285771D01*
X216791485Y-192285771D01*
X216934342Y-192357200D01*
X217005771Y-192428628D01*
X217077200Y-192571485D01*
X217077200Y-192714342D01*
X217005771Y-192928628D01*
X216148628Y-193785771D01*
X217077200Y-193785771D01*
X217720057Y-193214342D02*
X218862914Y-193214342D01*
X219505771Y-192428628D02*
X219577200Y-192357200D01*
X219720057Y-192285771D01*
X220077200Y-192285771D01*
X220220057Y-192357200D01*
X220291485Y-192428628D01*
X220362914Y-192571485D01*
X220362914Y-192714342D01*
X220291485Y-192928628D01*
X219434342Y-193785771D01*
X220362914Y-193785771D01*
X221220057Y-192928628D02*
X221077200Y-192857200D01*
X221005771Y-192785771D01*
X220934342Y-192642914D01*
X220934342Y-192571485D01*
X221005771Y-192428628D01*
X221077200Y-192357200D01*
X221220057Y-192285771D01*
X221505771Y-192285771D01*
X221648628Y-192357200D01*
X221720057Y-192428628D01*
X221791485Y-192571485D01*
X221791485Y-192642914D01*
X221720057Y-192785771D01*
X221648628Y-192857200D01*
X221505771Y-192928628D01*
X221220057Y-192928628D01*
X221077200Y-193000057D01*
X221005771Y-193071485D01*
X220934342Y-193214342D01*
X220934342Y-193500057D01*
X221005771Y-193642914D01*
X221077200Y-193714342D01*
X221220057Y-193785771D01*
X221505771Y-193785771D01*
X221648628Y-193714342D01*
X221720057Y-193642914D01*
X221791485Y-193500057D01*
X221791485Y-193214342D01*
X221720057Y-193071485D01*
X221648628Y-193000057D01*
X221505771Y-192928628D01*
D10*
D11*
X177002200Y-194507200D02*
X285002200Y-194507200D01*
D10*
D11*
X178434342Y-196585771D02*
X178434342Y-195085771D01*
X179291485Y-196585771D02*
X178648628Y-195728628D01*
X179291485Y-195085771D02*
X178434342Y-195942914D01*
X179934342Y-196585771D02*
X179934342Y-195585771D01*
X179934342Y-195085771D02*
X179862914Y-195157200D01*
X179934342Y-195228628D01*
X180005771Y-195157200D01*
X179934342Y-195085771D01*
X179934342Y-195228628D01*
X181505771Y-196442914D02*
X181434342Y-196514342D01*
X181220057Y-196585771D01*
X181077200Y-196585771D01*
X180862914Y-196514342D01*
X180720057Y-196371485D01*
X180648628Y-196228628D01*
X180577200Y-195942914D01*
X180577200Y-195728628D01*
X180648628Y-195442914D01*
X180720057Y-195300057D01*
X180862914Y-195157200D01*
X181077200Y-195085771D01*
X181220057Y-195085771D01*
X181434342Y-195157200D01*
X181505771Y-195228628D01*
X182791485Y-196585771D02*
X182791485Y-195800057D01*
X182720057Y-195657200D01*
X182577200Y-195585771D01*
X182291485Y-195585771D01*
X182148628Y-195657200D01*
X182791485Y-196514342D02*
X182648628Y-196585771D01*
X182291485Y-196585771D01*
X182148628Y-196514342D01*
X182077200Y-196371485D01*
X182077200Y-196228628D01*
X182148628Y-196085771D01*
X182291485Y-196014342D01*
X182648628Y-196014342D01*
X182791485Y-195942914D01*
X184148628Y-196585771D02*
X184148628Y-195085771D01*
X184148628Y-196514342D02*
X184005771Y-196585771D01*
X183720057Y-196585771D01*
X183577200Y-196514342D01*
X183505771Y-196442914D01*
X183434342Y-196300057D01*
X183434342Y-195871485D01*
X183505771Y-195728628D01*
X183577200Y-195657200D01*
X183720057Y-195585771D01*
X184005771Y-195585771D01*
X184148628Y-195657200D01*
X186005771Y-195800057D02*
X186505771Y-195800057D01*
X186720057Y-196585771D02*
X186005771Y-196585771D01*
X186005771Y-195085771D01*
X186720057Y-195085771D01*
X187362914Y-196442914D02*
X187434342Y-196514342D01*
X187362914Y-196585771D01*
X187291485Y-196514342D01*
X187362914Y-196442914D01*
X187362914Y-196585771D01*
X188077200Y-196585771D02*
X188077200Y-195085771D01*
X188434342Y-195085771D01*
X188648628Y-195157200D01*
X188791485Y-195300057D01*
X188862914Y-195442914D01*
X188934342Y-195728628D01*
X188934342Y-195942914D01*
X188862914Y-196228628D01*
X188791485Y-196371485D01*
X188648628Y-196514342D01*
X188434342Y-196585771D01*
X188077200Y-196585771D01*
X189577200Y-196442914D02*
X189648628Y-196514342D01*
X189577200Y-196585771D01*
X189505771Y-196514342D01*
X189577200Y-196442914D01*
X189577200Y-196585771D01*
X190220057Y-196157200D02*
X190934342Y-196157200D01*
X190077200Y-196585771D02*
X190577200Y-195085771D01*
X191077200Y-196585771D01*
X191577200Y-196442914D02*
X191648628Y-196514342D01*
X191577200Y-196585771D01*
X191505771Y-196514342D01*
X191577200Y-196442914D01*
X191577200Y-196585771D01*
X194577200Y-196585771D02*
X194577200Y-195085771D01*
X194720057Y-196014342D02*
X195148628Y-196585771D01*
X195148628Y-195585771D02*
X194577200Y-196157200D01*
X195791485Y-196585771D02*
X195791485Y-195585771D01*
X195791485Y-195085771D02*
X195720057Y-195157200D01*
X195791485Y-195228628D01*
X195862914Y-195157200D01*
X195791485Y-195085771D01*
X195791485Y-195228628D01*
X197148628Y-196514342D02*
X197005771Y-196585771D01*
X196720057Y-196585771D01*
X196577200Y-196514342D01*
X196505771Y-196442914D01*
X196434342Y-196300057D01*
X196434342Y-195871485D01*
X196505771Y-195728628D01*
X196577200Y-195657200D01*
X196720057Y-195585771D01*
X197005771Y-195585771D01*
X197148628Y-195657200D01*
X198434342Y-196585771D02*
X198434342Y-195800057D01*
X198362914Y-195657200D01*
X198220057Y-195585771D01*
X197934342Y-195585771D01*
X197791485Y-195657200D01*
X198434342Y-196514342D02*
X198291485Y-196585771D01*
X197934342Y-196585771D01*
X197791485Y-196514342D01*
X197720057Y-196371485D01*
X197720057Y-196228628D01*
X197791485Y-196085771D01*
X197934342Y-196014342D01*
X198291485Y-196014342D01*
X198434342Y-195942914D01*
X199791485Y-196585771D02*
X199791485Y-195085771D01*
X199791485Y-196514342D02*
X199648628Y-196585771D01*
X199362914Y-196585771D01*
X199220057Y-196514342D01*
X199148628Y-196442914D01*
X199077200Y-196300057D01*
X199077200Y-195871485D01*
X199148628Y-195728628D01*
X199220057Y-195657200D01*
X199362914Y-195585771D01*
X199648628Y-195585771D01*
X199791485Y-195657200D01*
X202077200Y-197157200D02*
X202005771Y-197085771D01*
X201862914Y-196871485D01*
X201791485Y-196728628D01*
X201720057Y-196514342D01*
X201648628Y-196157200D01*
X201648628Y-195871485D01*
X201720057Y-195514342D01*
X201791485Y-195300057D01*
X201862914Y-195157200D01*
X202005771Y-194942914D01*
X202077200Y-194871485D01*
X203291485Y-195085771D02*
X203005771Y-195085771D01*
X202862914Y-195157200D01*
X202791485Y-195228628D01*
X202648628Y-195442914D01*
X202577200Y-195728628D01*
X202577200Y-196300057D01*
X202648628Y-196442914D01*
X202720057Y-196514342D01*
X202862914Y-196585771D01*
X203148628Y-196585771D01*
X203291485Y-196514342D01*
X203362914Y-196442914D01*
X203434342Y-196300057D01*
X203434342Y-195942914D01*
X203362914Y-195800057D01*
X203291485Y-195728628D01*
X203148628Y-195657200D01*
X202862914Y-195657200D01*
X202720057Y-195728628D01*
X202648628Y-195800057D01*
X202577200Y-195942914D01*
X204077200Y-196442914D02*
X204148628Y-196514342D01*
X204077200Y-196585771D01*
X204005771Y-196514342D01*
X204077200Y-196442914D01*
X204077200Y-196585771D01*
X205077200Y-195085771D02*
X205220057Y-195085771D01*
X205362914Y-195157200D01*
X205434342Y-195228628D01*
X205505771Y-195371485D01*
X205577200Y-195657200D01*
X205577200Y-196014342D01*
X205505771Y-196300057D01*
X205434342Y-196442914D01*
X205362914Y-196514342D01*
X205220057Y-196585771D01*
X205077200Y-196585771D01*
X204934342Y-196514342D01*
X204862914Y-196442914D01*
X204791485Y-196300057D01*
X204720057Y-196014342D01*
X204720057Y-195657200D01*
X204791485Y-195371485D01*
X204862914Y-195228628D01*
X204934342Y-195157200D01*
X205077200Y-195085771D01*
X206220057Y-196442914D02*
X206291485Y-196514342D01*
X206220057Y-196585771D01*
X206148628Y-196514342D01*
X206220057Y-196442914D01*
X206220057Y-196585771D01*
X207005771Y-196585771D02*
X207291485Y-196585771D01*
X207434342Y-196514342D01*
X207505771Y-196442914D01*
X207648628Y-196228628D01*
X207720057Y-195942914D01*
X207720057Y-195371485D01*
X207648628Y-195228628D01*
X207577200Y-195157200D01*
X207434342Y-195085771D01*
X207148628Y-195085771D01*
X207005771Y-195157200D01*
X206934342Y-195228628D01*
X206862914Y-195371485D01*
X206862914Y-195728628D01*
X206934342Y-195871485D01*
X207005771Y-195942914D01*
X207148628Y-196014342D01*
X207434342Y-196014342D01*
X207577200Y-195942914D01*
X207648628Y-195871485D01*
X207720057Y-195728628D01*
X208220057Y-197157200D02*
X208291485Y-197085771D01*
X208434342Y-196871485D01*
X208505771Y-196728628D01*
X208577200Y-196514342D01*
X208648628Y-196157200D01*
X208648628Y-195871485D01*
X208577200Y-195514342D01*
X208505771Y-195300057D01*
X208434342Y-195157200D01*
X208291485Y-194942914D01*
X208220057Y-194871485D01*
D10*
D11*
X177002200Y-191507200D02*
X285002200Y-191507200D01*
D10*
D12*
X264411485Y-193785771D02*
X263911485Y-193071485D01*
X263554342Y-193785771D02*
X263554342Y-192285771D01*
X264125771Y-192285771D01*
X264268628Y-192357200D01*
X264340057Y-192428628D01*
X264411485Y-192571485D01*
X264411485Y-192785771D01*
X264340057Y-192928628D01*
X264268628Y-193000057D01*
X264125771Y-193071485D01*
X263554342Y-193071485D01*
X265625771Y-193714342D02*
X265482914Y-193785771D01*
X265197200Y-193785771D01*
X265054342Y-193714342D01*
X264982914Y-193571485D01*
X264982914Y-193000057D01*
X265054342Y-192857200D01*
X265197200Y-192785771D01*
X265482914Y-192785771D01*
X265625771Y-192857200D01*
X265697200Y-193000057D01*
X265697200Y-193142914D01*
X264982914Y-193285771D01*
X266197200Y-192785771D02*
X266554342Y-193785771D01*
X266911485Y-192785771D01*
X267482914Y-193642914D02*
X267554342Y-193714342D01*
X267482914Y-193785771D01*
X267411485Y-193714342D01*
X267482914Y-193642914D01*
X267482914Y-193785771D01*
X267482914Y-192857200D02*
X267554342Y-192928628D01*
X267482914Y-193000057D01*
X267411485Y-192928628D01*
X267482914Y-192857200D01*
X267482914Y-193000057D01*
X270054342Y-192285771D02*
X269340057Y-192285771D01*
X269268628Y-193000057D01*
X269340057Y-192928628D01*
X269482914Y-192857200D01*
X269840057Y-192857200D01*
X269982914Y-192928628D01*
X270054342Y-193000057D01*
X270125771Y-193142914D01*
X270125771Y-193500057D01*
X270054342Y-193642914D01*
X269982914Y-193714342D01*
X269840057Y-193785771D01*
X269482914Y-193785771D01*
X269340057Y-193714342D01*
X269268628Y-193642914D01*
X270768628Y-193642914D02*
X270840057Y-193714342D01*
X270768628Y-193785771D01*
X270697200Y-193714342D01*
X270768628Y-193642914D01*
X270768628Y-193785771D01*
X271340057Y-192285771D02*
X272268628Y-192285771D01*
X271768628Y-192857200D01*
X271982914Y-192857200D01*
X272125771Y-192928628D01*
X272197200Y-193000057D01*
X272268628Y-193142914D01*
X272268628Y-193500057D01*
X272197200Y-193642914D01*
X272125771Y-193714342D01*
X271982914Y-193785771D01*
X271554342Y-193785771D01*
X271411485Y-193714342D01*
X271340057Y-193642914D01*
D10*
D11*
X178362914Y-193714342D02*
X178577200Y-193785771D01*
X178934342Y-193785771D01*
X179077200Y-193714342D01*
X179148628Y-193642914D01*
X179220057Y-193500057D01*
X179220057Y-193357200D01*
X179148628Y-193214342D01*
X179077200Y-193142914D01*
X178934342Y-193071485D01*
X178648628Y-193000057D01*
X178505771Y-192928628D01*
X178434342Y-192857200D01*
X178362914Y-192714342D01*
X178362914Y-192571485D01*
X178434342Y-192428628D01*
X178505771Y-192357200D01*
X178648628Y-192285771D01*
X179005771Y-192285771D01*
X179220057Y-192357200D01*
X179862914Y-193785771D02*
X179862914Y-192785771D01*
X179862914Y-192285771D02*
X179791485Y-192357200D01*
X179862914Y-192428628D01*
X179934342Y-192357200D01*
X179862914Y-192285771D01*
X179862914Y-192428628D01*
X180434342Y-192785771D02*
X181220057Y-192785771D01*
X180434342Y-193785771D01*
X181220057Y-193785771D01*
X182362914Y-193714342D02*
X182220057Y-193785771D01*
X181934342Y-193785771D01*
X181791485Y-193714342D01*
X181720057Y-193571485D01*
X181720057Y-193000057D01*
X181791485Y-192857200D01*
X181934342Y-192785771D01*
X182220057Y-192785771D01*
X182362914Y-192857200D01*
X182434342Y-193000057D01*
X182434342Y-193142914D01*
X181720057Y-193285771D01*
X183077200Y-193642914D02*
X183148628Y-193714342D01*
X183077200Y-193785771D01*
X183005771Y-193714342D01*
X183077200Y-193642914D01*
X183077200Y-193785771D01*
X183077200Y-192857200D02*
X183148628Y-192928628D01*
X183077200Y-193000057D01*
X183005771Y-192928628D01*
X183077200Y-192857200D01*
X183077200Y-193000057D01*
X184862914Y-193357200D02*
X185577200Y-193357200D01*
X184720057Y-193785771D02*
X185220057Y-192285771D01*
X185720057Y-193785771D01*
X186862914Y-192785771D02*
X186862914Y-193785771D01*
X186505771Y-192214342D02*
X186148628Y-193285771D01*
X187077200Y-193285771D01*
D10*
D11*
X263434342Y-196585771D02*
X263434342Y-195085771D01*
X264791485Y-196585771D02*
X264791485Y-195085771D01*
X264791485Y-196514342D02*
X264648628Y-196585771D01*
X264362914Y-196585771D01*
X264220057Y-196514342D01*
X264148628Y-196442914D01*
X264077200Y-196300057D01*
X264077200Y-195871485D01*
X264148628Y-195728628D01*
X264220057Y-195657200D01*
X264362914Y-195585771D01*
X264648628Y-195585771D01*
X264791485Y-195657200D01*
X265505771Y-196442914D02*
X265577200Y-196514342D01*
X265505771Y-196585771D01*
X265434342Y-196514342D01*
X265505771Y-196442914D01*
X265505771Y-196585771D01*
X265505771Y-195657200D02*
X265577200Y-195728628D01*
X265505771Y-195800057D01*
X265434342Y-195728628D01*
X265505771Y-195657200D01*
X265505771Y-195800057D01*
X268148628Y-196585771D02*
X267291485Y-196585771D01*
X267720057Y-196585771D02*
X267720057Y-195085771D01*
X267577200Y-195300057D01*
X267434342Y-195442914D01*
X267291485Y-195514342D01*
X269862914Y-195014342D02*
X268577200Y-196942914D01*
X271148628Y-196585771D02*
X270291485Y-196585771D01*
X270720057Y-196585771D02*
X270720057Y-195085771D01*
X270577200Y-195300057D01*
X270434342Y-195442914D01*
X270291485Y-195514342D01*
D10*
D11*
X177002200Y-187507200D02*
X285002200Y-187507200D01*
D10*
D13*
X178714580Y-188211961D02*
X179857438Y-188211961D01*
X179036009Y-190211961D02*
X179286009Y-188211961D01*
X180274104Y-190211961D02*
X180440771Y-188878628D01*
X180524104Y-188211961D02*
X180416961Y-188307200D01*
X180500295Y-188402438D01*
X180607438Y-188307200D01*
X180524104Y-188211961D01*
X180500295Y-188402438D01*
X181107438Y-188878628D02*
X181869342Y-188878628D01*
X181476485Y-188211961D02*
X181262200Y-189926247D01*
X181333628Y-190116723D01*
X181512200Y-190211961D01*
X181702676Y-190211961D01*
X182655057Y-190211961D02*
X182476485Y-190116723D01*
X182405057Y-189926247D01*
X182619342Y-188211961D01*
X184190771Y-190116723D02*
X183988390Y-190211961D01*
X183607438Y-190211961D01*
X183428866Y-190116723D01*
X183357438Y-189926247D01*
X183452676Y-189164342D01*
X183571723Y-188973866D01*
X183774104Y-188878628D01*
X184155057Y-188878628D01*
X184333628Y-188973866D01*
X184405057Y-189164342D01*
X184381247Y-189354819D01*
X183405057Y-189545295D01*
X185155057Y-190021485D02*
X185238390Y-190116723D01*
X185131247Y-190211961D01*
X185047914Y-190116723D01*
X185155057Y-190021485D01*
X185131247Y-190211961D01*
X185286009Y-188973866D02*
X185369342Y-189069104D01*
X185262200Y-189164342D01*
X185178866Y-189069104D01*
X185286009Y-188973866D01*
X185262200Y-189164342D01*
D10*
D11*
X178934342Y-185600057D02*
X178434342Y-185600057D01*
X178434342Y-186385771D02*
X178434342Y-184885771D01*
X179148628Y-184885771D01*
X179720057Y-186385771D02*
X179720057Y-185385771D01*
X179720057Y-184885771D02*
X179648628Y-184957200D01*
X179720057Y-185028628D01*
X179791485Y-184957200D01*
X179720057Y-184885771D01*
X179720057Y-185028628D01*
X180648628Y-186385771D02*
X180505771Y-186314342D01*
X180434342Y-186171485D01*
X180434342Y-184885771D01*
X181791485Y-186314342D02*
X181648628Y-186385771D01*
X181362914Y-186385771D01*
X181220057Y-186314342D01*
X181148628Y-186171485D01*
X181148628Y-185600057D01*
X181220057Y-185457200D01*
X181362914Y-185385771D01*
X181648628Y-185385771D01*
X181791485Y-185457200D01*
X181862914Y-185600057D01*
X181862914Y-185742914D01*
X181148628Y-185885771D01*
X182505771Y-186242914D02*
X182577200Y-186314342D01*
X182505771Y-186385771D01*
X182434342Y-186314342D01*
X182505771Y-186242914D01*
X182505771Y-186385771D01*
X182505771Y-185457200D02*
X182577200Y-185528628D01*
X182505771Y-185600057D01*
X182434342Y-185528628D01*
X182505771Y-185457200D01*
X182505771Y-185600057D01*
X185077200Y-186385771D02*
X184362914Y-186385771D01*
X184362914Y-184885771D01*
X185577200Y-186385771D02*
X185577200Y-184885771D01*
X185934342Y-184885771D01*
X186148628Y-184957200D01*
X186291485Y-185100057D01*
X186362914Y-185242914D01*
X186434342Y-185528628D01*
X186434342Y-185742914D01*
X186362914Y-186028628D01*
X186291485Y-186171485D01*
X186148628Y-186314342D01*
X185934342Y-186385771D01*
X185577200Y-186385771D01*
X187005771Y-185957200D02*
X187720057Y-185957200D01*
X186862914Y-186385771D02*
X187362914Y-184885771D01*
X187862914Y-186385771D01*
X188362914Y-186385771D02*
X188362914Y-184885771D01*
X188720057Y-184885771D01*
X188934342Y-184957200D01*
X189077200Y-185100057D01*
X189148628Y-185242914D01*
X189220057Y-185528628D01*
X189220057Y-185742914D01*
X189148628Y-186028628D01*
X189077200Y-186171485D01*
X188934342Y-186314342D01*
X188720057Y-186385771D01*
X188362914Y-186385771D01*
X190934342Y-185957200D02*
X191648628Y-185957200D01*
X190791485Y-186385771D02*
X191291485Y-184885771D01*
X191791485Y-186385771D01*
X192077200Y-184885771D02*
X192934342Y-184885771D01*
X192505771Y-186385771D02*
X192505771Y-184885771D01*
X193720057Y-184885771D02*
X194005771Y-184885771D01*
X194148628Y-184957200D01*
X194291485Y-185100057D01*
X194362914Y-185385771D01*
X194362914Y-185885771D01*
X194291485Y-186171485D01*
X194148628Y-186314342D01*
X194005771Y-186385771D01*
X193720057Y-186385771D01*
X193577200Y-186314342D01*
X193434342Y-186171485D01*
X193362914Y-185885771D01*
X193362914Y-185385771D01*
X193434342Y-185100057D01*
X193577200Y-184957200D01*
X193720057Y-184885771D01*
X195005771Y-186385771D02*
X195005771Y-184885771D01*
X195505771Y-185957200D01*
X196005771Y-184885771D01*
X196005771Y-186385771D01*
X197862914Y-186385771D02*
X197862914Y-184885771D01*
X198434342Y-184885771D01*
X198577200Y-184957200D01*
X198648628Y-185028628D01*
X198720057Y-185171485D01*
X198720057Y-185385771D01*
X198648628Y-185528628D01*
X198577200Y-185600057D01*
X198434342Y-185671485D01*
X197862914Y-185671485D01*
X200220057Y-186385771D02*
X199720057Y-185671485D01*
X199362914Y-186385771D02*
X199362914Y-184885771D01*
X199934342Y-184885771D01*
X200077200Y-184957200D01*
X200148628Y-185028628D01*
X200220057Y-185171485D01*
X200220057Y-185385771D01*
X200148628Y-185528628D01*
X200077200Y-185600057D01*
X199934342Y-185671485D01*
X199362914Y-185671485D01*
X201148628Y-184885771D02*
X201434342Y-184885771D01*
X201577200Y-184957200D01*
X201720057Y-185100057D01*
X201791485Y-185385771D01*
X201791485Y-185885771D01*
X201720057Y-186171485D01*
X201577200Y-186314342D01*
X201434342Y-186385771D01*
X201148628Y-186385771D01*
X201005771Y-186314342D01*
X200862914Y-186171485D01*
X200791485Y-185885771D01*
X200791485Y-185385771D01*
X200862914Y-185100057D01*
X201005771Y-184957200D01*
X201148628Y-184885771D01*
X202434342Y-186242914D02*
X202505771Y-186314342D01*
X202434342Y-186385771D01*
X202362914Y-186314342D01*
X202434342Y-186242914D01*
X202434342Y-186385771D01*
X203148628Y-186385771D02*
X203148628Y-184885771D01*
X203291485Y-185814342D02*
X203720057Y-186385771D01*
X203720057Y-185385771D02*
X203148628Y-185957200D01*
X204362914Y-186385771D02*
X204362914Y-185385771D01*
X204362914Y-184885771D02*
X204291485Y-184957200D01*
X204362914Y-185028628D01*
X204434342Y-184957200D01*
X204362914Y-184885771D01*
X204362914Y-185028628D01*
X205720057Y-186314342D02*
X205577200Y-186385771D01*
X205291485Y-186385771D01*
X205148628Y-186314342D01*
X205077200Y-186242914D01*
X205005771Y-186100057D01*
X205005771Y-185671485D01*
X205077200Y-185528628D01*
X205148628Y-185457200D01*
X205291485Y-185385771D01*
X205577200Y-185385771D01*
X205720057Y-185457200D01*
X207005771Y-186385771D02*
X207005771Y-185600057D01*
X206934342Y-185457200D01*
X206791485Y-185385771D01*
X206505771Y-185385771D01*
X206362914Y-185457200D01*
X207005771Y-186314342D02*
X206862914Y-186385771D01*
X206505771Y-186385771D01*
X206362914Y-186314342D01*
X206291485Y-186171485D01*
X206291485Y-186028628D01*
X206362914Y-185885771D01*
X206505771Y-185814342D01*
X206862914Y-185814342D01*
X207005771Y-185742914D01*
X208362914Y-186385771D02*
X208362914Y-184885771D01*
X208362914Y-186314342D02*
X208220057Y-186385771D01*
X207934342Y-186385771D01*
X207791485Y-186314342D01*
X207720057Y-186242914D01*
X207648628Y-186100057D01*
X207648628Y-185671485D01*
X207720057Y-185528628D01*
X207791485Y-185457200D01*
X207934342Y-185385771D01*
X208220057Y-185385771D01*
X208362914Y-185457200D01*
X208720057Y-186528628D02*
X209862914Y-186528628D01*
X210220057Y-185385771D02*
X210220057Y-186885771D01*
X210220057Y-185457200D02*
X210362914Y-185385771D01*
X210648628Y-185385771D01*
X210791485Y-185457200D01*
X210862914Y-185528628D01*
X210934342Y-185671485D01*
X210934342Y-186100057D01*
X210862914Y-186242914D01*
X210791485Y-186314342D01*
X210648628Y-186385771D01*
X210362914Y-186385771D01*
X210220057Y-186314342D01*
X212220057Y-186314342D02*
X212077200Y-186385771D01*
X211791485Y-186385771D01*
X211648628Y-186314342D01*
X211577200Y-186242914D01*
X211505771Y-186100057D01*
X211505771Y-185671485D01*
X211577200Y-185528628D01*
X211648628Y-185457200D01*
X211791485Y-185385771D01*
X212077200Y-185385771D01*
X212220057Y-185457200D01*
X212862914Y-186385771D02*
X212862914Y-184885771D01*
X212862914Y-185457200D02*
X213005771Y-185385771D01*
X213291485Y-185385771D01*
X213434342Y-185457200D01*
X213505771Y-185528628D01*
X213577200Y-185671485D01*
X213577200Y-186100057D01*
X213505771Y-186242914D01*
X213434342Y-186314342D01*
X213291485Y-186385771D01*
X213005771Y-186385771D01*
X212862914Y-186314342D01*
D10*
D11*
X177002200Y-181507200D02*
X285002200Y-181507200D01*
D10*
D11*
X178362914Y-183614342D02*
X178577200Y-183685771D01*
X178934342Y-183685771D01*
X179077200Y-183614342D01*
X179148628Y-183542914D01*
X179220057Y-183400057D01*
X179220057Y-183257200D01*
X179148628Y-183114342D01*
X179077200Y-183042914D01*
X178934342Y-182971485D01*
X178648628Y-182900057D01*
X178505771Y-182828628D01*
X178434342Y-182757200D01*
X178362914Y-182614342D01*
X178362914Y-182471485D01*
X178434342Y-182328628D01*
X178505771Y-182257200D01*
X178648628Y-182185771D01*
X179005771Y-182185771D01*
X179220057Y-182257200D01*
X179862914Y-183685771D02*
X179862914Y-182185771D01*
X180505771Y-183685771D02*
X180505771Y-182900057D01*
X180434342Y-182757200D01*
X180291485Y-182685771D01*
X180077200Y-182685771D01*
X179934342Y-182757200D01*
X179862914Y-182828628D01*
X181791485Y-183614342D02*
X181648628Y-183685771D01*
X181362914Y-183685771D01*
X181220057Y-183614342D01*
X181148628Y-183471485D01*
X181148628Y-182900057D01*
X181220057Y-182757200D01*
X181362914Y-182685771D01*
X181648628Y-182685771D01*
X181791485Y-182757200D01*
X181862914Y-182900057D01*
X181862914Y-183042914D01*
X181148628Y-183185771D01*
X183077200Y-183614342D02*
X182934342Y-183685771D01*
X182648628Y-183685771D01*
X182505771Y-183614342D01*
X182434342Y-183471485D01*
X182434342Y-182900057D01*
X182505771Y-182757200D01*
X182648628Y-182685771D01*
X182934342Y-182685771D01*
X183077200Y-182757200D01*
X183148628Y-182900057D01*
X183148628Y-183042914D01*
X182434342Y-183185771D01*
X183577200Y-182685771D02*
X184148628Y-182685771D01*
X183791485Y-182185771D02*
X183791485Y-183471485D01*
X183862914Y-183614342D01*
X184005771Y-183685771D01*
X184148628Y-183685771D01*
X184648628Y-183542914D02*
X184720057Y-183614342D01*
X184648628Y-183685771D01*
X184577200Y-183614342D01*
X184648628Y-183542914D01*
X184648628Y-183685771D01*
X184648628Y-182757200D02*
X184720057Y-182828628D01*
X184648628Y-182900057D01*
X184577200Y-182828628D01*
X184648628Y-182757200D01*
X184648628Y-182900057D01*
D10*
D12*
X178482914Y-180257200D02*
X179197200Y-180257200D01*
X178340057Y-180685771D02*
X178840057Y-179185771D01*
X179340057Y-180685771D01*
X180411485Y-180614342D02*
X180268628Y-180685771D01*
X179982914Y-180685771D01*
X179840057Y-180614342D01*
X179768628Y-180471485D01*
X179768628Y-179900057D01*
X179840057Y-179757200D01*
X179982914Y-179685771D01*
X180268628Y-179685771D01*
X180411485Y-179757200D01*
X180482914Y-179900057D01*
X180482914Y-180042914D01*
X179768628Y-180185771D01*
X181340057Y-180685771D02*
X181197200Y-180614342D01*
X181125771Y-180542914D01*
X181054342Y-180400057D01*
X181054342Y-179971485D01*
X181125771Y-179828628D01*
X181197200Y-179757200D01*
X181340057Y-179685771D01*
X181554342Y-179685771D01*
X181697200Y-179757200D01*
X181768628Y-179828628D01*
X181840057Y-179971485D01*
X181840057Y-180400057D01*
X181768628Y-180542914D01*
X181697200Y-180614342D01*
X181554342Y-180685771D01*
X181340057Y-180685771D01*
X182482914Y-179685771D02*
X182482914Y-180685771D01*
X182482914Y-179828628D02*
X182554342Y-179757200D01*
X182697200Y-179685771D01*
X182911485Y-179685771D01*
X183054342Y-179757200D01*
X183125771Y-179900057D01*
X183125771Y-180685771D01*
X184554342Y-180685771D02*
X183840057Y-180685771D01*
X183840057Y-179185771D01*
X185697200Y-180685771D02*
X185697200Y-179900057D01*
X185625771Y-179757200D01*
X185482914Y-179685771D01*
X185197200Y-179685771D01*
X185054342Y-179757200D01*
X185697200Y-180614342D02*
X185554342Y-180685771D01*
X185197200Y-180685771D01*
X185054342Y-180614342D01*
X184982914Y-180471485D01*
X184982914Y-180328628D01*
X185054342Y-180185771D01*
X185197200Y-180114342D01*
X185554342Y-180114342D01*
X185697200Y-180042914D01*
X186411485Y-180685771D02*
X186411485Y-179185771D01*
X186411485Y-179757200D02*
X186554342Y-179685771D01*
X186840057Y-179685771D01*
X186982914Y-179757200D01*
X187054342Y-179828628D01*
X187125771Y-179971485D01*
X187125771Y-180400057D01*
X187054342Y-180542914D01*
X186982914Y-180614342D01*
X186840057Y-180685771D01*
X186554342Y-180685771D01*
X186411485Y-180614342D01*
X187697200Y-180614342D02*
X187840057Y-180685771D01*
X188125771Y-180685771D01*
X188268628Y-180614342D01*
X188340057Y-180471485D01*
X188340057Y-180400057D01*
X188268628Y-180257200D01*
X188125771Y-180185771D01*
X187911485Y-180185771D01*
X187768628Y-180114342D01*
X187697200Y-179971485D01*
X187697200Y-179900057D01*
X187768628Y-179757200D01*
X187911485Y-179685771D01*
X188125771Y-179685771D01*
X188268628Y-179757200D01*
D10*
D11*
D10*
D11*
D10*
D11*
D10*
D11*
D10*
D11*
X197002200Y-191507200D02*
X197002200Y-194507200D01*
D10*
D11*
X261002200Y-191507200D02*
X261002200Y-198007200D01*
D14*
X121570842Y-84309159D02*
G75*
G03*
X121570842Y-84309159I-530842J0D01*
G01*
D15*
X150010799Y-81690000D02*
G75*
G03*
X150010799Y-81690000I-250799J0D01*
G01*
D11*
X122203333Y-92596666D02*
X122203333Y-91896666D01*
X121903333Y-91963333D02*
X121870000Y-91930000D01*
X121803333Y-91896666D01*
X121636666Y-91896666D01*
X121570000Y-91930000D01*
X121536666Y-91963333D01*
X121503333Y-92030000D01*
X121503333Y-92096666D01*
X121536666Y-92196666D01*
X121936666Y-92596666D01*
X121503333Y-92596666D01*
X120803333Y-92530000D02*
X120836666Y-92563333D01*
X120936666Y-92596666D01*
X121003333Y-92596666D01*
X121103333Y-92563333D01*
X121170000Y-92496666D01*
X121203333Y-92430000D01*
X121236666Y-92296666D01*
X121236666Y-92196666D01*
X121203333Y-92063333D01*
X121170000Y-91996666D01*
X121103333Y-91930000D01*
X121003333Y-91896666D01*
X120936666Y-91896666D01*
X120836666Y-91930000D01*
X120803333Y-91963333D01*
D16*
X156895238Y-74387619D02*
X156895238Y-75278095D01*
X156842857Y-75382857D01*
X156790476Y-75435238D01*
X156685714Y-75487619D01*
X156476190Y-75487619D01*
X156371428Y-75435238D01*
X156319047Y-75382857D01*
X156266666Y-75278095D01*
X156266666Y-74387619D01*
X155742857Y-74754285D02*
X155742857Y-75487619D01*
X155742857Y-74859047D02*
X155690476Y-74806666D01*
X155585714Y-74754285D01*
X155428571Y-74754285D01*
X155323809Y-74806666D01*
X155271428Y-74911428D01*
X155271428Y-75487619D01*
X154747619Y-75487619D02*
X154747619Y-74754285D01*
X154747619Y-74387619D02*
X154800000Y-74440000D01*
X154747619Y-74492380D01*
X154695238Y-74440000D01*
X154747619Y-74387619D01*
X154747619Y-74492380D01*
X153752380Y-74754285D02*
X153752380Y-75854285D01*
X153752380Y-75435238D02*
X153857142Y-75487619D01*
X154066666Y-75487619D01*
X154171428Y-75435238D01*
X154223809Y-75382857D01*
X154276190Y-75278095D01*
X154276190Y-74963809D01*
X154223809Y-74859047D01*
X154171428Y-74806666D01*
X154066666Y-74754285D01*
X153857142Y-74754285D01*
X153752380Y-74806666D01*
X152757142Y-74754285D02*
X152757142Y-75487619D01*
X153228571Y-74754285D02*
X153228571Y-75330476D01*
X153176190Y-75435238D01*
X153071428Y-75487619D01*
X152914285Y-75487619D01*
X152809523Y-75435238D01*
X152757142Y-75382857D01*
X151814285Y-75435238D02*
X151919047Y-75487619D01*
X152128571Y-75487619D01*
X152233333Y-75435238D01*
X152285714Y-75330476D01*
X152285714Y-74911428D01*
X152233333Y-74806666D01*
X152128571Y-74754285D01*
X151919047Y-74754285D01*
X151814285Y-74806666D01*
X151761904Y-74911428D01*
X151761904Y-75016190D01*
X152285714Y-75120952D01*
X150452380Y-75487619D02*
X150452380Y-74387619D01*
X150190476Y-74387619D01*
X150033333Y-74440000D01*
X149928571Y-74544761D01*
X149876190Y-74649523D01*
X149823809Y-74859047D01*
X149823809Y-75016190D01*
X149876190Y-75225714D01*
X149928571Y-75330476D01*
X150033333Y-75435238D01*
X150190476Y-75487619D01*
X150452380Y-75487619D01*
X149404761Y-75173333D02*
X148880952Y-75173333D01*
X149509523Y-75487619D02*
X149142857Y-74387619D01*
X148776190Y-75487619D01*
X148566666Y-74387619D02*
X147938095Y-74387619D01*
X148252380Y-75487619D02*
X148252380Y-74387619D01*
X147623809Y-75173333D02*
X147100000Y-75173333D01*
X147728571Y-75487619D02*
X147361904Y-74387619D01*
X146995238Y-75487619D01*
X145423809Y-74911428D02*
X145790476Y-74911428D01*
X145790476Y-75487619D02*
X145790476Y-74387619D01*
X145266666Y-74387619D01*
X144847619Y-75487619D02*
X144847619Y-74754285D01*
X144847619Y-74387619D02*
X144900000Y-74440000D01*
X144847619Y-74492380D01*
X144795238Y-74440000D01*
X144847619Y-74387619D01*
X144847619Y-74492380D01*
X144323809Y-74754285D02*
X144323809Y-75487619D01*
X144323809Y-74859047D02*
X144271428Y-74806666D01*
X144166666Y-74754285D01*
X144009523Y-74754285D01*
X143904761Y-74806666D01*
X143852380Y-74911428D01*
X143852380Y-75487619D01*
X142857142Y-74754285D02*
X142857142Y-75644761D01*
X142909523Y-75749523D01*
X142961904Y-75801904D01*
X143066666Y-75854285D01*
X143223809Y-75854285D01*
X143328571Y-75801904D01*
X142857142Y-75435238D02*
X142961904Y-75487619D01*
X143171428Y-75487619D01*
X143276190Y-75435238D01*
X143328571Y-75382857D01*
X143380952Y-75278095D01*
X143380952Y-74963809D01*
X143328571Y-74859047D01*
X143276190Y-74806666D01*
X143171428Y-74754285D01*
X142961904Y-74754285D01*
X142857142Y-74806666D01*
X141914285Y-75435238D02*
X142019047Y-75487619D01*
X142228571Y-75487619D01*
X142333333Y-75435238D01*
X142385714Y-75330476D01*
X142385714Y-74911428D01*
X142333333Y-74806666D01*
X142228571Y-74754285D01*
X142019047Y-74754285D01*
X141914285Y-74806666D01*
X141861904Y-74911428D01*
X141861904Y-75016190D01*
X142385714Y-75120952D01*
X141390476Y-75487619D02*
X141390476Y-74754285D01*
X141390476Y-74963809D02*
X141338095Y-74859047D01*
X141285714Y-74806666D01*
X141180952Y-74754285D01*
X141076190Y-74754285D01*
X140709523Y-75487619D02*
X140709523Y-74387619D01*
X140290476Y-74387619D01*
X140185714Y-74440000D01*
X140133333Y-74492380D01*
X140080952Y-74597142D01*
X140080952Y-74754285D01*
X140133333Y-74859047D01*
X140185714Y-74911428D01*
X140290476Y-74963809D01*
X140709523Y-74963809D01*
X139609523Y-75487619D02*
X139609523Y-74754285D01*
X139609523Y-74963809D02*
X139557142Y-74859047D01*
X139504761Y-74806666D01*
X139400000Y-74754285D01*
X139295238Y-74754285D01*
X138928571Y-75487619D02*
X138928571Y-74754285D01*
X138928571Y-74387619D02*
X138980952Y-74440000D01*
X138928571Y-74492380D01*
X138876190Y-74440000D01*
X138928571Y-74387619D01*
X138928571Y-74492380D01*
X138404761Y-74754285D02*
X138404761Y-75487619D01*
X138404761Y-74859047D02*
X138352380Y-74806666D01*
X138247619Y-74754285D01*
X138090476Y-74754285D01*
X137985714Y-74806666D01*
X137933333Y-74911428D01*
X137933333Y-75487619D01*
X137566666Y-74754285D02*
X137147619Y-74754285D01*
X137409523Y-74387619D02*
X137409523Y-75330476D01*
X137357142Y-75435238D01*
X137252380Y-75487619D01*
X137147619Y-75487619D01*
D11*
X118186666Y-95230000D02*
X118186666Y-95563333D01*
X118386666Y-95163333D02*
X117686666Y-95396666D01*
X118386666Y-95630000D01*
X118386666Y-95863333D02*
X117686666Y-95863333D01*
X118386666Y-96263333D01*
X117686666Y-96263333D01*
X117686666Y-96496666D02*
X117686666Y-96896666D01*
X118386666Y-96696666D02*
X117686666Y-96696666D01*
X118020000Y-97130000D02*
X118020000Y-97363333D01*
X118386666Y-97463333D02*
X118386666Y-97130000D01*
X117686666Y-97130000D01*
X117686666Y-97463333D01*
X118386666Y-97763333D02*
X117686666Y-97763333D01*
X118386666Y-98163333D01*
X117686666Y-98163333D01*
X118386666Y-98496666D02*
X117686666Y-98496666D01*
X118386666Y-98896666D01*
X117686666Y-98896666D01*
X118186666Y-99196666D02*
X118186666Y-99530000D01*
X118386666Y-99130000D02*
X117686666Y-99363333D01*
X118386666Y-99596666D01*
D16*
X153582380Y-101258571D02*
X153582380Y-101887142D01*
X153582380Y-101572857D02*
X154682380Y-101572857D01*
X154525238Y-101677619D01*
X154420476Y-101782380D01*
X154368095Y-101887142D01*
X153687142Y-100787142D02*
X153634761Y-100734761D01*
X153582380Y-100787142D01*
X153634761Y-100839523D01*
X153687142Y-100787142D01*
X153582380Y-100787142D01*
X154682380Y-99791904D02*
X154682380Y-100001428D01*
X154630000Y-100106190D01*
X154577619Y-100158571D01*
X154420476Y-100263333D01*
X154210952Y-100315714D01*
X153791904Y-100315714D01*
X153687142Y-100263333D01*
X153634761Y-100210952D01*
X153582380Y-100106190D01*
X153582380Y-99896666D01*
X153634761Y-99791904D01*
X153687142Y-99739523D01*
X153791904Y-99687142D01*
X154053809Y-99687142D01*
X154158571Y-99739523D01*
X154210952Y-99791904D01*
X154263333Y-99896666D01*
X154263333Y-100106190D01*
X154210952Y-100210952D01*
X154158571Y-100263333D01*
X154053809Y-100315714D01*
X153582380Y-99163333D02*
X153582380Y-98953809D01*
X153634761Y-98849047D01*
X153687142Y-98796666D01*
X153844285Y-98691904D01*
X154053809Y-98639523D01*
X154472857Y-98639523D01*
X154577619Y-98691904D01*
X154630000Y-98744285D01*
X154682380Y-98849047D01*
X154682380Y-99058571D01*
X154630000Y-99163333D01*
X154577619Y-99215714D01*
X154472857Y-99268095D01*
X154210952Y-99268095D01*
X154106190Y-99215714D01*
X154053809Y-99163333D01*
X154001428Y-99058571D01*
X154001428Y-98849047D01*
X154053809Y-98744285D01*
X154106190Y-98691904D01*
X154210952Y-98639523D01*
X154682380Y-98220476D02*
X154472857Y-98220476D01*
X154682380Y-97801428D02*
X154472857Y-97801428D01*
X153582380Y-95968095D02*
X153582380Y-96491904D01*
X154682380Y-96491904D01*
X153687142Y-94972857D02*
X153634761Y-95025238D01*
X153582380Y-95182380D01*
X153582380Y-95287142D01*
X153634761Y-95444285D01*
X153739523Y-95549047D01*
X153844285Y-95601428D01*
X154053809Y-95653809D01*
X154210952Y-95653809D01*
X154420476Y-95601428D01*
X154525238Y-95549047D01*
X154630000Y-95444285D01*
X154682380Y-95287142D01*
X154682380Y-95182380D01*
X154630000Y-95025238D01*
X154577619Y-94972857D01*
X153582380Y-94501428D02*
X154682380Y-94501428D01*
X154682380Y-94239523D01*
X154630000Y-94082380D01*
X154525238Y-93977619D01*
X154420476Y-93925238D01*
X154210952Y-93872857D01*
X154053809Y-93872857D01*
X153844285Y-93925238D01*
X153739523Y-93977619D01*
X153634761Y-94082380D01*
X153582380Y-94239523D01*
X153582380Y-94501428D01*
D11*
X121803333Y-96416666D02*
X122036666Y-96083333D01*
X122203333Y-96416666D02*
X122203333Y-95716666D01*
X121936666Y-95716666D01*
X121870000Y-95750000D01*
X121836666Y-95783333D01*
X121803333Y-95850000D01*
X121803333Y-95950000D01*
X121836666Y-96016666D01*
X121870000Y-96050000D01*
X121936666Y-96083333D01*
X122203333Y-96083333D01*
X121003333Y-95783333D02*
X120970000Y-95750000D01*
X120903333Y-95716666D01*
X120736666Y-95716666D01*
X120670000Y-95750000D01*
X120636666Y-95783333D01*
X120603333Y-95850000D01*
X120603333Y-95916666D01*
X120636666Y-96016666D01*
X121036666Y-96416666D01*
X120603333Y-96416666D01*
D16*
X166459571Y-107613809D02*
X166459571Y-107980476D01*
X165883380Y-107980476D02*
X166983380Y-107980476D01*
X166983380Y-107456666D01*
X165883380Y-107037619D02*
X166616714Y-107037619D01*
X166407190Y-107037619D02*
X166511952Y-106985238D01*
X166564333Y-106932857D01*
X166616714Y-106828095D01*
X166616714Y-106723333D01*
X165935761Y-105937619D02*
X165883380Y-106042380D01*
X165883380Y-106251904D01*
X165935761Y-106356666D01*
X166040523Y-106409047D01*
X166459571Y-106409047D01*
X166564333Y-106356666D01*
X166616714Y-106251904D01*
X166616714Y-106042380D01*
X166564333Y-105937619D01*
X166459571Y-105885238D01*
X166354809Y-105885238D01*
X166250047Y-106409047D01*
X165935761Y-105466190D02*
X165883380Y-105361428D01*
X165883380Y-105151904D01*
X165935761Y-105047142D01*
X166040523Y-104994761D01*
X166092904Y-104994761D01*
X166197666Y-105047142D01*
X166250047Y-105151904D01*
X166250047Y-105309047D01*
X166302428Y-105413809D01*
X166407190Y-105466190D01*
X166459571Y-105466190D01*
X166564333Y-105413809D01*
X166616714Y-105309047D01*
X166616714Y-105151904D01*
X166564333Y-105047142D01*
X165883380Y-104523333D02*
X166983380Y-104523333D01*
X165883380Y-104051904D02*
X166459571Y-104051904D01*
X166564333Y-104104285D01*
X166616714Y-104209047D01*
X166616714Y-104366190D01*
X166564333Y-104470952D01*
X166511952Y-104523333D01*
X165988142Y-102061428D02*
X165935761Y-102113809D01*
X165883380Y-102270952D01*
X165883380Y-102375714D01*
X165935761Y-102532857D01*
X166040523Y-102637619D01*
X166145285Y-102690000D01*
X166354809Y-102742380D01*
X166511952Y-102742380D01*
X166721476Y-102690000D01*
X166826238Y-102637619D01*
X166931000Y-102532857D01*
X166983380Y-102375714D01*
X166983380Y-102270952D01*
X166931000Y-102113809D01*
X166878619Y-102061428D01*
X165883380Y-101432857D02*
X165935761Y-101537619D01*
X165988142Y-101590000D01*
X166092904Y-101642380D01*
X166407190Y-101642380D01*
X166511952Y-101590000D01*
X166564333Y-101537619D01*
X166616714Y-101432857D01*
X166616714Y-101275714D01*
X166564333Y-101170952D01*
X166511952Y-101118571D01*
X166407190Y-101066190D01*
X166092904Y-101066190D01*
X165988142Y-101118571D01*
X165935761Y-101170952D01*
X165883380Y-101275714D01*
X165883380Y-101432857D01*
X166616714Y-100594761D02*
X165883380Y-100594761D01*
X166511952Y-100594761D02*
X166564333Y-100542380D01*
X166616714Y-100437619D01*
X166616714Y-100280476D01*
X166564333Y-100175714D01*
X166459571Y-100123333D01*
X165883380Y-100123333D01*
X165935761Y-99128095D02*
X165883380Y-99232857D01*
X165883380Y-99442380D01*
X165935761Y-99547142D01*
X165988142Y-99599523D01*
X166092904Y-99651904D01*
X166407190Y-99651904D01*
X166511952Y-99599523D01*
X166564333Y-99547142D01*
X166616714Y-99442380D01*
X166616714Y-99232857D01*
X166564333Y-99128095D01*
X165883380Y-98656666D02*
X166616714Y-98656666D01*
X166407190Y-98656666D02*
X166511952Y-98604285D01*
X166564333Y-98551904D01*
X166616714Y-98447142D01*
X166616714Y-98342380D01*
X165935761Y-97556666D02*
X165883380Y-97661428D01*
X165883380Y-97870952D01*
X165935761Y-97975714D01*
X166040523Y-98028095D01*
X166459571Y-98028095D01*
X166564333Y-97975714D01*
X166616714Y-97870952D01*
X166616714Y-97661428D01*
X166564333Y-97556666D01*
X166459571Y-97504285D01*
X166354809Y-97504285D01*
X166250047Y-98028095D01*
X166616714Y-97190000D02*
X166616714Y-96770952D01*
X166983380Y-97032857D02*
X166040523Y-97032857D01*
X165935761Y-96980476D01*
X165883380Y-96875714D01*
X165883380Y-96770952D01*
X165935761Y-95985238D02*
X165883380Y-96090000D01*
X165883380Y-96299523D01*
X165935761Y-96404285D01*
X166040523Y-96456666D01*
X166459571Y-96456666D01*
X166564333Y-96404285D01*
X166616714Y-96299523D01*
X166616714Y-96090000D01*
X166564333Y-95985238D01*
X166459571Y-95932857D01*
X166354809Y-95932857D01*
X166250047Y-96456666D01*
X165883380Y-94623333D02*
X166983380Y-94623333D01*
X166197666Y-94256666D01*
X166983380Y-93890000D01*
X165883380Y-93890000D01*
X165883380Y-92894761D02*
X166459571Y-92894761D01*
X166564333Y-92947142D01*
X166616714Y-93051904D01*
X166616714Y-93261428D01*
X166564333Y-93366190D01*
X165935761Y-92894761D02*
X165883380Y-92999523D01*
X165883380Y-93261428D01*
X165935761Y-93366190D01*
X166040523Y-93418571D01*
X166145285Y-93418571D01*
X166250047Y-93366190D01*
X166302428Y-93261428D01*
X166302428Y-92999523D01*
X166354809Y-92894761D01*
X166616714Y-92528095D02*
X166616714Y-92109047D01*
X166983380Y-92370952D02*
X166040523Y-92370952D01*
X165935761Y-92318571D01*
X165883380Y-92213809D01*
X165883380Y-92109047D01*
X166616714Y-91270952D02*
X165883380Y-91270952D01*
X166616714Y-91742380D02*
X166040523Y-91742380D01*
X165935761Y-91690000D01*
X165883380Y-91585238D01*
X165883380Y-91428095D01*
X165935761Y-91323333D01*
X165988142Y-91270952D01*
X165883380Y-90747142D02*
X166616714Y-90747142D01*
X166407190Y-90747142D02*
X166511952Y-90694761D01*
X166564333Y-90642380D01*
X166616714Y-90537619D01*
X166616714Y-90432857D01*
X165883380Y-90066190D02*
X166616714Y-90066190D01*
X166983380Y-90066190D02*
X166931000Y-90118571D01*
X166878619Y-90066190D01*
X166931000Y-90013809D01*
X166983380Y-90066190D01*
X166878619Y-90066190D01*
X166616714Y-89699523D02*
X166616714Y-89280476D01*
X166983380Y-89542380D02*
X166040523Y-89542380D01*
X165935761Y-89490000D01*
X165883380Y-89385238D01*
X165883380Y-89280476D01*
X166616714Y-89018571D02*
X165883380Y-88756666D01*
X166616714Y-88494761D02*
X165883380Y-88756666D01*
X165621476Y-88861428D01*
X165569095Y-88913809D01*
X165516714Y-89018571D01*
X164112380Y-102323333D02*
X165212380Y-102323333D01*
X164426666Y-101956666D01*
X165212380Y-101590000D01*
X164112380Y-101590000D01*
X164112380Y-100909047D02*
X164164761Y-101013809D01*
X164217142Y-101066190D01*
X164321904Y-101118571D01*
X164636190Y-101118571D01*
X164740952Y-101066190D01*
X164793333Y-101013809D01*
X164845714Y-100909047D01*
X164845714Y-100751904D01*
X164793333Y-100647142D01*
X164740952Y-100594761D01*
X164636190Y-100542380D01*
X164321904Y-100542380D01*
X164217142Y-100594761D01*
X164164761Y-100647142D01*
X164112380Y-100751904D01*
X164112380Y-100909047D01*
X164845714Y-100070952D02*
X164112380Y-100070952D01*
X164740952Y-100070952D02*
X164793333Y-100018571D01*
X164845714Y-99913809D01*
X164845714Y-99756666D01*
X164793333Y-99651904D01*
X164688571Y-99599523D01*
X164112380Y-99599523D01*
X164112380Y-99075714D02*
X164845714Y-99075714D01*
X165212380Y-99075714D02*
X165160000Y-99128095D01*
X165107619Y-99075714D01*
X165160000Y-99023333D01*
X165212380Y-99075714D01*
X165107619Y-99075714D01*
X164845714Y-98709047D02*
X164845714Y-98290000D01*
X165212380Y-98551904D02*
X164269523Y-98551904D01*
X164164761Y-98499523D01*
X164112380Y-98394761D01*
X164112380Y-98290000D01*
X164112380Y-97766190D02*
X164164761Y-97870952D01*
X164217142Y-97923333D01*
X164321904Y-97975714D01*
X164636190Y-97975714D01*
X164740952Y-97923333D01*
X164793333Y-97870952D01*
X164845714Y-97766190D01*
X164845714Y-97609047D01*
X164793333Y-97504285D01*
X164740952Y-97451904D01*
X164636190Y-97399523D01*
X164321904Y-97399523D01*
X164217142Y-97451904D01*
X164164761Y-97504285D01*
X164112380Y-97609047D01*
X164112380Y-97766190D01*
X164112380Y-96928095D02*
X164845714Y-96928095D01*
X164636190Y-96928095D02*
X164740952Y-96875714D01*
X164793333Y-96823333D01*
X164845714Y-96718571D01*
X164845714Y-96613809D01*
X164112380Y-96247142D02*
X164845714Y-96247142D01*
X165212380Y-96247142D02*
X165160000Y-96299523D01*
X165107619Y-96247142D01*
X165160000Y-96194761D01*
X165212380Y-96247142D01*
X165107619Y-96247142D01*
X164845714Y-95723333D02*
X164112380Y-95723333D01*
X164740952Y-95723333D02*
X164793333Y-95670952D01*
X164845714Y-95566190D01*
X164845714Y-95409047D01*
X164793333Y-95304285D01*
X164688571Y-95251904D01*
X164112380Y-95251904D01*
X164845714Y-94256666D02*
X163955238Y-94256666D01*
X163850476Y-94309047D01*
X163798095Y-94361428D01*
X163745714Y-94466190D01*
X163745714Y-94623333D01*
X163798095Y-94728095D01*
X164164761Y-94256666D02*
X164112380Y-94361428D01*
X164112380Y-94570952D01*
X164164761Y-94675714D01*
X164217142Y-94728095D01*
X164321904Y-94780476D01*
X164636190Y-94780476D01*
X164740952Y-94728095D01*
X164793333Y-94675714D01*
X164845714Y-94570952D01*
X164845714Y-94361428D01*
X164793333Y-94256666D01*
X146837142Y-119357619D02*
X147360952Y-119357619D01*
X147413333Y-119881428D01*
X147360952Y-119829047D01*
X147256190Y-119776666D01*
X146994285Y-119776666D01*
X146889523Y-119829047D01*
X146837142Y-119881428D01*
X146784761Y-119986190D01*
X146784761Y-120248095D01*
X146837142Y-120352857D01*
X146889523Y-120405238D01*
X146994285Y-120457619D01*
X147256190Y-120457619D01*
X147360952Y-120405238D01*
X147413333Y-120352857D01*
X145841904Y-119724285D02*
X145841904Y-120457619D01*
X146103809Y-119305238D02*
X146365714Y-120090952D01*
X145684761Y-120090952D01*
X145370476Y-120457619D02*
X144794285Y-119724285D01*
X145370476Y-119724285D02*
X144794285Y-120457619D01*
X143903809Y-119724285D02*
X143903809Y-120457619D01*
X144165714Y-119305238D02*
X144427619Y-120090952D01*
X143746666Y-120090952D01*
X143170476Y-119829047D02*
X143275238Y-119776666D01*
X143327619Y-119724285D01*
X143380000Y-119619523D01*
X143380000Y-119567142D01*
X143327619Y-119462380D01*
X143275238Y-119410000D01*
X143170476Y-119357619D01*
X142960952Y-119357619D01*
X142856190Y-119410000D01*
X142803809Y-119462380D01*
X142751428Y-119567142D01*
X142751428Y-119619523D01*
X142803809Y-119724285D01*
X142856190Y-119776666D01*
X142960952Y-119829047D01*
X143170476Y-119829047D01*
X143275238Y-119881428D01*
X143327619Y-119933809D01*
X143380000Y-120038571D01*
X143380000Y-120248095D01*
X143327619Y-120352857D01*
X143275238Y-120405238D01*
X143170476Y-120457619D01*
X142960952Y-120457619D01*
X142856190Y-120405238D01*
X142803809Y-120352857D01*
X142751428Y-120248095D01*
X142751428Y-120038571D01*
X142803809Y-119933809D01*
X142856190Y-119881428D01*
X142960952Y-119829047D01*
X142280000Y-120352857D02*
X142227619Y-120405238D01*
X142280000Y-120457619D01*
X142332380Y-120405238D01*
X142280000Y-120352857D01*
X142280000Y-120457619D01*
X141284761Y-119724285D02*
X141284761Y-120457619D01*
X141546666Y-119305238D02*
X141808571Y-120090952D01*
X141127619Y-120090952D01*
X140708571Y-120457619D02*
X140708571Y-119724285D01*
X140708571Y-119829047D02*
X140656190Y-119776666D01*
X140551428Y-119724285D01*
X140394285Y-119724285D01*
X140289523Y-119776666D01*
X140237142Y-119881428D01*
X140237142Y-120457619D01*
X140237142Y-119881428D02*
X140184761Y-119776666D01*
X140080000Y-119724285D01*
X139922857Y-119724285D01*
X139818095Y-119776666D01*
X139765714Y-119881428D01*
X139765714Y-120457619D01*
X139241904Y-120457619D02*
X139241904Y-119724285D01*
X139241904Y-119829047D02*
X139189523Y-119776666D01*
X139084761Y-119724285D01*
X138927619Y-119724285D01*
X138822857Y-119776666D01*
X138770476Y-119881428D01*
X138770476Y-120457619D01*
X138770476Y-119881428D02*
X138718095Y-119776666D01*
X138613333Y-119724285D01*
X138456190Y-119724285D01*
X138351428Y-119776666D01*
X138299047Y-119881428D01*
X138299047Y-120457619D01*
D11*
X121856666Y-95116666D02*
X122090000Y-94783333D01*
X122256666Y-95116666D02*
X122256666Y-94416666D01*
X121990000Y-94416666D01*
X121923333Y-94450000D01*
X121890000Y-94483333D01*
X121856666Y-94550000D01*
X121856666Y-94650000D01*
X121890000Y-94716666D01*
X121923333Y-94750000D01*
X121990000Y-94783333D01*
X122256666Y-94783333D01*
X121190000Y-95116666D02*
X121590000Y-95116666D01*
X121390000Y-95116666D02*
X121390000Y-94416666D01*
X121456666Y-94516666D01*
X121523333Y-94583333D01*
X121590000Y-94616666D01*
X121926666Y-98936666D02*
X122160000Y-98603333D01*
X122326666Y-98936666D02*
X122326666Y-98236666D01*
X122060000Y-98236666D01*
X121993333Y-98270000D01*
X121960000Y-98303333D01*
X121926666Y-98370000D01*
X121926666Y-98470000D01*
X121960000Y-98536666D01*
X121993333Y-98570000D01*
X122060000Y-98603333D01*
X122326666Y-98603333D01*
X121326666Y-98470000D02*
X121326666Y-98936666D01*
X121493333Y-98203333D02*
X121660000Y-98703333D01*
X121226666Y-98703333D01*
X121946666Y-97666666D02*
X122180000Y-97333333D01*
X122346666Y-97666666D02*
X122346666Y-96966666D01*
X122080000Y-96966666D01*
X122013333Y-97000000D01*
X121980000Y-97033333D01*
X121946666Y-97100000D01*
X121946666Y-97200000D01*
X121980000Y-97266666D01*
X122013333Y-97300000D01*
X122080000Y-97333333D01*
X122346666Y-97333333D01*
X121713333Y-96966666D02*
X121280000Y-96966666D01*
X121513333Y-97233333D01*
X121413333Y-97233333D01*
X121346666Y-97266666D01*
X121313333Y-97300000D01*
X121280000Y-97366666D01*
X121280000Y-97533333D01*
X121313333Y-97600000D01*
X121346666Y-97633333D01*
X121413333Y-97666666D01*
X121613333Y-97666666D01*
X121680000Y-97633333D01*
X121713333Y-97600000D01*
X122216666Y-93706666D02*
X121883333Y-93706666D01*
X122283333Y-93906666D02*
X122050000Y-93206666D01*
X121816666Y-93906666D01*
X121583333Y-93906666D02*
X121583333Y-93206666D01*
X121416666Y-93206666D01*
X121316666Y-93240000D01*
X121250000Y-93306666D01*
X121216666Y-93373333D01*
X121183333Y-93506666D01*
X121183333Y-93606666D01*
X121216666Y-93740000D01*
X121250000Y-93806666D01*
X121316666Y-93873333D01*
X121416666Y-93906666D01*
X121583333Y-93906666D01*
X120483333Y-93840000D02*
X120516666Y-93873333D01*
X120616666Y-93906666D01*
X120683333Y-93906666D01*
X120783333Y-93873333D01*
X120850000Y-93806666D01*
X120883333Y-93740000D01*
X120916666Y-93606666D01*
X120916666Y-93506666D01*
X120883333Y-93373333D01*
X120850000Y-93306666D01*
X120783333Y-93240000D01*
X120683333Y-93206666D01*
X120616666Y-93206666D01*
X120516666Y-93240000D01*
X120483333Y-93273333D01*
D17*
G04 #@! TO.C,Sign-RoHS*
X144639333Y-99905000D02*
X144724000Y-99989666D01*
X144978000Y-100074333D01*
X145147333Y-100074333D01*
X145401333Y-99989666D01*
X145570666Y-99820333D01*
X145655333Y-99651000D01*
X145740000Y-99312333D01*
X145740000Y-99058333D01*
X145655333Y-98719666D01*
X145570666Y-98550333D01*
X145401333Y-98381000D01*
X145147333Y-98296333D01*
X144978000Y-98296333D01*
X144724000Y-98381000D01*
X144639333Y-98465666D01*
X143623333Y-100074333D02*
X143792666Y-99989666D01*
X143877333Y-99905000D01*
X143962000Y-99735666D01*
X143962000Y-99227666D01*
X143877333Y-99058333D01*
X143792666Y-98973666D01*
X143623333Y-98889000D01*
X143369333Y-98889000D01*
X143200000Y-98973666D01*
X143115333Y-99058333D01*
X143030666Y-99227666D01*
X143030666Y-99735666D01*
X143115333Y-99905000D01*
X143200000Y-99989666D01*
X143369333Y-100074333D01*
X143623333Y-100074333D01*
X142268666Y-100074333D02*
X142268666Y-98889000D01*
X142268666Y-99058333D02*
X142184000Y-98973666D01*
X142014666Y-98889000D01*
X141760666Y-98889000D01*
X141591333Y-98973666D01*
X141506666Y-99143000D01*
X141506666Y-100074333D01*
X141506666Y-99143000D02*
X141422000Y-98973666D01*
X141252666Y-98889000D01*
X140998666Y-98889000D01*
X140829333Y-98973666D01*
X140744666Y-99143000D01*
X140744666Y-100074333D01*
X139898000Y-98889000D02*
X139898000Y-100667000D01*
X139898000Y-98973666D02*
X139728666Y-98889000D01*
X139390000Y-98889000D01*
X139220666Y-98973666D01*
X139136000Y-99058333D01*
X139051333Y-99227666D01*
X139051333Y-99735666D01*
X139136000Y-99905000D01*
X139220666Y-99989666D01*
X139390000Y-100074333D01*
X139728666Y-100074333D01*
X139898000Y-99989666D01*
X138035333Y-100074333D02*
X138204666Y-99989666D01*
X138289333Y-99820333D01*
X138289333Y-98296333D01*
X137358000Y-100074333D02*
X137358000Y-98889000D01*
X137358000Y-98296333D02*
X137442666Y-98381000D01*
X137358000Y-98465666D01*
X137273333Y-98381000D01*
X137358000Y-98296333D01*
X137358000Y-98465666D01*
X135749333Y-100074333D02*
X135749333Y-99143000D01*
X135834000Y-98973666D01*
X136003333Y-98889000D01*
X136342000Y-98889000D01*
X136511333Y-98973666D01*
X135749333Y-99989666D02*
X135918666Y-100074333D01*
X136342000Y-100074333D01*
X136511333Y-99989666D01*
X136596000Y-99820333D01*
X136596000Y-99651000D01*
X136511333Y-99481666D01*
X136342000Y-99397000D01*
X135918666Y-99397000D01*
X135749333Y-99312333D01*
X134902666Y-98889000D02*
X134902666Y-100074333D01*
X134902666Y-99058333D02*
X134818000Y-98973666D01*
X134648666Y-98889000D01*
X134394666Y-98889000D01*
X134225333Y-98973666D01*
X134140666Y-99143000D01*
X134140666Y-100074333D01*
X133548000Y-98889000D02*
X132870666Y-98889000D01*
X133294000Y-98296333D02*
X133294000Y-99820333D01*
X133209333Y-99989666D01*
X133040000Y-100074333D01*
X132870666Y-100074333D01*
D18*
X144685714Y-97004761D02*
X145352380Y-96052380D01*
X145828571Y-97004761D02*
X145828571Y-95004761D01*
X145066666Y-95004761D01*
X144876190Y-95100000D01*
X144780952Y-95195238D01*
X144685714Y-95385714D01*
X144685714Y-95671428D01*
X144780952Y-95861904D01*
X144876190Y-95957142D01*
X145066666Y-96052380D01*
X145828571Y-96052380D01*
X143542857Y-97004761D02*
X143733333Y-96909523D01*
X143828571Y-96814285D01*
X143923809Y-96623809D01*
X143923809Y-96052380D01*
X143828571Y-95861904D01*
X143733333Y-95766666D01*
X143542857Y-95671428D01*
X143257142Y-95671428D01*
X143066666Y-95766666D01*
X142971428Y-95861904D01*
X142876190Y-96052380D01*
X142876190Y-96623809D01*
X142971428Y-96814285D01*
X143066666Y-96909523D01*
X143257142Y-97004761D01*
X143542857Y-97004761D01*
X142019047Y-97004761D02*
X142019047Y-95004761D01*
X142019047Y-95957142D02*
X140876190Y-95957142D01*
X140876190Y-97004761D02*
X140876190Y-95004761D01*
X140019047Y-96909523D02*
X139733333Y-97004761D01*
X139257142Y-97004761D01*
X139066666Y-96909523D01*
X138971428Y-96814285D01*
X138876190Y-96623809D01*
X138876190Y-96433333D01*
X138971428Y-96242857D01*
X139066666Y-96147619D01*
X139257142Y-96052380D01*
X139638095Y-95957142D01*
X139828571Y-95861904D01*
X139923809Y-95766666D01*
X140019047Y-95576190D01*
X140019047Y-95385714D01*
X139923809Y-95195238D01*
X139828571Y-95100000D01*
X139638095Y-95004761D01*
X139161904Y-95004761D01*
X138876190Y-95100000D01*
D19*
G04 #@! TO.C,Sign-PbFree*
X157518268Y-109669367D02*
X157518268Y-107969367D01*
X156946840Y-107969367D01*
X156803982Y-108050320D01*
X156732554Y-108131272D01*
X156661125Y-108293177D01*
X156661125Y-108536034D01*
X156732554Y-108697939D01*
X156803982Y-108778891D01*
X156946840Y-108859843D01*
X157518268Y-108859843D01*
X156018268Y-109669367D02*
X156018268Y-107969367D01*
X156018268Y-108616986D02*
X155875411Y-108536034D01*
X155589697Y-108536034D01*
X155446840Y-108616986D01*
X155375411Y-108697939D01*
X155303982Y-108859843D01*
X155303982Y-109345558D01*
X155375411Y-109507462D01*
X155446840Y-109588415D01*
X155589697Y-109669367D01*
X155875411Y-109669367D01*
X156018268Y-109588415D01*
D20*
G04 #@! TO.C,G\u002A\u002A\u002A*
X160787671Y-74711851D02*
X160776866Y-79300755D01*
X133369724Y-74646254D02*
X133358919Y-79235158D01*
X169409371Y-83672874D02*
X169413426Y-111599452D01*
X164086708Y-82643099D02*
X168448275Y-82646023D01*
X115706575Y-83505000D02*
X115726417Y-111467344D01*
X116687513Y-112494195D02*
X119756575Y-112495000D01*
X168386575Y-112560548D02*
X155153427Y-112589452D01*
X116733426Y-82543904D02*
X130016575Y-82545000D01*
X123045479Y-121048149D02*
X123066417Y-115837344D01*
X151803426Y-121083904D02*
X151811083Y-115899294D01*
X124006575Y-122075000D02*
X150776575Y-122045000D01*
X134406575Y-73695000D02*
X159826575Y-73685000D01*
X116733426Y-82543903D02*
G75*
G03*
X115706575Y-83505000I-16851J-1011097D01*
G01*
X123045478Y-121048149D02*
G75*
G03*
X124006575Y-122075000I1011097J-16851D01*
G01*
X123066417Y-115837344D02*
G75*
G03*
X119756575Y-112495000I-3309842J32344D01*
G01*
X155153427Y-112589446D02*
G75*
G03*
X151811083Y-115899294I-32342J-3309844D01*
G01*
X168386575Y-112560548D02*
G75*
G03*
X169413426Y-111599452I16850J1011098D01*
G01*
X130016575Y-82545000D02*
G75*
G03*
X133358919Y-79235158I32344J3309842D01*
G01*
X160787672Y-74711851D02*
G75*
G03*
X159826575Y-73685000I-1011097J16851D01*
G01*
X150776575Y-122044998D02*
G75*
G03*
X151803426Y-121083904I16850J1011098D01*
G01*
X160776864Y-79300755D02*
G75*
G03*
X164086708Y-82643099I3309841J-32345D01*
G01*
X134396575Y-73694999D02*
G75*
G03*
X133369724Y-74656096I-16851J-1011097D01*
G01*
X169409348Y-83672874D02*
G75*
G03*
X168448275Y-82646023I-1011073J16874D01*
G01*
X115726416Y-111467344D02*
G75*
G03*
X116687513Y-112494195I1011097J-16851D01*
G01*
D21*
G04 #@! TO.C,LED1*
X144235000Y-79988504D02*
X148320000Y-79988504D01*
X144235000Y-82158504D02*
X144235000Y-79988504D01*
X148320000Y-82158504D02*
X144235000Y-82158504D01*
D12*
X148506496Y-82680000D02*
G75*
G03*
X148506496Y-82680000I-161496J0D01*
G01*
D10*
G04 #@! TO.C,ICSP1*
X118091500Y-85130000D02*
X118980500Y-85130000D01*
X118091500Y-83860000D02*
X118980500Y-83860000D01*
X118091500Y-83860000D02*
G75*
G03*
X118091500Y-85130000I0J-635000D01*
G01*
D22*
G04 #@! TO.C,J20*
X120520000Y-112010000D02*
X117920000Y-112010000D01*
D19*
G04 #@! TO.C,Sign-RecycleBin*
X131158500Y-105295000D02*
X126967500Y-109486000D01*
X127856500Y-106311000D02*
X127856500Y-105930000D01*
D11*
X126792500Y-110833000D02*
X131364500Y-110833000D01*
D19*
X128110500Y-108470000D02*
X127983500Y-106438000D01*
X129507500Y-109359000D02*
X129507500Y-109105000D01*
X129253500Y-104914000D02*
X129253500Y-105041000D01*
X129126500Y-106438000D02*
X128491500Y-106438000D01*
X127983500Y-106311000D02*
X127602500Y-106311000D01*
X129888500Y-105168000D02*
X129888500Y-105676000D01*
X127856500Y-105930000D02*
X127856500Y-106057000D01*
X130015500Y-108978000D02*
X130269500Y-105930000D01*
X127729500Y-105930000D02*
X127729500Y-106311000D01*
X130015500Y-105168000D02*
X129888500Y-105168000D01*
X129253500Y-106311000D02*
X128364500Y-106311000D01*
D11*
X126792500Y-110071000D02*
X126792500Y-110833000D01*
X126843300Y-110121800D02*
X131262900Y-110121800D01*
X126843300Y-110528200D02*
X131262900Y-110528200D01*
D19*
X127856500Y-105930000D02*
X127729500Y-105930000D01*
D11*
X131364500Y-110071000D02*
X126792500Y-110071000D01*
D19*
X127856500Y-105930000D02*
X127856500Y-106057000D01*
X128364500Y-106692000D02*
X129253500Y-106692000D01*
X130015500Y-108978000D02*
X128618500Y-108978000D01*
D11*
X126894100Y-110629800D02*
X131262900Y-110629800D01*
D19*
X130015500Y-109359000D02*
X129507500Y-109359000D01*
X131031500Y-109359000D02*
X126967500Y-105422000D01*
X128872500Y-104914000D02*
X129253500Y-104914000D01*
D11*
X131313700Y-110426600D02*
X126843300Y-110426600D01*
D19*
X128364500Y-106311000D02*
X128364500Y-106692000D01*
X130015500Y-108978000D02*
X130015500Y-109359000D01*
X128872500Y-105041000D02*
X128872500Y-104914000D01*
X129253500Y-106692000D02*
X129253500Y-106311000D01*
X127602500Y-106311000D02*
X127602500Y-105803000D01*
X130015500Y-105676000D02*
X130015500Y-105168000D01*
D11*
X131313700Y-110274200D02*
X126894100Y-110274200D01*
D19*
X127856500Y-105803000D02*
X127729500Y-106184000D01*
D11*
X131364500Y-110833000D02*
X131364500Y-110071000D01*
X131313700Y-110223400D02*
X126843300Y-110223400D01*
D19*
X127983500Y-105803000D02*
X127983500Y-106311000D01*
D11*
X126843300Y-110375800D02*
X131262900Y-110375800D01*
D19*
X129253500Y-105041000D02*
X128872500Y-105041000D01*
X130523500Y-105803000D02*
X127602500Y-105803000D01*
D11*
X131313700Y-110731400D02*
X126894100Y-110731400D01*
D19*
X130269500Y-105676000D02*
G75*
G03*
X127983500Y-105676000I-1143000J-1143000D01*
G01*
X128512109Y-108978000D02*
G75*
G03*
X128512109Y-108978000I-401609J0D01*
G01*
D22*
X128237500Y-108978000D02*
G75*
G03*
X128237500Y-108978000I-127000J0D01*
G01*
G04 #@! TO.C,ANT1*
X119070000Y-101810000D02*
X119070000Y-93810000D01*
X116970000Y-93810000D02*
X116970000Y-101810000D01*
D23*
X118210500Y-104160000D02*
G75*
G03*
X118210500Y-104160000I-190500J0D01*
G01*
D21*
G04 #@! TO.C,LCD1*
X156815000Y-112387500D02*
X129096205Y-112418643D01*
X152193795Y-102286357D02*
X152143795Y-92691357D01*
X161755000Y-107617500D02*
X161733795Y-87506357D01*
X150148795Y-103196357D02*
X150148795Y-102286357D01*
X161248795Y-105816357D02*
X153603795Y-105816357D01*
X156978795Y-82601357D02*
X129265000Y-82632500D01*
X149953795Y-91926357D02*
X161248795Y-91926357D01*
X152143795Y-92691357D02*
X149948795Y-92691357D01*
X153603795Y-105811357D02*
X153603795Y-103186357D01*
X153603795Y-103186357D02*
X150148795Y-103196357D01*
X124326205Y-107478643D02*
X124325000Y-87402500D01*
X149948795Y-92691357D02*
X149953795Y-91926357D01*
X150148795Y-102286357D02*
X152193795Y-102286357D01*
X161248795Y-91926357D02*
X161248795Y-105816357D01*
X129265000Y-82632500D02*
G75*
G03*
X124325000Y-87402500I-72477J-4867969D01*
G01*
X124326205Y-107478643D02*
G75*
G03*
X129096205Y-112418643I4867959J-72487D01*
G01*
X161738795Y-87541357D02*
G75*
G03*
X156968795Y-82601357I-4867969J72477D01*
G01*
X156815000Y-112387507D02*
G75*
G03*
X161755000Y-107617500I72470J4867977D01*
G01*
D24*
G04 #@! TO.C,Sign-RoHS*
X133131500Y-95902500D02*
X133258500Y-96029500D01*
X135798500Y-92857040D02*
X134782500Y-92727500D01*
D19*
X136944040Y-93362500D02*
X136662100Y-93710480D01*
X133583620Y-96918500D02*
X133068000Y-96918500D01*
X130726120Y-97561120D02*
X130591500Y-97426500D01*
D24*
X132115500Y-94505500D02*
X132750500Y-94124500D01*
X133131500Y-95775500D02*
X133131500Y-95902500D01*
D19*
X129448500Y-96283500D02*
X128686500Y-96283500D01*
X130845500Y-96687360D02*
X130845500Y-96664500D01*
D24*
X134452300Y-94632500D02*
X135061900Y-94632500D01*
X134274500Y-96156500D02*
X134782500Y-96029500D01*
X132877500Y-94124500D02*
X133512500Y-93743500D01*
X133893500Y-95521500D02*
X133639500Y-95521500D01*
X131607500Y-95140500D02*
X132115500Y-94505500D01*
X132750500Y-94124500D02*
X132496500Y-93616500D01*
D19*
X129524700Y-96791500D02*
X128686500Y-96791500D01*
X134635180Y-94462320D02*
X134325300Y-94523280D01*
D24*
X132369500Y-95521500D02*
X133055300Y-95115100D01*
X132623500Y-95775500D02*
X132496500Y-95902500D01*
D19*
X129448500Y-96156500D02*
X128686500Y-96156500D01*
X129448500Y-96664500D02*
X128686500Y-96664500D01*
X130591500Y-96410500D02*
X130591500Y-97045500D01*
X138338500Y-91711500D02*
X137477440Y-92331260D01*
D24*
X132242500Y-96156500D02*
X131861500Y-96283500D01*
D19*
X130578800Y-97426500D02*
X130591500Y-97426500D01*
X129321500Y-94886500D02*
X128686500Y-94886500D01*
D24*
X131607500Y-96537500D02*
X131861500Y-96029500D01*
X133258500Y-96283500D02*
X133893500Y-96283500D01*
D19*
X130845500Y-96664500D02*
X130845500Y-96410500D01*
X129448500Y-96410500D02*
X128686500Y-96410500D01*
D24*
X133004500Y-96664500D02*
X132242500Y-96156500D01*
D19*
X128874460Y-97106460D02*
X128897320Y-97129320D01*
X130210500Y-96410500D02*
X130210500Y-96918500D01*
X129677100Y-97426500D02*
X130032700Y-97426500D01*
D24*
X135544500Y-94886500D02*
X135417500Y-94886500D01*
D19*
X130718500Y-96537500D02*
X130083500Y-96537500D01*
D24*
X132496500Y-93616500D02*
X132115500Y-94124500D01*
D19*
X129702500Y-95394500D02*
X130337500Y-95394500D01*
X129956500Y-96410500D02*
X130464500Y-97299500D01*
D24*
X132623500Y-96156500D02*
X132877500Y-96156500D01*
D19*
X132115500Y-98188500D02*
X131930080Y-98003080D01*
D24*
X136944040Y-92857040D02*
X135798500Y-92857040D01*
X134020500Y-93743500D02*
X134147500Y-93743500D01*
X131861500Y-96029500D02*
X132369500Y-95521500D01*
D19*
X129829500Y-97299500D02*
X129321500Y-97299500D01*
D24*
X137957500Y-92219500D02*
X137449500Y-93108500D01*
D19*
X131757360Y-96644180D02*
X131480500Y-96918500D01*
D24*
X136944040Y-94124500D02*
X136944040Y-93743500D01*
D19*
X129575500Y-97045500D02*
X128940500Y-97045500D01*
X130718500Y-97045500D02*
X130210500Y-97045500D01*
X129956500Y-96283500D02*
X130845500Y-96283500D01*
X135488620Y-96214920D02*
X135453060Y-96250480D01*
X145196500Y-100728500D02*
X133385500Y-100728500D01*
D24*
X137322500Y-93616500D02*
X136944040Y-94124500D01*
X137449500Y-93108500D02*
X137322500Y-93616500D01*
X132496500Y-93108500D02*
X132496500Y-93362500D01*
X133893500Y-96664500D02*
X133004500Y-96664500D01*
X133258500Y-96029500D02*
X133639500Y-95902500D01*
D19*
X129829500Y-95648500D02*
X130591500Y-95648500D01*
X129067500Y-95140500D02*
X129956500Y-95140500D01*
X130718500Y-96918500D02*
X130718500Y-97045500D01*
X129321500Y-95648500D02*
X128813500Y-95648500D01*
D24*
X134782500Y-96410500D02*
X133893500Y-96664500D01*
X134782500Y-92727500D02*
X133131500Y-92727500D01*
X131861500Y-96283500D02*
X131607500Y-96537500D01*
D19*
X130845500Y-96791500D02*
X130083500Y-96791500D01*
X130718500Y-97045500D02*
X130718500Y-97172500D01*
X129448500Y-95902500D02*
X128813500Y-95902500D01*
D24*
X132369500Y-93743500D02*
X134020500Y-93743500D01*
D19*
X135557200Y-93776520D02*
X136944040Y-93362500D01*
D24*
X133512500Y-93743500D02*
X134020500Y-93743500D01*
D19*
X129067500Y-95140500D02*
X129067500Y-95648500D01*
X129702500Y-97172500D02*
X129067500Y-97172500D01*
X130718500Y-96410500D02*
X130591500Y-96410500D01*
D24*
X132496500Y-93108500D02*
X131988500Y-93616500D01*
D19*
X129997140Y-95066840D02*
X129575500Y-94886500D01*
D24*
X134909500Y-95267500D02*
X133893500Y-95521500D01*
D19*
X131356040Y-95267500D02*
X131356040Y-95648500D01*
X130718500Y-96410500D02*
X130718500Y-96537500D01*
X130591500Y-96410500D02*
X130210500Y-96410500D01*
X130289240Y-97302040D02*
X130317180Y-97329980D01*
D24*
X135290500Y-96029500D02*
X134782500Y-96410500D01*
X135417500Y-95521500D02*
X135544500Y-95394500D01*
X136433500Y-94378500D02*
X135671500Y-95013500D01*
D19*
X133385500Y-97680500D02*
X145196500Y-97680500D01*
D24*
X135061900Y-94632500D02*
X135798500Y-94378500D01*
D19*
X132242500Y-98188500D02*
X131752280Y-97698280D01*
X132415220Y-94574080D02*
X132422840Y-94569000D01*
X129499300Y-96235240D02*
X129524700Y-96626400D01*
X129956500Y-96156500D02*
X130845500Y-96156500D01*
X129956500Y-96029500D02*
X130718500Y-96029500D01*
X129575500Y-96918500D02*
X128813500Y-96918500D01*
X138338500Y-91711500D02*
X137472360Y-93827320D01*
X129448500Y-96537500D02*
X128686500Y-96537500D01*
D24*
X137068500Y-93108500D02*
X132496500Y-93108500D01*
X133258500Y-95267500D02*
X132623500Y-95775500D01*
D19*
X130210500Y-96410500D02*
X129956500Y-96410500D01*
X131356040Y-95648500D02*
X131358580Y-95645960D01*
X128940500Y-95140500D02*
X128940500Y-95648500D01*
X132115500Y-98315500D02*
X131607500Y-97553500D01*
D24*
X134782500Y-96029500D02*
X135417500Y-95521500D01*
D19*
X129194500Y-94759500D02*
X128686500Y-94759500D01*
D24*
X136433500Y-94759500D02*
X136179500Y-95140500D01*
X133639500Y-95902500D02*
X134909500Y-95648500D01*
D19*
X129905700Y-96232700D02*
X129905700Y-96225080D01*
X132529520Y-96697520D02*
X132476180Y-96644180D01*
X130591500Y-97426500D02*
X130888680Y-97007400D01*
D24*
X133055300Y-95115100D02*
X134452300Y-94632500D01*
X134147500Y-93743500D02*
X135290500Y-93616500D01*
D19*
X135760400Y-92669080D02*
X133611560Y-92473500D01*
X129575500Y-95267500D02*
X130083500Y-95267500D01*
X130845500Y-96664500D02*
X130083500Y-96664500D01*
X130845500Y-96410500D02*
X130718500Y-96410500D01*
D24*
X133131500Y-92727500D02*
X132496500Y-93108500D01*
X135544500Y-95394500D02*
X135417500Y-95267500D01*
X133893500Y-96283500D02*
X134274500Y-96156500D01*
X136179500Y-95140500D02*
X135290500Y-96029500D01*
D19*
X131457640Y-96872780D02*
X131480500Y-96918500D01*
D24*
X131734500Y-94124500D02*
X131607500Y-95140500D01*
D19*
X131480500Y-97091220D02*
X131480500Y-97045500D01*
X131480500Y-97426500D02*
X131376360Y-97533180D01*
D24*
X135290500Y-93616500D02*
X136560500Y-93235500D01*
X134274500Y-95013500D02*
X133258500Y-95267500D01*
X132496500Y-93362500D02*
X137449500Y-93286300D01*
X132877500Y-96156500D02*
X133258500Y-96283500D01*
D19*
X129575500Y-94886500D02*
X128559500Y-94505500D01*
X129448500Y-96029500D02*
X128686500Y-96029500D01*
X128813500Y-95140500D02*
X128940500Y-95140500D01*
D24*
X135798500Y-94378500D02*
X136560500Y-93997500D01*
X136944040Y-93743500D02*
X137322500Y-92857040D01*
X132496500Y-93616500D02*
X132496500Y-93362500D01*
D19*
X128940500Y-95140500D02*
X129067500Y-95140500D01*
X131561780Y-93989880D02*
X131414460Y-94589320D01*
D24*
X136560500Y-93235500D02*
X137068500Y-93108500D01*
X131988500Y-93616500D02*
X131734500Y-94124500D01*
X135417500Y-94886500D02*
X134274500Y-95013500D01*
D19*
X131770060Y-95793280D02*
X131599880Y-95981240D01*
X129321500Y-95775500D02*
X128813500Y-95775500D01*
X137957500Y-92219500D02*
X136944040Y-92857040D01*
D24*
X133639500Y-95521500D02*
X133131500Y-95775500D01*
D19*
X133690300Y-94066080D02*
X134208460Y-93992420D01*
D24*
X132496500Y-95902500D02*
X132623500Y-96156500D01*
D19*
X130771840Y-95805980D02*
X130718500Y-95712000D01*
X129575500Y-95013500D02*
X128813500Y-95013500D01*
X130718500Y-96918500D02*
X130083500Y-96918500D01*
X130718500Y-96537500D02*
X130718500Y-96918500D01*
D24*
X135417500Y-95267500D02*
X134909500Y-95267500D01*
X135671500Y-95013500D02*
X135544500Y-94886500D01*
D19*
X128559500Y-94505500D02*
X128694120Y-95043980D01*
D24*
X136814500Y-94251500D02*
X136433500Y-94759500D01*
D19*
X129702500Y-95521500D02*
X130464500Y-95521500D01*
X129829500Y-95775500D02*
X130718500Y-95775500D01*
X129956500Y-95902500D02*
X130718500Y-95902500D01*
X145196500Y-100728500D02*
G75*
G03*
X146720500Y-99204500I1J1523999D01*
G01*
X133690300Y-94066080D02*
G75*
G03*
X132426630Y-94566434I871300J-4046420D01*
G01*
X132476180Y-96644180D02*
G75*
G03*
X131757360Y-96641640I-360680J-358120D01*
G01*
X129478979Y-97403644D02*
G75*
G03*
X129678427Y-97427803I198121J800244D01*
G01*
X135488619Y-96214919D02*
G75*
G03*
X137469964Y-93832947I-6362619J7307519D01*
G01*
X134325300Y-94523280D02*
G75*
G03*
X131770973Y-95792656I1099740J-5417660D01*
G01*
X130289216Y-97302064D02*
G75*
G03*
X130593288Y-97428292I305084J305564D01*
G01*
X129905704Y-96232700D02*
G75*
G03*
X130315840Y-97329546I1529196J-53300D01*
G01*
X129524695Y-96626401D02*
G75*
G03*
X130026840Y-97422113I1211605J208301D01*
G01*
X130718504Y-95711998D02*
G75*
G03*
X129996500Y-95068011I-1323404J-757002D01*
G01*
X128630616Y-95981238D02*
G75*
G03*
X128559783Y-96349987I921884J-368262D01*
G01*
X133583620Y-96918498D02*
G75*
G03*
X135449433Y-96252513I126950J2590948D01*
G01*
X130972500Y-96562900D02*
G75*
G03*
X130772294Y-95807821I-1524000J0D01*
G01*
X131599880Y-95981240D02*
G75*
G03*
X131479654Y-96918569I642620J-558800D01*
G01*
X128897321Y-97129319D02*
G75*
G03*
X129476997Y-97402953I785079J912319D01*
G01*
X131861500Y-99204500D02*
G75*
G03*
X133385500Y-100728500I1524000J0D01*
G01*
X146720500Y-99204500D02*
G75*
G03*
X145196500Y-97680500I-1524000J0D01*
G01*
X128630619Y-95981240D02*
G75*
G03*
X128694649Y-95046636I-1414009J566370D01*
G01*
X132415215Y-94574073D02*
G75*
G03*
X131360141Y-95644265I2777485J-3793427D01*
G01*
X129905700Y-96225080D02*
G75*
G03*
X129398520Y-95193680I-1498600J-96520D01*
G01*
X131018220Y-97680502D02*
G75*
G03*
X131375634Y-97532454I-20J505502D01*
G01*
X130888680Y-97007400D02*
G75*
G03*
X130974374Y-96563401I-1109980J444500D01*
G01*
X133611560Y-92473500D02*
G75*
G03*
X131561236Y-93986085I93980J-2273300D01*
G01*
X130591482Y-97299482D02*
G75*
G03*
X130845055Y-96688871I-612182J612182D01*
G01*
X129499306Y-96278420D02*
G75*
G03*
X129145295Y-95287566I-1762906J-71180D01*
G01*
X134208460Y-93992417D02*
G75*
G03*
X135550879Y-93776687I-469660J7207117D01*
G01*
X132529544Y-96697496D02*
G75*
G03*
X133068000Y-96920566I538356J538096D01*
G01*
X134635180Y-94462319D02*
G75*
G03*
X136662041Y-93712278I-604430J4747019D01*
G01*
X130726135Y-97561105D02*
G75*
G03*
X131018220Y-97682112I292165J292205D01*
G01*
X131480520Y-97045500D02*
G75*
G03*
X131748757Y-97698211I921680J-2700D01*
G01*
X131480480Y-97091220D02*
G75*
G03*
X131986478Y-98315780I1734820J20D01*
G01*
X133385500Y-97680500D02*
G75*
G03*
X131861500Y-99204500I0J-1524000D01*
G01*
X135760401Y-92669076D02*
G75*
G03*
X137475452Y-92329022I447049J2240246D01*
G01*
X131414458Y-94589320D02*
G75*
G03*
X131354260Y-95266743I2989942J-607080D01*
G01*
X128559518Y-96349540D02*
G75*
G03*
X128873446Y-97107474I1071782J-60D01*
G01*
X131480459Y-96918500D02*
G75*
G03*
X131928049Y-98004059I1534641J-2300D01*
G01*
G04 #@! TO.C,G\u002A\u002A\u002A*
G36*
X139560306Y-118273086D02*
G01*
X139531368Y-118364600D01*
X139475091Y-118439977D01*
X139394434Y-118489029D01*
X139320936Y-118505505D01*
X139219515Y-118499475D01*
X139129973Y-118462284D01*
X139063466Y-118397032D01*
X139050803Y-118376535D01*
X139040476Y-118344888D01*
X139056387Y-118325570D01*
X139057052Y-118325173D01*
X139093590Y-118328243D01*
X139146300Y-118369710D01*
X139168234Y-118388733D01*
X139246952Y-118425974D01*
X139332072Y-118430243D01*
X139409438Y-118399914D01*
X139412053Y-118398001D01*
X139445744Y-118360411D01*
X139473761Y-118310021D01*
X139489201Y-118262133D01*
X139485161Y-118232050D01*
X139468054Y-118227948D01*
X139415800Y-118223663D01*
X139337860Y-118220745D01*
X139243473Y-118219667D01*
X139014167Y-118219667D01*
X139014167Y-118164260D01*
X139014333Y-118159420D01*
X139023037Y-118136221D01*
X139090094Y-118136221D01*
X139098137Y-118147391D01*
X139127617Y-118153353D01*
X139185500Y-118155735D01*
X139278750Y-118156167D01*
X139294801Y-118156162D01*
X139382454Y-118155515D01*
X139435758Y-118152660D01*
X139461680Y-118146004D01*
X139467188Y-118133954D01*
X139459248Y-118114919D01*
X139426375Y-118071583D01*
X139362448Y-118025910D01*
X139294156Y-118008000D01*
X139279356Y-118008813D01*
X139208743Y-118028615D01*
X139142153Y-118067156D01*
X139098717Y-118114053D01*
X139096524Y-118118213D01*
X139090094Y-118136221D01*
X139023037Y-118136221D01*
X139037022Y-118098943D01*
X139096344Y-118026677D01*
X139112057Y-118011228D01*
X139163226Y-117968694D01*
X139210360Y-117949291D01*
X139270969Y-117944812D01*
X139368866Y-117956091D01*
X139449987Y-117995909D01*
X139516240Y-118069647D01*
X139524327Y-118082402D01*
X139543471Y-118133954D01*
X139558945Y-118175624D01*
X139560306Y-118273086D01*
G37*
G36*
X138458365Y-117760627D02*
G01*
X138463346Y-117765735D01*
X138480563Y-117796082D01*
X138463962Y-117827929D01*
X138463171Y-117828870D01*
X138421798Y-117854410D01*
X138383278Y-117843992D01*
X138361808Y-117801314D01*
X138361100Y-117785236D01*
X138378535Y-117747988D01*
X138415539Y-117737854D01*
X138458365Y-117760627D01*
G37*
G36*
X150505914Y-116115060D02*
G01*
X150505059Y-116371028D01*
X150504020Y-116609122D01*
X150502817Y-116826283D01*
X150501471Y-117019455D01*
X150500003Y-117185580D01*
X150498435Y-117321601D01*
X150496788Y-117424461D01*
X150495082Y-117491101D01*
X150493340Y-117518466D01*
X150481563Y-117563500D01*
X135378438Y-117563500D01*
X135365897Y-117515875D01*
X135365769Y-117515289D01*
X135363930Y-117484745D01*
X135362158Y-117415142D01*
X135360474Y-117309545D01*
X135358899Y-117171020D01*
X135357452Y-117002631D01*
X135356155Y-116807443D01*
X135355028Y-116588522D01*
X135354092Y-116348931D01*
X135353886Y-116275704D01*
X146214571Y-116275704D01*
X146214578Y-116520421D01*
X146215016Y-116730150D01*
X146215912Y-116907146D01*
X146217291Y-117053662D01*
X146219179Y-117171955D01*
X146221603Y-117264278D01*
X146224588Y-117332888D01*
X146228161Y-117380038D01*
X146232348Y-117407983D01*
X146237173Y-117418978D01*
X146241485Y-117419881D01*
X146280960Y-117422257D01*
X146358736Y-117424527D01*
X146471871Y-117426668D01*
X146617422Y-117428655D01*
X146792448Y-117430463D01*
X146994006Y-117432067D01*
X147219154Y-117433443D01*
X147464951Y-117434567D01*
X147728454Y-117435413D01*
X148006720Y-117435958D01*
X148296809Y-117436176D01*
X148409300Y-117436183D01*
X148754871Y-117436039D01*
X149060632Y-117435620D01*
X149328524Y-117434902D01*
X149560485Y-117433861D01*
X149758452Y-117432475D01*
X149924366Y-117430719D01*
X150060164Y-117428570D01*
X150167784Y-117426004D01*
X150249166Y-117422998D01*
X150306248Y-117419527D01*
X150340969Y-117415569D01*
X150355267Y-117411100D01*
X150357701Y-117406245D01*
X150362162Y-117381441D01*
X150366058Y-117334848D01*
X150369416Y-117264412D01*
X150372265Y-117168080D01*
X150374634Y-117043795D01*
X150376550Y-116889505D01*
X150378043Y-116703154D01*
X150379140Y-116482688D01*
X150379870Y-116226053D01*
X150380262Y-115931195D01*
X150380343Y-115596059D01*
X150380223Y-115413751D01*
X150379729Y-115149442D01*
X150378887Y-114899177D01*
X150377725Y-114666100D01*
X150376274Y-114453354D01*
X150374563Y-114264083D01*
X150372622Y-114101429D01*
X150370481Y-113968536D01*
X150368169Y-113868547D01*
X150365717Y-113804605D01*
X150363154Y-113779853D01*
X150362886Y-113779496D01*
X150350983Y-113774993D01*
X150322181Y-113771053D01*
X150274361Y-113767654D01*
X150205402Y-113764775D01*
X150113185Y-113762394D01*
X149995592Y-113760489D01*
X149850502Y-113759040D01*
X149675797Y-113758023D01*
X149469356Y-113757419D01*
X149229061Y-113757204D01*
X148952791Y-113757358D01*
X148638428Y-113757860D01*
X148283853Y-113758686D01*
X146221417Y-113764084D01*
X146217879Y-114953608D01*
X146216007Y-115583094D01*
X146215749Y-115672285D01*
X146215467Y-115788680D01*
X146214970Y-115993743D01*
X146214571Y-116275704D01*
X135353886Y-116275704D01*
X135353368Y-116091735D01*
X135353312Y-116060667D01*
X136918667Y-116060667D01*
X137003998Y-116060667D01*
X137806952Y-116060667D01*
X138464748Y-116060667D01*
X138464599Y-116050084D01*
X138686084Y-116050084D01*
X138776042Y-116056592D01*
X138785628Y-116057256D01*
X138837789Y-116057654D01*
X138860825Y-116046446D01*
X138866000Y-116018917D01*
X138866010Y-116012453D01*
X138868961Y-115988061D01*
X138884730Y-115989312D01*
X138924209Y-116015581D01*
X138960674Y-116038188D01*
X139032031Y-116060667D01*
X139055544Y-116068074D01*
X139156932Y-116057658D01*
X139198424Y-116043247D01*
X139236092Y-116019282D01*
X139263042Y-115982274D01*
X139281037Y-115926375D01*
X139291844Y-115845735D01*
X139296552Y-115748414D01*
X139517283Y-115748414D01*
X139532363Y-115853314D01*
X139580749Y-115936485D01*
X139666500Y-116003966D01*
X139679447Y-116010844D01*
X139725053Y-116026902D01*
X139789931Y-116038816D01*
X139881768Y-116047730D01*
X140008246Y-116054787D01*
X140284167Y-116067059D01*
X140284167Y-115986584D01*
X140792167Y-115986584D01*
X140794124Y-116025868D01*
X140807345Y-116054061D01*
X140839792Y-116060956D01*
X140872143Y-116062425D01*
X140929750Y-116069536D01*
X140975979Y-116073351D01*
X141024253Y-116063281D01*
X142016147Y-116063281D01*
X142107105Y-116056682D01*
X142162826Y-116049403D01*
X142196111Y-116031904D01*
X142212672Y-115997167D01*
X142223400Y-115967219D01*
X142229391Y-115968274D01*
X142242721Y-115991855D01*
X142279125Y-116023084D01*
X142362235Y-116058872D01*
X142460032Y-116067275D01*
X142552544Y-116044716D01*
X142626843Y-115992339D01*
X142629816Y-115989007D01*
X142674375Y-115909670D01*
X142684457Y-115821727D01*
X142663720Y-115734189D01*
X142656757Y-115722833D01*
X142868165Y-115722833D01*
X142869593Y-115821727D01*
X142870292Y-115870167D01*
X142877084Y-116050084D01*
X142977625Y-116056535D01*
X143078167Y-116062986D01*
X143078167Y-115764102D01*
X143078287Y-115732361D01*
X143080579Y-115622753D01*
X143085354Y-115528984D01*
X143092044Y-115459881D01*
X143100079Y-115424275D01*
X143123455Y-115399503D01*
X143171570Y-115383334D01*
X143179637Y-115383474D01*
X143216225Y-115390318D01*
X143243127Y-115411504D01*
X143262142Y-115452628D01*
X143275066Y-115519289D01*
X143283698Y-115617084D01*
X143289834Y-115751608D01*
X143300417Y-116050084D01*
X143490917Y-116050084D01*
X143496813Y-115744607D01*
X143498021Y-115689088D01*
X143502464Y-115570073D01*
X143510056Y-115485844D01*
X143522454Y-115430939D01*
X143541312Y-115399897D01*
X143568286Y-115387256D01*
X143605032Y-115387555D01*
X143638980Y-115396357D01*
X143669382Y-115421092D01*
X143690490Y-115466451D01*
X143703784Y-115537827D01*
X143710745Y-115640615D01*
X143712855Y-115780209D01*
X143713167Y-116060667D01*
X143809081Y-116060667D01*
X143827648Y-116060293D01*
X143887642Y-116051679D01*
X143915422Y-116033497D01*
X143918172Y-116009597D01*
X143920337Y-115949105D01*
X143921427Y-115860125D01*
X143921377Y-115778772D01*
X144098356Y-115778772D01*
X144123992Y-115860125D01*
X144128765Y-115875272D01*
X144189939Y-115960502D01*
X144280053Y-116025808D01*
X144286763Y-116028999D01*
X144350707Y-116050459D01*
X144422250Y-116064299D01*
X144555586Y-116065315D01*
X144677738Y-116037652D01*
X144778027Y-115983791D01*
X144850820Y-115906794D01*
X144890480Y-115809727D01*
X144894271Y-115788680D01*
X144892164Y-115759337D01*
X144867911Y-115743757D01*
X144811611Y-115732208D01*
X144783240Y-115728024D01*
X144732300Y-115727558D01*
X144711525Y-115743175D01*
X144708344Y-115750222D01*
X144682923Y-115787993D01*
X144643601Y-115835741D01*
X144600623Y-115876728D01*
X144553785Y-115897047D01*
X144485617Y-115901917D01*
X144434843Y-115899627D01*
X144383663Y-115885081D01*
X144346297Y-115851947D01*
X144331201Y-115831283D01*
X144307672Y-115765868D01*
X144325977Y-115706477D01*
X144386146Y-115653056D01*
X144488210Y-115605552D01*
X144573221Y-115573165D01*
X144688153Y-115520192D01*
X144769012Y-115466140D01*
X144820699Y-115406275D01*
X144848117Y-115335862D01*
X144856167Y-115250167D01*
X144846180Y-115174098D01*
X144801398Y-115083989D01*
X144724706Y-115015160D01*
X144620549Y-114971216D01*
X144493372Y-114955767D01*
X144460923Y-114956564D01*
X144334274Y-114979402D01*
X144235285Y-115033980D01*
X144163307Y-115120622D01*
X144149926Y-115144544D01*
X144125517Y-115191534D01*
X144115682Y-115215941D01*
X144119160Y-115220517D01*
X144150721Y-115236486D01*
X144204554Y-115255197D01*
X144245083Y-115266157D01*
X144285690Y-115270200D01*
X144302042Y-115257127D01*
X144302803Y-115255095D01*
X144323547Y-115221022D01*
X144358742Y-115176019D01*
X144379447Y-115154475D01*
X144427560Y-115127026D01*
X144496145Y-115119712D01*
X144500138Y-115119737D01*
X144579887Y-115135126D01*
X144628234Y-115178514D01*
X144644500Y-115249308D01*
X144639323Y-115278771D01*
X144617588Y-115308682D01*
X144573261Y-115339022D01*
X144500377Y-115373767D01*
X144392969Y-115416890D01*
X144384836Y-115420062D01*
X144300717Y-115457991D01*
X144226284Y-115499720D01*
X144176815Y-115536776D01*
X144137141Y-115586565D01*
X144100539Y-115679652D01*
X144098356Y-115778772D01*
X143921377Y-115778772D01*
X143921359Y-115749991D01*
X143920049Y-115626039D01*
X143914250Y-115245750D01*
X143824292Y-115239241D01*
X143810174Y-115238283D01*
X143760433Y-115238349D01*
X143738957Y-115250404D01*
X143734334Y-115279564D01*
X143733490Y-115304246D01*
X143723958Y-115313795D01*
X143694917Y-115290723D01*
X143630451Y-115251292D01*
X143549528Y-115231448D01*
X143467689Y-115233496D01*
X143397551Y-115257034D01*
X143351732Y-115301660D01*
X143328465Y-115345134D01*
X143297942Y-115301557D01*
X143291025Y-115292696D01*
X143231777Y-115251890D01*
X143151789Y-115231831D01*
X143064983Y-115232669D01*
X142985282Y-115254549D01*
X142926609Y-115297620D01*
X142918505Y-115310558D01*
X142898527Y-115372486D01*
X142883000Y-115466702D01*
X142872640Y-115585914D01*
X142868165Y-115722833D01*
X142656757Y-115722833D01*
X142615816Y-115656064D01*
X142544400Y-115596362D01*
X142453127Y-115564092D01*
X142382355Y-115553079D01*
X142305584Y-115541124D01*
X142273145Y-115534586D01*
X142240006Y-115515962D01*
X142231500Y-115480905D01*
X142231895Y-115470859D01*
X142253043Y-115414006D01*
X142297531Y-115379650D01*
X142352983Y-115370318D01*
X142407026Y-115388537D01*
X142447285Y-115436834D01*
X142459903Y-115461271D01*
X142483340Y-115483116D01*
X142521993Y-115486822D01*
X142588688Y-115475938D01*
X142630801Y-115462219D01*
X142651156Y-115434748D01*
X142636260Y-115391971D01*
X142586042Y-115329929D01*
X142566853Y-115311375D01*
X142479173Y-115258150D01*
X142375231Y-115230584D01*
X142267065Y-115229222D01*
X142166714Y-115254608D01*
X142086217Y-115307289D01*
X142066499Y-115328074D01*
X142051316Y-115350463D01*
X142040770Y-115380256D01*
X142033776Y-115424439D01*
X142029252Y-115489995D01*
X142026115Y-115583909D01*
X142023282Y-115713164D01*
X142020287Y-115860125D01*
X142016147Y-116063281D01*
X141024253Y-116063281D01*
X141059636Y-116055900D01*
X141129422Y-116012138D01*
X141172154Y-115948640D01*
X141179478Y-115914091D01*
X141187165Y-115841811D01*
X141192400Y-115748151D01*
X141194334Y-115644758D01*
X141194334Y-115404500D01*
X141247250Y-115404500D01*
X141251859Y-115404470D01*
X141283655Y-115398628D01*
X141297279Y-115374383D01*
X141299493Y-115332571D01*
X141367494Y-115332571D01*
X141368066Y-115339343D01*
X141376523Y-115390069D01*
X141397121Y-115413036D01*
X141440826Y-115421551D01*
X141443315Y-115421799D01*
X141496189Y-115432151D01*
X141534557Y-115454740D01*
X141560914Y-115495575D01*
X141577759Y-115560666D01*
X141587585Y-115656022D01*
X141592891Y-115787654D01*
X141599865Y-116060667D01*
X141694097Y-116060667D01*
X141711713Y-116060313D01*
X141771073Y-116051691D01*
X141798755Y-116033497D01*
X141801505Y-116009597D01*
X141803670Y-115949105D01*
X141804760Y-115860125D01*
X141804692Y-115749991D01*
X141803383Y-115626039D01*
X141797584Y-115245750D01*
X141707625Y-115239241D01*
X141674798Y-115237135D01*
X141635206Y-115239674D01*
X141620089Y-115257708D01*
X141617667Y-115299074D01*
X141617667Y-115365415D01*
X141564983Y-115302803D01*
X141556908Y-115293689D01*
X141497784Y-115247360D01*
X141436001Y-115226225D01*
X141384737Y-115235226D01*
X141380642Y-115239053D01*
X141368774Y-115275602D01*
X141367780Y-115319834D01*
X141367494Y-115332571D01*
X141299493Y-115332571D01*
X141300167Y-115319834D01*
X141300162Y-115315869D01*
X141296756Y-115263169D01*
X141282266Y-115240201D01*
X141249654Y-115235167D01*
X141246543Y-115235143D01*
X141215126Y-115228113D01*
X141197262Y-115200936D01*
X141185250Y-115142540D01*
X141181166Y-115116985D01*
X141168073Y-115070873D01*
X141143114Y-115048800D01*
X141094874Y-115037501D01*
X141084844Y-115035990D01*
X141031607Y-115031948D01*
X141000528Y-115036127D01*
X140995630Y-115042769D01*
X140986350Y-115081886D01*
X140982667Y-115141166D01*
X140982250Y-115181578D01*
X140975825Y-115219081D01*
X140954316Y-115233078D01*
X140908584Y-115235167D01*
X140886724Y-115235356D01*
X140850591Y-115241534D01*
X140836743Y-115265624D01*
X140834500Y-115319834D01*
X140834666Y-115344817D01*
X140840071Y-115386111D01*
X140861151Y-115401937D01*
X140908584Y-115404500D01*
X140982667Y-115404500D01*
X140982667Y-115652559D01*
X140981838Y-115760655D01*
X140977185Y-115833668D01*
X140965387Y-115878478D01*
X140943126Y-115901966D01*
X140907082Y-115911013D01*
X140853936Y-115912500D01*
X140813657Y-115916349D01*
X140795761Y-115936776D01*
X140792167Y-115986584D01*
X140284167Y-115986584D01*
X140284167Y-114953608D01*
X140192587Y-114957681D01*
X140011112Y-114965752D01*
X139918881Y-114970993D01*
X139787482Y-114985514D01*
X139690673Y-115009466D01*
X139623685Y-115045934D01*
X139581744Y-115098001D01*
X139560078Y-115168753D01*
X139554951Y-115245750D01*
X139553917Y-115261274D01*
X139553961Y-115271574D01*
X139559232Y-115336729D01*
X139578782Y-115381483D01*
X139620414Y-115425054D01*
X139686911Y-115484470D01*
X139636429Y-115511487D01*
X139579426Y-115555310D01*
X139532805Y-115637538D01*
X139517283Y-115748414D01*
X139296552Y-115748414D01*
X139297225Y-115734504D01*
X139298945Y-115586831D01*
X139299917Y-115245750D01*
X139199375Y-115239299D01*
X139098834Y-115232847D01*
X139098834Y-115539193D01*
X139098714Y-115581203D01*
X139097273Y-115689149D01*
X139094455Y-115780482D01*
X139090585Y-115846630D01*
X139085986Y-115879019D01*
X139066640Y-115900084D01*
X139020697Y-115911600D01*
X138968154Y-115904030D01*
X138926801Y-115877539D01*
X138924485Y-115874390D01*
X138911749Y-115838947D01*
X138902131Y-115773840D01*
X138895182Y-115674860D01*
X138890451Y-115537795D01*
X138883152Y-115233011D01*
X138784618Y-115239381D01*
X138686084Y-115245750D01*
X138686084Y-116050084D01*
X138464599Y-116050084D01*
X138458999Y-115653209D01*
X138453250Y-115245750D01*
X138262750Y-115245750D01*
X138257002Y-115653209D01*
X138251253Y-116060667D01*
X138020049Y-116060667D01*
X138014400Y-115515625D01*
X138010725Y-115161084D01*
X138262750Y-115161084D01*
X138463834Y-115173986D01*
X138463834Y-114957681D01*
X138363292Y-114964132D01*
X138262750Y-114970584D01*
X138262750Y-115161084D01*
X138010725Y-115161084D01*
X138008750Y-114970584D01*
X137818250Y-114970584D01*
X137812601Y-115515625D01*
X137811135Y-115657100D01*
X137806952Y-116060667D01*
X137003998Y-116060667D01*
X137070123Y-116052849D01*
X137101312Y-116029440D01*
X137110214Y-116013301D01*
X137130831Y-116010263D01*
X137173680Y-116029440D01*
X137177295Y-116031241D01*
X137242651Y-116052059D01*
X137314491Y-116060588D01*
X137401455Y-116047674D01*
X137486103Y-115999445D01*
X137548377Y-115917129D01*
X137587059Y-115802442D01*
X137600931Y-115657100D01*
X137599773Y-115594720D01*
X137584042Y-115475377D01*
X137547820Y-115382526D01*
X137488298Y-115307450D01*
X137484795Y-115304116D01*
X137437559Y-115267155D01*
X137387125Y-115250101D01*
X137314163Y-115246147D01*
X137274999Y-115247306D01*
X137209772Y-115253763D01*
X137168341Y-115263916D01*
X137164625Y-115265614D01*
X137147234Y-115267599D01*
X137136554Y-115250047D01*
X137130256Y-115205359D01*
X137126008Y-115125936D01*
X137119750Y-114970584D01*
X137019209Y-114964132D01*
X136918667Y-114957681D01*
X136918667Y-116060667D01*
X135353312Y-116060667D01*
X135352874Y-115820001D01*
X135352634Y-115536792D01*
X135351910Y-113605334D01*
X150508897Y-113605334D01*
X150507007Y-115539383D01*
X150506984Y-115561728D01*
X150506933Y-115596059D01*
X150506562Y-115844274D01*
X150505914Y-116115060D01*
G37*
G36*
X147396730Y-116187667D02*
G01*
X147120437Y-116187667D01*
X147126011Y-115473292D01*
X147131584Y-114758917D01*
X147385584Y-114758917D01*
X147396730Y-116187667D01*
G37*
G36*
X148177908Y-117968716D02*
G01*
X148216177Y-118030942D01*
X148262883Y-118132356D01*
X148278110Y-118167657D01*
X148310411Y-118237672D01*
X148335820Y-118286189D01*
X148349850Y-118304334D01*
X148353384Y-118301848D01*
X148372219Y-118271829D01*
X148400680Y-118214953D01*
X148434109Y-118140292D01*
X148445436Y-118113959D01*
X148478072Y-118040502D01*
X148504050Y-117985481D01*
X148518559Y-117959216D01*
X148525037Y-117960952D01*
X148546776Y-117990448D01*
X148578087Y-118047056D01*
X148614571Y-118123258D01*
X148635084Y-118167884D01*
X148669314Y-118238014D01*
X148695623Y-118286335D01*
X148709547Y-118304334D01*
X148715155Y-118299012D01*
X148736109Y-118263731D01*
X148766922Y-118202678D01*
X148803139Y-118124417D01*
X148822716Y-118082279D01*
X148859913Y-118011452D01*
X148891516Y-117962667D01*
X148912320Y-117944500D01*
X148924298Y-117945912D01*
X148941894Y-117960375D01*
X148941553Y-117962617D01*
X148930630Y-117994360D01*
X148906627Y-118055567D01*
X148872629Y-118138530D01*
X148831723Y-118235542D01*
X148821638Y-118259083D01*
X148781404Y-118351475D01*
X148747769Y-118426342D01*
X148724003Y-118476516D01*
X148713378Y-118494834D01*
X148708224Y-118488123D01*
X148688071Y-118451032D01*
X148657087Y-118388763D01*
X148619486Y-118309625D01*
X148533207Y-118124417D01*
X148483657Y-118230250D01*
X148466519Y-118267424D01*
X148430469Y-118348464D01*
X148401708Y-118416545D01*
X148393213Y-118435984D01*
X148369636Y-118475599D01*
X148351937Y-118486271D01*
X148340917Y-118471552D01*
X148316181Y-118425104D01*
X148283248Y-118355904D01*
X148245857Y-118272680D01*
X148207745Y-118184156D01*
X148172651Y-118099059D01*
X148144314Y-118026114D01*
X148126472Y-117974047D01*
X148122862Y-117951583D01*
X148146559Y-117943720D01*
X148177908Y-117968716D01*
G37*
G36*
X143725769Y-117944592D02*
G01*
X143738399Y-117952544D01*
X143746965Y-117977766D01*
X143752188Y-118026519D01*
X143754793Y-118105065D01*
X143755500Y-118219667D01*
X143755008Y-118310924D01*
X143752518Y-118399866D01*
X143747393Y-118456395D01*
X143739044Y-118486166D01*
X143726884Y-118494834D01*
X143717949Y-118491179D01*
X143704545Y-118463096D01*
X143694269Y-118402974D01*
X143686012Y-118305672D01*
X143677306Y-118203177D01*
X143662907Y-118118623D01*
X143641107Y-118063643D01*
X143609042Y-118031431D01*
X143563849Y-118015178D01*
X143519837Y-117997836D01*
X143501500Y-117973604D01*
X143509247Y-117956323D01*
X143543738Y-117945546D01*
X143593529Y-117952711D01*
X143644957Y-117977450D01*
X143669203Y-117993598D01*
X143688174Y-117998568D01*
X143692000Y-117977450D01*
X143695975Y-117961537D01*
X143723750Y-117944500D01*
X143725769Y-117944592D01*
G37*
G36*
X140513330Y-118389057D02*
G01*
X140549716Y-118400608D01*
X140559334Y-118440153D01*
X140553335Y-118474917D01*
X140532875Y-118501982D01*
X140515915Y-118508377D01*
X140483103Y-118511082D01*
X140455727Y-118486933D01*
X140453405Y-118483993D01*
X140440992Y-118440628D01*
X140461961Y-118404259D01*
X140508682Y-118389000D01*
X140513330Y-118389057D01*
G37*
G36*
X141290154Y-118352364D02*
G01*
X141232353Y-118428305D01*
X141142467Y-118486227D01*
X141135953Y-118489021D01*
X141059851Y-118511698D01*
X140990207Y-118506910D01*
X140908584Y-118473667D01*
X140905458Y-118472072D01*
X140850518Y-118444475D01*
X140823355Y-118434500D01*
X140814213Y-118441064D01*
X140813334Y-118463084D01*
X140809646Y-118477890D01*
X140781584Y-118494834D01*
X140780664Y-118494811D01*
X140769283Y-118488565D01*
X140761026Y-118467445D01*
X140755424Y-118425961D01*
X140752004Y-118358622D01*
X140750373Y-118264264D01*
X140826881Y-118264264D01*
X140852267Y-118338807D01*
X140908908Y-118397850D01*
X140938969Y-118414062D01*
X141023959Y-118432415D01*
X141108366Y-118418316D01*
X141177412Y-118373125D01*
X141180682Y-118369604D01*
X141233011Y-118296790D01*
X141248169Y-118226794D01*
X141228685Y-118148543D01*
X141218682Y-118127816D01*
X141160218Y-118059709D01*
X141081247Y-118020610D01*
X140993585Y-118017124D01*
X140991980Y-118017432D01*
X140915297Y-118050804D01*
X140860690Y-118109944D01*
X140830453Y-118184537D01*
X140826881Y-118264264D01*
X140750373Y-118264264D01*
X140750298Y-118259937D01*
X140749834Y-118124417D01*
X140749836Y-118113685D01*
X140750371Y-117980904D01*
X140752181Y-117884578D01*
X140755737Y-117819214D01*
X140761509Y-117779324D01*
X140769968Y-117759416D01*
X140781584Y-117754000D01*
X140788790Y-117755008D01*
X140803640Y-117771518D01*
X140811214Y-117814411D01*
X140813334Y-117891584D01*
X140814970Y-117959333D01*
X140819485Y-118009856D01*
X140825870Y-118029167D01*
X140826489Y-118029124D01*
X140851530Y-118016093D01*
X140892225Y-117986834D01*
X140944684Y-117958985D01*
X141028906Y-117944500D01*
X141052680Y-117945292D01*
X141153825Y-117969233D01*
X141232475Y-118020902D01*
X141287030Y-118092673D01*
X141315895Y-118176924D01*
X141316775Y-118226794D01*
X141317468Y-118266029D01*
X141290154Y-118352364D01*
G37*
G36*
X140072500Y-115404500D02*
G01*
X139971377Y-115404500D01*
X139923905Y-115402353D01*
X139840952Y-115381062D01*
X139792144Y-115336226D01*
X139776167Y-115266917D01*
X139779214Y-115233459D01*
X139809423Y-115174993D01*
X139873038Y-115140594D01*
X139971377Y-115129334D01*
X140072500Y-115129334D01*
X140072500Y-115404500D01*
G37*
G36*
X142843706Y-118494834D02*
G01*
X142831865Y-118494819D01*
X142754987Y-118492755D01*
X142705133Y-118484411D01*
X142668689Y-118465806D01*
X142632039Y-118432962D01*
X142614436Y-118414250D01*
X142579556Y-118356735D01*
X142570428Y-118286791D01*
X142641177Y-118286791D01*
X142655843Y-118328149D01*
X142678571Y-118364415D01*
X142705628Y-118393968D01*
X142717219Y-118398635D01*
X142764888Y-118406562D01*
X142829459Y-118409843D01*
X142930000Y-118410167D01*
X142930000Y-118153955D01*
X142821019Y-118160352D01*
X142751736Y-118168284D01*
X142705470Y-118186864D01*
X142670693Y-118222315D01*
X142652316Y-118249278D01*
X142641177Y-118286791D01*
X142570428Y-118286791D01*
X142570167Y-118284795D01*
X142573718Y-118246922D01*
X142595987Y-118181467D01*
X142632077Y-118132863D01*
X142674242Y-118113834D01*
X142677981Y-118110187D01*
X142671861Y-118081127D01*
X142649115Y-118032528D01*
X142643739Y-118022626D01*
X142620077Y-117970542D01*
X142619975Y-117969050D01*
X142704052Y-117969050D01*
X142726280Y-118009960D01*
X142771739Y-118046705D01*
X142818186Y-118062450D01*
X142878080Y-118071500D01*
X142903484Y-118069627D01*
X142921291Y-118056517D01*
X142928592Y-118021784D01*
X142930000Y-117955084D01*
X142930000Y-117838667D01*
X142858262Y-117838667D01*
X142812733Y-117843236D01*
X142748251Y-117869868D01*
X142709237Y-117914161D01*
X142704052Y-117969050D01*
X142619975Y-117969050D01*
X142617325Y-117930381D01*
X142633353Y-117881758D01*
X142638290Y-117870897D01*
X142693130Y-117806767D01*
X142780397Y-117767395D01*
X142897571Y-117754000D01*
X142993500Y-117754000D01*
X142993500Y-118494834D01*
X142843706Y-118494834D01*
G37*
G36*
X140252987Y-118352364D02*
G01*
X140195186Y-118428305D01*
X140105300Y-118486227D01*
X140098786Y-118489021D01*
X140022684Y-118511698D01*
X139953040Y-118506910D01*
X139871417Y-118473667D01*
X139868291Y-118472072D01*
X139813351Y-118444475D01*
X139786189Y-118434500D01*
X139777046Y-118441064D01*
X139776167Y-118463084D01*
X139772479Y-118477890D01*
X139744417Y-118494834D01*
X139743497Y-118494811D01*
X139732116Y-118488565D01*
X139723860Y-118467445D01*
X139718257Y-118425961D01*
X139714838Y-118358622D01*
X139713206Y-118264264D01*
X139789714Y-118264264D01*
X139815101Y-118338807D01*
X139871742Y-118397850D01*
X139901802Y-118414062D01*
X139986793Y-118432415D01*
X140071199Y-118418316D01*
X140140246Y-118373125D01*
X140143516Y-118369604D01*
X140195844Y-118296790D01*
X140211002Y-118226794D01*
X140191518Y-118148543D01*
X140181515Y-118127816D01*
X140123052Y-118059709D01*
X140044081Y-118020610D01*
X139956418Y-118017124D01*
X139954813Y-118017432D01*
X139878131Y-118050804D01*
X139823524Y-118109944D01*
X139793286Y-118184537D01*
X139789714Y-118264264D01*
X139713206Y-118264264D01*
X139713131Y-118259937D01*
X139712667Y-118124417D01*
X139712669Y-118113685D01*
X139713204Y-117980904D01*
X139715015Y-117884578D01*
X139718571Y-117819214D01*
X139724342Y-117779324D01*
X139732801Y-117759416D01*
X139744417Y-117754000D01*
X139751623Y-117755008D01*
X139766474Y-117771518D01*
X139774048Y-117814411D01*
X139776167Y-117891584D01*
X139777803Y-117959333D01*
X139782319Y-118009856D01*
X139788704Y-118029167D01*
X139789323Y-118029124D01*
X139814363Y-118016093D01*
X139855058Y-117986834D01*
X139907517Y-117958985D01*
X139991739Y-117944500D01*
X140015513Y-117945292D01*
X140116658Y-117969233D01*
X140195308Y-118020902D01*
X140249864Y-118092673D01*
X140278728Y-118176924D01*
X140279609Y-118226794D01*
X140280302Y-118266029D01*
X140252987Y-118352364D01*
G37*
G36*
X147310075Y-117968716D02*
G01*
X147348344Y-118030942D01*
X147395050Y-118132356D01*
X147410276Y-118167657D01*
X147442577Y-118237672D01*
X147467987Y-118286189D01*
X147482017Y-118304334D01*
X147485551Y-118301848D01*
X147504385Y-118271829D01*
X147532847Y-118214953D01*
X147566276Y-118140292D01*
X147577603Y-118113959D01*
X147610238Y-118040502D01*
X147636217Y-117985481D01*
X147650726Y-117959216D01*
X147657204Y-117960952D01*
X147678942Y-117990448D01*
X147710254Y-118047056D01*
X147746737Y-118123258D01*
X147767251Y-118167884D01*
X147801481Y-118238014D01*
X147827790Y-118286335D01*
X147841714Y-118304334D01*
X147847322Y-118299012D01*
X147868276Y-118263731D01*
X147899088Y-118202678D01*
X147935305Y-118124417D01*
X147954883Y-118082279D01*
X147992080Y-118011452D01*
X148023682Y-117962667D01*
X148044487Y-117944500D01*
X148056465Y-117945912D01*
X148074061Y-117960375D01*
X148073719Y-117962617D01*
X148062797Y-117994360D01*
X148038793Y-118055567D01*
X148004796Y-118138530D01*
X147963889Y-118235542D01*
X147953804Y-118259083D01*
X147913571Y-118351475D01*
X147879936Y-118426342D01*
X147856170Y-118476516D01*
X147845544Y-118494834D01*
X147840391Y-118488123D01*
X147820237Y-118451032D01*
X147789254Y-118388763D01*
X147751653Y-118309625D01*
X147665374Y-118124417D01*
X147615824Y-118230250D01*
X147598686Y-118267424D01*
X147562636Y-118348464D01*
X147533874Y-118416545D01*
X147525380Y-118435984D01*
X147501803Y-118475599D01*
X147484104Y-118486271D01*
X147473083Y-118471552D01*
X147448348Y-118425104D01*
X147415415Y-118355904D01*
X147378023Y-118272680D01*
X147339912Y-118184156D01*
X147304818Y-118099059D01*
X147276481Y-118026114D01*
X147258638Y-117974047D01*
X147255029Y-117951583D01*
X147278726Y-117943720D01*
X147310075Y-117968716D01*
G37*
G36*
X146207163Y-118389057D02*
G01*
X146243549Y-118400608D01*
X146253167Y-118440153D01*
X146247168Y-118474917D01*
X146226709Y-118501982D01*
X146209748Y-118508377D01*
X146176936Y-118511082D01*
X146149560Y-118486933D01*
X146147238Y-118483993D01*
X146134825Y-118440628D01*
X146155795Y-118404259D01*
X146202515Y-118389000D01*
X146207163Y-118389057D01*
G37*
G36*
X143313365Y-117757509D02*
G01*
X143327884Y-117785533D01*
X143332167Y-117847778D01*
X143332173Y-117851779D01*
X143335618Y-117909571D01*
X143349123Y-117937780D01*
X143378134Y-117948320D01*
X143405134Y-117955445D01*
X143431190Y-117976628D01*
X143425679Y-117998153D01*
X143386848Y-118008000D01*
X143332167Y-118008000D01*
X143332167Y-118251417D01*
X143331741Y-118331335D01*
X143329286Y-118412587D01*
X143323914Y-118462600D01*
X143314798Y-118487855D01*
X143301110Y-118494834D01*
X143292623Y-118492566D01*
X143281025Y-118474717D01*
X143273062Y-118433720D01*
X143267742Y-118363182D01*
X143264069Y-118256709D01*
X143258084Y-118018584D01*
X143198621Y-118011765D01*
X143168534Y-118004749D01*
X143148282Y-117984857D01*
X143163473Y-117962911D01*
X143212091Y-117948386D01*
X143225681Y-117946500D01*
X143254197Y-117935276D01*
X143266208Y-117906509D01*
X143268667Y-117847844D01*
X143269860Y-117809502D01*
X143279350Y-117766642D01*
X143300417Y-117754000D01*
X143313365Y-117757509D01*
G37*
G36*
X142308209Y-115665409D02*
G01*
X142313300Y-115666298D01*
X142376559Y-115685813D01*
X142424626Y-115713793D01*
X142451686Y-115754390D01*
X142464106Y-115814569D01*
X142456053Y-115872457D01*
X142427292Y-115910805D01*
X142406753Y-115921967D01*
X142373175Y-115930212D01*
X142340113Y-115914866D01*
X142293372Y-115871795D01*
X142285019Y-115863200D01*
X142243372Y-115802089D01*
X142231500Y-115731442D01*
X142231579Y-115710314D01*
X142236424Y-115670785D01*
X142257833Y-115659376D01*
X142308209Y-115665409D01*
G37*
G36*
X138412936Y-117944592D02*
G01*
X138425566Y-117952544D01*
X138434131Y-117977766D01*
X138439355Y-118026519D01*
X138441960Y-118105065D01*
X138442667Y-118219667D01*
X138442657Y-118237159D01*
X138441739Y-118346620D01*
X138438829Y-118420856D01*
X138433203Y-118466129D01*
X138424140Y-118488701D01*
X138410917Y-118494834D01*
X138408899Y-118494742D01*
X138396269Y-118486790D01*
X138387703Y-118461568D01*
X138382479Y-118412815D01*
X138379875Y-118334268D01*
X138379167Y-118219667D01*
X138379178Y-118202174D01*
X138380095Y-118092713D01*
X138383005Y-118018477D01*
X138388631Y-117973204D01*
X138397694Y-117950633D01*
X138410917Y-117944500D01*
X138412936Y-117944592D01*
G37*
G36*
X145818373Y-117755538D02*
G01*
X145897901Y-117780387D01*
X145947926Y-117833438D01*
X145965300Y-117911889D01*
X145963716Y-117942062D01*
X145953615Y-117977867D01*
X145929016Y-118015886D01*
X145884063Y-118064595D01*
X145812900Y-118132468D01*
X145772346Y-118171366D01*
X145714771Y-118231270D01*
X145675209Y-118278679D01*
X145660500Y-118305809D01*
X145668464Y-118337616D01*
X145693451Y-118384290D01*
X145716385Y-118408346D01*
X145775064Y-118430943D01*
X145841128Y-118420849D01*
X145902063Y-118378417D01*
X145933228Y-118348634D01*
X145977835Y-118326489D01*
X146008213Y-118344179D01*
X146009954Y-118349175D01*
X145999739Y-118382533D01*
X145968720Y-118426356D01*
X145927109Y-118468108D01*
X145885119Y-118495255D01*
X145836729Y-118509709D01*
X145746160Y-118506975D01*
X145664435Y-118463146D01*
X145614372Y-118408126D01*
X145586219Y-118331252D01*
X145598589Y-118249943D01*
X145650979Y-118166633D01*
X145742885Y-118083759D01*
X145794231Y-118043383D01*
X145845417Y-117996770D01*
X145873702Y-117962798D01*
X145877806Y-117954499D01*
X145887198Y-117897044D01*
X145865710Y-117852614D01*
X145823077Y-117827453D01*
X145769036Y-117827808D01*
X145713322Y-117859923D01*
X145695261Y-117874336D01*
X145649522Y-117893484D01*
X145612343Y-117889464D01*
X145597000Y-117862034D01*
X145597037Y-117860665D01*
X145617059Y-117825514D01*
X145664610Y-117790902D01*
X145726118Y-117764505D01*
X145788010Y-117754000D01*
X145818373Y-117755538D01*
G37*
G36*
X137313540Y-115400450D02*
G01*
X137358157Y-115446834D01*
X137360533Y-115451856D01*
X137373805Y-115507372D01*
X137380165Y-115586596D01*
X137380024Y-115676374D01*
X137373792Y-115763556D01*
X137361880Y-115834988D01*
X137344700Y-115877518D01*
X137340531Y-115882138D01*
X137289208Y-115908447D01*
X137226038Y-115906889D01*
X137169042Y-115877470D01*
X137167825Y-115876352D01*
X137148932Y-115851095D01*
X137137493Y-115812176D01*
X137131847Y-115750062D01*
X137130334Y-115655220D01*
X137130412Y-115626532D01*
X137132618Y-115542414D01*
X137139313Y-115487544D01*
X137152442Y-115451632D01*
X137173949Y-115424385D01*
X137193111Y-115408412D01*
X137254021Y-115387094D01*
X137313540Y-115400450D01*
G37*
G36*
X138780081Y-117950274D02*
G01*
X138834678Y-117979550D01*
X138872243Y-118026553D01*
X138886812Y-118084109D01*
X138872421Y-118145043D01*
X138823106Y-118202182D01*
X138761054Y-118249942D01*
X138704873Y-118294612D01*
X138673118Y-118324229D01*
X138660688Y-118345022D01*
X138662481Y-118363224D01*
X138673396Y-118385067D01*
X138684155Y-118399804D01*
X138732132Y-118426938D01*
X138790352Y-118430514D01*
X138838756Y-118407778D01*
X138858668Y-118396777D01*
X138892269Y-118402836D01*
X138908334Y-118431907D01*
X138908316Y-118432397D01*
X138890753Y-118455450D01*
X138850125Y-118483582D01*
X138785127Y-118505723D01*
X138710651Y-118500802D01*
X138647655Y-118467617D01*
X138605877Y-118411706D01*
X138595058Y-118338604D01*
X138602014Y-118307379D01*
X138633565Y-118257648D01*
X138696667Y-118202254D01*
X138712379Y-118190268D01*
X138774020Y-118139206D01*
X138804987Y-118101725D01*
X138809625Y-118070341D01*
X138792281Y-118037565D01*
X138791371Y-118036350D01*
X138768316Y-118011649D01*
X138743173Y-118010751D01*
X138698920Y-118032784D01*
X138669219Y-118048099D01*
X138635282Y-118055801D01*
X138612194Y-118039983D01*
X138608733Y-118035471D01*
X138605014Y-118008581D01*
X138636868Y-117978157D01*
X138643644Y-117973594D01*
X138714415Y-117945897D01*
X138780081Y-117950274D01*
G37*
G36*
X142375401Y-117945403D02*
G01*
X142388111Y-117958685D01*
X142395883Y-117993313D01*
X142399772Y-118056271D01*
X142400834Y-118154543D01*
X142400085Y-118248645D01*
X142396389Y-118316140D01*
X142387703Y-118361641D01*
X142371985Y-118395565D01*
X142347195Y-118428332D01*
X142339159Y-118437421D01*
X142290791Y-118479592D01*
X142246653Y-118501782D01*
X142168277Y-118507565D01*
X142071198Y-118484661D01*
X141993375Y-118430076D01*
X141988301Y-118424555D01*
X141963379Y-118394047D01*
X141947777Y-118362158D01*
X141939323Y-118318650D01*
X141935844Y-118253287D01*
X141935167Y-118155833D01*
X141935315Y-118112247D01*
X141937347Y-118028407D01*
X141942594Y-117977147D01*
X141952101Y-117951501D01*
X141966917Y-117944500D01*
X141968546Y-117944549D01*
X141983570Y-117953481D01*
X141992778Y-117982876D01*
X141997400Y-118040007D01*
X141998667Y-118132146D01*
X142002893Y-118244646D01*
X142019074Y-118333851D01*
X142050092Y-118391354D01*
X142098787Y-118422175D01*
X142168000Y-118431334D01*
X142231673Y-118423867D01*
X142282161Y-118395277D01*
X142314706Y-118340473D01*
X142332150Y-118254436D01*
X142337334Y-118132146D01*
X142337342Y-118122518D01*
X142338853Y-118033727D01*
X142343827Y-117979308D01*
X142353494Y-117951990D01*
X142369084Y-117944500D01*
X142375401Y-117945403D01*
G37*
G36*
X138215055Y-118306432D02*
G01*
X138169947Y-118392957D01*
X138099207Y-118455366D01*
X138011435Y-118489454D01*
X137915230Y-118491020D01*
X137819193Y-118455861D01*
X137744167Y-118411595D01*
X137744167Y-118459088D01*
X137753218Y-118509241D01*
X137794708Y-118571383D01*
X137860942Y-118614733D01*
X137942065Y-118633624D01*
X138028224Y-118622392D01*
X138033720Y-118620516D01*
X138089243Y-118595149D01*
X138126066Y-118567834D01*
X138145921Y-118551646D01*
X138193841Y-118537167D01*
X138215734Y-118538390D01*
X138224454Y-118550342D01*
X138205341Y-118584792D01*
X138202139Y-118589413D01*
X138159090Y-118631931D01*
X138102218Y-118669426D01*
X138098270Y-118671393D01*
X138026813Y-118696207D01*
X137955834Y-118706434D01*
X137915511Y-118703234D01*
X137829376Y-118678023D01*
X137755047Y-118634185D01*
X137707732Y-118579500D01*
X137701035Y-118560329D01*
X137690120Y-118490337D01*
X137683380Y-118381362D01*
X137680979Y-118235542D01*
X137680989Y-118195387D01*
X137680995Y-118194740D01*
X137749532Y-118194740D01*
X137754502Y-118274783D01*
X137788840Y-118347236D01*
X137853070Y-118401171D01*
X137929200Y-118427543D01*
X138009076Y-118419725D01*
X138086733Y-118370515D01*
X138110932Y-118347228D01*
X138145431Y-118295325D01*
X138154800Y-118233067D01*
X138143068Y-118160213D01*
X138100599Y-118085886D01*
X138035310Y-118035150D01*
X137955851Y-118014215D01*
X137870874Y-118029288D01*
X137825608Y-118055596D01*
X137773409Y-118118035D01*
X137749532Y-118194740D01*
X137680995Y-118194740D01*
X137681985Y-118088757D01*
X137684964Y-118016470D01*
X137690589Y-117972409D01*
X137699520Y-117950458D01*
X137712417Y-117944500D01*
X137730859Y-117952292D01*
X137744167Y-117986522D01*
X137744265Y-117998832D01*
X137748852Y-118016860D01*
X137768189Y-118012779D01*
X137812959Y-117986602D01*
X137843466Y-117970306D01*
X137939971Y-117945473D01*
X138033084Y-117956141D01*
X138115479Y-117997494D01*
X138179829Y-118064716D01*
X138218806Y-118152989D01*
X138223616Y-118233067D01*
X138225084Y-118257499D01*
X138215055Y-118306432D01*
G37*
G36*
X141781532Y-117760627D02*
G01*
X141786513Y-117765735D01*
X141803730Y-117796082D01*
X141787129Y-117827929D01*
X141786338Y-117828870D01*
X141744965Y-117854410D01*
X141706445Y-117843992D01*
X141684974Y-117801314D01*
X141684267Y-117785236D01*
X141701702Y-117747988D01*
X141738706Y-117737854D01*
X141781532Y-117760627D01*
G37*
G36*
X141736102Y-117944592D02*
G01*
X141748732Y-117952544D01*
X141757298Y-117977766D01*
X141762522Y-118026519D01*
X141765126Y-118105065D01*
X141765834Y-118219667D01*
X141765823Y-118237159D01*
X141764906Y-118346620D01*
X141761996Y-118420856D01*
X141756370Y-118466129D01*
X141747307Y-118488701D01*
X141734084Y-118494834D01*
X141732065Y-118494742D01*
X141719435Y-118486790D01*
X141710870Y-118461568D01*
X141705646Y-118412815D01*
X141703041Y-118334268D01*
X141702334Y-118219667D01*
X141702344Y-118202174D01*
X141703262Y-118092713D01*
X141706172Y-118018477D01*
X141711798Y-117973204D01*
X141720861Y-117950633D01*
X141734084Y-117944500D01*
X141736102Y-117944592D01*
G37*
G36*
X144444081Y-118351303D02*
G01*
X144386275Y-118427963D01*
X144296300Y-118486937D01*
X144216672Y-118504867D01*
X144121690Y-118496298D01*
X144035959Y-118461030D01*
X144013923Y-118447547D01*
X143992852Y-118442092D01*
X143988334Y-118462596D01*
X143980666Y-118481372D01*
X143946000Y-118494834D01*
X143929942Y-118492954D01*
X143917715Y-118482481D01*
X143910012Y-118456663D01*
X143905795Y-118408752D01*
X143904026Y-118332002D01*
X143903724Y-118237560D01*
X143988334Y-118237560D01*
X143990006Y-118273437D01*
X144007701Y-118327914D01*
X144053458Y-118376535D01*
X144060333Y-118382149D01*
X144140298Y-118425028D01*
X144218223Y-118432335D01*
X144288600Y-118410121D01*
X144345918Y-118364437D01*
X144384667Y-118301331D01*
X144399340Y-118226856D01*
X144384425Y-118147061D01*
X144334413Y-118067997D01*
X144324809Y-118058478D01*
X144258028Y-118023403D01*
X144176729Y-118015917D01*
X144097366Y-118038096D01*
X144097006Y-118038282D01*
X144032593Y-118084909D01*
X143998389Y-118147640D01*
X143988334Y-118237560D01*
X143903724Y-118237560D01*
X143903667Y-118219667D01*
X143903724Y-118178120D01*
X143904831Y-118076800D01*
X143907961Y-118009234D01*
X143913905Y-117968967D01*
X143923453Y-117949541D01*
X143937399Y-117944500D01*
X143958894Y-117952253D01*
X143982113Y-117986497D01*
X143983099Y-117990258D01*
X143992522Y-118015229D01*
X144009346Y-118013976D01*
X144046486Y-117986497D01*
X144099408Y-117958660D01*
X144182739Y-117944500D01*
X144204424Y-117945152D01*
X144306239Y-117968469D01*
X144385425Y-118019661D01*
X144440392Y-118091134D01*
X144469551Y-118175294D01*
X144470567Y-118226856D01*
X144471310Y-118264548D01*
X144444081Y-118351303D01*
G37*
G36*
X137460436Y-117944592D02*
G01*
X137473066Y-117952544D01*
X137481631Y-117977766D01*
X137486855Y-118026519D01*
X137489460Y-118105065D01*
X137490167Y-118219667D01*
X137489653Y-118313040D01*
X137487139Y-118401120D01*
X137481989Y-118456981D01*
X137473609Y-118486320D01*
X137461401Y-118494834D01*
X137452787Y-118491604D01*
X137439248Y-118464660D01*
X137429078Y-118405986D01*
X137421121Y-118310287D01*
X137416258Y-118239899D01*
X137408545Y-118173635D01*
X137396258Y-118130176D01*
X137375837Y-118098322D01*
X137343720Y-118066871D01*
X137288505Y-118028354D01*
X137219103Y-118008611D01*
X137159961Y-118024199D01*
X137136064Y-118046441D01*
X137108474Y-118103106D01*
X137092897Y-118190349D01*
X137088000Y-118313525D01*
X137088000Y-118313654D01*
X137086658Y-118403955D01*
X137081778Y-118459347D01*
X137072072Y-118487188D01*
X137056250Y-118494834D01*
X137049358Y-118493728D01*
X137036932Y-118479828D01*
X137029337Y-118444458D01*
X137025537Y-118380676D01*
X137024500Y-118281539D01*
X137024532Y-118245690D01*
X137025688Y-118159878D01*
X137030191Y-118103086D01*
X137040300Y-118065267D01*
X137058275Y-118036378D01*
X137086372Y-118006372D01*
X137098416Y-117995074D01*
X137176673Y-117951509D01*
X137264122Y-117948614D01*
X137357875Y-117986602D01*
X137378125Y-117998888D01*
X137412215Y-118016871D01*
X137424835Y-118012753D01*
X137426667Y-117986522D01*
X137432554Y-117962114D01*
X137458417Y-117944500D01*
X137460436Y-117944592D01*
G37*
G36*
X140072500Y-115897213D02*
G01*
X139940612Y-115885254D01*
X139860565Y-115874453D01*
X139806226Y-115856235D01*
X139771278Y-115827052D01*
X139739499Y-115765385D01*
X139742304Y-115693592D01*
X139785788Y-115625788D01*
X139788958Y-115622658D01*
X139829394Y-115592223D01*
X139879388Y-115577603D01*
X139955122Y-115573834D01*
X140072500Y-115573834D01*
X140072500Y-115897213D01*
G37*
G36*
X146442241Y-117968716D02*
G01*
X146480510Y-118030942D01*
X146527216Y-118132356D01*
X146542443Y-118167657D01*
X146574744Y-118237672D01*
X146600154Y-118286189D01*
X146614183Y-118304334D01*
X146617718Y-118301848D01*
X146636552Y-118271829D01*
X146665013Y-118214953D01*
X146698442Y-118140292D01*
X146709769Y-118113959D01*
X146742405Y-118040502D01*
X146768384Y-117985481D01*
X146782892Y-117959216D01*
X146789371Y-117960952D01*
X146811109Y-117990448D01*
X146842420Y-118047056D01*
X146878904Y-118123258D01*
X146899418Y-118167884D01*
X146933647Y-118238014D01*
X146959957Y-118286335D01*
X146973880Y-118304334D01*
X146979488Y-118299012D01*
X147000442Y-118263731D01*
X147031255Y-118202678D01*
X147067472Y-118124417D01*
X147087050Y-118082279D01*
X147124247Y-118011452D01*
X147155849Y-117962667D01*
X147176653Y-117944500D01*
X147188631Y-117945912D01*
X147206228Y-117960375D01*
X147205886Y-117962617D01*
X147194963Y-117994360D01*
X147170960Y-118055567D01*
X147136962Y-118138530D01*
X147096056Y-118235542D01*
X147085971Y-118259083D01*
X147045737Y-118351475D01*
X147012102Y-118426342D01*
X146988337Y-118476516D01*
X146977711Y-118494834D01*
X146972558Y-118488123D01*
X146952404Y-118451032D01*
X146921420Y-118388763D01*
X146883820Y-118309625D01*
X146797540Y-118124417D01*
X146747991Y-118230250D01*
X146730852Y-118267424D01*
X146694803Y-118348464D01*
X146666041Y-118416545D01*
X146657546Y-118435984D01*
X146633970Y-118475599D01*
X146616270Y-118486271D01*
X146605250Y-118471552D01*
X146580514Y-118425104D01*
X146547581Y-118355904D01*
X146510190Y-118272680D01*
X146472078Y-118184156D01*
X146436985Y-118099059D01*
X146408647Y-118026114D01*
X146390805Y-117974047D01*
X146387195Y-117951583D01*
X146410892Y-117943720D01*
X146442241Y-117968716D01*
G37*
G36*
X145397936Y-117944592D02*
G01*
X145410566Y-117952544D01*
X145419131Y-117977766D01*
X145424355Y-118026519D01*
X145426960Y-118105065D01*
X145427667Y-118219667D01*
X145427657Y-118237159D01*
X145426739Y-118346620D01*
X145423829Y-118420856D01*
X145418203Y-118466129D01*
X145409140Y-118488701D01*
X145395917Y-118494834D01*
X145394341Y-118494793D01*
X145376150Y-118483115D01*
X145366624Y-118445203D01*
X145363662Y-118373125D01*
X145361706Y-118307861D01*
X145344186Y-118178805D01*
X145309085Y-118084861D01*
X145257084Y-118027452D01*
X145188864Y-118008000D01*
X145141647Y-118014490D01*
X145105593Y-118039786D01*
X145082944Y-118089698D01*
X145071193Y-118169996D01*
X145067834Y-118286447D01*
X145067833Y-118292562D01*
X145067154Y-118385966D01*
X145064150Y-118445175D01*
X145057252Y-118477910D01*
X145044892Y-118491889D01*
X145025500Y-118494834D01*
X145010935Y-118493581D01*
X144995904Y-118483144D01*
X144987547Y-118455111D01*
X144983942Y-118401241D01*
X144983167Y-118313289D01*
X144982709Y-118241725D01*
X144979215Y-118177092D01*
X144969758Y-118134546D01*
X144951422Y-118102627D01*
X144921295Y-118069872D01*
X144915231Y-118063937D01*
X144848752Y-118018002D01*
X144787406Y-118013536D01*
X144729167Y-118050334D01*
X144719300Y-118061128D01*
X144702569Y-118089750D01*
X144692704Y-118131602D01*
X144688021Y-118196373D01*
X144686834Y-118293750D01*
X144686764Y-118322914D01*
X144684938Y-118408774D01*
X144679797Y-118461316D01*
X144670219Y-118487637D01*
X144655084Y-118494834D01*
X144646569Y-118492996D01*
X144634948Y-118477228D01*
X144627849Y-118439625D01*
X144624301Y-118373363D01*
X144623334Y-118271621D01*
X144623352Y-118248059D01*
X144624390Y-118154705D01*
X144628320Y-118092314D01*
X144636923Y-118051440D01*
X144651985Y-118022636D01*
X144675288Y-117996455D01*
X144699008Y-117976459D01*
X144774714Y-117946175D01*
X144856743Y-117952408D01*
X144933928Y-117995211D01*
X144992883Y-118045922D01*
X145053149Y-117995211D01*
X145065414Y-117985684D01*
X145141511Y-117951260D01*
X145221922Y-117947470D01*
X145291330Y-117975577D01*
X145326217Y-117998749D01*
X145355334Y-118003781D01*
X145364167Y-117976250D01*
X145367855Y-117961443D01*
X145395917Y-117944500D01*
X145397936Y-117944592D01*
G37*
G36*
X149431412Y-115799662D02*
G01*
X149473896Y-115913825D01*
X149506430Y-116001214D01*
X149526613Y-116055375D01*
X149575970Y-116187667D01*
X149303793Y-116187667D01*
X149245201Y-116007750D01*
X149186608Y-115827834D01*
X148633903Y-115827834D01*
X148571537Y-116007750D01*
X148509171Y-116187667D01*
X148374576Y-116187667D01*
X148365092Y-116187661D01*
X148296485Y-116186388D01*
X148260765Y-116180748D01*
X148249393Y-116167655D01*
X148253833Y-116144022D01*
X148259826Y-116126806D01*
X148279645Y-116072008D01*
X148311105Y-115986022D01*
X148352374Y-115873821D01*
X148401624Y-115740376D01*
X148450564Y-115608121D01*
X148708500Y-115608121D01*
X148715647Y-115610236D01*
X148756093Y-115613288D01*
X148824267Y-115615387D01*
X148911010Y-115616167D01*
X148943148Y-115616153D01*
X149025286Y-115615392D01*
X149074601Y-115612106D01*
X149098410Y-115604439D01*
X149104028Y-115590537D01*
X149098771Y-115568542D01*
X149085611Y-115527549D01*
X149059247Y-115449753D01*
X149028022Y-115360963D01*
X148995057Y-115269678D01*
X148963474Y-115184397D01*
X148936391Y-115113619D01*
X148916931Y-115065842D01*
X148908213Y-115049565D01*
X148900400Y-115067717D01*
X148881441Y-115117694D01*
X148854674Y-115190511D01*
X148823284Y-115277261D01*
X148790458Y-115369031D01*
X148759380Y-115456912D01*
X148733238Y-115531995D01*
X148715216Y-115585368D01*
X148708500Y-115608121D01*
X148450564Y-115608121D01*
X148457025Y-115590661D01*
X148516745Y-115429647D01*
X148765805Y-114758917D01*
X148902787Y-114752742D01*
X149039768Y-114746568D01*
X149258512Y-115334826D01*
X149268264Y-115361052D01*
X149326195Y-115516823D01*
X149353614Y-115590537D01*
X149381378Y-115665177D01*
X149431412Y-115799662D01*
G37*
G36*
X141502170Y-117754022D02*
G01*
X141513552Y-117760268D01*
X141521808Y-117781388D01*
X141527411Y-117822873D01*
X141530830Y-117890212D01*
X141532536Y-117988896D01*
X141533000Y-118124417D01*
X141532999Y-118135149D01*
X141532463Y-118267929D01*
X141530653Y-118364256D01*
X141527097Y-118429619D01*
X141521325Y-118469510D01*
X141512867Y-118489418D01*
X141501250Y-118494834D01*
X141500331Y-118494811D01*
X141488949Y-118488565D01*
X141480693Y-118467445D01*
X141475090Y-118425961D01*
X141471671Y-118358622D01*
X141469965Y-118259937D01*
X141469500Y-118124417D01*
X141469502Y-118113685D01*
X141470038Y-117980904D01*
X141471848Y-117884578D01*
X141475404Y-117819214D01*
X141481176Y-117779324D01*
X141489634Y-117759416D01*
X141501250Y-117754000D01*
X141502170Y-117754022D01*
G37*
D16*
G04 #@! TO.C,Sign-PbFree*
X155169220Y-110043320D02*
X157602540Y-107622700D01*
D19*
X158132237Y-108880000D02*
G75*
G03*
X158132237Y-108880000I-1802237J0D01*
G01*
G04 #@! TD*
M02*
