G04 #@! TF.GenerationSoftware,KiCad,Pcbnew,(6.0.9)*
G04 #@! TF.CreationDate,2022-11-30T10:01:03+01:00*
G04 #@! TF.ProjectId,LDAD ATOM PRO,4c444144-2041-4544-9f4d-2050524f2e6b,5.3*
G04 #@! TF.SameCoordinates,Original*
G04 #@! TF.FileFunction,Copper,L1,Top*
G04 #@! TF.FilePolarity,Positive*
%FSLAX46Y46*%
G04 Gerber Fmt 4.6, Leading zero omitted, Abs format (unit mm)*
G04 Created by KiCad (PCBNEW (6.0.9)) date 2022-11-30 10:01:03*
%MOMM*%
%LPD*%
G01*
G04 APERTURE LIST*
G04 Aperture macros list*
%AMRoundRect*
0 Rectangle with rounded corners*
0 $1 Rounding radius*
0 $2 $3 $4 $5 $6 $7 $8 $9 X,Y pos of 4 corners*
0 Add a 4 corners polygon primitive as box body*
4,1,4,$2,$3,$4,$5,$6,$7,$8,$9,$2,$3,0*
0 Add four circle primitives for the rounded corners*
1,1,$1+$1,$2,$3*
1,1,$1+$1,$4,$5*
1,1,$1+$1,$6,$7*
1,1,$1+$1,$8,$9*
0 Add four rect primitives between the rounded corners*
20,1,$1+$1,$2,$3,$4,$5,0*
20,1,$1+$1,$4,$5,$6,$7,0*
20,1,$1+$1,$6,$7,$8,$9,0*
20,1,$1+$1,$8,$9,$2,$3,0*%
%AMRotRect*
0 Rectangle, with rotation*
0 The origin of the aperture is its center*
0 $1 length*
0 $2 width*
0 $3 Rotation angle, in degrees counterclockwise*
0 Add horizontal line*
21,1,$1,$2,0,0,$3*%
%AMFreePoly0*
4,1,6,0.500000,-0.850000,-0.500000,-0.850000,-0.500000,0.550000,-0.200000,0.850000,0.500000,0.850000,0.500000,-0.850000,0.500000,-0.850000,$1*%
G04 Aperture macros list end*
%ADD10C,0.100000*%
%ADD11C,0.150000*%
%ADD12C,0.300000*%
%ADD13C,0.400000*%
G04 #@! TA.AperFunction,NonConductor*
%ADD14C,0.200000*%
G04 #@! TD*
G04 #@! TA.AperFunction,Profile*
%ADD15C,0.120000*%
G04 #@! TD*
G04 #@! TA.AperFunction,SMDPad,CuDef*
%ADD16RoundRect,0.225000X-0.250000X0.225000X-0.250000X-0.225000X0.250000X-0.225000X0.250000X0.225000X0*%
G04 #@! TD*
G04 #@! TA.AperFunction,SMDPad,CuDef*
%ADD17RoundRect,0.250000X-0.262500X-0.450000X0.262500X-0.450000X0.262500X0.450000X-0.262500X0.450000X0*%
G04 #@! TD*
G04 #@! TA.AperFunction,SMDPad,CuDef*
%ADD18RoundRect,0.250000X0.475000X-0.250000X0.475000X0.250000X-0.475000X0.250000X-0.475000X-0.250000X0*%
G04 #@! TD*
G04 #@! TA.AperFunction,SMDPad,CuDef*
%ADD19RoundRect,0.250000X0.350000X0.450000X-0.350000X0.450000X-0.350000X-0.450000X0.350000X-0.450000X0*%
G04 #@! TD*
G04 #@! TA.AperFunction,SMDPad,CuDef*
%ADD20RoundRect,0.200000X-0.200000X-0.275000X0.200000X-0.275000X0.200000X0.275000X-0.200000X0.275000X0*%
G04 #@! TD*
G04 #@! TA.AperFunction,SMDPad,CuDef*
%ADD21R,1.300000X1.000000*%
G04 #@! TD*
G04 #@! TA.AperFunction,SMDPad,CuDef*
%ADD22RoundRect,0.225000X0.225000X0.250000X-0.225000X0.250000X-0.225000X-0.250000X0.225000X-0.250000X0*%
G04 #@! TD*
G04 #@! TA.AperFunction,ComponentPad*
%ADD23R,1.000000X1.000000*%
G04 #@! TD*
G04 #@! TA.AperFunction,ComponentPad*
%ADD24O,1.000000X1.000000*%
G04 #@! TD*
G04 #@! TA.AperFunction,SMDPad,CuDef*
%ADD25RoundRect,0.050000X-0.238649X-0.309359X0.309359X0.238649X0.238649X0.309359X-0.309359X-0.238649X0*%
G04 #@! TD*
G04 #@! TA.AperFunction,SMDPad,CuDef*
%ADD26RoundRect,0.050000X0.238649X-0.309359X0.309359X-0.238649X-0.238649X0.309359X-0.309359X0.238649X0*%
G04 #@! TD*
G04 #@! TA.AperFunction,SMDPad,CuDef*
%ADD27RotRect,5.600000X5.600000X45.000000*%
G04 #@! TD*
G04 #@! TA.AperFunction,SMDPad,CuDef*
%ADD28RoundRect,0.250001X-0.624999X0.462499X-0.624999X-0.462499X0.624999X-0.462499X0.624999X0.462499X0*%
G04 #@! TD*
G04 #@! TA.AperFunction,SMDPad,CuDef*
%ADD29RoundRect,0.200000X0.275000X-0.200000X0.275000X0.200000X-0.275000X0.200000X-0.275000X-0.200000X0*%
G04 #@! TD*
G04 #@! TA.AperFunction,SMDPad,CuDef*
%ADD30RoundRect,0.200000X0.200000X0.275000X-0.200000X0.275000X-0.200000X-0.275000X0.200000X-0.275000X0*%
G04 #@! TD*
G04 #@! TA.AperFunction,SMDPad,CuDef*
%ADD31RoundRect,0.225000X-0.225000X-0.250000X0.225000X-0.250000X0.225000X0.250000X-0.225000X0.250000X0*%
G04 #@! TD*
G04 #@! TA.AperFunction,ConnectorPad*
%ADD32R,0.400000X2.000000*%
G04 #@! TD*
G04 #@! TA.AperFunction,ComponentPad*
%ADD33O,1.100000X1.700000*%
G04 #@! TD*
G04 #@! TA.AperFunction,SMDPad,CuDef*
%ADD34RoundRect,0.225000X0.250000X-0.225000X0.250000X0.225000X-0.250000X0.225000X-0.250000X-0.225000X0*%
G04 #@! TD*
G04 #@! TA.AperFunction,SMDPad,CuDef*
%ADD35R,0.250000X0.550000*%
G04 #@! TD*
G04 #@! TA.AperFunction,SMDPad,CuDef*
%ADD36FreePoly0,90.000000*%
G04 #@! TD*
G04 #@! TA.AperFunction,SMDPad,CuDef*
%ADD37RoundRect,0.250000X-0.450000X0.262500X-0.450000X-0.262500X0.450000X-0.262500X0.450000X0.262500X0*%
G04 #@! TD*
G04 #@! TA.AperFunction,SMDPad,CuDef*
%ADD38RoundRect,0.250000X0.337500X0.475000X-0.337500X0.475000X-0.337500X-0.475000X0.337500X-0.475000X0*%
G04 #@! TD*
G04 #@! TA.AperFunction,SMDPad,CuDef*
%ADD39C,1.000000*%
G04 #@! TD*
G04 #@! TA.AperFunction,SMDPad,CuDef*
%ADD40RoundRect,0.250000X0.250000X0.475000X-0.250000X0.475000X-0.250000X-0.475000X0.250000X-0.475000X0*%
G04 #@! TD*
G04 #@! TA.AperFunction,ComponentPad*
%ADD41RoundRect,0.250000X-0.600000X-0.725000X0.600000X-0.725000X0.600000X0.725000X-0.600000X0.725000X0*%
G04 #@! TD*
G04 #@! TA.AperFunction,ComponentPad*
%ADD42O,1.700000X1.950000*%
G04 #@! TD*
G04 #@! TA.AperFunction,SMDPad,CuDef*
%ADD43RoundRect,0.250000X-0.375000X-1.075000X0.375000X-1.075000X0.375000X1.075000X-0.375000X1.075000X0*%
G04 #@! TD*
G04 #@! TA.AperFunction,SMDPad,CuDef*
%ADD44RoundRect,0.150000X-0.150000X0.587500X-0.150000X-0.587500X0.150000X-0.587500X0.150000X0.587500X0*%
G04 #@! TD*
G04 #@! TA.AperFunction,SMDPad,CuDef*
%ADD45RoundRect,0.150000X0.150000X-0.587500X0.150000X0.587500X-0.150000X0.587500X-0.150000X-0.587500X0*%
G04 #@! TD*
G04 #@! TA.AperFunction,SMDPad,CuDef*
%ADD46RoundRect,0.218750X0.381250X-0.218750X0.381250X0.218750X-0.381250X0.218750X-0.381250X-0.218750X0*%
G04 #@! TD*
G04 #@! TA.AperFunction,SMDPad,CuDef*
%ADD47R,25.500000X0.400000*%
G04 #@! TD*
G04 #@! TA.AperFunction,SMDPad,CuDef*
%ADD48RoundRect,0.250000X-0.250000X-0.475000X0.250000X-0.475000X0.250000X0.475000X-0.250000X0.475000X0*%
G04 #@! TD*
G04 #@! TA.AperFunction,SMDPad,CuDef*
%ADD49R,0.400000X20.500000*%
G04 #@! TD*
G04 #@! TA.AperFunction,SMDPad,CuDef*
%ADD50RoundRect,0.100000X-0.100000X-0.550000X0.100000X-0.550000X0.100000X0.550000X-0.100000X0.550000X0*%
G04 #@! TD*
G04 #@! TA.AperFunction,SMDPad,CuDef*
%ADD51RoundRect,0.262500X0.737500X0.262500X-0.737500X0.262500X-0.737500X-0.262500X0.737500X-0.262500X0*%
G04 #@! TD*
G04 #@! TA.AperFunction,SMDPad,CuDef*
%ADD52RoundRect,0.100000X0.100000X0.550000X-0.100000X0.550000X-0.100000X-0.550000X0.100000X-0.550000X0*%
G04 #@! TD*
G04 #@! TA.AperFunction,SMDPad,CuDef*
%ADD53R,0.700000X1.525000*%
G04 #@! TD*
G04 #@! TA.AperFunction,SMDPad,CuDef*
%ADD54R,3.402000X2.513000*%
G04 #@! TD*
G04 #@! TA.AperFunction,SMDPad,CuDef*
%ADD55RoundRect,0.218750X-0.218750X-0.381250X0.218750X-0.381250X0.218750X0.381250X-0.218750X0.381250X0*%
G04 #@! TD*
G04 #@! TA.AperFunction,SMDPad,CuDef*
%ADD56RoundRect,0.250000X-0.350000X-0.450000X0.350000X-0.450000X0.350000X0.450000X-0.350000X0.450000X0*%
G04 #@! TD*
G04 #@! TA.AperFunction,ComponentPad*
%ADD57RoundRect,0.250000X0.600000X0.750000X-0.600000X0.750000X-0.600000X-0.750000X0.600000X-0.750000X0*%
G04 #@! TD*
G04 #@! TA.AperFunction,ComponentPad*
%ADD58O,1.700000X2.000000*%
G04 #@! TD*
G04 #@! TA.AperFunction,SMDPad,CuDef*
%ADD59R,0.400000X5.700000*%
G04 #@! TD*
G04 #@! TA.AperFunction,SMDPad,CuDef*
%ADD60R,0.500000X0.500000*%
G04 #@! TD*
G04 #@! TA.AperFunction,SMDPad,CuDef*
%ADD61RoundRect,0.200000X-0.275000X0.200000X-0.275000X-0.200000X0.275000X-0.200000X0.275000X0.200000X0*%
G04 #@! TD*
G04 #@! TA.AperFunction,SMDPad,CuDef*
%ADD62R,25.400000X0.400000*%
G04 #@! TD*
G04 #@! TA.AperFunction,SMDPad,CuDef*
%ADD63RoundRect,0.250001X0.462499X0.624999X-0.462499X0.624999X-0.462499X-0.624999X0.462499X-0.624999X0*%
G04 #@! TD*
G04 #@! TA.AperFunction,SMDPad,CuDef*
%ADD64R,0.400000X13.300000*%
G04 #@! TD*
G04 #@! TA.AperFunction,SMDPad,CuDef*
%ADD65RoundRect,0.041300X0.948700X0.253700X-0.948700X0.253700X-0.948700X-0.253700X0.948700X-0.253700X0*%
G04 #@! TD*
G04 #@! TA.AperFunction,SMDPad,CuDef*
%ADD66R,0.350000X0.580000*%
G04 #@! TD*
G04 #@! TA.AperFunction,SMDPad,CuDef*
%ADD67R,0.580000X0.350000*%
G04 #@! TD*
G04 #@! TA.AperFunction,SMDPad,CuDef*
%ADD68R,1.000000X1.300000*%
G04 #@! TD*
G04 #@! TA.AperFunction,SMDPad,CuDef*
%ADD69RoundRect,0.250000X0.262500X0.450000X-0.262500X0.450000X-0.262500X-0.450000X0.262500X-0.450000X0*%
G04 #@! TD*
G04 #@! TA.AperFunction,SMDPad,CuDef*
%ADD70O,1.500000X0.800000*%
G04 #@! TD*
G04 #@! TA.AperFunction,ViaPad*
%ADD71C,0.600000*%
G04 #@! TD*
G04 #@! TA.AperFunction,ViaPad*
%ADD72C,0.800000*%
G04 #@! TD*
G04 #@! TA.AperFunction,ViaPad*
%ADD73C,0.500000*%
G04 #@! TD*
G04 #@! TA.AperFunction,ViaPad*
%ADD74C,0.700000*%
G04 #@! TD*
G04 #@! TA.AperFunction,Conductor*
%ADD75C,0.200000*%
G04 #@! TD*
G04 #@! TA.AperFunction,Conductor*
%ADD76C,0.400000*%
G04 #@! TD*
G04 #@! TA.AperFunction,Conductor*
%ADD77C,0.150000*%
G04 #@! TD*
G04 #@! TA.AperFunction,Conductor*
%ADD78C,0.300000*%
G04 #@! TD*
G04 #@! TA.AperFunction,Conductor*
%ADD79C,0.250000*%
G04 #@! TD*
G04 #@! TA.AperFunction,Conductor*
%ADD80C,0.320000*%
G04 #@! TD*
G04 #@! TA.AperFunction,Conductor*
%ADD81C,0.510000*%
G04 #@! TD*
G04 #@! TA.AperFunction,Conductor*
%ADD82C,0.180000*%
G04 #@! TD*
G04 #@! TA.AperFunction,Conductor*
%ADD83C,0.350000*%
G04 #@! TD*
G04 APERTURE END LIST*
D10*
D11*
X177002200Y-166007200D02*
X177002200Y-198007200D01*
X285002200Y-198007200D01*
X285002200Y-166007200D01*
X177002200Y-166007200D01*
D10*
D11*
X10000000Y-10000000D02*
X10000000Y-200007200D01*
X287002200Y-200007200D01*
X287002200Y-10000000D01*
X10000000Y-10000000D01*
D10*
D11*
X12000000Y-12000000D02*
X12000000Y-198007200D01*
X285002200Y-198007200D01*
X285002200Y-12000000D01*
X12000000Y-12000000D01*
D10*
D11*
X60000000Y-12000000D02*
X60000000Y-10000000D01*
D10*
D11*
X110000000Y-12000000D02*
X110000000Y-10000000D01*
D10*
D11*
X160000000Y-12000000D02*
X160000000Y-10000000D01*
D10*
D11*
X210000000Y-12000000D02*
X210000000Y-10000000D01*
D10*
D11*
X260000000Y-12000000D02*
X260000000Y-10000000D01*
D10*
D11*
X36065476Y-11588095D02*
X35322619Y-11588095D01*
X35694047Y-11588095D02*
X35694047Y-10288095D01*
X35570238Y-10473809D01*
X35446428Y-10597619D01*
X35322619Y-10659523D01*
D10*
D11*
X85322619Y-10411904D02*
X85384523Y-10350000D01*
X85508333Y-10288095D01*
X85817857Y-10288095D01*
X85941666Y-10350000D01*
X86003571Y-10411904D01*
X86065476Y-10535714D01*
X86065476Y-10659523D01*
X86003571Y-10845238D01*
X85260714Y-11588095D01*
X86065476Y-11588095D01*
D10*
D11*
X135260714Y-10288095D02*
X136065476Y-10288095D01*
X135632142Y-10783333D01*
X135817857Y-10783333D01*
X135941666Y-10845238D01*
X136003571Y-10907142D01*
X136065476Y-11030952D01*
X136065476Y-11340476D01*
X136003571Y-11464285D01*
X135941666Y-11526190D01*
X135817857Y-11588095D01*
X135446428Y-11588095D01*
X135322619Y-11526190D01*
X135260714Y-11464285D01*
D10*
D11*
X185941666Y-10721428D02*
X185941666Y-11588095D01*
X185632142Y-10226190D02*
X185322619Y-11154761D01*
X186127380Y-11154761D01*
D10*
D11*
X236003571Y-10288095D02*
X235384523Y-10288095D01*
X235322619Y-10907142D01*
X235384523Y-10845238D01*
X235508333Y-10783333D01*
X235817857Y-10783333D01*
X235941666Y-10845238D01*
X236003571Y-10907142D01*
X236065476Y-11030952D01*
X236065476Y-11340476D01*
X236003571Y-11464285D01*
X235941666Y-11526190D01*
X235817857Y-11588095D01*
X235508333Y-11588095D01*
X235384523Y-11526190D01*
X235322619Y-11464285D01*
D10*
D11*
X285941666Y-10288095D02*
X285694047Y-10288095D01*
X285570238Y-10350000D01*
X285508333Y-10411904D01*
X285384523Y-10597619D01*
X285322619Y-10845238D01*
X285322619Y-11340476D01*
X285384523Y-11464285D01*
X285446428Y-11526190D01*
X285570238Y-11588095D01*
X285817857Y-11588095D01*
X285941666Y-11526190D01*
X286003571Y-11464285D01*
X286065476Y-11340476D01*
X286065476Y-11030952D01*
X286003571Y-10907142D01*
X285941666Y-10845238D01*
X285817857Y-10783333D01*
X285570238Y-10783333D01*
X285446428Y-10845238D01*
X285384523Y-10907142D01*
X285322619Y-11030952D01*
D10*
D11*
X60000000Y-198007200D02*
X60000000Y-200007200D01*
D10*
D11*
X110000000Y-198007200D02*
X110000000Y-200007200D01*
D10*
D11*
X160000000Y-198007200D02*
X160000000Y-200007200D01*
D10*
D11*
X210000000Y-198007200D02*
X210000000Y-200007200D01*
D10*
D11*
X260000000Y-198007200D02*
X260000000Y-200007200D01*
D10*
D11*
X36065476Y-199595295D02*
X35322619Y-199595295D01*
X35694047Y-199595295D02*
X35694047Y-198295295D01*
X35570238Y-198481009D01*
X35446428Y-198604819D01*
X35322619Y-198666723D01*
D10*
D11*
X85322619Y-198419104D02*
X85384523Y-198357200D01*
X85508333Y-198295295D01*
X85817857Y-198295295D01*
X85941666Y-198357200D01*
X86003571Y-198419104D01*
X86065476Y-198542914D01*
X86065476Y-198666723D01*
X86003571Y-198852438D01*
X85260714Y-199595295D01*
X86065476Y-199595295D01*
D10*
D11*
X135260714Y-198295295D02*
X136065476Y-198295295D01*
X135632142Y-198790533D01*
X135817857Y-198790533D01*
X135941666Y-198852438D01*
X136003571Y-198914342D01*
X136065476Y-199038152D01*
X136065476Y-199347676D01*
X136003571Y-199471485D01*
X135941666Y-199533390D01*
X135817857Y-199595295D01*
X135446428Y-199595295D01*
X135322619Y-199533390D01*
X135260714Y-199471485D01*
D10*
D11*
X185941666Y-198728628D02*
X185941666Y-199595295D01*
X185632142Y-198233390D02*
X185322619Y-199161961D01*
X186127380Y-199161961D01*
D10*
D11*
X236003571Y-198295295D02*
X235384523Y-198295295D01*
X235322619Y-198914342D01*
X235384523Y-198852438D01*
X235508333Y-198790533D01*
X235817857Y-198790533D01*
X235941666Y-198852438D01*
X236003571Y-198914342D01*
X236065476Y-199038152D01*
X236065476Y-199347676D01*
X236003571Y-199471485D01*
X235941666Y-199533390D01*
X235817857Y-199595295D01*
X235508333Y-199595295D01*
X235384523Y-199533390D01*
X235322619Y-199471485D01*
D10*
D11*
X285941666Y-198295295D02*
X285694047Y-198295295D01*
X285570238Y-198357200D01*
X285508333Y-198419104D01*
X285384523Y-198604819D01*
X285322619Y-198852438D01*
X285322619Y-199347676D01*
X285384523Y-199471485D01*
X285446428Y-199533390D01*
X285570238Y-199595295D01*
X285817857Y-199595295D01*
X285941666Y-199533390D01*
X286003571Y-199471485D01*
X286065476Y-199347676D01*
X286065476Y-199038152D01*
X286003571Y-198914342D01*
X285941666Y-198852438D01*
X285817857Y-198790533D01*
X285570238Y-198790533D01*
X285446428Y-198852438D01*
X285384523Y-198914342D01*
X285322619Y-199038152D01*
D10*
D11*
X10000000Y-60000000D02*
X12000000Y-60000000D01*
D10*
D11*
X10000000Y-110000000D02*
X12000000Y-110000000D01*
D10*
D11*
X10000000Y-160000000D02*
X12000000Y-160000000D01*
D10*
D11*
X10690476Y-35216666D02*
X11309523Y-35216666D01*
X10566666Y-35588095D02*
X11000000Y-34288095D01*
X11433333Y-35588095D01*
D10*
D11*
X11092857Y-84907142D02*
X11278571Y-84969047D01*
X11340476Y-85030952D01*
X11402380Y-85154761D01*
X11402380Y-85340476D01*
X11340476Y-85464285D01*
X11278571Y-85526190D01*
X11154761Y-85588095D01*
X10659523Y-85588095D01*
X10659523Y-84288095D01*
X11092857Y-84288095D01*
X11216666Y-84350000D01*
X11278571Y-84411904D01*
X11340476Y-84535714D01*
X11340476Y-84659523D01*
X11278571Y-84783333D01*
X11216666Y-84845238D01*
X11092857Y-84907142D01*
X10659523Y-84907142D01*
D10*
D11*
X11402380Y-135464285D02*
X11340476Y-135526190D01*
X11154761Y-135588095D01*
X11030952Y-135588095D01*
X10845238Y-135526190D01*
X10721428Y-135402380D01*
X10659523Y-135278571D01*
X10597619Y-135030952D01*
X10597619Y-134845238D01*
X10659523Y-134597619D01*
X10721428Y-134473809D01*
X10845238Y-134350000D01*
X11030952Y-134288095D01*
X11154761Y-134288095D01*
X11340476Y-134350000D01*
X11402380Y-134411904D01*
D10*
D11*
X10659523Y-185588095D02*
X10659523Y-184288095D01*
X10969047Y-184288095D01*
X11154761Y-184350000D01*
X11278571Y-184473809D01*
X11340476Y-184597619D01*
X11402380Y-184845238D01*
X11402380Y-185030952D01*
X11340476Y-185278571D01*
X11278571Y-185402380D01*
X11154761Y-185526190D01*
X10969047Y-185588095D01*
X10659523Y-185588095D01*
D10*
D11*
X287002200Y-60000000D02*
X285002200Y-60000000D01*
D10*
D11*
X287002200Y-110000000D02*
X285002200Y-110000000D01*
D10*
D11*
X287002200Y-160000000D02*
X285002200Y-160000000D01*
D10*
D11*
X285692676Y-35216666D02*
X286311723Y-35216666D01*
X285568866Y-35588095D02*
X286002200Y-34288095D01*
X286435533Y-35588095D01*
D10*
D11*
X286095057Y-84907142D02*
X286280771Y-84969047D01*
X286342676Y-85030952D01*
X286404580Y-85154761D01*
X286404580Y-85340476D01*
X286342676Y-85464285D01*
X286280771Y-85526190D01*
X286156961Y-85588095D01*
X285661723Y-85588095D01*
X285661723Y-84288095D01*
X286095057Y-84288095D01*
X286218866Y-84350000D01*
X286280771Y-84411904D01*
X286342676Y-84535714D01*
X286342676Y-84659523D01*
X286280771Y-84783333D01*
X286218866Y-84845238D01*
X286095057Y-84907142D01*
X285661723Y-84907142D01*
D10*
D11*
X286404580Y-135464285D02*
X286342676Y-135526190D01*
X286156961Y-135588095D01*
X286033152Y-135588095D01*
X285847438Y-135526190D01*
X285723628Y-135402380D01*
X285661723Y-135278571D01*
X285599819Y-135030952D01*
X285599819Y-134845238D01*
X285661723Y-134597619D01*
X285723628Y-134473809D01*
X285847438Y-134350000D01*
X286033152Y-134288095D01*
X286156961Y-134288095D01*
X286342676Y-134350000D01*
X286404580Y-134411904D01*
D10*
D11*
X285661723Y-185588095D02*
X285661723Y-184288095D01*
X285971247Y-184288095D01*
X286156961Y-184350000D01*
X286280771Y-184473809D01*
X286342676Y-184597619D01*
X286404580Y-184845238D01*
X286404580Y-185030952D01*
X286342676Y-185278571D01*
X286280771Y-185402380D01*
X286156961Y-185526190D01*
X285971247Y-185588095D01*
X285661723Y-185588095D01*
D10*
D11*
X200434342Y-193785771D02*
X200434342Y-192285771D01*
X200791485Y-192285771D01*
X201005771Y-192357200D01*
X201148628Y-192500057D01*
X201220057Y-192642914D01*
X201291485Y-192928628D01*
X201291485Y-193142914D01*
X201220057Y-193428628D01*
X201148628Y-193571485D01*
X201005771Y-193714342D01*
X200791485Y-193785771D01*
X200434342Y-193785771D01*
X202577200Y-193785771D02*
X202577200Y-193000057D01*
X202505771Y-192857200D01*
X202362914Y-192785771D01*
X202077200Y-192785771D01*
X201934342Y-192857200D01*
X202577200Y-193714342D02*
X202434342Y-193785771D01*
X202077200Y-193785771D01*
X201934342Y-193714342D01*
X201862914Y-193571485D01*
X201862914Y-193428628D01*
X201934342Y-193285771D01*
X202077200Y-193214342D01*
X202434342Y-193214342D01*
X202577200Y-193142914D01*
X203077200Y-192785771D02*
X203648628Y-192785771D01*
X203291485Y-192285771D02*
X203291485Y-193571485D01*
X203362914Y-193714342D01*
X203505771Y-193785771D01*
X203648628Y-193785771D01*
X204720057Y-193714342D02*
X204577200Y-193785771D01*
X204291485Y-193785771D01*
X204148628Y-193714342D01*
X204077200Y-193571485D01*
X204077200Y-193000057D01*
X204148628Y-192857200D01*
X204291485Y-192785771D01*
X204577200Y-192785771D01*
X204720057Y-192857200D01*
X204791485Y-193000057D01*
X204791485Y-193142914D01*
X204077200Y-193285771D01*
X205434342Y-193642914D02*
X205505771Y-193714342D01*
X205434342Y-193785771D01*
X205362914Y-193714342D01*
X205434342Y-193642914D01*
X205434342Y-193785771D01*
X205434342Y-192857200D02*
X205505771Y-192928628D01*
X205434342Y-193000057D01*
X205362914Y-192928628D01*
X205434342Y-192857200D01*
X205434342Y-193000057D01*
X207220057Y-192428628D02*
X207291485Y-192357200D01*
X207434342Y-192285771D01*
X207791485Y-192285771D01*
X207934342Y-192357200D01*
X208005771Y-192428628D01*
X208077200Y-192571485D01*
X208077200Y-192714342D01*
X208005771Y-192928628D01*
X207148628Y-193785771D01*
X208077200Y-193785771D01*
X209005771Y-192285771D02*
X209148628Y-192285771D01*
X209291485Y-192357200D01*
X209362914Y-192428628D01*
X209434342Y-192571485D01*
X209505771Y-192857200D01*
X209505771Y-193214342D01*
X209434342Y-193500057D01*
X209362914Y-193642914D01*
X209291485Y-193714342D01*
X209148628Y-193785771D01*
X209005771Y-193785771D01*
X208862914Y-193714342D01*
X208791485Y-193642914D01*
X208720057Y-193500057D01*
X208648628Y-193214342D01*
X208648628Y-192857200D01*
X208720057Y-192571485D01*
X208791485Y-192428628D01*
X208862914Y-192357200D01*
X209005771Y-192285771D01*
X210077200Y-192428628D02*
X210148628Y-192357200D01*
X210291485Y-192285771D01*
X210648628Y-192285771D01*
X210791485Y-192357200D01*
X210862914Y-192428628D01*
X210934342Y-192571485D01*
X210934342Y-192714342D01*
X210862914Y-192928628D01*
X210005771Y-193785771D01*
X210934342Y-193785771D01*
X212362914Y-193785771D02*
X211505771Y-193785771D01*
X211934342Y-193785771D02*
X211934342Y-192285771D01*
X211791485Y-192500057D01*
X211648628Y-192642914D01*
X211505771Y-192714342D01*
X213005771Y-193214342D02*
X214148628Y-193214342D01*
X215648628Y-193785771D02*
X214791485Y-193785771D01*
X215220057Y-193785771D02*
X215220057Y-192285771D01*
X215077200Y-192500057D01*
X214934342Y-192642914D01*
X214791485Y-192714342D01*
X216220057Y-192428628D02*
X216291485Y-192357200D01*
X216434342Y-192285771D01*
X216791485Y-192285771D01*
X216934342Y-192357200D01*
X217005771Y-192428628D01*
X217077200Y-192571485D01*
X217077200Y-192714342D01*
X217005771Y-192928628D01*
X216148628Y-193785771D01*
X217077200Y-193785771D01*
X217720057Y-193214342D02*
X218862914Y-193214342D01*
X219505771Y-192428628D02*
X219577200Y-192357200D01*
X219720057Y-192285771D01*
X220077200Y-192285771D01*
X220220057Y-192357200D01*
X220291485Y-192428628D01*
X220362914Y-192571485D01*
X220362914Y-192714342D01*
X220291485Y-192928628D01*
X219434342Y-193785771D01*
X220362914Y-193785771D01*
X221220057Y-192928628D02*
X221077200Y-192857200D01*
X221005771Y-192785771D01*
X220934342Y-192642914D01*
X220934342Y-192571485D01*
X221005771Y-192428628D01*
X221077200Y-192357200D01*
X221220057Y-192285771D01*
X221505771Y-192285771D01*
X221648628Y-192357200D01*
X221720057Y-192428628D01*
X221791485Y-192571485D01*
X221791485Y-192642914D01*
X221720057Y-192785771D01*
X221648628Y-192857200D01*
X221505771Y-192928628D01*
X221220057Y-192928628D01*
X221077200Y-193000057D01*
X221005771Y-193071485D01*
X220934342Y-193214342D01*
X220934342Y-193500057D01*
X221005771Y-193642914D01*
X221077200Y-193714342D01*
X221220057Y-193785771D01*
X221505771Y-193785771D01*
X221648628Y-193714342D01*
X221720057Y-193642914D01*
X221791485Y-193500057D01*
X221791485Y-193214342D01*
X221720057Y-193071485D01*
X221648628Y-193000057D01*
X221505771Y-192928628D01*
D10*
D11*
X177002200Y-194507200D02*
X285002200Y-194507200D01*
D10*
D11*
X178434342Y-196585771D02*
X178434342Y-195085771D01*
X179291485Y-196585771D02*
X178648628Y-195728628D01*
X179291485Y-195085771D02*
X178434342Y-195942914D01*
X179934342Y-196585771D02*
X179934342Y-195585771D01*
X179934342Y-195085771D02*
X179862914Y-195157200D01*
X179934342Y-195228628D01*
X180005771Y-195157200D01*
X179934342Y-195085771D01*
X179934342Y-195228628D01*
X181505771Y-196442914D02*
X181434342Y-196514342D01*
X181220057Y-196585771D01*
X181077200Y-196585771D01*
X180862914Y-196514342D01*
X180720057Y-196371485D01*
X180648628Y-196228628D01*
X180577200Y-195942914D01*
X180577200Y-195728628D01*
X180648628Y-195442914D01*
X180720057Y-195300057D01*
X180862914Y-195157200D01*
X181077200Y-195085771D01*
X181220057Y-195085771D01*
X181434342Y-195157200D01*
X181505771Y-195228628D01*
X182791485Y-196585771D02*
X182791485Y-195800057D01*
X182720057Y-195657200D01*
X182577200Y-195585771D01*
X182291485Y-195585771D01*
X182148628Y-195657200D01*
X182791485Y-196514342D02*
X182648628Y-196585771D01*
X182291485Y-196585771D01*
X182148628Y-196514342D01*
X182077200Y-196371485D01*
X182077200Y-196228628D01*
X182148628Y-196085771D01*
X182291485Y-196014342D01*
X182648628Y-196014342D01*
X182791485Y-195942914D01*
X184148628Y-196585771D02*
X184148628Y-195085771D01*
X184148628Y-196514342D02*
X184005771Y-196585771D01*
X183720057Y-196585771D01*
X183577200Y-196514342D01*
X183505771Y-196442914D01*
X183434342Y-196300057D01*
X183434342Y-195871485D01*
X183505771Y-195728628D01*
X183577200Y-195657200D01*
X183720057Y-195585771D01*
X184005771Y-195585771D01*
X184148628Y-195657200D01*
X186005771Y-195800057D02*
X186505771Y-195800057D01*
X186720057Y-196585771D02*
X186005771Y-196585771D01*
X186005771Y-195085771D01*
X186720057Y-195085771D01*
X187362914Y-196442914D02*
X187434342Y-196514342D01*
X187362914Y-196585771D01*
X187291485Y-196514342D01*
X187362914Y-196442914D01*
X187362914Y-196585771D01*
X188077200Y-196585771D02*
X188077200Y-195085771D01*
X188434342Y-195085771D01*
X188648628Y-195157200D01*
X188791485Y-195300057D01*
X188862914Y-195442914D01*
X188934342Y-195728628D01*
X188934342Y-195942914D01*
X188862914Y-196228628D01*
X188791485Y-196371485D01*
X188648628Y-196514342D01*
X188434342Y-196585771D01*
X188077200Y-196585771D01*
X189577200Y-196442914D02*
X189648628Y-196514342D01*
X189577200Y-196585771D01*
X189505771Y-196514342D01*
X189577200Y-196442914D01*
X189577200Y-196585771D01*
X190220057Y-196157200D02*
X190934342Y-196157200D01*
X190077200Y-196585771D02*
X190577200Y-195085771D01*
X191077200Y-196585771D01*
X191577200Y-196442914D02*
X191648628Y-196514342D01*
X191577200Y-196585771D01*
X191505771Y-196514342D01*
X191577200Y-196442914D01*
X191577200Y-196585771D01*
X194577200Y-196585771D02*
X194577200Y-195085771D01*
X194720057Y-196014342D02*
X195148628Y-196585771D01*
X195148628Y-195585771D02*
X194577200Y-196157200D01*
X195791485Y-196585771D02*
X195791485Y-195585771D01*
X195791485Y-195085771D02*
X195720057Y-195157200D01*
X195791485Y-195228628D01*
X195862914Y-195157200D01*
X195791485Y-195085771D01*
X195791485Y-195228628D01*
X197148628Y-196514342D02*
X197005771Y-196585771D01*
X196720057Y-196585771D01*
X196577200Y-196514342D01*
X196505771Y-196442914D01*
X196434342Y-196300057D01*
X196434342Y-195871485D01*
X196505771Y-195728628D01*
X196577200Y-195657200D01*
X196720057Y-195585771D01*
X197005771Y-195585771D01*
X197148628Y-195657200D01*
X198434342Y-196585771D02*
X198434342Y-195800057D01*
X198362914Y-195657200D01*
X198220057Y-195585771D01*
X197934342Y-195585771D01*
X197791485Y-195657200D01*
X198434342Y-196514342D02*
X198291485Y-196585771D01*
X197934342Y-196585771D01*
X197791485Y-196514342D01*
X197720057Y-196371485D01*
X197720057Y-196228628D01*
X197791485Y-196085771D01*
X197934342Y-196014342D01*
X198291485Y-196014342D01*
X198434342Y-195942914D01*
X199791485Y-196585771D02*
X199791485Y-195085771D01*
X199791485Y-196514342D02*
X199648628Y-196585771D01*
X199362914Y-196585771D01*
X199220057Y-196514342D01*
X199148628Y-196442914D01*
X199077200Y-196300057D01*
X199077200Y-195871485D01*
X199148628Y-195728628D01*
X199220057Y-195657200D01*
X199362914Y-195585771D01*
X199648628Y-195585771D01*
X199791485Y-195657200D01*
X202077200Y-197157200D02*
X202005771Y-197085771D01*
X201862914Y-196871485D01*
X201791485Y-196728628D01*
X201720057Y-196514342D01*
X201648628Y-196157200D01*
X201648628Y-195871485D01*
X201720057Y-195514342D01*
X201791485Y-195300057D01*
X201862914Y-195157200D01*
X202005771Y-194942914D01*
X202077200Y-194871485D01*
X203291485Y-195085771D02*
X203005771Y-195085771D01*
X202862914Y-195157200D01*
X202791485Y-195228628D01*
X202648628Y-195442914D01*
X202577200Y-195728628D01*
X202577200Y-196300057D01*
X202648628Y-196442914D01*
X202720057Y-196514342D01*
X202862914Y-196585771D01*
X203148628Y-196585771D01*
X203291485Y-196514342D01*
X203362914Y-196442914D01*
X203434342Y-196300057D01*
X203434342Y-195942914D01*
X203362914Y-195800057D01*
X203291485Y-195728628D01*
X203148628Y-195657200D01*
X202862914Y-195657200D01*
X202720057Y-195728628D01*
X202648628Y-195800057D01*
X202577200Y-195942914D01*
X204077200Y-196442914D02*
X204148628Y-196514342D01*
X204077200Y-196585771D01*
X204005771Y-196514342D01*
X204077200Y-196442914D01*
X204077200Y-196585771D01*
X205077200Y-195085771D02*
X205220057Y-195085771D01*
X205362914Y-195157200D01*
X205434342Y-195228628D01*
X205505771Y-195371485D01*
X205577200Y-195657200D01*
X205577200Y-196014342D01*
X205505771Y-196300057D01*
X205434342Y-196442914D01*
X205362914Y-196514342D01*
X205220057Y-196585771D01*
X205077200Y-196585771D01*
X204934342Y-196514342D01*
X204862914Y-196442914D01*
X204791485Y-196300057D01*
X204720057Y-196014342D01*
X204720057Y-195657200D01*
X204791485Y-195371485D01*
X204862914Y-195228628D01*
X204934342Y-195157200D01*
X205077200Y-195085771D01*
X206220057Y-196442914D02*
X206291485Y-196514342D01*
X206220057Y-196585771D01*
X206148628Y-196514342D01*
X206220057Y-196442914D01*
X206220057Y-196585771D01*
X207005771Y-196585771D02*
X207291485Y-196585771D01*
X207434342Y-196514342D01*
X207505771Y-196442914D01*
X207648628Y-196228628D01*
X207720057Y-195942914D01*
X207720057Y-195371485D01*
X207648628Y-195228628D01*
X207577200Y-195157200D01*
X207434342Y-195085771D01*
X207148628Y-195085771D01*
X207005771Y-195157200D01*
X206934342Y-195228628D01*
X206862914Y-195371485D01*
X206862914Y-195728628D01*
X206934342Y-195871485D01*
X207005771Y-195942914D01*
X207148628Y-196014342D01*
X207434342Y-196014342D01*
X207577200Y-195942914D01*
X207648628Y-195871485D01*
X207720057Y-195728628D01*
X208220057Y-197157200D02*
X208291485Y-197085771D01*
X208434342Y-196871485D01*
X208505771Y-196728628D01*
X208577200Y-196514342D01*
X208648628Y-196157200D01*
X208648628Y-195871485D01*
X208577200Y-195514342D01*
X208505771Y-195300057D01*
X208434342Y-195157200D01*
X208291485Y-194942914D01*
X208220057Y-194871485D01*
D10*
D11*
X177002200Y-191507200D02*
X285002200Y-191507200D01*
D10*
D12*
X264411485Y-193785771D02*
X263911485Y-193071485D01*
X263554342Y-193785771D02*
X263554342Y-192285771D01*
X264125771Y-192285771D01*
X264268628Y-192357200D01*
X264340057Y-192428628D01*
X264411485Y-192571485D01*
X264411485Y-192785771D01*
X264340057Y-192928628D01*
X264268628Y-193000057D01*
X264125771Y-193071485D01*
X263554342Y-193071485D01*
X265625771Y-193714342D02*
X265482914Y-193785771D01*
X265197200Y-193785771D01*
X265054342Y-193714342D01*
X264982914Y-193571485D01*
X264982914Y-193000057D01*
X265054342Y-192857200D01*
X265197200Y-192785771D01*
X265482914Y-192785771D01*
X265625771Y-192857200D01*
X265697200Y-193000057D01*
X265697200Y-193142914D01*
X264982914Y-193285771D01*
X266197200Y-192785771D02*
X266554342Y-193785771D01*
X266911485Y-192785771D01*
X267482914Y-193642914D02*
X267554342Y-193714342D01*
X267482914Y-193785771D01*
X267411485Y-193714342D01*
X267482914Y-193642914D01*
X267482914Y-193785771D01*
X267482914Y-192857200D02*
X267554342Y-192928628D01*
X267482914Y-193000057D01*
X267411485Y-192928628D01*
X267482914Y-192857200D01*
X267482914Y-193000057D01*
X270054342Y-192285771D02*
X269340057Y-192285771D01*
X269268628Y-193000057D01*
X269340057Y-192928628D01*
X269482914Y-192857200D01*
X269840057Y-192857200D01*
X269982914Y-192928628D01*
X270054342Y-193000057D01*
X270125771Y-193142914D01*
X270125771Y-193500057D01*
X270054342Y-193642914D01*
X269982914Y-193714342D01*
X269840057Y-193785771D01*
X269482914Y-193785771D01*
X269340057Y-193714342D01*
X269268628Y-193642914D01*
X270768628Y-193642914D02*
X270840057Y-193714342D01*
X270768628Y-193785771D01*
X270697200Y-193714342D01*
X270768628Y-193642914D01*
X270768628Y-193785771D01*
X271340057Y-192285771D02*
X272268628Y-192285771D01*
X271768628Y-192857200D01*
X271982914Y-192857200D01*
X272125771Y-192928628D01*
X272197200Y-193000057D01*
X272268628Y-193142914D01*
X272268628Y-193500057D01*
X272197200Y-193642914D01*
X272125771Y-193714342D01*
X271982914Y-193785771D01*
X271554342Y-193785771D01*
X271411485Y-193714342D01*
X271340057Y-193642914D01*
D10*
D11*
X178362914Y-193714342D02*
X178577200Y-193785771D01*
X178934342Y-193785771D01*
X179077200Y-193714342D01*
X179148628Y-193642914D01*
X179220057Y-193500057D01*
X179220057Y-193357200D01*
X179148628Y-193214342D01*
X179077200Y-193142914D01*
X178934342Y-193071485D01*
X178648628Y-193000057D01*
X178505771Y-192928628D01*
X178434342Y-192857200D01*
X178362914Y-192714342D01*
X178362914Y-192571485D01*
X178434342Y-192428628D01*
X178505771Y-192357200D01*
X178648628Y-192285771D01*
X179005771Y-192285771D01*
X179220057Y-192357200D01*
X179862914Y-193785771D02*
X179862914Y-192785771D01*
X179862914Y-192285771D02*
X179791485Y-192357200D01*
X179862914Y-192428628D01*
X179934342Y-192357200D01*
X179862914Y-192285771D01*
X179862914Y-192428628D01*
X180434342Y-192785771D02*
X181220057Y-192785771D01*
X180434342Y-193785771D01*
X181220057Y-193785771D01*
X182362914Y-193714342D02*
X182220057Y-193785771D01*
X181934342Y-193785771D01*
X181791485Y-193714342D01*
X181720057Y-193571485D01*
X181720057Y-193000057D01*
X181791485Y-192857200D01*
X181934342Y-192785771D01*
X182220057Y-192785771D01*
X182362914Y-192857200D01*
X182434342Y-193000057D01*
X182434342Y-193142914D01*
X181720057Y-193285771D01*
X183077200Y-193642914D02*
X183148628Y-193714342D01*
X183077200Y-193785771D01*
X183005771Y-193714342D01*
X183077200Y-193642914D01*
X183077200Y-193785771D01*
X183077200Y-192857200D02*
X183148628Y-192928628D01*
X183077200Y-193000057D01*
X183005771Y-192928628D01*
X183077200Y-192857200D01*
X183077200Y-193000057D01*
X184862914Y-193357200D02*
X185577200Y-193357200D01*
X184720057Y-193785771D02*
X185220057Y-192285771D01*
X185720057Y-193785771D01*
X186862914Y-192785771D02*
X186862914Y-193785771D01*
X186505771Y-192214342D02*
X186148628Y-193285771D01*
X187077200Y-193285771D01*
D10*
D11*
X263434342Y-196585771D02*
X263434342Y-195085771D01*
X264791485Y-196585771D02*
X264791485Y-195085771D01*
X264791485Y-196514342D02*
X264648628Y-196585771D01*
X264362914Y-196585771D01*
X264220057Y-196514342D01*
X264148628Y-196442914D01*
X264077200Y-196300057D01*
X264077200Y-195871485D01*
X264148628Y-195728628D01*
X264220057Y-195657200D01*
X264362914Y-195585771D01*
X264648628Y-195585771D01*
X264791485Y-195657200D01*
X265505771Y-196442914D02*
X265577200Y-196514342D01*
X265505771Y-196585771D01*
X265434342Y-196514342D01*
X265505771Y-196442914D01*
X265505771Y-196585771D01*
X265505771Y-195657200D02*
X265577200Y-195728628D01*
X265505771Y-195800057D01*
X265434342Y-195728628D01*
X265505771Y-195657200D01*
X265505771Y-195800057D01*
X268148628Y-196585771D02*
X267291485Y-196585771D01*
X267720057Y-196585771D02*
X267720057Y-195085771D01*
X267577200Y-195300057D01*
X267434342Y-195442914D01*
X267291485Y-195514342D01*
X269862914Y-195014342D02*
X268577200Y-196942914D01*
X271148628Y-196585771D02*
X270291485Y-196585771D01*
X270720057Y-196585771D02*
X270720057Y-195085771D01*
X270577200Y-195300057D01*
X270434342Y-195442914D01*
X270291485Y-195514342D01*
D10*
D11*
X177002200Y-187507200D02*
X285002200Y-187507200D01*
D10*
D13*
X178714580Y-188211961D02*
X179857438Y-188211961D01*
X179036009Y-190211961D02*
X179286009Y-188211961D01*
X180274104Y-190211961D02*
X180440771Y-188878628D01*
X180524104Y-188211961D02*
X180416961Y-188307200D01*
X180500295Y-188402438D01*
X180607438Y-188307200D01*
X180524104Y-188211961D01*
X180500295Y-188402438D01*
X181107438Y-188878628D02*
X181869342Y-188878628D01*
X181476485Y-188211961D02*
X181262200Y-189926247D01*
X181333628Y-190116723D01*
X181512200Y-190211961D01*
X181702676Y-190211961D01*
X182655057Y-190211961D02*
X182476485Y-190116723D01*
X182405057Y-189926247D01*
X182619342Y-188211961D01*
X184190771Y-190116723D02*
X183988390Y-190211961D01*
X183607438Y-190211961D01*
X183428866Y-190116723D01*
X183357438Y-189926247D01*
X183452676Y-189164342D01*
X183571723Y-188973866D01*
X183774104Y-188878628D01*
X184155057Y-188878628D01*
X184333628Y-188973866D01*
X184405057Y-189164342D01*
X184381247Y-189354819D01*
X183405057Y-189545295D01*
X185155057Y-190021485D02*
X185238390Y-190116723D01*
X185131247Y-190211961D01*
X185047914Y-190116723D01*
X185155057Y-190021485D01*
X185131247Y-190211961D01*
X185286009Y-188973866D02*
X185369342Y-189069104D01*
X185262200Y-189164342D01*
X185178866Y-189069104D01*
X185286009Y-188973866D01*
X185262200Y-189164342D01*
D10*
D11*
X178934342Y-185600057D02*
X178434342Y-185600057D01*
X178434342Y-186385771D02*
X178434342Y-184885771D01*
X179148628Y-184885771D01*
X179720057Y-186385771D02*
X179720057Y-185385771D01*
X179720057Y-184885771D02*
X179648628Y-184957200D01*
X179720057Y-185028628D01*
X179791485Y-184957200D01*
X179720057Y-184885771D01*
X179720057Y-185028628D01*
X180648628Y-186385771D02*
X180505771Y-186314342D01*
X180434342Y-186171485D01*
X180434342Y-184885771D01*
X181791485Y-186314342D02*
X181648628Y-186385771D01*
X181362914Y-186385771D01*
X181220057Y-186314342D01*
X181148628Y-186171485D01*
X181148628Y-185600057D01*
X181220057Y-185457200D01*
X181362914Y-185385771D01*
X181648628Y-185385771D01*
X181791485Y-185457200D01*
X181862914Y-185600057D01*
X181862914Y-185742914D01*
X181148628Y-185885771D01*
X182505771Y-186242914D02*
X182577200Y-186314342D01*
X182505771Y-186385771D01*
X182434342Y-186314342D01*
X182505771Y-186242914D01*
X182505771Y-186385771D01*
X182505771Y-185457200D02*
X182577200Y-185528628D01*
X182505771Y-185600057D01*
X182434342Y-185528628D01*
X182505771Y-185457200D01*
X182505771Y-185600057D01*
X185077200Y-186385771D02*
X184362914Y-186385771D01*
X184362914Y-184885771D01*
X185577200Y-186385771D02*
X185577200Y-184885771D01*
X185934342Y-184885771D01*
X186148628Y-184957200D01*
X186291485Y-185100057D01*
X186362914Y-185242914D01*
X186434342Y-185528628D01*
X186434342Y-185742914D01*
X186362914Y-186028628D01*
X186291485Y-186171485D01*
X186148628Y-186314342D01*
X185934342Y-186385771D01*
X185577200Y-186385771D01*
X187005771Y-185957200D02*
X187720057Y-185957200D01*
X186862914Y-186385771D02*
X187362914Y-184885771D01*
X187862914Y-186385771D01*
X188362914Y-186385771D02*
X188362914Y-184885771D01*
X188720057Y-184885771D01*
X188934342Y-184957200D01*
X189077200Y-185100057D01*
X189148628Y-185242914D01*
X189220057Y-185528628D01*
X189220057Y-185742914D01*
X189148628Y-186028628D01*
X189077200Y-186171485D01*
X188934342Y-186314342D01*
X188720057Y-186385771D01*
X188362914Y-186385771D01*
X190934342Y-185957200D02*
X191648628Y-185957200D01*
X190791485Y-186385771D02*
X191291485Y-184885771D01*
X191791485Y-186385771D01*
X192077200Y-184885771D02*
X192934342Y-184885771D01*
X192505771Y-186385771D02*
X192505771Y-184885771D01*
X193720057Y-184885771D02*
X194005771Y-184885771D01*
X194148628Y-184957200D01*
X194291485Y-185100057D01*
X194362914Y-185385771D01*
X194362914Y-185885771D01*
X194291485Y-186171485D01*
X194148628Y-186314342D01*
X194005771Y-186385771D01*
X193720057Y-186385771D01*
X193577200Y-186314342D01*
X193434342Y-186171485D01*
X193362914Y-185885771D01*
X193362914Y-185385771D01*
X193434342Y-185100057D01*
X193577200Y-184957200D01*
X193720057Y-184885771D01*
X195005771Y-186385771D02*
X195005771Y-184885771D01*
X195505771Y-185957200D01*
X196005771Y-184885771D01*
X196005771Y-186385771D01*
X197862914Y-186385771D02*
X197862914Y-184885771D01*
X198434342Y-184885771D01*
X198577200Y-184957200D01*
X198648628Y-185028628D01*
X198720057Y-185171485D01*
X198720057Y-185385771D01*
X198648628Y-185528628D01*
X198577200Y-185600057D01*
X198434342Y-185671485D01*
X197862914Y-185671485D01*
X200220057Y-186385771D02*
X199720057Y-185671485D01*
X199362914Y-186385771D02*
X199362914Y-184885771D01*
X199934342Y-184885771D01*
X200077200Y-184957200D01*
X200148628Y-185028628D01*
X200220057Y-185171485D01*
X200220057Y-185385771D01*
X200148628Y-185528628D01*
X200077200Y-185600057D01*
X199934342Y-185671485D01*
X199362914Y-185671485D01*
X201148628Y-184885771D02*
X201434342Y-184885771D01*
X201577200Y-184957200D01*
X201720057Y-185100057D01*
X201791485Y-185385771D01*
X201791485Y-185885771D01*
X201720057Y-186171485D01*
X201577200Y-186314342D01*
X201434342Y-186385771D01*
X201148628Y-186385771D01*
X201005771Y-186314342D01*
X200862914Y-186171485D01*
X200791485Y-185885771D01*
X200791485Y-185385771D01*
X200862914Y-185100057D01*
X201005771Y-184957200D01*
X201148628Y-184885771D01*
X202434342Y-186242914D02*
X202505771Y-186314342D01*
X202434342Y-186385771D01*
X202362914Y-186314342D01*
X202434342Y-186242914D01*
X202434342Y-186385771D01*
X203148628Y-186385771D02*
X203148628Y-184885771D01*
X203291485Y-185814342D02*
X203720057Y-186385771D01*
X203720057Y-185385771D02*
X203148628Y-185957200D01*
X204362914Y-186385771D02*
X204362914Y-185385771D01*
X204362914Y-184885771D02*
X204291485Y-184957200D01*
X204362914Y-185028628D01*
X204434342Y-184957200D01*
X204362914Y-184885771D01*
X204362914Y-185028628D01*
X205720057Y-186314342D02*
X205577200Y-186385771D01*
X205291485Y-186385771D01*
X205148628Y-186314342D01*
X205077200Y-186242914D01*
X205005771Y-186100057D01*
X205005771Y-185671485D01*
X205077200Y-185528628D01*
X205148628Y-185457200D01*
X205291485Y-185385771D01*
X205577200Y-185385771D01*
X205720057Y-185457200D01*
X207005771Y-186385771D02*
X207005771Y-185600057D01*
X206934342Y-185457200D01*
X206791485Y-185385771D01*
X206505771Y-185385771D01*
X206362914Y-185457200D01*
X207005771Y-186314342D02*
X206862914Y-186385771D01*
X206505771Y-186385771D01*
X206362914Y-186314342D01*
X206291485Y-186171485D01*
X206291485Y-186028628D01*
X206362914Y-185885771D01*
X206505771Y-185814342D01*
X206862914Y-185814342D01*
X207005771Y-185742914D01*
X208362914Y-186385771D02*
X208362914Y-184885771D01*
X208362914Y-186314342D02*
X208220057Y-186385771D01*
X207934342Y-186385771D01*
X207791485Y-186314342D01*
X207720057Y-186242914D01*
X207648628Y-186100057D01*
X207648628Y-185671485D01*
X207720057Y-185528628D01*
X207791485Y-185457200D01*
X207934342Y-185385771D01*
X208220057Y-185385771D01*
X208362914Y-185457200D01*
X208720057Y-186528628D02*
X209862914Y-186528628D01*
X210220057Y-185385771D02*
X210220057Y-186885771D01*
X210220057Y-185457200D02*
X210362914Y-185385771D01*
X210648628Y-185385771D01*
X210791485Y-185457200D01*
X210862914Y-185528628D01*
X210934342Y-185671485D01*
X210934342Y-186100057D01*
X210862914Y-186242914D01*
X210791485Y-186314342D01*
X210648628Y-186385771D01*
X210362914Y-186385771D01*
X210220057Y-186314342D01*
X212220057Y-186314342D02*
X212077200Y-186385771D01*
X211791485Y-186385771D01*
X211648628Y-186314342D01*
X211577200Y-186242914D01*
X211505771Y-186100057D01*
X211505771Y-185671485D01*
X211577200Y-185528628D01*
X211648628Y-185457200D01*
X211791485Y-185385771D01*
X212077200Y-185385771D01*
X212220057Y-185457200D01*
X212862914Y-186385771D02*
X212862914Y-184885771D01*
X212862914Y-185457200D02*
X213005771Y-185385771D01*
X213291485Y-185385771D01*
X213434342Y-185457200D01*
X213505771Y-185528628D01*
X213577200Y-185671485D01*
X213577200Y-186100057D01*
X213505771Y-186242914D01*
X213434342Y-186314342D01*
X213291485Y-186385771D01*
X213005771Y-186385771D01*
X212862914Y-186314342D01*
D10*
D11*
X177002200Y-181507200D02*
X285002200Y-181507200D01*
D10*
D11*
X178362914Y-183614342D02*
X178577200Y-183685771D01*
X178934342Y-183685771D01*
X179077200Y-183614342D01*
X179148628Y-183542914D01*
X179220057Y-183400057D01*
X179220057Y-183257200D01*
X179148628Y-183114342D01*
X179077200Y-183042914D01*
X178934342Y-182971485D01*
X178648628Y-182900057D01*
X178505771Y-182828628D01*
X178434342Y-182757200D01*
X178362914Y-182614342D01*
X178362914Y-182471485D01*
X178434342Y-182328628D01*
X178505771Y-182257200D01*
X178648628Y-182185771D01*
X179005771Y-182185771D01*
X179220057Y-182257200D01*
X179862914Y-183685771D02*
X179862914Y-182185771D01*
X180505771Y-183685771D02*
X180505771Y-182900057D01*
X180434342Y-182757200D01*
X180291485Y-182685771D01*
X180077200Y-182685771D01*
X179934342Y-182757200D01*
X179862914Y-182828628D01*
X181791485Y-183614342D02*
X181648628Y-183685771D01*
X181362914Y-183685771D01*
X181220057Y-183614342D01*
X181148628Y-183471485D01*
X181148628Y-182900057D01*
X181220057Y-182757200D01*
X181362914Y-182685771D01*
X181648628Y-182685771D01*
X181791485Y-182757200D01*
X181862914Y-182900057D01*
X181862914Y-183042914D01*
X181148628Y-183185771D01*
X183077200Y-183614342D02*
X182934342Y-183685771D01*
X182648628Y-183685771D01*
X182505771Y-183614342D01*
X182434342Y-183471485D01*
X182434342Y-182900057D01*
X182505771Y-182757200D01*
X182648628Y-182685771D01*
X182934342Y-182685771D01*
X183077200Y-182757200D01*
X183148628Y-182900057D01*
X183148628Y-183042914D01*
X182434342Y-183185771D01*
X183577200Y-182685771D02*
X184148628Y-182685771D01*
X183791485Y-182185771D02*
X183791485Y-183471485D01*
X183862914Y-183614342D01*
X184005771Y-183685771D01*
X184148628Y-183685771D01*
X184648628Y-183542914D02*
X184720057Y-183614342D01*
X184648628Y-183685771D01*
X184577200Y-183614342D01*
X184648628Y-183542914D01*
X184648628Y-183685771D01*
X184648628Y-182757200D02*
X184720057Y-182828628D01*
X184648628Y-182900057D01*
X184577200Y-182828628D01*
X184648628Y-182757200D01*
X184648628Y-182900057D01*
D10*
D12*
X178482914Y-180257200D02*
X179197200Y-180257200D01*
X178340057Y-180685771D02*
X178840057Y-179185771D01*
X179340057Y-180685771D01*
X180411485Y-180614342D02*
X180268628Y-180685771D01*
X179982914Y-180685771D01*
X179840057Y-180614342D01*
X179768628Y-180471485D01*
X179768628Y-179900057D01*
X179840057Y-179757200D01*
X179982914Y-179685771D01*
X180268628Y-179685771D01*
X180411485Y-179757200D01*
X180482914Y-179900057D01*
X180482914Y-180042914D01*
X179768628Y-180185771D01*
X181340057Y-180685771D02*
X181197200Y-180614342D01*
X181125771Y-180542914D01*
X181054342Y-180400057D01*
X181054342Y-179971485D01*
X181125771Y-179828628D01*
X181197200Y-179757200D01*
X181340057Y-179685771D01*
X181554342Y-179685771D01*
X181697200Y-179757200D01*
X181768628Y-179828628D01*
X181840057Y-179971485D01*
X181840057Y-180400057D01*
X181768628Y-180542914D01*
X181697200Y-180614342D01*
X181554342Y-180685771D01*
X181340057Y-180685771D01*
X182482914Y-179685771D02*
X182482914Y-180685771D01*
X182482914Y-179828628D02*
X182554342Y-179757200D01*
X182697200Y-179685771D01*
X182911485Y-179685771D01*
X183054342Y-179757200D01*
X183125771Y-179900057D01*
X183125771Y-180685771D01*
X184554342Y-180685771D02*
X183840057Y-180685771D01*
X183840057Y-179185771D01*
X185697200Y-180685771D02*
X185697200Y-179900057D01*
X185625771Y-179757200D01*
X185482914Y-179685771D01*
X185197200Y-179685771D01*
X185054342Y-179757200D01*
X185697200Y-180614342D02*
X185554342Y-180685771D01*
X185197200Y-180685771D01*
X185054342Y-180614342D01*
X184982914Y-180471485D01*
X184982914Y-180328628D01*
X185054342Y-180185771D01*
X185197200Y-180114342D01*
X185554342Y-180114342D01*
X185697200Y-180042914D01*
X186411485Y-180685771D02*
X186411485Y-179185771D01*
X186411485Y-179757200D02*
X186554342Y-179685771D01*
X186840057Y-179685771D01*
X186982914Y-179757200D01*
X187054342Y-179828628D01*
X187125771Y-179971485D01*
X187125771Y-180400057D01*
X187054342Y-180542914D01*
X186982914Y-180614342D01*
X186840057Y-180685771D01*
X186554342Y-180685771D01*
X186411485Y-180614342D01*
X187697200Y-180614342D02*
X187840057Y-180685771D01*
X188125771Y-180685771D01*
X188268628Y-180614342D01*
X188340057Y-180471485D01*
X188340057Y-180400057D01*
X188268628Y-180257200D01*
X188125771Y-180185771D01*
X187911485Y-180185771D01*
X187768628Y-180114342D01*
X187697200Y-179971485D01*
X187697200Y-179900057D01*
X187768628Y-179757200D01*
X187911485Y-179685771D01*
X188125771Y-179685771D01*
X188268628Y-179757200D01*
D10*
D11*
D10*
D11*
D10*
D11*
D10*
D11*
D10*
D11*
X197002200Y-191507200D02*
X197002200Y-194507200D01*
D10*
D11*
X261002200Y-191507200D02*
X261002200Y-198007200D01*
D14*
X129477990Y-88167989D02*
G75*
G03*
X129477990Y-88167989I-197990J0D01*
G01*
D15*
G04 #@! TO.C,G\u002A\u002A\u002A*
X160787671Y-74711851D02*
X160776866Y-79300755D01*
X133369724Y-74646254D02*
X133358919Y-79235158D01*
X169409371Y-83672874D02*
X169413426Y-111599452D01*
X164086708Y-82643099D02*
X168448275Y-82646023D01*
X115706575Y-83505000D02*
X115726417Y-111467344D01*
X116687513Y-112494195D02*
X119756575Y-112495000D01*
X168386575Y-112560548D02*
X155153427Y-112589452D01*
X116733426Y-82543904D02*
X130016575Y-82545000D01*
X123045479Y-121048149D02*
X123066417Y-115837344D01*
X151803426Y-121083904D02*
X151811083Y-115899294D01*
X124006575Y-122075000D02*
X150776575Y-122045000D01*
X134406575Y-73695000D02*
X159826575Y-73685000D01*
X116733426Y-82543903D02*
G75*
G03*
X115706575Y-83505000I-16851J-1011097D01*
G01*
X123045478Y-121048149D02*
G75*
G03*
X124006575Y-122075000I1011097J-16851D01*
G01*
X123066417Y-115837344D02*
G75*
G03*
X119756575Y-112495000I-3309842J32344D01*
G01*
X155153427Y-112589446D02*
G75*
G03*
X151811083Y-115899294I-32342J-3309844D01*
G01*
X168386575Y-112560548D02*
G75*
G03*
X169413426Y-111599452I16850J1011098D01*
G01*
X130016575Y-82545000D02*
G75*
G03*
X133358919Y-79235158I32344J3309842D01*
G01*
X160787672Y-74711851D02*
G75*
G03*
X159826575Y-73685000I-1011097J16851D01*
G01*
X150776575Y-122044998D02*
G75*
G03*
X151803426Y-121083904I16850J1011098D01*
G01*
X160776864Y-79300755D02*
G75*
G03*
X164086708Y-82643099I3309841J-32345D01*
G01*
X134396575Y-73694999D02*
G75*
G03*
X133369724Y-74656096I-16851J-1011097D01*
G01*
X169409348Y-83672874D02*
G75*
G03*
X168448275Y-82646023I-1011073J16874D01*
G01*
X115726416Y-111467344D02*
G75*
G03*
X116687513Y-112494195I1011097J-16851D01*
G01*
G04 #@! TD*
D16*
G04 #@! TO.P,EC20,1*
G04 #@! TO.N,Net-(EC20-Pad1)*
X132490000Y-103765000D03*
G04 #@! TO.P,EC20,2*
G04 #@! TO.N,GND*
X132490000Y-105315000D03*
G04 #@! TD*
D17*
G04 #@! TO.P,MR1,1*
G04 #@! TO.N,VIN_BAT*
X145977500Y-119770000D03*
G04 #@! TO.P,MR1,2*
G04 #@! TO.N,GPIO33_BAT_SENSE*
X147802500Y-119770000D03*
G04 #@! TD*
D18*
G04 #@! TO.P,EC18,1*
G04 #@! TO.N,3V3*
X142960000Y-107490000D03*
G04 #@! TO.P,EC18,2*
G04 #@! TO.N,GND*
X142960000Y-105590000D03*
G04 #@! TD*
D16*
G04 #@! TO.P,AUC1,1*
G04 #@! TO.N,GND*
X146860000Y-105625000D03*
G04 #@! TO.P,AUC1,2*
G04 #@! TO.N,3V3*
X146860000Y-107175000D03*
G04 #@! TD*
D19*
G04 #@! TO.P,AR1,1*
G04 #@! TO.N,3V3*
X164100000Y-88360000D03*
G04 #@! TO.P,AR1,2*
G04 #@! TO.N,Net-(AR1-Pad2)*
X162100000Y-88360000D03*
G04 #@! TD*
D20*
G04 #@! TO.P,LR1,1*
G04 #@! TO.N,IO36_LED_R*
X141215000Y-86810000D03*
G04 #@! TO.P,LR1,2*
G04 #@! TO.N,Net-(LED1-Pad3)*
X142865000Y-86810000D03*
G04 #@! TD*
D21*
G04 #@! TO.P,ECY3,1,1*
G04 #@! TO.N,Net-(EC61-Pad1)*
X133020000Y-95412500D03*
G04 #@! TO.P,ECY3,2,2*
G04 #@! TO.N,GND*
X135220000Y-95412500D03*
G04 #@! TO.P,ECY3,3,3*
G04 #@! TO.N,Net-(EC60-Pad1)*
X135220000Y-93612500D03*
G04 #@! TO.P,ECY3,4,4*
G04 #@! TO.N,GND*
X133020000Y-93612500D03*
G04 #@! TD*
D22*
G04 #@! TO.P,EC60,1*
G04 #@! TO.N,Net-(EC60-Pad1)*
X133255000Y-91730000D03*
G04 #@! TO.P,EC60,2*
G04 #@! TO.N,GND*
X131705000Y-91730000D03*
G04 #@! TD*
G04 #@! TO.P,EC61,1*
G04 #@! TO.N,Net-(EC61-Pad1)*
X133355000Y-97350000D03*
G04 #@! TO.P,EC61,2*
G04 #@! TO.N,GND*
X131805000Y-97350000D03*
G04 #@! TD*
D23*
G04 #@! TO.P,J1,1,Pin_1*
G04 #@! TO.N,ADC_OUT*
X123305000Y-92325000D03*
D24*
G04 #@! TO.P,J1,2,Pin_2*
G04 #@! TO.N,GPIO8_I2C_SDA*
X124575000Y-92325000D03*
G04 #@! TO.P,J1,3,Pin_3*
G04 #@! TO.N,ADC_OUT*
X123305000Y-93595000D03*
G04 #@! TO.P,J1,4,Pin_4*
G04 #@! TO.N,GPIO06_EXT_PLUG2*
X124575000Y-93595000D03*
G04 #@! TO.P,J1,5,Pin_5*
G04 #@! TO.N,GND*
X123305000Y-94865000D03*
G04 #@! TO.P,J1,6,Pin_6*
G04 #@! TO.N,Net-(EXP_R1-Pad2)*
X124575000Y-94865000D03*
G04 #@! TO.P,J1,7,Pin_7*
G04 #@! TO.N,GND*
X123305000Y-96135000D03*
G04 #@! TO.P,J1,8,Pin_8*
G04 #@! TO.N,Net-(EXP_R2-Pad2)*
X124575000Y-96135000D03*
G04 #@! TO.P,J1,9,Pin_9*
G04 #@! TO.N,GND*
X123305000Y-97405000D03*
G04 #@! TO.P,J1,10,Pin_10*
G04 #@! TO.N,Net-(EXP_R3-Pad2)*
X124575000Y-97405000D03*
G04 #@! TO.P,J1,11,Pin_11*
G04 #@! TO.N,GND*
X123305000Y-98675000D03*
G04 #@! TO.P,J1,12,Pin_12*
G04 #@! TO.N,Net-(EXP_R4-Pad2)*
X124575000Y-98675000D03*
G04 #@! TD*
D25*
G04 #@! TO.P,ESP32S3,1,LNA_IN/RF*
G04 #@! TO.N,Net-(EC38-Pad1)*
X136180894Y-100062202D03*
G04 #@! TO.P,ESP32S3,2,VDD3P3*
G04 #@! TO.N,Net-(EC20-Pad1)*
X136463737Y-100345045D03*
G04 #@! TO.P,ESP32S3,3,VDD3P3*
X136746579Y-100627887D03*
G04 #@! TO.P,ESP32S3,4,CHIP_PU/RESET*
G04 #@! TO.N,CHIP_EN*
X137029422Y-100910730D03*
G04 #@! TO.P,ESP32S3,5,GPIO0/BOOT*
G04 #@! TO.N,ESP_GPIO0_BOOT-DTR*
X137312265Y-101193573D03*
G04 #@! TO.P,ESP32S3,6,GPIO1/ADC1_CH0*
G04 #@! TO.N,unconnected-(ESP32S3-Pad6)*
X137595107Y-101476415D03*
G04 #@! TO.P,ESP32S3,7,GPIO2/ADC1_CH1*
G04 #@! TO.N,GPIO2_PLUG_PWR_3V3*
X137877950Y-101759258D03*
G04 #@! TO.P,ESP32S3,8,GPIO3/ADC1_CH2*
G04 #@! TO.N,GND*
X138160793Y-102042101D03*
G04 #@! TO.P,ESP32S3,9,GPIO4/ADC1_CH3*
G04 #@! TO.N,unconnected-(ESP32S3-Pad9)*
X138443636Y-102324944D03*
G04 #@! TO.P,ESP32S3,10,GPIO5/ADC1_CH4*
G04 #@! TO.N,GPIO10_EXT_PLUG1*
X138726478Y-102607786D03*
G04 #@! TO.P,ESP32S3,11,GPIO6/ADC1_CH5*
G04 #@! TO.N,GPIO06_EXT_PLUG2*
X139009321Y-102890629D03*
G04 #@! TO.P,ESP32S3,12,GPIO7/ADC1_CH6*
G04 #@! TO.N,VOLTAGE_REF*
X139292164Y-103173472D03*
G04 #@! TO.P,ESP32S3,13,GPIO8/ADC1_CH7*
G04 #@! TO.N,GPIO8_I2C_SDA*
X139575006Y-103456314D03*
G04 #@! TO.P,ESP32S3,14,GPIO9/ADC1_CH8*
G04 #@! TO.N,GPIO9_I2C_SCL*
X139857849Y-103739157D03*
D26*
G04 #@! TO.P,ESP32S3,15,GPIO10/ADC1_CH9*
G04 #@! TO.N,LCD2_LED_IO10*
X141042253Y-103739157D03*
G04 #@! TO.P,ESP32S3,16,GPIO11/ADC2_CH0*
G04 #@! TO.N,LCD2_DC_IO11*
X141325096Y-103456314D03*
G04 #@! TO.P,ESP32S3,17,GPIO12/ADC2_CH1*
G04 #@! TO.N,unconnected-(ESP32S3-Pad17)*
X141607938Y-103173472D03*
G04 #@! TO.P,ESP32S3,18,GPIO13/ADC2_CH2*
G04 #@! TO.N,LCD2_RST_IO13*
X141890781Y-102890629D03*
G04 #@! TO.P,ESP32S3,19,GPIO14/ADC2_CH3*
G04 #@! TO.N,unconnected-(ESP32S3-Pad19)*
X142173624Y-102607786D03*
G04 #@! TO.P,ESP32S3,20,VDD3P3_RTC*
G04 #@! TO.N,3V3*
X142456466Y-102324944D03*
G04 #@! TO.P,ESP32S3,21,GPIO15/ADC2_CH4/XTAL_32K_P*
G04 #@! TO.N,Net-(EC51-Pad1)*
X142739309Y-102042101D03*
G04 #@! TO.P,ESP32S3,22,GPIO16/ADC2_CH5/XTAL_32K_N*
G04 #@! TO.N,Net-(EC50-Pad1)*
X143022152Y-101759258D03*
G04 #@! TO.P,ESP32S3,23,GPIO17/ADC2_CH6/DAC_2*
G04 #@! TO.N,unconnected-(ESP32S3-Pad23)*
X143304995Y-101476415D03*
G04 #@! TO.P,ESP32S3,24,GPIO18/ADC2_CH7/DAC_1*
G04 #@! TO.N,unconnected-(ESP32S3-Pad24)*
X143587837Y-101193573D03*
G04 #@! TO.P,ESP32S3,25,GPIO19/USB_D-/ADC2_CH8*
G04 #@! TO.N,USB_D-*
X143870680Y-100910730D03*
G04 #@! TO.P,ESP32S3,26,GPIO20/USB_D+/ADC2_CH9*
G04 #@! TO.N,USB_D+*
X144153523Y-100627887D03*
G04 #@! TO.P,ESP32S3,27,GPIO21*
G04 #@! TO.N,LCD2_CS_IO21*
X144436365Y-100345045D03*
G04 #@! TO.P,ESP32S3,28,SPI_CS1/GPIO26*
G04 #@! TO.N,SPICS1*
X144719208Y-100062202D03*
D25*
G04 #@! TO.P,ESP32S3,29,VDD_SPI*
G04 #@! TO.N,VDD_SPI*
X144719208Y-98877798D03*
G04 #@! TO.P,ESP32S3,30,SPIHD/GPIO27*
G04 #@! TO.N,SPIHD*
X144436365Y-98594955D03*
G04 #@! TO.P,ESP32S3,31,SPIWP/GPIO28*
G04 #@! TO.N,SPIWP*
X144153523Y-98312113D03*
G04 #@! TO.P,ESP32S3,32,SPICS0/GPIO29*
G04 #@! TO.N,SPICS0*
X143870680Y-98029270D03*
G04 #@! TO.P,ESP32S3,33,SPICLK/GPIO30*
G04 #@! TO.N,SPICLK*
X143587837Y-97746427D03*
G04 #@! TO.P,ESP32S3,34,SPIQ/GPIO31*
G04 #@! TO.N,SPIQ*
X143304995Y-97463585D03*
G04 #@! TO.P,ESP32S3,35,SPID/GPIO32*
G04 #@! TO.N,SPID*
X143022152Y-97180742D03*
G04 #@! TO.P,ESP32S3,36,SPICLK_N/GPIO48*
G04 #@! TO.N,unconnected-(ESP32S3-Pad36)*
X142739309Y-96897899D03*
G04 #@! TO.P,ESP32S3,37,SPICLK_P/GPIO47*
G04 #@! TO.N,unconnected-(ESP32S3-Pad37)*
X142456466Y-96615056D03*
G04 #@! TO.P,ESP32S3,38,GPIO33*
G04 #@! TO.N,GPIO33_BAT_SENSE*
X142173624Y-96332214D03*
G04 #@! TO.P,ESP32S3,39,GPIO34*
G04 #@! TO.N,IO34_LED_B*
X141890781Y-96049371D03*
G04 #@! TO.P,ESP32S3,40,GPIO35*
G04 #@! TO.N,IO35_LED_G*
X141607938Y-95766528D03*
G04 #@! TO.P,ESP32S3,41,GPIO36*
G04 #@! TO.N,IO36_LED_R*
X141325096Y-95483686D03*
G04 #@! TO.P,ESP32S3,42,GPIO37*
G04 #@! TO.N,unconnected-(ESP32S3-Pad42)*
X141042253Y-95200843D03*
D26*
G04 #@! TO.P,ESP32S3,43,GPIO38*
G04 #@! TO.N,GPIO38_IMU_CS*
X139857849Y-95200843D03*
G04 #@! TO.P,ESP32S3,44,MTCK/JTAG/GPIO39*
G04 #@! TO.N,unconnected-(ESP32S3-Pad44)*
X139575006Y-95483686D03*
G04 #@! TO.P,ESP32S3,45,MTDO/JTAG/GPIO40*
G04 #@! TO.N,unconnected-(ESP32S3-Pad45)*
X139292164Y-95766528D03*
G04 #@! TO.P,ESP32S3,46,VDD3P3_CPU*
G04 #@! TO.N,3V3*
X139009321Y-96049371D03*
G04 #@! TO.P,ESP32S3,47,MTDI/JTAG/GPIO41*
G04 #@! TO.N,unconnected-(ESP32S3-Pad47)*
X138726478Y-96332214D03*
G04 #@! TO.P,ESP32S3,48,MTMS/JTAG/GPIO42*
G04 #@! TO.N,unconnected-(ESP32S3-Pad48)*
X138443636Y-96615056D03*
G04 #@! TO.P,ESP32S3,49,U0TXD/PROG/GPIO43*
G04 #@! TO.N,Net-(ER2-Pad2)*
X138160793Y-96897899D03*
G04 #@! TO.P,ESP32S3,50,U0RXD/PROG/GPIO44*
G04 #@! TO.N,RXD0*
X137877950Y-97180742D03*
G04 #@! TO.P,ESP32S3,51,GPIO45*
G04 #@! TO.N,GND*
X137595107Y-97463585D03*
G04 #@! TO.P,ESP32S3,52,GPIO46*
G04 #@! TO.N,ESP_GPIO0_BOOT-DTR*
X137312265Y-97746427D03*
G04 #@! TO.P,ESP32S3,53,XTAL_N*
G04 #@! TO.N,Net-(EC60-Pad1)*
X137029422Y-98029270D03*
G04 #@! TO.P,ESP32S3,54,XTAL_P*
G04 #@! TO.N,Net-(EC61-Pad1)*
X136746579Y-98312113D03*
G04 #@! TO.P,ESP32S3,55,VDDA*
G04 #@! TO.N,3V3*
X136463737Y-98594955D03*
G04 #@! TO.P,ESP32S3,56,VDDA*
X136180894Y-98877798D03*
D27*
G04 #@! TO.P,ESP32S3,57,GND*
G04 #@! TO.N,GND*
X140450051Y-99470000D03*
G04 #@! TD*
D28*
G04 #@! TO.P,HLD1,1,K*
G04 #@! TO.N,VIN*
X157790000Y-98615000D03*
G04 #@! TO.P,HLD1,2,A*
G04 #@! TO.N,USB_5V0*
X157790000Y-101590000D03*
G04 #@! TD*
D29*
G04 #@! TO.P,ER1,1*
G04 #@! TO.N,3V3*
X138220000Y-107567500D03*
G04 #@! TO.P,ER1,2*
G04 #@! TO.N,CHIP_EN*
X138220000Y-105917500D03*
G04 #@! TD*
D30*
G04 #@! TO.P,ER3,1*
G04 #@! TO.N,3V3*
X124575000Y-90310000D03*
G04 #@! TO.P,ER3,2*
G04 #@! TO.N,ESP_GPIO0_BOOT-DTR*
X122925000Y-90310000D03*
G04 #@! TD*
D31*
G04 #@! TO.P,EC38,1*
G04 #@! TO.N,Net-(EC38-Pad1)*
X126415000Y-105320000D03*
G04 #@! TO.P,EC38,2*
G04 #@! TO.N,GND*
X127965000Y-105320000D03*
G04 #@! TD*
D32*
G04 #@! TO.P,J2,1,VBUS*
G04 #@! TO.N,USB_5V0*
X163060000Y-93825000D03*
G04 #@! TO.P,J2,2,D-*
G04 #@! TO.N,USB_D-*
X163860000Y-93825000D03*
G04 #@! TO.P,J2,3,D+*
G04 #@! TO.N,USB_D+*
X164665000Y-93830000D03*
G04 #@! TO.P,J2,4,ID*
G04 #@! TO.N,unconnected-(J2-Pad4)*
X165455000Y-93820000D03*
G04 #@! TO.P,J2,5,GND*
G04 #@! TO.N,GND*
X166235000Y-93830000D03*
D33*
G04 #@! TO.P,J2,6,Shield*
X168230000Y-93490000D03*
X168250000Y-96970000D03*
X161030000Y-96970000D03*
X161040000Y-93500000D03*
G04 #@! TD*
D34*
G04 #@! TO.P,SHC1,1*
G04 #@! TO.N,GND*
X160220000Y-107585000D03*
G04 #@! TO.P,SHC1,2*
G04 #@! TO.N,3V3*
X160220000Y-106035000D03*
G04 #@! TD*
D35*
G04 #@! TO.P,SH1,1,SDA*
G04 #@! TO.N,GPIO8_I2C_SDA*
X157010000Y-108635000D03*
G04 #@! TO.P,SH1,2,ADDR*
G04 #@! TO.N,GND*
X157510000Y-108635000D03*
G04 #@! TO.P,SH1,3,ALERT*
G04 #@! TO.N,unconnected-(SH1-Pad3)*
X158010000Y-108635000D03*
G04 #@! TO.P,SH1,4,SCL*
G04 #@! TO.N,GPIO9_I2C_SCL*
X158510000Y-108635000D03*
G04 #@! TO.P,SH1,5,VDD*
G04 #@! TO.N,3V3*
X158510000Y-106285000D03*
G04 #@! TO.P,SH1,6,~{RESET}*
G04 #@! TO.N,unconnected-(SH1-Pad6)*
X158010000Y-106285000D03*
G04 #@! TO.P,SH1,7,R*
G04 #@! TO.N,unconnected-(SH1-Pad7)*
X157510000Y-106285000D03*
G04 #@! TO.P,SH1,8,VSS*
G04 #@! TO.N,GND*
X157010000Y-106285000D03*
D36*
G04 #@! TO.P,SH1,9,VSS*
X157760000Y-107460000D03*
G04 #@! TD*
D31*
G04 #@! TO.P,EC26,1*
G04 #@! TO.N,3V3*
X144875000Y-103770000D03*
G04 #@! TO.P,EC26,2*
G04 #@! TO.N,GND*
X146425000Y-103770000D03*
G04 #@! TD*
D37*
G04 #@! TO.P,MR2,1*
G04 #@! TO.N,GPIO33_BAT_SENSE*
X150230000Y-118927500D03*
G04 #@! TO.P,MR2,2*
G04 #@! TO.N,GND*
X150230000Y-120752500D03*
G04 #@! TD*
D38*
G04 #@! TO.P,AC1,1*
G04 #@! TO.N,3V3*
X154357500Y-87190000D03*
G04 #@! TO.P,AC1,2*
G04 #@! TO.N,GND*
X152282500Y-87190000D03*
G04 #@! TD*
D16*
G04 #@! TO.P,MCPC2,1*
G04 #@! TO.N,GND*
X130640000Y-85455000D03*
G04 #@! TO.P,MCPC2,2*
G04 #@! TO.N,VOLTAGE_REF*
X130640000Y-87005000D03*
G04 #@! TD*
D18*
G04 #@! TO.P,EC40,1*
G04 #@! TO.N,GND*
X136280000Y-105520000D03*
G04 #@! TO.P,EC40,2*
G04 #@! TO.N,CHIP_EN*
X136280000Y-103620000D03*
G04 #@! TD*
D39*
G04 #@! TO.P,TP2,1,1*
G04 #@! TO.N,3V3*
X150660000Y-87530000D03*
G04 #@! TD*
D34*
G04 #@! TO.P,EC17,1*
G04 #@! TO.N,3V3*
X144870000Y-107295000D03*
G04 #@! TO.P,EC17,2*
G04 #@! TO.N,GND*
X144870000Y-105745000D03*
G04 #@! TD*
D40*
G04 #@! TO.P,TPC1,1*
G04 #@! TO.N,VIN_BATF*
X132340000Y-110960000D03*
G04 #@! TO.P,TPC1,2*
G04 #@! TO.N,GND*
X130440000Y-110960000D03*
G04 #@! TD*
D41*
G04 #@! TO.P,I2C1,1,Pin_1*
G04 #@! TO.N,GND*
X151850000Y-77720000D03*
D42*
G04 #@! TO.P,I2C1,2,Pin_2*
G04 #@! TO.N,ADC_OUT*
X154350000Y-77720000D03*
G04 #@! TO.P,I2C1,3,Pin_3*
G04 #@! TO.N,3V3_PLUG*
X156850000Y-77720000D03*
G04 #@! TD*
D43*
G04 #@! TO.P,AL1,1,1*
G04 #@! TO.N,3V3*
X157020000Y-87400000D03*
G04 #@! TO.P,AL1,2,2*
G04 #@! TO.N,Net-(AL1-Pad2)*
X159820000Y-87400000D03*
G04 #@! TD*
D20*
G04 #@! TO.P,ICR1,1*
G04 #@! TO.N,3V3*
X133175000Y-86890000D03*
G04 #@! TO.P,ICR1,2*
G04 #@! TO.N,GPIO9_I2C_SCL*
X134825000Y-86890000D03*
G04 #@! TD*
D31*
G04 #@! TO.P,EC16,1*
G04 #@! TO.N,3V3*
X138975000Y-93570000D03*
G04 #@! TO.P,EC16,2*
G04 #@! TO.N,GND*
X140525000Y-93570000D03*
G04 #@! TD*
G04 #@! TO.P,IMUC1,1*
G04 #@! TO.N,GND*
X131685000Y-89870000D03*
G04 #@! TO.P,IMUC1,2*
G04 #@! TO.N,3V3*
X133235000Y-89870000D03*
G04 #@! TD*
D44*
G04 #@! TO.P,U1,1,Vin*
G04 #@! TO.N,3V3_PLUG*
X128730000Y-86722500D03*
G04 #@! TO.P,U1,2,Vout*
G04 #@! TO.N,VOLTAGE_REF*
X126830000Y-86722500D03*
G04 #@! TO.P,U1,3,Vss*
G04 #@! TO.N,GND*
X127780000Y-88597500D03*
G04 #@! TD*
D45*
G04 #@! TO.P,Q5,1,G*
G04 #@! TO.N,Net-(Q5-Pad1)*
X122970000Y-88217500D03*
G04 #@! TO.P,Q5,2,S*
G04 #@! TO.N,3V3*
X124870000Y-88217500D03*
G04 #@! TO.P,Q5,3,D*
G04 #@! TO.N,3V3_PLUG*
X123920000Y-86342500D03*
G04 #@! TD*
D34*
G04 #@! TO.P,EC51,1*
G04 #@! TO.N,Net-(EC51-Pad1)*
X143720000Y-91475000D03*
G04 #@! TO.P,EC51,2*
G04 #@! TO.N,GND*
X143720000Y-89925000D03*
G04 #@! TD*
D31*
G04 #@! TO.P,EC15,1*
G04 #@! TO.N,GND*
X131925000Y-101070000D03*
G04 #@! TO.P,EC15,2*
G04 #@! TO.N,3V3*
X133475000Y-101070000D03*
G04 #@! TD*
D39*
G04 #@! TO.P,TP3,1,1*
G04 #@! TO.N,GND*
X124450000Y-102705000D03*
G04 #@! TD*
D20*
G04 #@! TO.P,IDR1,1*
G04 #@! TO.N,GPIO8_I2C_SDA*
X137455000Y-86900000D03*
G04 #@! TO.P,IDR1,2*
G04 #@! TO.N,3V3*
X139105000Y-86900000D03*
G04 #@! TD*
G04 #@! TO.P,QR1,1*
G04 #@! TO.N,GPIO2_PLUG_PWR_3V3*
X122625000Y-84360000D03*
G04 #@! TO.P,QR1,2*
G04 #@! TO.N,Net-(Q5-Pad1)*
X124275000Y-84360000D03*
G04 #@! TD*
D46*
G04 #@! TO.P,L2,1,1*
G04 #@! TO.N,3V3*
X134480000Y-105672500D03*
G04 #@! TO.P,L2,2,2*
G04 #@! TO.N,Net-(EC20-Pad1)*
X134480000Y-103547500D03*
G04 #@! TD*
D38*
G04 #@! TO.P,AC2,1*
G04 #@! TO.N,VIN*
X158987500Y-95470000D03*
G04 #@! TO.P,AC2,2*
G04 #@! TO.N,GND*
X156912500Y-95470000D03*
G04 #@! TD*
D22*
G04 #@! TO.P,EC19,1*
G04 #@! TO.N,3V3*
X134205000Y-107260000D03*
G04 #@! TO.P,EC19,2*
G04 #@! TO.N,GND*
X132655000Y-107260000D03*
G04 #@! TD*
D47*
G04 #@! TO.P,,1*
G04 #@! TO.N,N/C*
X142930000Y-108670000D03*
G04 #@! TD*
D48*
G04 #@! TO.P,EC14,1*
G04 #@! TO.N,GND*
X131880000Y-99220000D03*
G04 #@! TO.P,EC14,2*
G04 #@! TO.N,3V3*
X133780000Y-99220000D03*
G04 #@! TD*
D49*
G04 #@! TO.P,REF\u002A\u002A,1*
G04 #@! TO.N,N/C*
X155530000Y-98650000D03*
G04 #@! TD*
D44*
G04 #@! TO.P,PWDSWT1,1*
G04 #@! TO.N,Net-(PWDSWT1-Pad1)*
X148170000Y-115820000D03*
G04 #@! TO.P,PWDSWT1,2*
G04 #@! TO.N,VIN_BAT*
X146270000Y-115820000D03*
G04 #@! TO.P,PWDSWT1,3*
G04 #@! TO.N,VIN*
X147220000Y-117695000D03*
G04 #@! TD*
D50*
G04 #@! TO.P,AU1,1,FB*
G04 #@! TO.N,Net-(AR1-Pad2)*
X158440000Y-90290000D03*
G04 #@! TO.P,AU1,2,GND*
G04 #@! TO.N,GND*
X157500000Y-90295000D03*
D51*
X157475000Y-92010000D03*
D50*
G04 #@! TO.P,AU1,3,SW*
G04 #@! TO.N,Net-(AL1-Pad2)*
X156515000Y-90295000D03*
D52*
G04 #@! TO.P,AU1,4,VIN_SW*
G04 #@! TO.N,VIN*
X156545000Y-93685000D03*
G04 #@! TO.P,AU1,5,VIN_A*
X157460000Y-93680000D03*
G04 #@! TO.P,AU1,6,EN*
X158420000Y-93680000D03*
G04 #@! TD*
D41*
G04 #@! TO.P,I2C2,1,Pin_1*
G04 #@! TO.N,GND*
X137810000Y-77890000D03*
D42*
G04 #@! TO.P,I2C2,2,Pin_2*
G04 #@! TO.N,3V3_PLUG*
X140310000Y-77890000D03*
G04 #@! TO.P,I2C2,3,Pin_3*
G04 #@! TO.N,GPIO9_I2C_SCL*
X142810000Y-77890000D03*
G04 #@! TO.P,I2C2,4,Pin_4*
G04 #@! TO.N,ADC_OUT*
X145310000Y-77890000D03*
G04 #@! TD*
D30*
G04 #@! TO.P,EXP_R3,1*
G04 #@! TO.N,GPIO06_EXT_PLUG2*
X128255000Y-97680000D03*
G04 #@! TO.P,EXP_R3,2*
G04 #@! TO.N,Net-(EXP_R3-Pad2)*
X126605000Y-97680000D03*
G04 #@! TD*
D34*
G04 #@! TO.P,EC50,1*
G04 #@! TO.N,Net-(EC50-Pad1)*
X138620000Y-91575000D03*
G04 #@! TO.P,EC50,2*
G04 #@! TO.N,GND*
X138620000Y-90025000D03*
G04 #@! TD*
D30*
G04 #@! TO.P,EXP_R4,1*
G04 #@! TO.N,GPIO06_EXT_PLUG2*
X128145000Y-100180000D03*
G04 #@! TO.P,EXP_R4,2*
G04 #@! TO.N,Net-(EXP_R4-Pad2)*
X126495000Y-100180000D03*
G04 #@! TD*
D34*
G04 #@! TO.P,EC37,1*
G04 #@! TO.N,Net-(ANT1-Pad1)*
X122320000Y-103735000D03*
G04 #@! TO.P,EC37,2*
G04 #@! TO.N,GND*
X122320000Y-102185000D03*
G04 #@! TD*
D53*
G04 #@! TO.P,TPU1,1,TEMP*
G04 #@! TO.N,unconnected-(TPU1-Pad1)*
X140375000Y-118522000D03*
G04 #@! TO.P,TPU1,2,PROG*
G04 #@! TO.N,Net-(TPR3-Pad2)*
X141645000Y-118522000D03*
G04 #@! TO.P,TPU1,3,GND*
G04 #@! TO.N,GND*
X142915000Y-118522000D03*
G04 #@! TO.P,TPU1,4,VCC*
G04 #@! TO.N,USB_5V0*
X144185000Y-118522000D03*
G04 #@! TO.P,TPU1,5,BAT*
G04 #@! TO.N,VIN_BATF*
X144185000Y-113098000D03*
G04 #@! TO.P,TPU1,6,~{STDBY}*
G04 #@! TO.N,STDBY_LED_G*
X142915000Y-113098000D03*
G04 #@! TO.P,TPU1,7,~{CHRG}*
G04 #@! TO.N,CHRG_LED_R*
X141645000Y-113098000D03*
G04 #@! TO.P,TPU1,8,CE*
G04 #@! TO.N,USB_5V0*
X140375000Y-113098000D03*
D54*
G04 #@! TO.P,TPU1,9,EP*
G04 #@! TO.N,GND*
X142280000Y-115810000D03*
G04 #@! TD*
D22*
G04 #@! TO.P,MCPC1,1*
G04 #@! TO.N,GND*
X128595000Y-84680000D03*
G04 #@! TO.P,MCPC1,2*
G04 #@! TO.N,3V3_PLUG*
X127045000Y-84680000D03*
G04 #@! TD*
D55*
G04 #@! TO.P,EL4,1,1*
G04 #@! TO.N,Net-(ANT1-Pad1)*
X122087500Y-105430000D03*
G04 #@! TO.P,EL4,2,2*
G04 #@! TO.N,Net-(EC38-Pad1)*
X124212500Y-105430000D03*
G04 #@! TD*
D56*
G04 #@! TO.P,AR2,1*
G04 #@! TO.N,Net-(AR1-Pad2)*
X162130000Y-90620000D03*
G04 #@! TO.P,AR2,2*
G04 #@! TO.N,GND*
X164130000Y-90620000D03*
G04 #@! TD*
D57*
G04 #@! TO.P,J3,1,Pin_1*
G04 #@! TO.N,VIN_BATF*
X131420000Y-117950000D03*
D58*
G04 #@! TO.P,J3,2,Pin_2*
G04 #@! TO.N,GND*
X128920000Y-117950000D03*
G04 #@! TD*
D59*
G04 #@! TO.P,,1*
G04 #@! TO.N,N/C*
X130430000Y-105980000D03*
G04 #@! TD*
D30*
G04 #@! TO.P,EXP_R2,1*
G04 #@! TO.N,GPIO06_EXT_PLUG2*
X128315000Y-95870000D03*
G04 #@! TO.P,EXP_R2,2*
G04 #@! TO.N,Net-(EXP_R2-Pad2)*
X126665000Y-95870000D03*
G04 #@! TD*
D60*
G04 #@! TO.P,REF\u002A\u002A,1*
G04 #@! TO.N,N/C*
X119205000Y-107135000D03*
G04 #@! TO.P,REF\u002A\u002A,2*
X119210000Y-106510000D03*
G04 #@! TD*
D30*
G04 #@! TO.P,EXP_R1,1*
G04 #@! TO.N,GPIO06_EXT_PLUG2*
X128335000Y-94050000D03*
G04 #@! TO.P,EXP_R1,2*
G04 #@! TO.N,Net-(EXP_R1-Pad2)*
X126685000Y-94050000D03*
G04 #@! TD*
D61*
G04 #@! TO.P,PWSWR1,1*
G04 #@! TO.N,USB_5V0*
X148200000Y-112015000D03*
G04 #@! TO.P,PWSWR1,2*
G04 #@! TO.N,Net-(PWDSWT1-Pad1)*
X148200000Y-113665000D03*
G04 #@! TD*
D62*
G04 #@! TO.P,,1*
G04 #@! TO.N,N/C*
X142890000Y-88610000D03*
G04 #@! TD*
D63*
G04 #@! TO.P,F1,1*
G04 #@! TO.N,VIN_BAT*
X134627500Y-113740000D03*
G04 #@! TO.P,F1,2*
G04 #@! TO.N,VIN_BATF*
X131652500Y-113740000D03*
G04 #@! TD*
D64*
G04 #@! TO.P,REF\u002A\u002A,1*
G04 #@! TO.N,N/C*
X130430000Y-95190000D03*
G04 #@! TD*
D65*
G04 #@! TO.P,U2,1*
G04 #@! TO.N,N/C*
X153870000Y-107585000D03*
G04 #@! TO.P,U2,2*
X153870000Y-106315000D03*
G04 #@! TO.P,U2,3*
X153870000Y-105045000D03*
G04 #@! TO.P,U2,4,GND*
G04 #@! TO.N,GND*
X153870000Y-103775000D03*
G04 #@! TO.P,U2,5,SDA*
G04 #@! TO.N,GPIO8_I2C_SDA*
X148930000Y-103775000D03*
G04 #@! TO.P,U2,6,SCL*
G04 #@! TO.N,GPIO9_I2C_SCL*
X148930000Y-105045000D03*
G04 #@! TO.P,U2,7*
G04 #@! TO.N,N/C*
X148930000Y-106315000D03*
G04 #@! TO.P,U2,8,VCC*
G04 #@! TO.N,3V3*
X148930000Y-107585000D03*
G04 #@! TD*
D66*
G04 #@! TO.P,IMU1,1,SDO/SA0*
G04 #@! TO.N,unconnected-(IMU1-Pad1)*
X136760000Y-89655000D03*
G04 #@! TO.P,IMU1,2,SDX*
G04 #@! TO.N,unconnected-(IMU1-Pad2)*
X136260000Y-89655000D03*
G04 #@! TO.P,IMU1,3,SCX*
G04 #@! TO.N,unconnected-(IMU1-Pad3)*
X135760000Y-89655000D03*
G04 #@! TO.P,IMU1,4,INT1*
G04 #@! TO.N,unconnected-(IMU1-Pad4)*
X135260000Y-89655000D03*
D67*
G04 #@! TO.P,IMU1,5,VDDIO*
G04 #@! TO.N,3V3*
X135085000Y-90330000D03*
G04 #@! TO.P,IMU1,6,GND*
G04 #@! TO.N,GND*
X135085000Y-90830000D03*
G04 #@! TO.P,IMU1,7,GND*
X135085000Y-91330000D03*
D66*
G04 #@! TO.P,IMU1,8,VDD*
G04 #@! TO.N,3V3*
X135260000Y-92005000D03*
G04 #@! TO.P,IMU1,9,INT2*
G04 #@! TO.N,unconnected-(IMU1-Pad9)*
X135760000Y-92005000D03*
G04 #@! TO.P,IMU1,10,NC*
G04 #@! TO.N,unconnected-(IMU1-Pad10)*
X136260000Y-92005000D03*
G04 #@! TO.P,IMU1,11,NC*
G04 #@! TO.N,unconnected-(IMU1-Pad11)*
X136760000Y-92005000D03*
D67*
G04 #@! TO.P,IMU1,12,CS*
G04 #@! TO.N,GPIO38_IMU_CS*
X136935000Y-91330000D03*
G04 #@! TO.P,IMU1,13,SCL*
G04 #@! TO.N,GPIO9_I2C_SCL*
X136935000Y-90830000D03*
G04 #@! TO.P,IMU1,14,SDA*
G04 #@! TO.N,GPIO8_I2C_SDA*
X136935000Y-90330000D03*
G04 #@! TD*
D20*
G04 #@! TO.P,ER2,1*
G04 #@! TO.N,TXD0*
X126695000Y-91900000D03*
G04 #@! TO.P,ER2,2*
G04 #@! TO.N,Net-(ER2-Pad2)*
X128345000Y-91900000D03*
G04 #@! TD*
D68*
G04 #@! TO.P,ECY2,1,1*
G04 #@! TO.N,Net-(EC51-Pad1)*
X142060000Y-92000000D03*
G04 #@! TO.P,ECY2,2,2*
G04 #@! TO.N,GND*
X142060000Y-89800000D03*
G04 #@! TO.P,ECY2,3,3*
G04 #@! TO.N,Net-(EC50-Pad1)*
X140260000Y-89800000D03*
G04 #@! TO.P,ECY2,4,4*
G04 #@! TO.N,GND*
X140260000Y-92000000D03*
G04 #@! TD*
D69*
G04 #@! TO.P,TPR3,1*
G04 #@! TO.N,GND*
X143152500Y-120700000D03*
G04 #@! TO.P,TPR3,2*
G04 #@! TO.N,Net-(TPR3-Pad2)*
X141327500Y-120700000D03*
G04 #@! TD*
D39*
G04 #@! TO.P,TP1,1,1*
G04 #@! TO.N,VIN*
X148300000Y-84290000D03*
G04 #@! TD*
D70*
G04 #@! TO.P,ICSP1,5,Pin_5*
G04 #@! TO.N,CHIP_EN*
X118460500Y-88305000D03*
G04 #@! TO.P,ICSP1,6,Pin_6*
G04 #@! TO.N,ESP_GPIO0_BOOT-DTR*
X118460500Y-87035000D03*
G04 #@! TO.P,ICSP1,7,Pin_7*
G04 #@! TO.N,unconnected-(ICSP1-Pad7)*
X118460500Y-85765000D03*
G04 #@! TO.P,ICSP1,8,Pin_8*
G04 #@! TO.N,3V3*
X118460500Y-84495000D03*
G04 #@! TD*
D71*
G04 #@! TO.N,Net-(LED1-Pad3)*
X143000000Y-83210000D03*
G04 #@! TO.N,IO35_LED_G*
X144060000Y-84290000D03*
G04 #@! TO.N,IO34_LED_B*
X145720000Y-83930000D03*
G04 #@! TO.N,3V3*
X146760000Y-83610000D03*
D72*
G04 #@! TO.N,GND*
X143280000Y-99230000D03*
X156960000Y-96816250D03*
D71*
X138670000Y-88630000D03*
X136010000Y-90800000D03*
D73*
X145370000Y-89920000D03*
D72*
X140460000Y-96390000D03*
X142030000Y-100500000D03*
X140810000Y-101870000D03*
D73*
X139360000Y-106450000D03*
D72*
X139430000Y-100410000D03*
X138110000Y-98950000D03*
D71*
X130530000Y-95260000D03*
D72*
X130440000Y-108690000D03*
D71*
X152330000Y-88540000D03*
X130410000Y-103290000D03*
D73*
X136320000Y-106470000D03*
X155730000Y-104670000D03*
X132440000Y-101950000D03*
D71*
X130460000Y-101500000D03*
D72*
X141860000Y-97750000D03*
D71*
X128810000Y-89150000D03*
X136430000Y-95270000D03*
X130520000Y-88730000D03*
D72*
X139210000Y-97790000D03*
X159400000Y-92680000D03*
D73*
X152510000Y-103110000D03*
X142030000Y-88630000D03*
X133270000Y-106360000D03*
D72*
X140630000Y-99060000D03*
D71*
X130530000Y-84270000D03*
D73*
X141500000Y-94330000D03*
D71*
X135360000Y-88600000D03*
D73*
G04 #@! TO.N,VOLTAGE_REF*
X129490000Y-100680000D03*
D71*
X138040000Y-104620000D03*
D73*
G04 #@! TO.N,Net-(EC50-Pad1)*
X141110000Y-90830000D03*
X143920000Y-102140000D03*
D72*
G04 #@! TO.N,Net-(ANT1-Pad1)*
X119110000Y-104180000D03*
D73*
G04 #@! TO.N,Net-(EC51-Pad1)*
X143870000Y-102860000D03*
X141930000Y-93120000D03*
G04 #@! TO.N,3V3*
X146491604Y-102565713D03*
D74*
X141680000Y-106210000D03*
D71*
X121130000Y-83800000D03*
X155340000Y-87610000D03*
D73*
X145880000Y-107350000D03*
D71*
X125820000Y-88220000D03*
D74*
X141720000Y-107130000D03*
D71*
X135680000Y-99280000D03*
D73*
X134390000Y-89790000D03*
D71*
X138640000Y-95030000D03*
X149590000Y-87250000D03*
D73*
X146050000Y-107990000D03*
D71*
X164100000Y-86560000D03*
D73*
X133835000Y-86125000D03*
X143410000Y-103480000D03*
D71*
X155230000Y-86110000D03*
X159250000Y-105910000D03*
G04 #@! TO.N,CHIP_EN*
X118920000Y-90844500D03*
D73*
X136220000Y-101710000D03*
G04 #@! TO.N,ESP_GPIO0_BOOT-DTR*
X136770000Y-102200000D03*
X135990000Y-96810000D03*
D71*
X120830000Y-87050000D03*
X123800000Y-88830000D03*
X121700000Y-90460000D03*
G04 #@! TO.N,GPIO8_I2C_SDA*
X151870000Y-105810000D03*
X139050000Y-104730000D03*
D73*
X137440000Y-89740000D03*
D71*
X150510000Y-103940000D03*
D73*
X156260000Y-106060000D03*
X156280000Y-107760000D03*
X138010000Y-87690000D03*
G04 #@! TO.N,USB_D-*
X157660000Y-103785500D03*
X147650000Y-102600000D03*
G04 #@! TO.N,USB_D+*
X156592250Y-103565500D03*
X148190500Y-101992282D03*
G04 #@! TO.N,TXD0*
X126110000Y-90680000D03*
D71*
G04 #@! TO.N,RXD0*
X137350000Y-94490000D03*
D73*
G04 #@! TO.N,GPIO9_I2C_SCL*
X135800000Y-87620000D03*
D71*
X136510000Y-80110000D03*
X159150000Y-107810000D03*
X140080000Y-104420000D03*
D73*
X137690000Y-90820000D03*
D71*
X150530000Y-105060000D03*
G04 #@! TO.N,Net-(ER2-Pad2)*
X128470000Y-90680000D03*
X137430000Y-93580000D03*
D73*
G04 #@! TO.N,IO35_LED_G*
X144060000Y-87670000D03*
D71*
X144370000Y-93350000D03*
G04 #@! TO.N,IO34_LED_B*
X144970000Y-92640000D03*
D73*
X145655000Y-87595000D03*
D71*
G04 #@! TO.N,IO36_LED_R*
X143740000Y-92680000D03*
D73*
X141600000Y-87910000D03*
D71*
G04 #@! TO.N,GPIO06_EXT_PLUG2*
X137950000Y-103710000D03*
D73*
X128145000Y-98875000D03*
G04 #@! TO.N,GPIO38_IMU_CS*
X137450000Y-92080000D03*
X139750000Y-94540000D03*
G04 #@! TO.N,GPIO2_PLUG_PWR_3V3*
X121990000Y-85520000D03*
X126540000Y-88930000D03*
X129370000Y-96840000D03*
X137340000Y-102790000D03*
D72*
G04 #@! TO.N,unconnected-(J20-Pad3)*
X119220000Y-107950000D03*
D73*
G04 #@! TO.N,LCD2_CS_IO21*
X145648166Y-101274500D03*
G04 #@! TO.N,LCD2_LED_IO10*
X142500000Y-104620000D03*
G04 #@! TO.N,LCD2_DC_IO11*
X143360000Y-104580000D03*
G04 #@! TO.N,LCD2_RST_IO13*
X148280000Y-94500000D03*
X142560000Y-103490000D03*
X147780000Y-98090000D03*
D72*
G04 #@! TO.N,VIN_BAT*
X136260000Y-113740000D03*
X146180000Y-113680000D03*
G04 #@! TO.N,GPIO33_BAT_SENSE*
X148890000Y-118970000D03*
D71*
X157260000Y-102960000D03*
X153610000Y-101350000D03*
X162630000Y-102680000D03*
G04 #@! TO.N,VIN*
X116940000Y-84780000D03*
D73*
X148420000Y-85650000D03*
D72*
X147220000Y-110000000D03*
X160140000Y-98940000D03*
G04 #@! TO.N,USB_5V0*
X162345000Y-99365000D03*
X140350000Y-111370000D03*
X148220000Y-111000000D03*
X145210000Y-117880000D03*
G04 #@! TD*
D75*
G04 #@! TO.N,IO34_LED_B*
X145670000Y-83980000D02*
X145720000Y-83930000D01*
X145670000Y-87580000D02*
X145670000Y-83980000D01*
X145655000Y-87595000D02*
X145670000Y-87580000D01*
G04 #@! TO.N,IO35_LED_G*
X144060000Y-84290000D02*
X144060000Y-87670000D01*
G04 #@! TO.N,IO34_LED_B*
X145720000Y-83780000D02*
X145720000Y-83930000D01*
G04 #@! TO.N,Net-(LED1-Pad3)*
X143040000Y-83240000D02*
X143040000Y-86810000D01*
X143060000Y-83220000D02*
X143040000Y-83240000D01*
D76*
G04 #@! TO.N,3V3*
X148260000Y-87270000D02*
X149740000Y-87270000D01*
X146750000Y-85760000D02*
X148260000Y-87270000D01*
X146750000Y-83630000D02*
X146750000Y-85760000D01*
D77*
G04 #@! TO.N,VIN*
X148300000Y-85530000D02*
X148300000Y-84290000D01*
X148420000Y-85650000D02*
X148300000Y-85530000D01*
D76*
G04 #@! TO.N,GND*
X137810000Y-79980000D02*
X137810000Y-77890000D01*
X140110000Y-82280000D02*
X137810000Y-79980000D01*
X140110000Y-88580000D02*
X140110000Y-82280000D01*
X151850000Y-86757500D02*
X152282500Y-87190000D01*
X151850000Y-79010000D02*
X151850000Y-86757500D01*
D75*
X136610000Y-96490000D02*
X136610000Y-95450000D01*
D78*
X133760000Y-108670000D02*
X130980000Y-108670000D01*
D76*
X128920000Y-119710000D02*
X128920000Y-117950000D01*
D78*
X155460000Y-88560000D02*
X155460000Y-90390000D01*
D75*
X129060000Y-101630000D02*
X129120000Y-101690000D01*
X137530000Y-108720000D02*
X137480000Y-108670000D01*
D79*
X140220000Y-92790000D02*
X140220000Y-92040000D01*
D80*
X161040000Y-96960000D02*
X161030000Y-96970000D01*
D75*
X130460000Y-101500000D02*
X130460000Y-88700000D01*
D78*
X145160000Y-108670000D02*
X145720000Y-108670000D01*
D80*
X159320000Y-92870000D02*
X159320000Y-92580000D01*
D76*
X131660000Y-101170000D02*
X132380000Y-101890000D01*
D75*
X131570000Y-97630000D02*
X131570000Y-97120000D01*
D80*
X164130000Y-90620000D02*
X162630000Y-92120000D01*
D75*
X130440000Y-88730000D02*
X130440000Y-101480000D01*
X152470000Y-103150000D02*
X147840000Y-103150000D01*
D79*
X144810000Y-108670000D02*
X142930000Y-108670000D01*
X146590000Y-103850000D02*
X146590000Y-103580000D01*
D80*
X161040000Y-93500000D02*
X161040000Y-96960000D01*
D75*
X131850000Y-88695000D02*
X131850000Y-93540000D01*
D78*
X130460000Y-101500000D02*
X130460000Y-101050000D01*
X155460000Y-94370000D02*
X155460000Y-98560000D01*
D79*
X140220000Y-92040000D02*
X140260000Y-92000000D01*
D78*
X130460000Y-97230000D02*
X130460000Y-88700000D01*
D75*
X147550000Y-103440000D02*
X147550000Y-103840000D01*
D78*
X155460000Y-108620000D02*
X155490000Y-108650000D01*
D79*
X159250000Y-107090000D02*
X159350000Y-107090000D01*
D80*
X160220000Y-93500000D02*
X161040000Y-93500000D01*
X168230000Y-96950000D02*
X168250000Y-96970000D01*
D78*
X131830000Y-99030000D02*
X131830000Y-100890000D01*
X130440000Y-108690000D02*
X130440000Y-104470000D01*
D75*
X146920000Y-103770000D02*
X146600000Y-103770000D01*
D79*
X157020000Y-105875000D02*
X157020000Y-105310000D01*
D80*
X166235000Y-93830000D02*
X166235000Y-91205000D01*
D79*
X145120000Y-105570000D02*
X145850000Y-104840000D01*
X152450000Y-103050000D02*
X152510000Y-103110000D01*
D75*
X135760000Y-95640000D02*
X135760000Y-95487500D01*
D77*
X130640000Y-85280000D02*
X130640000Y-84380000D01*
D79*
X140700000Y-105580000D02*
X140520000Y-105760000D01*
D76*
X124510000Y-102645000D02*
X124450000Y-102705000D01*
D75*
X133100000Y-88590000D02*
X132500000Y-88590000D01*
D76*
X131660000Y-100910000D02*
X131660000Y-101170000D01*
D77*
X145390000Y-89930000D02*
X145385000Y-89925000D01*
D76*
X133850000Y-120440000D02*
X129650000Y-120440000D01*
D79*
X155796250Y-104640000D02*
X156323750Y-104640000D01*
X143670000Y-89800000D02*
X143720000Y-89750000D01*
X142415000Y-105510000D02*
X140770000Y-105510000D01*
D75*
X130570000Y-88590000D02*
X130480000Y-88680000D01*
D78*
X155460000Y-98560000D02*
X155460000Y-103390000D01*
D79*
X142060000Y-89800000D02*
X143670000Y-89800000D01*
X132520000Y-106270000D02*
X132520000Y-105380000D01*
X144870000Y-105570000D02*
X145120000Y-105570000D01*
D78*
X155460000Y-90390000D02*
X155460000Y-91850000D01*
D75*
X146860000Y-105220000D02*
X146860000Y-105450000D01*
D76*
X157510000Y-92005000D02*
X157490000Y-92025000D01*
D80*
X165650000Y-90620000D02*
X164130000Y-90620000D01*
D75*
X138150051Y-99480000D02*
X139000051Y-99480000D01*
D77*
X150230000Y-120752500D02*
X149067500Y-120752500D01*
D78*
X138290000Y-108670000D02*
X137480000Y-108670000D01*
D79*
X159350000Y-107090000D02*
X159970000Y-107710000D01*
D75*
X136010000Y-90800000D02*
X136010000Y-90850000D01*
X147550000Y-104530000D02*
X146860000Y-105220000D01*
D76*
X156960000Y-95203750D02*
X156960000Y-96816250D01*
D80*
X159400000Y-92680000D02*
X160220000Y-93500000D01*
D79*
X138620000Y-88830000D02*
X138840000Y-88610000D01*
D78*
X130440000Y-95060000D02*
X130440000Y-93100000D01*
X130556250Y-93600000D02*
X131910000Y-93600000D01*
D77*
X149067500Y-120752500D02*
X148700000Y-121120000D01*
X144760000Y-121120000D02*
X144340000Y-120700000D01*
X148700000Y-121120000D02*
X144760000Y-121120000D01*
D75*
X130370000Y-97320000D02*
X130460000Y-97230000D01*
D78*
X134700000Y-108640000D02*
X134670000Y-108670000D01*
X134670000Y-108670000D02*
X133760000Y-108670000D01*
X153922500Y-103785000D02*
X155395000Y-103785000D01*
D75*
X134170000Y-88630000D02*
X134090000Y-88550000D01*
D79*
X130430000Y-103310000D02*
X130410000Y-103290000D01*
D76*
X157510000Y-90755000D02*
X157510000Y-92005000D01*
D75*
X135760000Y-95487500D02*
X134907500Y-95487500D01*
X137990000Y-102210000D02*
X140272101Y-99927899D01*
D76*
X129730000Y-101690000D02*
X124510000Y-101690000D01*
X124510000Y-101690000D02*
X124510000Y-102645000D01*
D78*
X131780000Y-88550000D02*
X130610000Y-88550000D01*
D75*
X131610000Y-97340000D02*
X130570000Y-97340000D01*
X136280000Y-106430000D02*
X136320000Y-106470000D01*
X146600000Y-103770000D02*
X147480000Y-103770000D01*
X133010000Y-88590000D02*
X132990000Y-88610000D01*
D79*
X144870000Y-105570000D02*
X142980000Y-105570000D01*
D78*
X130610000Y-88550000D02*
X130480000Y-88680000D01*
D75*
X123290000Y-98855000D02*
X123290000Y-97585000D01*
D76*
X130395000Y-105140000D02*
X130130000Y-105140000D01*
D75*
X130570000Y-97340000D02*
X130460000Y-97230000D01*
X152510000Y-103110000D02*
X152470000Y-103150000D01*
D76*
X129730000Y-101690000D02*
X130390000Y-101690000D01*
D78*
X131980000Y-88550000D02*
X131780000Y-88550000D01*
X155460000Y-108000000D02*
X155460000Y-108620000D01*
D75*
X142800000Y-88520000D02*
X142890000Y-88610000D01*
D76*
X151850000Y-79010000D02*
X151850000Y-77720000D01*
D78*
X130440000Y-104470000D02*
X130440000Y-103810000D01*
D79*
X133260000Y-106270000D02*
X132520000Y-106270000D01*
D75*
X131850000Y-93540000D02*
X131910000Y-93600000D01*
D79*
X140700000Y-93570000D02*
X140700000Y-93270000D01*
D78*
X131910000Y-93600000D02*
X132043750Y-93600000D01*
D75*
X136010000Y-90850000D02*
X135530000Y-91330000D01*
D78*
X155410000Y-88550000D02*
X151650000Y-88550000D01*
D76*
X152302500Y-87390000D02*
X152302500Y-88512500D01*
D78*
X155460000Y-93860000D02*
X155460000Y-94370000D01*
D76*
X142915000Y-119655000D02*
X143152500Y-119892500D01*
X142915000Y-118522000D02*
X142915000Y-116445000D01*
D75*
X130400000Y-95260000D02*
X130400000Y-97170000D01*
D76*
X128920000Y-113700000D02*
X128920000Y-117950000D01*
D78*
X138330000Y-108630000D02*
X138290000Y-108670000D01*
D79*
X138620000Y-89850000D02*
X138620000Y-88830000D01*
X139815000Y-106470000D02*
X139345000Y-106470000D01*
X157510000Y-107297500D02*
X157510000Y-108622500D01*
D75*
X142280000Y-88560000D02*
X152310000Y-88560000D01*
D79*
X153970000Y-103765000D02*
X153165000Y-103765000D01*
X132520000Y-105380000D02*
X132490000Y-105350000D01*
D78*
X135400000Y-88550000D02*
X134090000Y-88550000D01*
D79*
X130410000Y-103290000D02*
X129810000Y-103290000D01*
D80*
X161630000Y-92120000D02*
X161040000Y-92710000D01*
D76*
X157475000Y-92010000D02*
X155620000Y-92010000D01*
X142280000Y-115810000D02*
X138480000Y-115810000D01*
X155500000Y-103680000D02*
X155395000Y-103785000D01*
D75*
X138820000Y-88520000D02*
X142800000Y-88520000D01*
D79*
X157020000Y-105330000D02*
X157020000Y-105925000D01*
D77*
X128810000Y-89050000D02*
X128810000Y-89150000D01*
D78*
X130440000Y-95060000D02*
X130440000Y-88870000D01*
D75*
X132580000Y-88510000D02*
X132500000Y-88590000D01*
D78*
X155455000Y-108700000D02*
X154805000Y-108700000D01*
D75*
X136280000Y-105520000D02*
X136280000Y-106430000D01*
D76*
X143152500Y-119892500D02*
X143152500Y-120700000D01*
D77*
X127780000Y-88597500D02*
X128357500Y-88597500D01*
D75*
X137595107Y-97463585D02*
X137583585Y-97463585D01*
X135530000Y-91330000D02*
X135097500Y-91330000D01*
D78*
X130440000Y-93100000D02*
X130440000Y-88970000D01*
D79*
X142980000Y-105570000D02*
X142960000Y-105590000D01*
D78*
X135580000Y-108670000D02*
X145160000Y-108670000D01*
X131620000Y-100900000D02*
X131610000Y-100910000D01*
D79*
X130430000Y-105980000D02*
X130430000Y-103310000D01*
D76*
X152302500Y-88512500D02*
X152330000Y-88540000D01*
D79*
X132520000Y-106270000D02*
X132520000Y-107220000D01*
D75*
X147550000Y-103840000D02*
X147550000Y-104530000D01*
D78*
X155015000Y-103785000D02*
X153922500Y-103785000D01*
D79*
X159970000Y-107710000D02*
X160450000Y-107710000D01*
X140770000Y-105510000D02*
X140520000Y-105760000D01*
D78*
X136680000Y-88550000D02*
X135400000Y-88550000D01*
D75*
X147480000Y-103770000D02*
X147550000Y-103840000D01*
D76*
X138480000Y-115810000D02*
X133850000Y-120440000D01*
D75*
X132500000Y-88590000D02*
X130570000Y-88590000D01*
D80*
X159320000Y-92580000D02*
X158750000Y-92010000D01*
X168230000Y-93490000D02*
X166575000Y-93490000D01*
D76*
X129650000Y-120440000D02*
X128920000Y-119710000D01*
D78*
X130980000Y-108670000D02*
X130460000Y-108670000D01*
D75*
X137220000Y-88520000D02*
X138820000Y-88520000D01*
D78*
X130460000Y-108670000D02*
X130440000Y-108690000D01*
X130460000Y-101050000D02*
X130460000Y-100870000D01*
X155395000Y-103785000D02*
X155400000Y-103790000D01*
D76*
X130430000Y-112190000D02*
X128920000Y-113700000D01*
D77*
X128357500Y-88597500D02*
X128810000Y-89050000D01*
D79*
X157020000Y-105875000D02*
X157020000Y-106300000D01*
D78*
X132806250Y-93600000D02*
X131273750Y-93600000D01*
D79*
X140700000Y-93270000D02*
X140220000Y-92790000D01*
D75*
X146590000Y-104100000D02*
X145860000Y-104830000D01*
D80*
X166235000Y-91205000D02*
X165650000Y-90620000D01*
D79*
X142060000Y-89800000D02*
X142060000Y-88660000D01*
D80*
X166575000Y-93490000D02*
X166235000Y-93830000D01*
D79*
X157020000Y-105310000D02*
X157020000Y-106720000D01*
D75*
X145860000Y-104830000D02*
X145850000Y-104840000D01*
X133100000Y-88590000D02*
X133010000Y-88590000D01*
D76*
X129120000Y-101690000D02*
X129730000Y-101690000D01*
D75*
X137150000Y-88560000D02*
X142280000Y-88560000D01*
D76*
X130430000Y-111550000D02*
X130430000Y-112190000D01*
D75*
X135277500Y-90800000D02*
X136010000Y-90800000D01*
D78*
X155460000Y-103390000D02*
X155460000Y-107040000D01*
X155460000Y-107040000D02*
X155460000Y-108000000D01*
D77*
X143720000Y-89925000D02*
X145385000Y-89925000D01*
D79*
X132520000Y-107220000D02*
X132480000Y-107260000D01*
X157795000Y-107090000D02*
X159250000Y-107090000D01*
D75*
X139000051Y-99770000D02*
X139000051Y-99480000D01*
D79*
X156330000Y-104640000D02*
X157020000Y-105330000D01*
D80*
X161040000Y-92710000D02*
X161040000Y-93500000D01*
D79*
X142060000Y-88660000D02*
X142030000Y-88630000D01*
D78*
X155460000Y-91850000D02*
X155460000Y-93860000D01*
D76*
X142915000Y-116445000D02*
X142280000Y-115810000D01*
D75*
X135430000Y-88520000D02*
X135400000Y-88550000D01*
X123305000Y-98675000D02*
X123305000Y-94865000D01*
D77*
X130640000Y-84380000D02*
X130500000Y-84240000D01*
X144340000Y-120700000D02*
X143152500Y-120700000D01*
D80*
X168230000Y-93490000D02*
X168230000Y-96950000D01*
D75*
X137440000Y-97300000D02*
X139444944Y-99304944D01*
D76*
X128775000Y-105270000D02*
X130385000Y-105270000D01*
D78*
X155490000Y-108650000D02*
X155440000Y-108600000D01*
D76*
X130430000Y-111550000D02*
X130430000Y-107730000D01*
D79*
X153165000Y-103765000D02*
X152510000Y-103110000D01*
X157010000Y-106207500D02*
X157010000Y-107132500D01*
D80*
X162630000Y-92120000D02*
X161630000Y-92120000D01*
D77*
X128770000Y-84680000D02*
X129140000Y-84310000D01*
D78*
X137870000Y-88550000D02*
X136680000Y-88550000D01*
X134090000Y-88550000D02*
X131980000Y-88550000D01*
X130460000Y-100870000D02*
X130460000Y-97230000D01*
D76*
X157280000Y-95460000D02*
X155560000Y-95460000D01*
X142915000Y-118522000D02*
X142915000Y-119655000D01*
D80*
X158750000Y-92010000D02*
X157475000Y-92010000D01*
D77*
X129140000Y-84310000D02*
X130420000Y-84310000D01*
D79*
X141530000Y-94410000D02*
X140670000Y-93550000D01*
D78*
X135580000Y-108670000D02*
X134670000Y-108670000D01*
D79*
X155470000Y-107050000D02*
X155460000Y-107040000D01*
D75*
X130460000Y-88700000D02*
X130480000Y-88680000D01*
X135780000Y-95280000D02*
X136300000Y-95280000D01*
X130400000Y-97170000D02*
X130460000Y-97230000D01*
X152310000Y-88560000D02*
X152330000Y-88540000D01*
X136610000Y-95450000D02*
X136430000Y-95270000D01*
X130440000Y-101480000D02*
X130460000Y-101500000D01*
X146590000Y-103640000D02*
X146590000Y-104100000D01*
D79*
X140700000Y-105580000D02*
X139810000Y-106470000D01*
X140520000Y-105760000D02*
X139830000Y-106450000D01*
D75*
X136700000Y-88530000D02*
X136680000Y-88550000D01*
X137583585Y-97463585D02*
X136610000Y-96490000D01*
X132480000Y-105360000D02*
X132490000Y-105350000D01*
X147840000Y-103150000D02*
X147550000Y-103440000D01*
D77*
G04 #@! TO.N,VOLTAGE_REF*
X129930000Y-100240000D02*
X129490000Y-100680000D01*
X127332500Y-86722500D02*
X128535000Y-87925000D01*
X139346478Y-103123522D02*
X138580000Y-103890000D01*
X128535000Y-87925000D02*
X128820000Y-88210000D01*
X126830000Y-86722500D02*
X127332500Y-86722500D01*
X129290000Y-88210000D02*
X129290000Y-88410000D01*
X129930000Y-89050000D02*
X129930000Y-100240000D01*
X128820000Y-88210000D02*
X129290000Y-88210000D01*
D80*
X130630000Y-86870000D02*
X129290000Y-88210000D01*
X130640000Y-87180000D02*
X130600000Y-87180000D01*
D77*
X138580000Y-103890000D02*
X138580000Y-104190000D01*
X138580000Y-104190000D02*
X138150000Y-104620000D01*
X129290000Y-88410000D02*
X129930000Y-89050000D01*
G04 #@! TO.N,GPIO10_EXT_PLUG1*
X138836478Y-102513522D02*
X138200000Y-103150000D01*
X138726478Y-102607786D02*
X138726478Y-102623522D01*
D79*
G04 #@! TO.N,Net-(EC50-Pad1)*
X140260000Y-90030000D02*
X140260000Y-89800000D01*
D77*
X143920000Y-102140000D02*
X143400000Y-102140000D01*
X143022152Y-101762152D02*
X143022152Y-101759258D01*
X143400000Y-102140000D02*
X143022152Y-101762152D01*
X139425000Y-90865000D02*
X141105000Y-90865000D01*
X139425000Y-90865000D02*
X140260000Y-90030000D01*
D79*
X138620000Y-91750000D02*
X138620000Y-91670000D01*
D77*
X138620000Y-91670000D02*
X139425000Y-90865000D01*
D80*
G04 #@! TO.N,Net-(ANT1-Pad1)*
X119485786Y-105844214D02*
X119710000Y-105620000D01*
X120752107Y-105330000D02*
X121300000Y-105330000D01*
X122087500Y-104142500D02*
X122320000Y-103910000D01*
X119600000Y-105037107D02*
X119375786Y-104812893D01*
X121300000Y-105330000D02*
X120307107Y-105330000D01*
X121300000Y-105330000D02*
X121987500Y-105330000D01*
X121987500Y-105330000D02*
X122087500Y-105430000D01*
X122087500Y-105430000D02*
X122087500Y-104142500D01*
X120417107Y-105327110D02*
G75*
G03*
X119710000Y-105620000I-7J-999990D01*
G01*
X119082905Y-104105786D02*
G75*
G03*
X119375786Y-104812893I999995J-14D01*
G01*
X119599997Y-105037110D02*
G75*
G03*
X120307107Y-105330000I707103J707110D01*
G01*
X119485774Y-105844202D02*
G75*
G03*
X119192893Y-106551321I707126J-707098D01*
G01*
D77*
G04 #@! TO.N,Net-(EC51-Pad1)*
X143560000Y-102860000D02*
X143870000Y-102860000D01*
D79*
X142410000Y-91650000D02*
X142060000Y-92000000D01*
X143720000Y-91650000D02*
X142410000Y-91650000D01*
D77*
X141920000Y-92015000D02*
X141920000Y-93185000D01*
X142749258Y-102049258D02*
X143560000Y-102860000D01*
D75*
G04 #@! TO.N,Net-(EC60-Pad1)*
X134935686Y-97450000D02*
X134370000Y-96884314D01*
X134110000Y-96600000D02*
X134110000Y-92450000D01*
X133530000Y-91830000D02*
X133430000Y-91730000D01*
X134110000Y-92450000D02*
X134090000Y-92430000D01*
X134370000Y-96860000D02*
X134110000Y-96600000D01*
X136450152Y-97450000D02*
X134935686Y-97450000D01*
X137029422Y-98029270D02*
X136450152Y-97450000D01*
X134370000Y-96884314D02*
X134370000Y-96860000D01*
X133640000Y-91980000D02*
X134090000Y-92430000D01*
X134090000Y-92430000D02*
X135320000Y-93660000D01*
D79*
G04 #@! TO.N,3V3*
X124750000Y-88217500D02*
X125732500Y-88217500D01*
D78*
X133770000Y-100910000D02*
X133560000Y-100910000D01*
D81*
X155470000Y-87480000D02*
X155340000Y-87610000D01*
D77*
X133087500Y-86872500D02*
X134060000Y-85900000D01*
D75*
X136463737Y-98594955D02*
X136454955Y-98594955D01*
D79*
X138620000Y-95010000D02*
X138640000Y-95030000D01*
D75*
X136180894Y-98870894D02*
X135640000Y-98330000D01*
X135640000Y-98330000D02*
X135480000Y-98490000D01*
D77*
X145560000Y-102510000D02*
X144700000Y-103370000D01*
D81*
X141670000Y-106550000D02*
X141670000Y-107640000D01*
D82*
X143085000Y-102955000D02*
X143300000Y-103170000D01*
D81*
X134380000Y-105562500D02*
X134470000Y-105472500D01*
D77*
X139009321Y-96039321D02*
X138700000Y-95730000D01*
D81*
X142960000Y-107490000D02*
X142950000Y-107500000D01*
X142980000Y-107470000D02*
X142960000Y-107490000D01*
X155890000Y-87480000D02*
X155470000Y-87480000D01*
X133870000Y-99280000D02*
X133800000Y-99210000D01*
D75*
X144660000Y-103610000D02*
X144690000Y-103580000D01*
D81*
X134380000Y-107260000D02*
X134380000Y-105562500D01*
D76*
X121130000Y-83800000D02*
X120300000Y-82970000D01*
D77*
X139192500Y-86262500D02*
X139192500Y-86850000D01*
D81*
X141680000Y-106730000D02*
X141680000Y-106160000D01*
X145540000Y-107470000D02*
X145900000Y-107110000D01*
D75*
X139009321Y-96049371D02*
X139009321Y-96039321D01*
X134370000Y-90310000D02*
X134370000Y-91790000D01*
X136110000Y-98250000D02*
X135720000Y-98250000D01*
D77*
X138640000Y-95670000D02*
X138640000Y-95030000D01*
D81*
X155890000Y-87480000D02*
X154647500Y-87480000D01*
D76*
X138740000Y-93760000D02*
X138740000Y-95020000D01*
D77*
X146491604Y-102565713D02*
X146435891Y-102510000D01*
D83*
X154357500Y-86452500D02*
X154700000Y-86110000D01*
D77*
X133087500Y-86890000D02*
X133087500Y-86872500D01*
D75*
X134370000Y-89810000D02*
X134370000Y-90310000D01*
D81*
X157020000Y-87480000D02*
X155890000Y-87480000D01*
D77*
X124750000Y-90222500D02*
X124662500Y-90310000D01*
D79*
X124750000Y-88217500D02*
X124750000Y-90222500D01*
D81*
X135680000Y-99280000D02*
X135600000Y-99280000D01*
D76*
X150660000Y-87350000D02*
X150560000Y-87250000D01*
D77*
X133835000Y-86142500D02*
X133087500Y-86890000D01*
X133087500Y-86890000D02*
X133087500Y-87182500D01*
D81*
X133740000Y-99195000D02*
X133740000Y-100905000D01*
D82*
X142800000Y-102670000D02*
X143085000Y-102955000D01*
D76*
X119010000Y-82970000D02*
X118460500Y-83519500D01*
D82*
X143085000Y-102955000D02*
X143500000Y-103370000D01*
D83*
X154357500Y-86452500D02*
X154357500Y-87190000D01*
D81*
X135600000Y-99280000D02*
X133870000Y-99280000D01*
D75*
X134400000Y-89810000D02*
X133320000Y-89810000D01*
D77*
X146435891Y-102510000D02*
X145560000Y-102510000D01*
D75*
X134600000Y-92020000D02*
X135232500Y-92020000D01*
D81*
X141670000Y-107640000D02*
X141420000Y-107890000D01*
D82*
X142511101Y-102381101D02*
X142800000Y-102670000D01*
D75*
X135480000Y-99160000D02*
X135600000Y-99280000D01*
D81*
X145900000Y-107110000D02*
X146860000Y-107110000D01*
D77*
X164100000Y-88360000D02*
X164100000Y-86560000D01*
X138830000Y-85900000D02*
X139192500Y-86262500D01*
D79*
X149015000Y-107560000D02*
X149030000Y-107575000D01*
X159340000Y-105900000D02*
X160300000Y-105900000D01*
D81*
X145880000Y-107820000D02*
X146050000Y-107990000D01*
X145880000Y-107350000D02*
X145880000Y-107820000D01*
D75*
X135720000Y-98250000D02*
X135640000Y-98330000D01*
X134370000Y-91790000D02*
X134600000Y-92020000D01*
D77*
X144700000Y-103370000D02*
X144700000Y-103770000D01*
D81*
X136180000Y-107890000D02*
X135550000Y-107260000D01*
X154647500Y-87480000D02*
X154357500Y-87190000D01*
X144870000Y-107470000D02*
X142980000Y-107470000D01*
D75*
X136454955Y-98594955D02*
X136110000Y-98250000D01*
D81*
X133800000Y-100920000D02*
X133650000Y-101070000D01*
D76*
X120300000Y-82970000D02*
X119010000Y-82970000D01*
D81*
X135550000Y-107260000D02*
X134380000Y-107260000D01*
D79*
X158760000Y-106430000D02*
X158930000Y-106430000D01*
X158520000Y-106430000D02*
X158760000Y-106430000D01*
X158930000Y-106430000D02*
X159250000Y-106110000D01*
D81*
X144870000Y-107470000D02*
X145540000Y-107470000D01*
D77*
X134060000Y-85900000D02*
X138830000Y-85900000D01*
D79*
X159250000Y-106110000D02*
X159250000Y-105910000D01*
D81*
X141420000Y-107890000D02*
X136180000Y-107890000D01*
D80*
X135480000Y-98490000D02*
X135480000Y-99160000D01*
D81*
X142640000Y-107480000D02*
X141770000Y-107480000D01*
D77*
X138700000Y-95730000D02*
X138640000Y-95670000D01*
D75*
X134370000Y-90310000D02*
X135077500Y-90310000D01*
D77*
X133835000Y-86125000D02*
X133835000Y-86142500D01*
D76*
X118460500Y-83519500D02*
X118460500Y-84495000D01*
D83*
X154700000Y-86110000D02*
X155230000Y-86110000D01*
D75*
X136180894Y-98877798D02*
X136180894Y-98870894D01*
D79*
X146870000Y-107560000D02*
X149015000Y-107560000D01*
D76*
X154377500Y-87390000D02*
X154377500Y-87232500D01*
X144780000Y-103530000D02*
X143400000Y-103530000D01*
X150560000Y-87250000D02*
X149590000Y-87250000D01*
D79*
X146870000Y-107230000D02*
X146850000Y-107250000D01*
D75*
X142456466Y-102326466D02*
X142456466Y-102324944D01*
D79*
X158760000Y-106430000D02*
X158935000Y-106430000D01*
D75*
G04 #@! TO.N,Net-(EC20-Pad1)*
X132592500Y-103347500D02*
X132490000Y-103450000D01*
D78*
X135550000Y-102470000D02*
X135550000Y-102060000D01*
D75*
X135550000Y-101510000D02*
X135550000Y-101700000D01*
X136010000Y-100800000D02*
X136010000Y-101050000D01*
X136010000Y-101050000D02*
X135865000Y-101195000D01*
D78*
X135550000Y-102060000D02*
X135550000Y-101510000D01*
D75*
X136463737Y-100345045D02*
X136463737Y-100346263D01*
D78*
X134470000Y-103347500D02*
X134672500Y-103347500D01*
D75*
X136463737Y-100346263D02*
X136010000Y-100800000D01*
D78*
X135550000Y-102060000D02*
X135550000Y-101700000D01*
D79*
X134470000Y-103347500D02*
X132592500Y-103347500D01*
D75*
X136742113Y-100627887D02*
X136240000Y-101130000D01*
X136240000Y-101130000D02*
X135930000Y-101130000D01*
D78*
X134672500Y-103347500D02*
X135550000Y-102470000D01*
D75*
X136746579Y-100627887D02*
X136742113Y-100627887D01*
X135865000Y-101195000D02*
X135550000Y-101510000D01*
X135930000Y-101130000D02*
X135865000Y-101195000D01*
G04 #@! TO.N,VDD_SPI*
X144719208Y-98877798D02*
X144719208Y-99049208D01*
X144719208Y-99049208D02*
X145770000Y-100100000D01*
D80*
G04 #@! TO.N,Net-(EC38-Pad1)*
X132340000Y-102460000D02*
X128594214Y-102460000D01*
D75*
X124242500Y-105320000D02*
X124212500Y-105350000D01*
D80*
X126240000Y-105320000D02*
X124242500Y-105320000D01*
X134552893Y-102167107D02*
X134813554Y-101906446D01*
X134960000Y-101552893D02*
X134960000Y-101487107D01*
X126240000Y-104814214D02*
X126240000Y-105320000D01*
X134550000Y-102167107D02*
X134552893Y-102167107D01*
D75*
X136177798Y-100062202D02*
X135490000Y-100750000D01*
D80*
X129394214Y-102460000D02*
X133835786Y-102460000D01*
D75*
X136180894Y-100062202D02*
X136177798Y-100062202D01*
D80*
X127887107Y-102752893D02*
X126532893Y-104107107D01*
X135106446Y-101133554D02*
X135490000Y-100750000D01*
X134959995Y-101552893D02*
G75*
G02*
X134813554Y-101906446I-499995J-7D01*
G01*
X128594214Y-102460010D02*
G75*
G03*
X127887107Y-102752893I-14J-999990D01*
G01*
X126240010Y-104814214D02*
G75*
G02*
X126532893Y-104107107I999990J14D01*
G01*
X134550003Y-102167110D02*
G75*
G02*
X133842893Y-102460000I-707103J707110D01*
G01*
X134960005Y-101487107D02*
G75*
G02*
X135106446Y-101133554I499995J7D01*
G01*
D77*
G04 #@! TO.N,CHIP_EN*
X118460500Y-89070500D02*
X118850000Y-89460000D01*
D75*
X136280000Y-103620000D02*
X136610000Y-103620000D01*
X137330000Y-105280000D02*
X137880000Y-105830000D01*
D79*
X136220000Y-101620000D02*
X136220000Y-103900000D01*
D75*
X136280000Y-103620000D02*
X136880000Y-103620000D01*
X136400000Y-101540000D02*
X136260000Y-101540000D01*
X137029422Y-100910730D02*
X137029270Y-100910730D01*
X137330000Y-104580000D02*
X137330000Y-104800000D01*
X137029270Y-100910730D02*
X136400000Y-101540000D01*
X137330000Y-104340000D02*
X137330000Y-104580000D01*
X136610000Y-103620000D02*
X137330000Y-104340000D01*
X137880000Y-105830000D02*
X138220000Y-105830000D01*
D79*
X138220000Y-105830000D02*
X138140000Y-105830000D01*
D75*
X137330000Y-104580000D02*
X137330000Y-105280000D01*
D77*
X118850000Y-89460000D02*
X118850000Y-90760000D01*
X118460500Y-88305000D02*
X118460500Y-89070500D01*
G04 #@! TO.N,ESP_GPIO0_BOOT-DTR*
X136830000Y-101670000D02*
X136830000Y-102080000D01*
X122837500Y-90310000D02*
X122837500Y-89962500D01*
X122768750Y-90430000D02*
X121731250Y-90430000D01*
D75*
X137312265Y-97746427D02*
X137312265Y-97742265D01*
D77*
X136830000Y-102080000D02*
X136720000Y-102190000D01*
X120595500Y-87035000D02*
X120545000Y-87035000D01*
D75*
X137312265Y-97742265D02*
X136380000Y-96810000D01*
D77*
X121800000Y-90310000D02*
X121690000Y-90420000D01*
D75*
X136380000Y-96810000D02*
X135990000Y-96810000D01*
D77*
X122908750Y-89851250D02*
X123811250Y-88948750D01*
X137306427Y-101193573D02*
X136830000Y-101670000D01*
X118745500Y-87035000D02*
X120830000Y-87035000D01*
D75*
X137312265Y-101193573D02*
X137306427Y-101193573D01*
G04 #@! TO.N,GPIO8_I2C_SDA*
X156280000Y-107760000D02*
X156280000Y-106090000D01*
D79*
X156280000Y-108050000D02*
X156280000Y-107760000D01*
D75*
X137440000Y-90020000D02*
X137440000Y-89740000D01*
D77*
X137367500Y-86900000D02*
X137370000Y-86900000D01*
D75*
X137130000Y-90330000D02*
X137440000Y-90020000D01*
X139563686Y-103456314D02*
X139205000Y-103815000D01*
D77*
X137255000Y-86885000D02*
X138045000Y-87675000D01*
D75*
X139205000Y-103815000D02*
X139050000Y-103970000D01*
X149030000Y-103960000D02*
X150870000Y-103960000D01*
X150870000Y-103960000D02*
X151870000Y-104960000D01*
X137000000Y-90330000D02*
X137130000Y-90330000D01*
D79*
X156720000Y-108490000D02*
X156280000Y-108050000D01*
D75*
X139575006Y-103456314D02*
X139563686Y-103456314D01*
X139050000Y-103970000D02*
X139050000Y-104730000D01*
D79*
X156995000Y-108490000D02*
X156720000Y-108490000D01*
D75*
X151870000Y-104960000D02*
X151870000Y-105810000D01*
D77*
G04 #@! TO.N,USB_D-*
X147650000Y-102600000D02*
X147050000Y-102000000D01*
X164040000Y-102270000D02*
X164040000Y-95450000D01*
X157660000Y-103785500D02*
X157694500Y-103820000D01*
X163860000Y-95270000D02*
X163860000Y-93825000D01*
X164040000Y-95450000D02*
X163860000Y-95270000D01*
X146170000Y-102000000D02*
X146020500Y-102149500D01*
X157694500Y-103820000D02*
X162490000Y-103820000D01*
X146020500Y-102149500D02*
X145109500Y-102149500D01*
X147050000Y-102000000D02*
X146170000Y-102000000D01*
X145109500Y-102149500D02*
X143640365Y-100680365D01*
X162490000Y-103820000D02*
X164040000Y-102270000D01*
D75*
G04 #@! TO.N,SPIHD*
X144450000Y-98583635D02*
X144883635Y-98150000D01*
X145150000Y-98150000D02*
X145420000Y-98420000D01*
X144883635Y-98150000D02*
X145150000Y-98150000D01*
D77*
G04 #@! TO.N,SPIWP*
X144740000Y-97730000D02*
X145300000Y-97730000D01*
X144163523Y-98306477D02*
X144740000Y-97730000D01*
D75*
G04 #@! TO.N,SPICS0*
X143870680Y-98029270D02*
X143890730Y-98029270D01*
X145145000Y-97195000D02*
X144725000Y-97195000D01*
X143890730Y-98029270D02*
X144725000Y-97195000D01*
G04 #@! TO.N,SPICLK*
X143587837Y-97746427D02*
X143593573Y-97746427D01*
X144680000Y-96660000D02*
X145130000Y-96210000D01*
X143593573Y-97746427D02*
X144680000Y-96660000D01*
D77*
G04 #@! TO.N,SPIQ*
X144364474Y-96425525D02*
X143135525Y-97654475D01*
D75*
G04 #@! TO.N,SPID*
X143022152Y-97180742D02*
X143022152Y-97177848D01*
D77*
X143959999Y-96239999D02*
X142996050Y-97203949D01*
D75*
G04 #@! TO.N,USB_D+*
X144153523Y-100627887D02*
X144157887Y-100627887D01*
D77*
X146015130Y-101650000D02*
X145865629Y-101799500D01*
X164665000Y-95225000D02*
X164665000Y-93830000D01*
X164440000Y-102470000D02*
X164440000Y-95450000D01*
X162600000Y-104310000D02*
X164440000Y-102470000D01*
X157336750Y-104310000D02*
X162600000Y-104310000D01*
D75*
X144153523Y-100627887D02*
X144153523Y-100633523D01*
D77*
X147848218Y-101650000D02*
X146015130Y-101650000D01*
X156592250Y-103565500D02*
X157336750Y-104310000D01*
X145329500Y-101799500D02*
X143936761Y-100406761D01*
X145865629Y-101799500D02*
X145329500Y-101799500D01*
X164440000Y-95450000D02*
X164665000Y-95225000D01*
X148190500Y-101992282D02*
X147848218Y-101650000D01*
D75*
G04 #@! TO.N,unconnected-(ESP32S3-Pad6)*
X137595107Y-101476415D02*
X137593585Y-101476415D01*
D77*
G04 #@! TO.N,unconnected-(ESP32S3-Pad37)*
X142456466Y-96615056D02*
X142456466Y-96603534D01*
X142456466Y-96615056D02*
X142484944Y-96615056D01*
D75*
G04 #@! TO.N,TXD0*
X126695000Y-91900000D02*
X126210000Y-91415000D01*
X126210000Y-91415000D02*
X126210000Y-90663750D01*
G04 #@! TO.N,RXD0*
X137877950Y-97180742D02*
X137870742Y-97180742D01*
X137360000Y-96670000D02*
X137360000Y-94500000D01*
X137360000Y-94500000D02*
X137350000Y-94490000D01*
X137870742Y-97180742D02*
X137360000Y-96670000D01*
G04 #@! TO.N,unconnected-(ESP32S3-Pad47)*
X138170000Y-95780000D02*
X138170000Y-95450000D01*
X138726478Y-96332214D02*
X138726478Y-96326478D01*
X138722214Y-96332214D02*
X138170000Y-95780000D01*
X138726478Y-96332214D02*
X138722214Y-96332214D01*
D77*
G04 #@! TO.N,unconnected-(ESP32S3-Pad42)*
X141042253Y-95200843D02*
X141042253Y-95182253D01*
X141042253Y-95182253D02*
X140570000Y-94710000D01*
D75*
G04 #@! TO.N,unconnected-(ESP32S3-Pad9)*
X138443636Y-102324944D02*
X138443636Y-102326364D01*
X138425056Y-102324944D02*
X137920000Y-102830000D01*
X138443636Y-102324944D02*
X138425056Y-102324944D01*
D77*
G04 #@! TO.N,GPIO9_I2C_SCL*
X133530000Y-87900000D02*
X132240000Y-87900000D01*
X132240000Y-87900000D02*
X131940000Y-87600000D01*
X136480000Y-80950000D02*
X136480000Y-80060000D01*
D75*
X136922500Y-90830000D02*
X137700000Y-90830000D01*
D79*
X159150000Y-108470000D02*
X158985000Y-108635000D01*
D75*
X139857849Y-103739157D02*
X139857849Y-104197849D01*
X139857849Y-104197849D02*
X140080000Y-104420000D01*
D77*
X135520000Y-87900000D02*
X135490000Y-87900000D01*
X135490000Y-87900000D02*
X133530000Y-87900000D01*
X131940000Y-85490000D02*
X133225000Y-84205000D01*
X131940000Y-87600000D02*
X131940000Y-85490000D01*
X133530000Y-87900000D02*
X133010000Y-87900000D01*
D79*
X159150000Y-107730000D02*
X159150000Y-108470000D01*
D77*
X135800000Y-87620000D02*
X135520000Y-87900000D01*
D79*
X158985000Y-108635000D02*
X158510000Y-108635000D01*
D77*
X133225000Y-84205000D02*
X136480000Y-80950000D01*
X133225000Y-84205000D02*
X133630000Y-83800000D01*
X134912500Y-86890000D02*
X135200000Y-86890000D01*
D75*
X149030000Y-105035000D02*
X150465000Y-105035000D01*
D77*
X135200000Y-86890000D02*
X135970000Y-87660000D01*
D75*
G04 #@! TO.N,Net-(EC61-Pad1)*
X136746579Y-98312113D02*
X136284466Y-97850000D01*
X133020000Y-96300000D02*
X133020000Y-95412500D01*
D78*
X133490000Y-97170000D02*
X133510000Y-97170000D01*
D75*
X133355000Y-97350000D02*
X133355000Y-96635000D01*
X136284466Y-97850000D02*
X134770000Y-97850000D01*
X133355000Y-96635000D02*
X133020000Y-96300000D01*
X134270000Y-97350000D02*
X133355000Y-97350000D01*
X134770000Y-97850000D02*
X134270000Y-97350000D01*
G04 #@! TO.N,Net-(ER2-Pad2)*
X128480000Y-91386250D02*
X128480000Y-90713750D01*
X137770000Y-96510000D02*
X137770000Y-95980000D01*
X137770000Y-95980000D02*
X137770000Y-95080000D01*
X137975000Y-94005000D02*
X137480000Y-93510000D01*
X138160793Y-96897899D02*
X138157899Y-96897899D01*
X138157899Y-96897899D02*
X137770000Y-96510000D01*
X137770000Y-95080000D02*
X137975000Y-94875000D01*
X137770000Y-95980000D02*
X137770000Y-95120000D01*
X137975000Y-94875000D02*
X137975000Y-94005000D01*
D77*
G04 #@! TO.N,unconnected-(ESP32S3-Pad36)*
X142506050Y-97133949D02*
X143533949Y-96106050D01*
X142739309Y-96897899D02*
X142762101Y-96897899D01*
G04 #@! TO.N,SPICS1*
X145901516Y-100750000D02*
X145407006Y-100750000D01*
X144844629Y-100194629D02*
X145035000Y-100385000D01*
X145407006Y-100750000D02*
X144719208Y-100062202D01*
G04 #@! TO.N,unconnected-(ESP32S3-Pad24)*
X143374995Y-100984995D02*
X144000000Y-101610000D01*
X143587837Y-101193573D02*
X143587837Y-101207837D01*
G04 #@! TO.N,unconnected-(ESP32S3-Pad23)*
X143304995Y-101476415D02*
X143304995Y-101484995D01*
G04 #@! TO.N,IO35_LED_G*
X143830000Y-93540000D02*
X144220000Y-93540000D01*
D75*
X141607938Y-95766528D02*
X141607938Y-95762062D01*
D77*
X141607938Y-95762062D02*
X143830000Y-93540000D01*
D80*
G04 #@! TO.N,Net-(AL1-Pad2)*
X156515000Y-90295000D02*
X156515000Y-89525000D01*
D83*
X156530000Y-90630000D02*
X156525000Y-90635000D01*
D81*
X159820000Y-88120000D02*
X158890000Y-89050000D01*
D80*
X156930000Y-89110000D02*
X158080000Y-89110000D01*
D81*
X159820000Y-87400000D02*
X159820000Y-88120000D01*
X158890000Y-89050000D02*
X158140000Y-89050000D01*
D80*
X158080000Y-89110000D02*
X158140000Y-89050000D01*
X156515000Y-89525000D02*
X156930000Y-89110000D01*
X159820000Y-88290000D02*
X159820000Y-87480000D01*
D83*
G04 #@! TO.N,Net-(AR1-Pad2)*
X161920000Y-90410000D02*
X162180000Y-90670000D01*
D77*
X162260000Y-90595000D02*
X162260000Y-88365000D01*
D83*
X158484998Y-90410000D02*
X161920000Y-90410000D01*
D77*
G04 #@! TO.N,IO34_LED_B*
X141910629Y-96049371D02*
X144020000Y-93940000D01*
X145090000Y-93530000D02*
X145090000Y-92760000D01*
X144680000Y-93940000D02*
X144855000Y-93765000D01*
X144855000Y-93765000D02*
X145090000Y-93530000D01*
X144020000Y-93940000D02*
X144680000Y-93940000D01*
X145090000Y-92760000D02*
X144970000Y-92640000D01*
D75*
X141890781Y-96049371D02*
X141910629Y-96049371D01*
G04 #@! TO.N,IO36_LED_R*
X141325096Y-95483686D02*
X141326314Y-95483686D01*
X141500000Y-86950000D02*
X141500000Y-87930000D01*
D77*
X141267938Y-95542062D02*
X143750000Y-93060000D01*
X143750000Y-93060000D02*
X143750000Y-92740000D01*
D75*
G04 #@! TO.N,GPIO06_EXT_PLUG2*
X125165000Y-93595000D02*
X124575000Y-93595000D01*
X139139321Y-102760679D02*
X138180000Y-103720000D01*
X128145000Y-99948750D02*
X128145000Y-94211250D01*
X139009321Y-102890629D02*
X139009321Y-102890679D01*
X125730000Y-93030000D02*
X125165000Y-93595000D01*
X127820000Y-93030000D02*
X125730000Y-93030000D01*
X128422500Y-93632500D02*
X127820000Y-93030000D01*
X128145000Y-94211250D02*
X128430000Y-93926250D01*
X128430000Y-100233750D02*
X128145000Y-99948750D01*
X128422500Y-94050000D02*
X128422500Y-93632500D01*
G04 #@! TO.N,unconnected-(ESP32S3-Pad17)*
X141607938Y-103173472D02*
X141607938Y-103177938D01*
D77*
G04 #@! TO.N,GPIO38_IMU_CS*
X139857849Y-95200843D02*
X139770000Y-95112994D01*
X139740000Y-95106497D02*
X139740000Y-94533503D01*
D75*
X137280000Y-91330000D02*
X137450000Y-91500000D01*
D77*
X139857849Y-95200843D02*
X139650000Y-94992994D01*
D75*
X137450000Y-91500000D02*
X137450000Y-91930000D01*
X137070000Y-91330000D02*
X137280000Y-91330000D01*
D77*
G04 #@! TO.N,GPIO2_PLUG_PWR_3V3*
X122450000Y-85060000D02*
X121990000Y-85520000D01*
X137565000Y-102075000D02*
X137511786Y-102128213D01*
X137310000Y-102330000D02*
X137310000Y-102760000D01*
D75*
X137877950Y-101759258D02*
X137877950Y-101772050D01*
D77*
X127570000Y-90020000D02*
X126530000Y-88980000D01*
X122450000Y-84360000D02*
X122450000Y-85060000D01*
X128910000Y-90020000D02*
X127570000Y-90020000D01*
X129370000Y-90480000D02*
X128910000Y-90020000D01*
X137565000Y-102075000D02*
X137310000Y-102330000D01*
X137988213Y-101651786D02*
X137565000Y-102075000D01*
X129370000Y-96840000D02*
X129370000Y-90480000D01*
D75*
G04 #@! TO.N,Net-(EXP_R1-Pad2)*
X126597500Y-93760000D02*
X126560000Y-93760000D01*
X126560000Y-93760000D02*
X125455000Y-94865000D01*
X125455000Y-94865000D02*
X124575000Y-94865000D01*
G04 #@! TO.N,Net-(EXP_R2-Pad2)*
X126597500Y-95670000D02*
X126665000Y-95737500D01*
X124750000Y-95960000D02*
X124575000Y-96135000D01*
X126665000Y-95737500D02*
X126665000Y-95870000D01*
X126575000Y-95960000D02*
X124750000Y-95960000D01*
X126665000Y-95870000D02*
X126575000Y-95960000D01*
G04 #@! TO.N,Net-(EXP_R3-Pad2)*
X126547500Y-97590000D02*
X124760000Y-97590000D01*
X124760000Y-97590000D02*
X124575000Y-97405000D01*
G04 #@! TO.N,Net-(EXP_R4-Pad2)*
X125040000Y-99990000D02*
X124575000Y-99525000D01*
X125720000Y-99990000D02*
X126320000Y-99990000D01*
X124575000Y-99525000D02*
X124575000Y-98675000D01*
X125720000Y-99990000D02*
X125040000Y-99990000D01*
D77*
G04 #@! TO.N,3V3_PLUG*
X124027500Y-86342500D02*
X123800000Y-86342500D01*
D79*
X125630000Y-85680000D02*
X125630000Y-84130000D01*
D77*
X128730000Y-86722500D02*
X128730000Y-86450000D01*
D79*
X123920000Y-86342500D02*
X124967500Y-86342500D01*
X126210000Y-83550000D02*
X133240000Y-83550000D01*
X140310000Y-76690000D02*
X140310000Y-77890000D01*
X135500000Y-77430000D02*
X136750000Y-76180000D01*
X136750000Y-76180000D02*
X139800000Y-76180000D01*
X133240000Y-83550000D02*
X135500000Y-81290000D01*
X135500000Y-81290000D02*
X135500000Y-77430000D01*
D77*
X126960000Y-84680000D02*
X125690000Y-84680000D01*
X128730000Y-86450000D02*
X126960000Y-84680000D01*
D79*
X139800000Y-76180000D02*
X140310000Y-76690000D01*
X124967500Y-86342500D02*
X125630000Y-85680000D01*
X125630000Y-84130000D02*
X126210000Y-83550000D01*
D75*
G04 #@! TO.N,ADC_OUT*
X121710000Y-86580000D02*
X121310000Y-86180000D01*
X143350000Y-75580000D02*
X144440000Y-75580000D01*
X121750000Y-83700000D02*
X122325000Y-83125000D01*
X136570000Y-75580000D02*
X143350000Y-75580000D01*
X121710000Y-88310000D02*
X121710000Y-86580000D01*
X120780000Y-89240000D02*
X121710000Y-88310000D01*
X121310000Y-86180000D02*
X121310000Y-84740000D01*
X121750000Y-84300000D02*
X121750000Y-83700000D01*
X144440000Y-75580000D02*
X145270000Y-76410000D01*
X145310000Y-76650000D02*
X145310000Y-77890000D01*
X145270000Y-76610000D02*
X145310000Y-76650000D01*
X122325000Y-83125000D02*
X132985000Y-83125000D01*
X122215000Y-93595000D02*
X120780000Y-92160000D01*
X123305000Y-93595000D02*
X122215000Y-93595000D01*
X143350000Y-75580000D02*
X153370000Y-75580000D01*
X121310000Y-84740000D02*
X121750000Y-84300000D01*
X120780000Y-92160000D02*
X120780000Y-89240000D01*
X132985000Y-83125000D02*
X134890000Y-81220000D01*
X145270000Y-76410000D02*
X145270000Y-76610000D01*
X123305000Y-92325000D02*
X123305000Y-93595000D01*
X134890000Y-81220000D02*
X134890000Y-77260000D01*
X153370000Y-75580000D02*
X154350000Y-76560000D01*
X134890000Y-77260000D02*
X136570000Y-75580000D01*
X154350000Y-76560000D02*
X154350000Y-77720000D01*
D77*
G04 #@! TO.N,Net-(Q5-Pad1)*
X122980000Y-88087500D02*
X122980000Y-85700000D01*
X122980000Y-85700000D02*
X124320000Y-84360000D01*
X124320000Y-84360000D02*
X124450000Y-84360000D01*
X122850000Y-88217500D02*
X122980000Y-88087500D01*
D80*
G04 #@! TO.N,unconnected-(J20-Pad3)*
X119230000Y-107180000D02*
X119230000Y-107800000D01*
D77*
G04 #@! TO.N,LCD2_CS_IO21*
X145374500Y-101274500D02*
X144445045Y-100345045D01*
X145648166Y-101274500D02*
X145374500Y-101274500D01*
X144445045Y-100345045D02*
X144436365Y-100345045D01*
G04 #@! TO.N,LCD2_LED_IO10*
X141050390Y-103710390D02*
X141960000Y-104620000D01*
X141960000Y-104620000D02*
X142500000Y-104620000D01*
G04 #@! TO.N,LCD2_DC_IO11*
X141790000Y-103910000D02*
X141930000Y-104050000D01*
X141085195Y-103205195D02*
X141790000Y-103910000D01*
X141930000Y-104050000D02*
X142900000Y-104050000D01*
X142900000Y-104050000D02*
X143330000Y-104480000D01*
X141325096Y-103456314D02*
X141325096Y-103465096D01*
G04 #@! TO.N,LCD2_RST_IO13*
X141890781Y-102890629D02*
X141890781Y-102910781D01*
X147890000Y-95740000D02*
X147890000Y-96390000D01*
X147890000Y-94890000D02*
X147890000Y-95740000D01*
X148280000Y-94500000D02*
X147890000Y-94890000D01*
X141805195Y-102805195D02*
X142510000Y-103510000D01*
X147890000Y-95740000D02*
X147890000Y-97970000D01*
D76*
G04 #@! TO.N,VIN_BATF*
X144185000Y-113098000D02*
X144185000Y-111955000D01*
X134490000Y-110960000D02*
X132340000Y-110960000D01*
X142440000Y-110210000D02*
X135240000Y-110210000D01*
X131420000Y-117950000D02*
X131420000Y-113022500D01*
X132340000Y-112102500D02*
X132340000Y-110960000D01*
X131420000Y-113022500D02*
X132340000Y-112102500D01*
X144185000Y-111955000D02*
X142440000Y-110210000D01*
X135240000Y-110210000D02*
X134490000Y-110960000D01*
G04 #@! TO.N,VIN_BAT*
X146270000Y-113770000D02*
X146180000Y-113680000D01*
D77*
X146127500Y-119770000D02*
X146127500Y-115962500D01*
X146127500Y-115962500D02*
X146270000Y-115820000D01*
D76*
X136400000Y-113740000D02*
X136420000Y-113720000D01*
X146270000Y-115820000D02*
X146270000Y-113770000D01*
X134627500Y-113740000D02*
X136260000Y-113740000D01*
X136260000Y-113740000D02*
X136400000Y-113740000D01*
G04 #@! TO.N,Net-(TPR3-Pad2)*
X141310000Y-120682500D02*
X141327500Y-120700000D01*
X141310000Y-119730000D02*
X141310000Y-120682500D01*
X141645000Y-118522000D02*
X141645000Y-119395000D01*
X141645000Y-119395000D02*
X141310000Y-119730000D01*
G04 #@! TO.N,Net-(PWDSWT1-Pad1)*
X148170000Y-115820000D02*
X148170000Y-113695000D01*
X148170000Y-113695000D02*
X148200000Y-113665000D01*
D77*
G04 #@! TO.N,GPIO33_BAT_SENSE*
X142177786Y-96332214D02*
X143070000Y-95440000D01*
X157260000Y-102960000D02*
X162350000Y-102960000D01*
X145220000Y-95440000D02*
X146550000Y-96770000D01*
X143070000Y-95440000D02*
X145220000Y-95440000D01*
X146550000Y-98800000D02*
X149120000Y-101370000D01*
X147952500Y-119770000D02*
X148070000Y-119770000D01*
X146550000Y-96770000D02*
X146550000Y-98800000D01*
X148070000Y-119770000D02*
X148912500Y-118927500D01*
X149120000Y-101370000D02*
X153520000Y-101370000D01*
X142173624Y-96332214D02*
X142177786Y-96332214D01*
X142173624Y-96332214D02*
X142187786Y-96332214D01*
X148912500Y-118927500D02*
X150230000Y-118927500D01*
X162350000Y-102960000D02*
X162630000Y-102680000D01*
D76*
G04 #@! TO.N,VIN*
X158420000Y-94570000D02*
X158420000Y-93680000D01*
X158987500Y-95470000D02*
X158987500Y-95137500D01*
X158987500Y-95470000D02*
X158900000Y-95557500D01*
X158430000Y-93510000D02*
X158430000Y-94010000D01*
X158900000Y-96580000D02*
X157790000Y-97690000D01*
X158115000Y-98225000D02*
X158140000Y-98200000D01*
X158400000Y-94270000D02*
X156540000Y-94270000D01*
X157790000Y-98615000D02*
X158045000Y-98870000D01*
X157790000Y-97690000D02*
X157790000Y-98615000D01*
X158987500Y-95137500D02*
X158420000Y-94570000D01*
X158900000Y-95557500D02*
X158900000Y-96580000D01*
X147220000Y-110000000D02*
X147220000Y-117695000D01*
X158045000Y-98870000D02*
X160125000Y-98870000D01*
G04 #@! TO.N,USB_5V0*
X140375000Y-111395000D02*
X140350000Y-111370000D01*
X144387000Y-118320000D02*
X144185000Y-118522000D01*
X163060000Y-96180000D02*
X163060000Y-98650000D01*
D77*
X148200000Y-111170000D02*
X148220000Y-111150000D01*
D76*
X144770000Y-118320000D02*
X144387000Y-118320000D01*
X145210000Y-117880000D02*
X144770000Y-118320000D01*
X163060000Y-96180000D02*
X163060000Y-93825000D01*
X160212500Y-101497500D02*
X158450000Y-101497500D01*
X163060000Y-98650000D02*
X162345000Y-99365000D01*
D77*
X148200000Y-112015000D02*
X148200000Y-111170000D01*
D76*
X140375000Y-113098000D02*
X140375000Y-111395000D01*
X162345000Y-99365000D02*
X160212500Y-101497500D01*
X163060000Y-97990000D02*
X163060000Y-96180000D01*
G04 #@! TD*
G04 #@! TA.AperFunction,Conductor*
G04 #@! TO.N,GND*
G36*
X129988211Y-101592262D02*
G01*
X130024470Y-101641547D01*
X130029500Y-101672701D01*
X130029500Y-101859748D01*
X130030448Y-101864512D01*
X130037931Y-101902131D01*
X130041133Y-101918231D01*
X130046552Y-101926341D01*
X130059352Y-101945497D01*
X130075962Y-102004385D01*
X130054786Y-102061789D01*
X130003912Y-102095783D01*
X129977038Y-102099500D01*
X128630383Y-102099500D01*
X128614894Y-102098281D01*
X128613165Y-102098007D01*
X128594219Y-102095006D01*
X128581617Y-102097002D01*
X128572624Y-102098006D01*
X128494944Y-102103097D01*
X128419488Y-102108041D01*
X128419484Y-102108042D01*
X128416257Y-102108253D01*
X128413088Y-102108883D01*
X128413083Y-102108884D01*
X128348902Y-102121650D01*
X128241340Y-102143044D01*
X128238278Y-102144084D01*
X128238272Y-102144085D01*
X128090072Y-102194390D01*
X128072461Y-102200368D01*
X128069555Y-102201801D01*
X127915414Y-102277812D01*
X127915409Y-102277815D01*
X127912509Y-102279245D01*
X127764221Y-102378326D01*
X127682664Y-102449848D01*
X127678008Y-102453363D01*
X127676951Y-102453871D01*
X127672897Y-102457279D01*
X127665960Y-102464216D01*
X127661231Y-102468644D01*
X127646332Y-102481710D01*
X127639252Y-102487367D01*
X127629020Y-102494801D01*
X127624442Y-102501102D01*
X127624441Y-102501103D01*
X127616715Y-102511737D01*
X127606627Y-102523549D01*
X126303549Y-103826627D01*
X126291737Y-103836715D01*
X126274801Y-103849020D01*
X126267369Y-103859250D01*
X126261715Y-103866325D01*
X126160466Y-103981779D01*
X126160455Y-103981793D01*
X126158326Y-103984221D01*
X126156531Y-103986908D01*
X126156526Y-103986914D01*
X126094600Y-104079595D01*
X126059245Y-104132509D01*
X126057815Y-104135409D01*
X126057812Y-104135414D01*
X126004650Y-104243220D01*
X125980368Y-104292461D01*
X125978575Y-104297744D01*
X125943961Y-104399719D01*
X125923044Y-104461340D01*
X125888253Y-104636257D01*
X125887324Y-104650440D01*
X125881311Y-104742195D01*
X125858639Y-104799024D01*
X125852527Y-104805725D01*
X125841472Y-104816780D01*
X125837937Y-104823717D01*
X125837936Y-104823719D01*
X125796295Y-104905445D01*
X125753030Y-104948710D01*
X125708085Y-104959500D01*
X124916978Y-104959500D01*
X124858787Y-104940593D01*
X124828769Y-104905445D01*
X124778197Y-104806193D01*
X124778194Y-104806189D01*
X124774658Y-104799249D01*
X124680751Y-104705342D01*
X124673814Y-104701807D01*
X124673812Y-104701806D01*
X124569360Y-104648585D01*
X124569359Y-104648585D01*
X124562420Y-104645049D01*
X124554727Y-104643830D01*
X124554725Y-104643830D01*
X124468092Y-104630109D01*
X124468090Y-104630109D01*
X124464246Y-104629500D01*
X123960754Y-104629500D01*
X123956910Y-104630109D01*
X123956908Y-104630109D01*
X123870275Y-104643830D01*
X123870273Y-104643830D01*
X123862580Y-104645049D01*
X123855641Y-104648585D01*
X123855640Y-104648585D01*
X123751188Y-104701806D01*
X123751186Y-104701807D01*
X123744249Y-104705342D01*
X123650342Y-104799249D01*
X123646807Y-104806186D01*
X123646806Y-104806188D01*
X123616166Y-104866322D01*
X123590049Y-104917580D01*
X123588830Y-104925273D01*
X123588830Y-104925275D01*
X123582296Y-104966532D01*
X123574500Y-105015754D01*
X123574500Y-105844246D01*
X123575109Y-105848090D01*
X123575109Y-105848092D01*
X123587171Y-105924246D01*
X123590049Y-105942420D01*
X123650342Y-106060751D01*
X123744249Y-106154658D01*
X123751186Y-106158193D01*
X123751188Y-106158194D01*
X123855640Y-106211415D01*
X123862580Y-106214951D01*
X123870273Y-106216170D01*
X123870275Y-106216170D01*
X123956908Y-106229891D01*
X123956910Y-106229891D01*
X123960754Y-106230500D01*
X124464246Y-106230500D01*
X124468090Y-106229891D01*
X124468092Y-106229891D01*
X124554725Y-106216170D01*
X124554727Y-106216170D01*
X124562420Y-106214951D01*
X124569360Y-106211415D01*
X124673812Y-106158194D01*
X124673814Y-106158193D01*
X124680751Y-106154658D01*
X124774658Y-106060751D01*
X124834951Y-105942420D01*
X124837830Y-105924246D01*
X124849891Y-105848092D01*
X124849891Y-105848090D01*
X124850500Y-105844246D01*
X124850500Y-105779500D01*
X124869407Y-105721309D01*
X124918907Y-105685345D01*
X124949500Y-105680500D01*
X125708085Y-105680500D01*
X125766276Y-105699407D01*
X125796295Y-105734555D01*
X125830440Y-105801568D01*
X125841472Y-105823220D01*
X125936780Y-105918528D01*
X125943717Y-105922063D01*
X125943719Y-105922064D01*
X125997291Y-105949360D01*
X126056874Y-105979719D01*
X126064568Y-105980938D01*
X126064569Y-105980938D01*
X126152666Y-105994891D01*
X126152668Y-105994891D01*
X126156512Y-105995500D01*
X126673488Y-105995500D01*
X126677332Y-105994891D01*
X126677334Y-105994891D01*
X126765431Y-105980938D01*
X126765432Y-105980938D01*
X126773126Y-105979719D01*
X126832709Y-105949360D01*
X126886281Y-105922064D01*
X126886283Y-105922063D01*
X126893220Y-105918528D01*
X126988528Y-105823220D01*
X126999561Y-105801568D01*
X127046183Y-105710066D01*
X127046183Y-105710065D01*
X127049719Y-105703126D01*
X127056560Y-105659937D01*
X127064891Y-105607334D01*
X127064891Y-105607332D01*
X127065500Y-105603488D01*
X127065500Y-105036512D01*
X127061603Y-105011908D01*
X127050938Y-104944569D01*
X127050938Y-104944568D01*
X127049719Y-104936874D01*
X127039199Y-104916227D01*
X126992064Y-104823719D01*
X126992063Y-104823717D01*
X126988528Y-104816780D01*
X126893220Y-104721472D01*
X126886283Y-104717937D01*
X126886281Y-104717936D01*
X126780066Y-104663817D01*
X126780065Y-104663817D01*
X126773126Y-104660281D01*
X126765432Y-104659062D01*
X126765431Y-104659062D01*
X126751515Y-104656858D01*
X126696998Y-104629080D01*
X126669222Y-104574563D01*
X126679693Y-104512409D01*
X126703686Y-104467521D01*
X126714467Y-104451385D01*
X126764560Y-104390345D01*
X126768600Y-104385422D01*
X126779260Y-104375372D01*
X126779171Y-104375283D01*
X126784677Y-104369777D01*
X126790985Y-104365194D01*
X126803291Y-104348256D01*
X126813374Y-104336450D01*
X128116450Y-103033374D01*
X128128256Y-103023291D01*
X128145194Y-103010985D01*
X128149777Y-103004677D01*
X128155283Y-102999171D01*
X128155372Y-102999260D01*
X128165423Y-102988599D01*
X128231385Y-102934467D01*
X128247522Y-102923685D01*
X128340886Y-102873782D01*
X128358816Y-102866356D01*
X128460124Y-102835626D01*
X128479158Y-102831840D01*
X128486932Y-102831074D01*
X128564110Y-102823474D01*
X128578721Y-102823905D01*
X128578721Y-102823775D01*
X128586513Y-102823775D01*
X128594209Y-102824994D01*
X128601906Y-102823775D01*
X128614889Y-102821719D01*
X128630374Y-102820500D01*
X130014079Y-102820500D01*
X130072270Y-102839407D01*
X130108234Y-102888907D01*
X130108234Y-102950093D01*
X130087345Y-102984180D01*
X130085448Y-102985448D01*
X130041133Y-103051769D01*
X130029500Y-103110252D01*
X130029500Y-108304318D01*
X130012815Y-108359320D01*
X129991133Y-108391769D01*
X129979500Y-108450252D01*
X129979500Y-108889748D01*
X129991133Y-108948231D01*
X130035448Y-109014552D01*
X130101769Y-109058867D01*
X130111332Y-109060769D01*
X130111334Y-109060770D01*
X130134005Y-109065279D01*
X130160252Y-109070500D01*
X130398671Y-109070500D01*
X130456862Y-109089407D01*
X130492826Y-109138907D01*
X130497670Y-109169140D01*
X130499646Y-109712569D01*
X130480951Y-109770828D01*
X130431582Y-109806972D01*
X130402588Y-109811910D01*
X130316215Y-109813604D01*
X129480000Y-109830000D01*
X129479419Y-112359236D01*
X129479347Y-112670367D01*
X129460426Y-112728553D01*
X129410918Y-112764506D01*
X129380176Y-112769344D01*
X121525385Y-112755707D01*
X121474378Y-112741451D01*
X121451473Y-112727618D01*
X121424963Y-112711607D01*
X121424956Y-112711603D01*
X121422876Y-112710347D01*
X121420672Y-112709297D01*
X121420668Y-112709295D01*
X121208895Y-112608422D01*
X121109541Y-112561097D01*
X121107251Y-112560272D01*
X121107246Y-112560270D01*
X120785305Y-112444303D01*
X120785301Y-112444302D01*
X120783014Y-112443478D01*
X120446478Y-112358636D01*
X120103216Y-112307399D01*
X120100784Y-112307279D01*
X120100776Y-112307278D01*
X119765375Y-112290701D01*
X119761915Y-112290417D01*
X119757291Y-112289345D01*
X119756573Y-112289344D01*
X119744875Y-112292013D01*
X119722837Y-112294491D01*
X119269690Y-112294372D01*
X116729057Y-112293706D01*
X116719630Y-112292397D01*
X116708765Y-112291840D01*
X116698038Y-112288808D01*
X116687057Y-112290728D01*
X116675921Y-112290157D01*
X116675970Y-112289207D01*
X116666054Y-112289340D01*
X116552888Y-112272748D01*
X116534437Y-112268199D01*
X116405625Y-112222948D01*
X116388383Y-112214958D01*
X116329484Y-112180442D01*
X116270584Y-112145925D01*
X116255187Y-112134788D01*
X116152756Y-112044526D01*
X116139769Y-112030651D01*
X116056463Y-111922467D01*
X116046368Y-111906368D01*
X115985272Y-111784273D01*
X115978438Y-111766540D01*
X115941797Y-111635018D01*
X115938477Y-111616307D01*
X115929440Y-111502812D01*
X115930277Y-111493119D01*
X115929154Y-111493098D01*
X115929359Y-111481953D01*
X115932038Y-111471131D01*
X115928985Y-111456510D01*
X115926895Y-111436347D01*
X115921746Y-104180000D01*
X118504318Y-104180000D01*
X118524956Y-104336762D01*
X118585464Y-104482841D01*
X118681718Y-104608282D01*
X118807159Y-104704536D01*
X118813154Y-104707019D01*
X118840687Y-104718424D01*
X118887213Y-104758161D01*
X118891592Y-104766103D01*
X118900702Y-104784577D01*
X118900706Y-104784583D01*
X118902139Y-104787490D01*
X118903943Y-104790190D01*
X118993118Y-104923653D01*
X119001219Y-104935778D01*
X119071354Y-105015754D01*
X119072743Y-105017338D01*
X119076257Y-105021994D01*
X119076764Y-105023049D01*
X119080172Y-105027103D01*
X119087102Y-105034033D01*
X119091531Y-105038763D01*
X119104602Y-105053668D01*
X119110258Y-105060747D01*
X119117692Y-105070979D01*
X119134634Y-105083288D01*
X119146441Y-105093372D01*
X119319519Y-105266450D01*
X119329607Y-105278262D01*
X119341912Y-105295198D01*
X119348218Y-105299780D01*
X119348219Y-105299781D01*
X119352089Y-105302593D01*
X119359156Y-105308238D01*
X119361069Y-105309915D01*
X119392363Y-105362492D01*
X119386776Y-105423422D01*
X119365812Y-105454364D01*
X119256443Y-105563733D01*
X119244631Y-105573820D01*
X119227691Y-105586129D01*
X119223111Y-105592434D01*
X119220371Y-105596205D01*
X119214709Y-105603292D01*
X119111205Y-105721320D01*
X119012125Y-105869611D01*
X119010694Y-105872512D01*
X119010691Y-105872518D01*
X118935906Y-106024174D01*
X118893212Y-106068002D01*
X118890047Y-106069487D01*
X118881769Y-106071133D01*
X118815448Y-106115448D01*
X118771133Y-106181769D01*
X118769231Y-106191332D01*
X118769230Y-106191334D01*
X118765236Y-106211415D01*
X118759500Y-106240252D01*
X118759500Y-106779748D01*
X118760448Y-106784512D01*
X118760448Y-106784516D01*
X118761662Y-106790620D01*
X118761662Y-106829246D01*
X118754500Y-106865252D01*
X118754500Y-107404748D01*
X118766133Y-107463231D01*
X118770401Y-107469619D01*
X118775099Y-107529317D01*
X118757377Y-107566472D01*
X118695464Y-107647159D01*
X118634956Y-107793238D01*
X118614318Y-107950000D01*
X118634956Y-108106762D01*
X118695464Y-108252841D01*
X118791718Y-108378282D01*
X118917159Y-108474536D01*
X119063238Y-108535044D01*
X119220000Y-108555682D01*
X119376762Y-108535044D01*
X119522841Y-108474536D01*
X119648282Y-108378282D01*
X119744536Y-108252841D01*
X119805044Y-108106762D01*
X119825682Y-107950000D01*
X119805044Y-107793238D01*
X119744536Y-107647159D01*
X119662844Y-107540695D01*
X119642420Y-107483021D01*
X119644288Y-107461115D01*
X119654552Y-107409512D01*
X119655500Y-107404748D01*
X119655500Y-106865252D01*
X119654552Y-106860484D01*
X119653338Y-106854380D01*
X119653338Y-106815754D01*
X119658337Y-106790620D01*
X119660500Y-106779748D01*
X119660500Y-106240252D01*
X119660834Y-106240252D01*
X119673385Y-106183046D01*
X119682261Y-106170310D01*
X119721438Y-106122570D01*
X119732151Y-106112470D01*
X119732069Y-106112388D01*
X119737578Y-106106879D01*
X119743881Y-106102299D01*
X119756183Y-106085366D01*
X119766273Y-106073551D01*
X119939338Y-105900486D01*
X119951151Y-105890398D01*
X119961784Y-105882672D01*
X119961786Y-105882670D01*
X119968090Y-105878090D01*
X119972670Y-105871786D01*
X119978178Y-105866278D01*
X119978267Y-105866367D01*
X119988323Y-105855700D01*
X120054284Y-105801568D01*
X120070419Y-105790786D01*
X120072825Y-105789500D01*
X120163787Y-105740880D01*
X120181706Y-105733458D01*
X120283020Y-105702726D01*
X120302046Y-105698942D01*
X120371505Y-105692101D01*
X120382919Y-105690977D01*
X120392621Y-105690500D01*
X120399205Y-105690500D01*
X120404058Y-105690882D01*
X120409408Y-105690882D01*
X120417104Y-105692101D01*
X120424801Y-105690882D01*
X120430149Y-105690882D01*
X120435002Y-105690500D01*
X121350500Y-105690500D01*
X121408691Y-105709407D01*
X121444655Y-105758907D01*
X121449500Y-105789500D01*
X121449500Y-105844246D01*
X121450109Y-105848090D01*
X121450109Y-105848092D01*
X121462171Y-105924246D01*
X121465049Y-105942420D01*
X121525342Y-106060751D01*
X121619249Y-106154658D01*
X121626186Y-106158193D01*
X121626188Y-106158194D01*
X121730640Y-106211415D01*
X121737580Y-106214951D01*
X121745273Y-106216170D01*
X121745275Y-106216170D01*
X121831908Y-106229891D01*
X121831910Y-106229891D01*
X121835754Y-106230500D01*
X122339246Y-106230500D01*
X122343090Y-106229891D01*
X122343092Y-106229891D01*
X122429725Y-106216170D01*
X122429727Y-106216170D01*
X122437420Y-106214951D01*
X122444360Y-106211415D01*
X122548812Y-106158194D01*
X122548814Y-106158193D01*
X122555751Y-106154658D01*
X122649658Y-106060751D01*
X122709951Y-105942420D01*
X122712830Y-105924246D01*
X122724891Y-105848092D01*
X122724891Y-105848090D01*
X122725500Y-105844246D01*
X122725500Y-105015754D01*
X122717704Y-104966532D01*
X122711170Y-104925275D01*
X122711170Y-104925273D01*
X122709951Y-104917580D01*
X122683834Y-104866322D01*
X122653194Y-104806188D01*
X122653193Y-104806186D01*
X122649658Y-104799249D01*
X122555751Y-104705342D01*
X122548813Y-104701807D01*
X122548809Y-104701804D01*
X122502054Y-104677981D01*
X122458790Y-104634716D01*
X122448000Y-104589772D01*
X122448000Y-104484500D01*
X122466907Y-104426309D01*
X122516407Y-104390345D01*
X122547000Y-104385500D01*
X122603488Y-104385500D01*
X122607332Y-104384891D01*
X122607334Y-104384891D01*
X122695431Y-104370938D01*
X122695432Y-104370938D01*
X122703126Y-104369719D01*
X122745234Y-104348264D01*
X122816281Y-104312064D01*
X122816283Y-104312063D01*
X122823220Y-104308528D01*
X122918528Y-104213220D01*
X122932177Y-104186434D01*
X122976183Y-104100066D01*
X122976183Y-104100065D01*
X122979719Y-104093126D01*
X122990140Y-104027334D01*
X122994891Y-103997334D01*
X122994891Y-103997332D01*
X122995500Y-103993488D01*
X122995500Y-103476512D01*
X122984471Y-103406874D01*
X122980938Y-103384569D01*
X122980938Y-103384568D01*
X122979719Y-103376874D01*
X122948787Y-103316166D01*
X122922064Y-103263719D01*
X122922063Y-103263717D01*
X122918528Y-103256780D01*
X122823220Y-103161472D01*
X122816283Y-103157937D01*
X122816281Y-103157936D01*
X122710066Y-103103817D01*
X122710065Y-103103817D01*
X122703126Y-103100281D01*
X122695432Y-103099062D01*
X122695431Y-103099062D01*
X122607334Y-103085109D01*
X122607332Y-103085109D01*
X122603488Y-103084500D01*
X122036512Y-103084500D01*
X122032668Y-103085109D01*
X122032666Y-103085109D01*
X121944569Y-103099062D01*
X121944568Y-103099062D01*
X121936874Y-103100281D01*
X121929935Y-103103817D01*
X121929934Y-103103817D01*
X121823719Y-103157936D01*
X121823717Y-103157937D01*
X121816780Y-103161472D01*
X121721472Y-103256780D01*
X121717937Y-103263717D01*
X121717936Y-103263719D01*
X121691213Y-103316166D01*
X121660281Y-103376874D01*
X121659062Y-103384568D01*
X121659062Y-103384569D01*
X121655529Y-103406874D01*
X121644500Y-103476512D01*
X121644500Y-103993488D01*
X121645109Y-103997332D01*
X121645109Y-103997334D01*
X121649861Y-104027334D01*
X121660281Y-104093126D01*
X121663817Y-104100065D01*
X121663817Y-104100066D01*
X121716210Y-104202893D01*
X121727000Y-104247838D01*
X121727000Y-104589772D01*
X121708093Y-104647963D01*
X121672946Y-104677981D01*
X121626191Y-104701804D01*
X121626187Y-104701807D01*
X121619249Y-104705342D01*
X121525342Y-104799249D01*
X121521807Y-104806186D01*
X121521806Y-104806188D01*
X121466137Y-104915445D01*
X121422872Y-104958710D01*
X121377927Y-104969500D01*
X120471539Y-104969500D01*
X120456051Y-104968281D01*
X120424806Y-104963332D01*
X120417110Y-104962113D01*
X120404591Y-104964096D01*
X120395588Y-104965102D01*
X120344462Y-104968452D01*
X120322506Y-104967445D01*
X120307104Y-104965006D01*
X120299408Y-104966225D01*
X120291617Y-104966225D01*
X120291617Y-104966100D01*
X120276967Y-104966532D01*
X120192047Y-104958169D01*
X120173016Y-104954383D01*
X120140662Y-104944569D01*
X120071711Y-104923653D01*
X120053782Y-104916227D01*
X119960414Y-104866322D01*
X119944276Y-104855539D01*
X119878330Y-104801419D01*
X119868264Y-104790743D01*
X119868177Y-104790830D01*
X119862671Y-104785324D01*
X119858088Y-104779016D01*
X119841157Y-104766714D01*
X119829343Y-104756626D01*
X119658179Y-104585462D01*
X119630402Y-104530945D01*
X119636719Y-104477573D01*
X119692559Y-104342762D01*
X119692560Y-104342759D01*
X119695044Y-104336762D01*
X119715682Y-104180000D01*
X119695044Y-104023238D01*
X119634536Y-103877159D01*
X119538282Y-103751718D01*
X119412841Y-103655464D01*
X119266762Y-103594956D01*
X119110000Y-103574318D01*
X118953238Y-103594956D01*
X118807159Y-103655464D01*
X118681718Y-103751718D01*
X118585464Y-103877159D01*
X118524956Y-104023238D01*
X118504318Y-104180000D01*
X115921746Y-104180000D01*
X115920026Y-101755853D01*
X115938892Y-101697649D01*
X115988367Y-101661650D01*
X116018435Y-101656785D01*
X125309836Y-101601295D01*
X129929910Y-101573703D01*
X129988211Y-101592262D01*
G37*
G04 #@! TD.AperFunction*
G04 #@! TA.AperFunction,Conductor*
G36*
X135002482Y-100571568D02*
G01*
X135036351Y-100622524D01*
X135033800Y-100683656D01*
X135011007Y-100719169D01*
X134877102Y-100853074D01*
X134865295Y-100863158D01*
X134848353Y-100875467D01*
X134836934Y-100891185D01*
X134832140Y-100897265D01*
X134764213Y-100976798D01*
X134764207Y-100976806D01*
X134761686Y-100979758D01*
X134737461Y-101019291D01*
X134692953Y-101091923D01*
X134692950Y-101091929D01*
X134690918Y-101095245D01*
X134639086Y-101220381D01*
X134638179Y-101224161D01*
X134611449Y-101335507D01*
X134607469Y-101352084D01*
X134607056Y-101357334D01*
X134602903Y-101410108D01*
X134601454Y-101420005D01*
X134599957Y-101424269D01*
X134599500Y-101429546D01*
X134599500Y-101449466D01*
X134599194Y-101457244D01*
X134598963Y-101460175D01*
X134598051Y-101467880D01*
X134596224Y-101479417D01*
X134596224Y-101479421D01*
X134595006Y-101487112D01*
X134596225Y-101494805D01*
X134597763Y-101504515D01*
X134597763Y-101535489D01*
X134595006Y-101552898D01*
X134596226Y-101560597D01*
X134596226Y-101565724D01*
X134588689Y-101603615D01*
X134586863Y-101608023D01*
X134565407Y-101640135D01*
X134561761Y-101643781D01*
X134555461Y-101648359D01*
X134545805Y-101661650D01*
X134543159Y-101665292D01*
X134533069Y-101677107D01*
X134348968Y-101861208D01*
X134339642Y-101869429D01*
X134333193Y-101874432D01*
X134325992Y-101878317D01*
X134315896Y-101889239D01*
X134301388Y-101902131D01*
X134298215Y-101904436D01*
X134298213Y-101904438D01*
X134291912Y-101909016D01*
X134287333Y-101915319D01*
X134281824Y-101920828D01*
X134281738Y-101920742D01*
X134271670Y-101931419D01*
X134205724Y-101985539D01*
X134189586Y-101996322D01*
X134096218Y-102046227D01*
X134078289Y-102053653D01*
X134008693Y-102074765D01*
X133976984Y-102084383D01*
X133957953Y-102088169D01*
X133873033Y-102096532D01*
X133858383Y-102096100D01*
X133858383Y-102096225D01*
X133850592Y-102096225D01*
X133842896Y-102095006D01*
X133835199Y-102096225D01*
X133822217Y-102098281D01*
X133806731Y-102099500D01*
X130882962Y-102099500D01*
X130824771Y-102080593D01*
X130788807Y-102031093D01*
X130788807Y-101969907D01*
X130800648Y-101945497D01*
X130813448Y-101926341D01*
X130818867Y-101918231D01*
X130822070Y-101902131D01*
X130829552Y-101864512D01*
X130830500Y-101859748D01*
X130830500Y-100975817D01*
X130849407Y-100917626D01*
X130898907Y-100881662D01*
X130928748Y-100876820D01*
X132724748Y-100863180D01*
X132783081Y-100881645D01*
X132819420Y-100930870D01*
X132824500Y-100962177D01*
X132824500Y-101353488D01*
X132825109Y-101357332D01*
X132825109Y-101357334D01*
X132836571Y-101429699D01*
X132840281Y-101453126D01*
X132843817Y-101460065D01*
X132843817Y-101460066D01*
X132897653Y-101565724D01*
X132901472Y-101573220D01*
X132996780Y-101668528D01*
X133003717Y-101672063D01*
X133003719Y-101672064D01*
X133053933Y-101697649D01*
X133116874Y-101729719D01*
X133124568Y-101730938D01*
X133124569Y-101730938D01*
X133212666Y-101744891D01*
X133212668Y-101744891D01*
X133216512Y-101745500D01*
X133733488Y-101745500D01*
X133737332Y-101744891D01*
X133737334Y-101744891D01*
X133825431Y-101730938D01*
X133825432Y-101730938D01*
X133833126Y-101729719D01*
X133896067Y-101697649D01*
X133946281Y-101672064D01*
X133946283Y-101672063D01*
X133953220Y-101668528D01*
X134048528Y-101573220D01*
X134052348Y-101565724D01*
X134106183Y-101460066D01*
X134106183Y-101460065D01*
X134109719Y-101453126D01*
X134113430Y-101429699D01*
X134124891Y-101357334D01*
X134124891Y-101357332D01*
X134125500Y-101353488D01*
X134125500Y-101278354D01*
X134144407Y-101220163D01*
X134145913Y-101218261D01*
X134146285Y-101217889D01*
X134147359Y-101216434D01*
X134147370Y-101216421D01*
X134202705Y-101141504D01*
X134202707Y-101141501D01*
X134207102Y-101135550D01*
X134252486Y-101006317D01*
X134253400Y-100983072D01*
X134254859Y-100945922D01*
X134276037Y-100888519D01*
X134326911Y-100854526D01*
X134353029Y-100850812D01*
X134401209Y-100850447D01*
X134445567Y-100850110D01*
X134445568Y-100850110D01*
X134460000Y-100850000D01*
X134886202Y-100566716D01*
X134945130Y-100550251D01*
X135002482Y-100571568D01*
G37*
G04 #@! TD.AperFunction*
G04 #@! TD*
G04 #@! TA.AperFunction,Conductor*
G04 #@! TO.N,GND*
G36*
X120438577Y-89271674D02*
G01*
X120474611Y-89321123D01*
X120479500Y-89351849D01*
X120479500Y-92106492D01*
X120479197Y-92110617D01*
X120477575Y-92115342D01*
X120477918Y-92124476D01*
X120479430Y-92164761D01*
X120479500Y-92168474D01*
X120479500Y-92187948D01*
X120480325Y-92192378D01*
X120480661Y-92197571D01*
X120481774Y-92227208D01*
X120485380Y-92235602D01*
X120485381Y-92235605D01*
X120486317Y-92237783D01*
X120492683Y-92258734D01*
X120494791Y-92270053D01*
X120499588Y-92277835D01*
X120508768Y-92292728D01*
X120515451Y-92305595D01*
X120525964Y-92330063D01*
X120529978Y-92334949D01*
X120534342Y-92339313D01*
X120548613Y-92357368D01*
X120553532Y-92365348D01*
X120576769Y-92383018D01*
X120586839Y-92391810D01*
X121964680Y-93769651D01*
X121967380Y-93772780D01*
X121969575Y-93777269D01*
X121976278Y-93783487D01*
X122005822Y-93810893D01*
X122008498Y-93813469D01*
X122022276Y-93827247D01*
X122025987Y-93829792D01*
X122029892Y-93833220D01*
X122051646Y-93853401D01*
X122060133Y-93856787D01*
X122062336Y-93857666D01*
X122081652Y-93867980D01*
X122083607Y-93869321D01*
X122083610Y-93869322D01*
X122091146Y-93874492D01*
X122117058Y-93880641D01*
X122130884Y-93885014D01*
X122149132Y-93892294D01*
X122149134Y-93892294D01*
X122155622Y-93894883D01*
X122161915Y-93895500D01*
X122168084Y-93895500D01*
X122190943Y-93898175D01*
X122191173Y-93898230D01*
X122191175Y-93898230D01*
X122200066Y-93900340D01*
X122228988Y-93896404D01*
X122242337Y-93895500D01*
X122334601Y-93895500D01*
X122392792Y-93914407D01*
X122428756Y-93963907D01*
X122433598Y-93995219D01*
X122378040Y-101649905D01*
X122218040Y-101649905D01*
X119618040Y-101669905D01*
X119679620Y-93895500D01*
X119697916Y-91585584D01*
X119697916Y-91585583D01*
X119698040Y-91569905D01*
X116010786Y-91535764D01*
X115952773Y-91516318D01*
X115917269Y-91466488D01*
X115912703Y-91436838D01*
X115912638Y-91344415D01*
X115911228Y-89358082D01*
X115930094Y-89299879D01*
X115979569Y-89263880D01*
X116010084Y-89259014D01*
X118211926Y-89255908D01*
X118267069Y-89272594D01*
X118276768Y-89279075D01*
X118291769Y-89291385D01*
X118545504Y-89545120D01*
X118573281Y-89599637D01*
X118574500Y-89615124D01*
X118574500Y-90442104D01*
X118555593Y-90500295D01*
X118549704Y-90507638D01*
X118502044Y-90561603D01*
X118502043Y-90561605D01*
X118497377Y-90566888D01*
X118436447Y-90696663D01*
X118435362Y-90703632D01*
X118435361Y-90703635D01*
X118429097Y-90743870D01*
X118414391Y-90838323D01*
X118415306Y-90845320D01*
X118415306Y-90845321D01*
X118431694Y-90970646D01*
X118432980Y-90980479D01*
X118435821Y-90986935D01*
X118435821Y-90986936D01*
X118443586Y-91004582D01*
X118490720Y-91111703D01*
X118503792Y-91127254D01*
X118578431Y-91216049D01*
X118578434Y-91216051D01*
X118582970Y-91221448D01*
X118588841Y-91225356D01*
X118588842Y-91225357D01*
X118601143Y-91233545D01*
X118702313Y-91300890D01*
X118802920Y-91332321D01*
X118832425Y-91341539D01*
X118832426Y-91341539D01*
X118839157Y-91343642D01*
X118910828Y-91344956D01*
X118975445Y-91346141D01*
X118975447Y-91346141D01*
X118982499Y-91346270D01*
X118989302Y-91344415D01*
X118989304Y-91344415D01*
X119064503Y-91323913D01*
X119120817Y-91308560D01*
X119242991Y-91233545D01*
X119250403Y-91225357D01*
X119334468Y-91132482D01*
X119339200Y-91127254D01*
X119401710Y-90998233D01*
X119403853Y-90985500D01*
X119424862Y-90860624D01*
X119424862Y-90860620D01*
X119425496Y-90856854D01*
X119425547Y-90852737D01*
X119425600Y-90848326D01*
X119425647Y-90844500D01*
X119405323Y-90702582D01*
X119345984Y-90572072D01*
X119252400Y-90463463D01*
X119170653Y-90410477D01*
X119132106Y-90362961D01*
X119125500Y-90327402D01*
X119125500Y-89521676D01*
X119144407Y-89463485D01*
X119193907Y-89427521D01*
X119255093Y-89427521D01*
X119284768Y-89443134D01*
X119312659Y-89464536D01*
X119458738Y-89525044D01*
X119576139Y-89540500D01*
X119654861Y-89540500D01*
X119772262Y-89525044D01*
X119918341Y-89464536D01*
X120043782Y-89368282D01*
X120102420Y-89291863D01*
X120152843Y-89257208D01*
X120180821Y-89253131D01*
X120380362Y-89252850D01*
X120438577Y-89271674D01*
G37*
G04 #@! TD.AperFunction*
G04 #@! TD*
M02*
