%TF.GenerationSoftware,KiCad,Pcbnew,(6.0.9)*%
%TF.CreationDate,2022-11-30T10:01:07+01:00*%
%TF.ProjectId,LDAD ATOM PRO,4c444144-2041-4544-9f4d-2050524f2e6b,5.3*%
%TF.SameCoordinates,Original*%
%TF.FileFunction,Drillmap*%
%TF.FilePolarity,Positive*%
%FSLAX45Y45*%
G04 Gerber Fmt 4.5, Leading zero omitted, Abs format (unit mm)*
G04 Created by KiCad (PCBNEW (6.0.9)) date 2022-11-30 10:01:07*
%MOMM*%
%LPD*%
G01*
G04 APERTURE LIST*
%ADD10C,0.200000*%
%ADD11C,0.070000*%
G04 APERTURE END LIST*
D10*
D11*
X11926550Y-8351000D02*
X11996550Y-8421000D01*
X11996550Y-8351000D02*
X11926550Y-8421000D01*
X11926550Y-8478000D02*
X11996550Y-8548000D01*
X11996550Y-8478000D02*
X11926550Y-8548000D01*
X11926550Y-8605000D02*
X11996550Y-8675000D01*
X11996550Y-8605000D02*
X11926550Y-8675000D01*
X11926550Y-8732000D02*
X11996550Y-8802000D01*
X11996550Y-8732000D02*
X11926550Y-8802000D01*
X11926550Y-8859000D02*
X11996550Y-8929000D01*
X11996550Y-8859000D02*
X11926550Y-8929000D01*
D10*
X11822276Y-12523976D02*
X11822276Y-12323976D01*
X11869895Y-12323976D01*
X11898467Y-12333500D01*
X11917515Y-12352548D01*
X11927038Y-12371595D01*
X11936562Y-12409690D01*
X11936562Y-12438262D01*
X11927038Y-12476357D01*
X11917515Y-12495405D01*
X11898467Y-12514452D01*
X11869895Y-12523976D01*
X11822276Y-12523976D01*
X12022276Y-12523976D02*
X12022276Y-12390643D01*
X12022276Y-12428738D02*
X12031800Y-12409690D01*
X12041324Y-12400167D01*
X12060372Y-12390643D01*
X12079419Y-12390643D01*
X12146086Y-12523976D02*
X12146086Y-12390643D01*
X12146086Y-12323976D02*
X12136562Y-12333500D01*
X12146086Y-12343024D01*
X12155610Y-12333500D01*
X12146086Y-12323976D01*
X12146086Y-12343024D01*
X12269895Y-12523976D02*
X12250848Y-12514452D01*
X12241324Y-12495405D01*
X12241324Y-12323976D01*
X12374657Y-12523976D02*
X12355610Y-12514452D01*
X12346086Y-12495405D01*
X12346086Y-12323976D01*
X12603229Y-12523976D02*
X12603229Y-12323976D01*
X12669895Y-12466833D01*
X12736562Y-12323976D01*
X12736562Y-12523976D01*
X12917515Y-12523976D02*
X12917515Y-12419214D01*
X12907991Y-12400167D01*
X12888943Y-12390643D01*
X12850848Y-12390643D01*
X12831800Y-12400167D01*
X12917515Y-12514452D02*
X12898467Y-12523976D01*
X12850848Y-12523976D01*
X12831800Y-12514452D01*
X12822276Y-12495405D01*
X12822276Y-12476357D01*
X12831800Y-12457309D01*
X12850848Y-12447786D01*
X12898467Y-12447786D01*
X12917515Y-12438262D01*
X13012753Y-12390643D02*
X13012753Y-12590643D01*
X13012753Y-12400167D02*
X13031800Y-12390643D01*
X13069895Y-12390643D01*
X13088943Y-12400167D01*
X13098467Y-12409690D01*
X13107991Y-12428738D01*
X13107991Y-12485881D01*
X13098467Y-12504928D01*
X13088943Y-12514452D01*
X13069895Y-12523976D01*
X13031800Y-12523976D01*
X13012753Y-12514452D01*
X13193705Y-12504928D02*
X13203229Y-12514452D01*
X13193705Y-12523976D01*
X13184181Y-12514452D01*
X13193705Y-12504928D01*
X13193705Y-12523976D01*
X13193705Y-12400167D02*
X13203229Y-12409690D01*
X13193705Y-12419214D01*
X13184181Y-12409690D01*
X13193705Y-12400167D01*
X13193705Y-12419214D01*
D11*
X11494657Y-12818500D02*
X11564657Y-12888500D01*
X11564657Y-12818500D02*
X11494657Y-12888500D01*
D10*
X11860372Y-12743976D02*
X11879419Y-12743976D01*
X11898467Y-12753500D01*
X11907991Y-12763024D01*
X11917515Y-12782071D01*
X11927038Y-12820167D01*
X11927038Y-12867786D01*
X11917515Y-12905881D01*
X11907991Y-12924928D01*
X11898467Y-12934452D01*
X11879419Y-12943976D01*
X11860372Y-12943976D01*
X11841324Y-12934452D01*
X11831800Y-12924928D01*
X11822276Y-12905881D01*
X11812753Y-12867786D01*
X11812753Y-12820167D01*
X11822276Y-12782071D01*
X11831800Y-12763024D01*
X11841324Y-12753500D01*
X11860372Y-12743976D01*
X12012753Y-12924928D02*
X12022276Y-12934452D01*
X12012753Y-12943976D01*
X12003229Y-12934452D01*
X12012753Y-12924928D01*
X12012753Y-12943976D01*
X12088943Y-12743976D02*
X12222276Y-12743976D01*
X12136562Y-12943976D01*
X12336562Y-12743976D02*
X12355610Y-12743976D01*
X12374657Y-12753500D01*
X12384181Y-12763024D01*
X12393705Y-12782071D01*
X12403229Y-12820167D01*
X12403229Y-12867786D01*
X12393705Y-12905881D01*
X12384181Y-12924928D01*
X12374657Y-12934452D01*
X12355610Y-12943976D01*
X12336562Y-12943976D01*
X12317515Y-12934452D01*
X12307991Y-12924928D01*
X12298467Y-12905881D01*
X12288943Y-12867786D01*
X12288943Y-12820167D01*
X12298467Y-12782071D01*
X12307991Y-12763024D01*
X12317515Y-12753500D01*
X12336562Y-12743976D01*
X12527038Y-12743976D02*
X12546086Y-12743976D01*
X12565134Y-12753500D01*
X12574657Y-12763024D01*
X12584181Y-12782071D01*
X12593705Y-12820167D01*
X12593705Y-12867786D01*
X12584181Y-12905881D01*
X12574657Y-12924928D01*
X12565134Y-12934452D01*
X12546086Y-12943976D01*
X12527038Y-12943976D01*
X12507991Y-12934452D01*
X12498467Y-12924928D01*
X12488943Y-12905881D01*
X12479419Y-12867786D01*
X12479419Y-12820167D01*
X12488943Y-12782071D01*
X12498467Y-12763024D01*
X12507991Y-12753500D01*
X12527038Y-12743976D01*
X12679419Y-12943976D02*
X12679419Y-12810643D01*
X12679419Y-12829690D02*
X12688943Y-12820167D01*
X12707991Y-12810643D01*
X12736562Y-12810643D01*
X12755610Y-12820167D01*
X12765134Y-12839214D01*
X12765134Y-12943976D01*
X12765134Y-12839214D02*
X12774657Y-12820167D01*
X12793705Y-12810643D01*
X12822276Y-12810643D01*
X12841324Y-12820167D01*
X12850848Y-12839214D01*
X12850848Y-12943976D01*
X12946086Y-12943976D02*
X12946086Y-12810643D01*
X12946086Y-12829690D02*
X12955610Y-12820167D01*
X12974657Y-12810643D01*
X13003229Y-12810643D01*
X13022276Y-12820167D01*
X13031800Y-12839214D01*
X13031800Y-12943976D01*
X13031800Y-12839214D02*
X13041324Y-12820167D01*
X13060372Y-12810643D01*
X13088943Y-12810643D01*
X13107991Y-12820167D01*
X13117515Y-12839214D01*
X13117515Y-12943976D01*
X13507991Y-12734452D02*
X13336562Y-12991595D01*
X13765134Y-12743976D02*
X13784181Y-12743976D01*
X13803229Y-12753500D01*
X13812753Y-12763024D01*
X13822276Y-12782071D01*
X13831800Y-12820167D01*
X13831800Y-12867786D01*
X13822276Y-12905881D01*
X13812753Y-12924928D01*
X13803229Y-12934452D01*
X13784181Y-12943976D01*
X13765134Y-12943976D01*
X13746086Y-12934452D01*
X13736562Y-12924928D01*
X13727038Y-12905881D01*
X13717515Y-12867786D01*
X13717515Y-12820167D01*
X13727038Y-12782071D01*
X13736562Y-12763024D01*
X13746086Y-12753500D01*
X13765134Y-12743976D01*
X13917515Y-12924928D02*
X13927038Y-12934452D01*
X13917515Y-12943976D01*
X13907991Y-12934452D01*
X13917515Y-12924928D01*
X13917515Y-12943976D01*
X14050848Y-12743976D02*
X14069895Y-12743976D01*
X14088943Y-12753500D01*
X14098467Y-12763024D01*
X14107991Y-12782071D01*
X14117515Y-12820167D01*
X14117515Y-12867786D01*
X14107991Y-12905881D01*
X14098467Y-12924928D01*
X14088943Y-12934452D01*
X14069895Y-12943976D01*
X14050848Y-12943976D01*
X14031800Y-12934452D01*
X14022276Y-12924928D01*
X14012753Y-12905881D01*
X14003229Y-12867786D01*
X14003229Y-12820167D01*
X14012753Y-12782071D01*
X14022276Y-12763024D01*
X14031800Y-12753500D01*
X14050848Y-12743976D01*
X14193705Y-12763024D02*
X14203229Y-12753500D01*
X14222276Y-12743976D01*
X14269895Y-12743976D01*
X14288943Y-12753500D01*
X14298467Y-12763024D01*
X14307991Y-12782071D01*
X14307991Y-12801119D01*
X14298467Y-12829690D01*
X14184181Y-12943976D01*
X14307991Y-12943976D01*
X14374657Y-12743976D02*
X14507991Y-12743976D01*
X14422276Y-12943976D01*
X14669895Y-12743976D02*
X14631800Y-12743976D01*
X14612753Y-12753500D01*
X14603229Y-12763024D01*
X14584181Y-12791595D01*
X14574657Y-12829690D01*
X14574657Y-12905881D01*
X14584181Y-12924928D01*
X14593705Y-12934452D01*
X14612753Y-12943976D01*
X14650848Y-12943976D01*
X14669895Y-12934452D01*
X14679419Y-12924928D01*
X14688943Y-12905881D01*
X14688943Y-12858262D01*
X14679419Y-12839214D01*
X14669895Y-12829690D01*
X14650848Y-12820167D01*
X14612753Y-12820167D01*
X14593705Y-12829690D01*
X14584181Y-12839214D01*
X14574657Y-12858262D01*
X14765134Y-12743976D02*
X14765134Y-12782071D01*
X14841324Y-12743976D02*
X14841324Y-12782071D01*
X15136562Y-13020167D02*
X15127038Y-13010643D01*
X15107991Y-12982071D01*
X15098467Y-12963024D01*
X15088943Y-12934452D01*
X15079419Y-12886833D01*
X15079419Y-12848738D01*
X15088943Y-12801119D01*
X15098467Y-12772548D01*
X15107991Y-12753500D01*
X15127038Y-12724928D01*
X15136562Y-12715405D01*
X15307991Y-12743976D02*
X15212753Y-12743976D01*
X15203229Y-12839214D01*
X15212753Y-12829690D01*
X15231800Y-12820167D01*
X15279419Y-12820167D01*
X15298467Y-12829690D01*
X15307991Y-12839214D01*
X15317515Y-12858262D01*
X15317515Y-12905881D01*
X15307991Y-12924928D01*
X15298467Y-12934452D01*
X15279419Y-12943976D01*
X15231800Y-12943976D01*
X15212753Y-12934452D01*
X15203229Y-12924928D01*
X15555610Y-12943976D02*
X15555610Y-12743976D01*
X15641324Y-12943976D02*
X15641324Y-12839214D01*
X15631800Y-12820167D01*
X15612753Y-12810643D01*
X15584181Y-12810643D01*
X15565134Y-12820167D01*
X15555610Y-12829690D01*
X15765134Y-12943976D02*
X15746086Y-12934452D01*
X15736562Y-12924928D01*
X15727038Y-12905881D01*
X15727038Y-12848738D01*
X15736562Y-12829690D01*
X15746086Y-12820167D01*
X15765134Y-12810643D01*
X15793705Y-12810643D01*
X15812753Y-12820167D01*
X15822276Y-12829690D01*
X15831800Y-12848738D01*
X15831800Y-12905881D01*
X15822276Y-12924928D01*
X15812753Y-12934452D01*
X15793705Y-12943976D01*
X15765134Y-12943976D01*
X15946086Y-12943976D02*
X15927038Y-12934452D01*
X15917515Y-12915405D01*
X15917515Y-12743976D01*
X16098467Y-12934452D02*
X16079419Y-12943976D01*
X16041324Y-12943976D01*
X16022276Y-12934452D01*
X16012753Y-12915405D01*
X16012753Y-12839214D01*
X16022276Y-12820167D01*
X16041324Y-12810643D01*
X16079419Y-12810643D01*
X16098467Y-12820167D01*
X16107991Y-12839214D01*
X16107991Y-12858262D01*
X16012753Y-12877309D01*
X16184181Y-12934452D02*
X16203229Y-12943976D01*
X16241324Y-12943976D01*
X16260372Y-12934452D01*
X16269895Y-12915405D01*
X16269895Y-12905881D01*
X16260372Y-12886833D01*
X16241324Y-12877309D01*
X16212753Y-12877309D01*
X16193705Y-12867786D01*
X16184181Y-12848738D01*
X16184181Y-12839214D01*
X16193705Y-12820167D01*
X16212753Y-12810643D01*
X16241324Y-12810643D01*
X16260372Y-12820167D01*
X16336562Y-13020167D02*
X16346086Y-13010643D01*
X16365134Y-12982071D01*
X16374657Y-12963024D01*
X16384181Y-12934452D01*
X16393705Y-12886833D01*
X16393705Y-12848738D01*
X16384181Y-12801119D01*
X16374657Y-12772548D01*
X16365134Y-12753500D01*
X16346086Y-12724928D01*
X16336562Y-12715405D01*
X16698467Y-13020167D02*
X16688943Y-13010643D01*
X16669895Y-12982071D01*
X16660372Y-12963024D01*
X16650848Y-12934452D01*
X16641324Y-12886833D01*
X16641324Y-12848738D01*
X16650848Y-12801119D01*
X16660372Y-12772548D01*
X16669895Y-12753500D01*
X16688943Y-12724928D01*
X16698467Y-12715405D01*
X16774657Y-12810643D02*
X16774657Y-12943976D01*
X16774657Y-12829690D02*
X16784181Y-12820167D01*
X16803229Y-12810643D01*
X16831800Y-12810643D01*
X16850848Y-12820167D01*
X16860372Y-12839214D01*
X16860372Y-12943976D01*
X16984181Y-12943976D02*
X16965134Y-12934452D01*
X16955610Y-12924928D01*
X16946086Y-12905881D01*
X16946086Y-12848738D01*
X16955610Y-12829690D01*
X16965134Y-12820167D01*
X16984181Y-12810643D01*
X17012753Y-12810643D01*
X17031800Y-12820167D01*
X17041324Y-12829690D01*
X17050848Y-12848738D01*
X17050848Y-12905881D01*
X17041324Y-12924928D01*
X17031800Y-12934452D01*
X17012753Y-12943976D01*
X16984181Y-12943976D01*
X17107991Y-12810643D02*
X17184181Y-12810643D01*
X17136562Y-12743976D02*
X17136562Y-12915405D01*
X17146086Y-12934452D01*
X17165134Y-12943976D01*
X17184181Y-12943976D01*
X17403229Y-12810643D02*
X17403229Y-13010643D01*
X17403229Y-12820167D02*
X17422277Y-12810643D01*
X17460372Y-12810643D01*
X17479419Y-12820167D01*
X17488943Y-12829690D01*
X17498467Y-12848738D01*
X17498467Y-12905881D01*
X17488943Y-12924928D01*
X17479419Y-12934452D01*
X17460372Y-12943976D01*
X17422277Y-12943976D01*
X17403229Y-12934452D01*
X17612753Y-12943976D02*
X17593705Y-12934452D01*
X17584181Y-12915405D01*
X17584181Y-12743976D01*
X17774657Y-12943976D02*
X17774657Y-12839214D01*
X17765134Y-12820167D01*
X17746086Y-12810643D01*
X17707991Y-12810643D01*
X17688943Y-12820167D01*
X17774657Y-12934452D02*
X17755610Y-12943976D01*
X17707991Y-12943976D01*
X17688943Y-12934452D01*
X17679419Y-12915405D01*
X17679419Y-12896357D01*
X17688943Y-12877309D01*
X17707991Y-12867786D01*
X17755610Y-12867786D01*
X17774657Y-12858262D01*
X17841324Y-12810643D02*
X17917515Y-12810643D01*
X17869896Y-12743976D02*
X17869896Y-12915405D01*
X17879419Y-12934452D01*
X17898467Y-12943976D01*
X17917515Y-12943976D01*
X18060372Y-12934452D02*
X18041324Y-12943976D01*
X18003229Y-12943976D01*
X17984181Y-12934452D01*
X17974657Y-12915405D01*
X17974657Y-12839214D01*
X17984181Y-12820167D01*
X18003229Y-12810643D01*
X18041324Y-12810643D01*
X18060372Y-12820167D01*
X18069896Y-12839214D01*
X18069896Y-12858262D01*
X17974657Y-12877309D01*
X18241324Y-12943976D02*
X18241324Y-12743976D01*
X18241324Y-12934452D02*
X18222277Y-12943976D01*
X18184181Y-12943976D01*
X18165134Y-12934452D01*
X18155610Y-12924928D01*
X18146086Y-12905881D01*
X18146086Y-12848738D01*
X18155610Y-12829690D01*
X18165134Y-12820167D01*
X18184181Y-12810643D01*
X18222277Y-12810643D01*
X18241324Y-12820167D01*
X18317515Y-13020167D02*
X18327038Y-13010643D01*
X18346086Y-12982071D01*
X18355610Y-12963024D01*
X18365134Y-12934452D01*
X18374657Y-12886833D01*
X18374657Y-12848738D01*
X18365134Y-12801119D01*
X18355610Y-12772548D01*
X18346086Y-12753500D01*
X18327038Y-12724928D01*
X18317515Y-12715405D01*
M02*
