M48
; DRILL file {KiCad (6.0.9)} date Wed Nov 30 10:01:08 2022
; FORMAT={-:-/ absolute / inch / decimal}
; #@! TF.CreationDate,2022-11-30T10:01:08+01:00
; #@! TF.GenerationSoftware,Kicad,Pcbnew,(6.0.9)
; #@! TF.FileFunction,Plated,1,2,PTH
FMAT,2
INCH
; #@! TA.AperFunction,Plated,PTH,ViaDrill
T1C0.0157
; #@! TA.AperFunction,Plated,PTH,ComponentDrill
T2C0.0197
; #@! TA.AperFunction,Plated,PTH,ComponentDrill
T3C0.0256
; #@! TA.AperFunction,Plated,PTH,ComponentDrill
T4C0.0374
; #@! TA.AperFunction,Plated,PTH,ComponentDrill
T5C0.0394
%
G90
G05
T1
X4.6039Y-3.3378
X4.6819Y-3.5766
X4.6894Y-4.1016
X4.6937Y-4.25
X4.7571Y-3.4272
X4.7689Y-3.2992
X4.7913Y-3.5614
X4.8028Y-3.3669
X4.874Y-3.4972
X4.9535Y-3.4732
X4.965Y-3.5701
X4.9819Y-3.5012
X5.0451Y-3.8927
X5.0579Y-3.5701
X5.0713Y-3.5098
X5.0933Y-3.8126
X5.098Y-3.9638
X5.1343Y-4.0665
X5.1354Y-4.2791
X5.1362Y-3.9961
X5.1386Y-3.4933
X5.139Y-3.3177
X5.139Y-3.7504
X5.2142Y-4.0138
X5.2469Y-4.1874
X5.2691Y-3.3907
X5.2909Y-3.535
X5.3291Y-3.4882
X5.3417Y-3.9087
X5.3465Y-3.4496
X5.3539Y-3.8114
X5.3547Y-3.5748
X5.363Y-4.0043
X5.3646Y-4.478
X5.3669Y-4.1917
X5.3713Y-3.7508
X5.3744Y-3.1539
X5.3846Y-4.0236
X5.4071Y-4.0469
X5.4075Y-3.7201
X5.4106Y-3.6843
X5.411Y-3.5331
X5.4114Y-3.6252
X5.4209Y-3.5756
X5.4311Y-4.0831
X5.4335Y-3.4524
X5.4346Y-4.1189
X5.4374Y-3.8957
X5.4583Y-3.7413
X5.4594Y-3.4894
X5.4744Y-4.1232
X5.4807Y-3.85
X5.4866Y-4.1909
X5.4894Y-3.9531
X5.502Y-3.722
X5.515Y-4.111
X5.5256Y-4.3846
X5.5299Y-3.7949
X5.5366Y-3.9
X5.5437Y-4.0106
X5.5555Y-3.576
X5.5709Y-3.7138
X5.5748Y-3.461
X5.578Y-4.1815
X5.5795Y-4.2177
X5.585Y-3.8484
X5.5878Y-3.6661
X5.5917Y-3.4894
X5.5917Y-3.9567
X5.6102Y-4.1189
X5.6126Y-4.0744
X5.6299Y-3.276
X5.6409Y-3.9067
X5.6441Y-4.1173
X5.6461Y-4.074
X5.6591Y-3.6488
X5.6642Y-4.0496
X5.6661Y-4.0213
X5.6717Y-3.3185
X5.6717Y-3.4516
X5.6839Y-3.6752
X5.7075Y-3.6472
X5.7169Y-4.6409
X5.7232Y-3.5402
X5.7342Y-3.9872
X5.7344Y-3.4486
X5.737Y-3.3043
X5.7433Y-4.2264
X5.75Y-4.2516
X5.7551Y-4.4756
X5.7674Y-4.038
X5.778Y-3.2917
X5.7961Y-4.3307
X5.813Y-4.0394
X5.8181Y-3.8618
X5.8343Y-4.0154
X5.8354Y-4.3701
X5.8378Y-3.7205
X5.8433Y-3.372
X5.8618Y-4.6839
X5.8894Y-3.435
X5.9256Y-4.0921
X5.9264Y-4.1362
X5.9791Y-4.1657
X5.9972Y-3.4858
X6.0043Y-4.0594
X6.0476Y-3.9902
X6.1114Y-3.3902
X6.1157Y-3.4492
X6.1311Y-4.1209
X6.152Y-4.1756
X6.1528Y-4.2425
X6.165Y-4.0774
X6.1795Y-3.8117
X6.1913Y-4.0535
X6.2071Y-4.086
X6.2657Y-4.2445
X6.2697Y-4.1697
X6.2756Y-3.6488
X6.3047Y-3.8953
X6.3915Y-3.912
X6.4028Y-4.0425
X6.4606Y-3.4079
T3
X4.8545Y-3.6348
X4.8545Y-3.6848
X4.8545Y-3.7348
X4.8545Y-3.7848
X4.8545Y-3.8348
X4.8545Y-3.8848
X4.9045Y-3.6348
X4.9045Y-3.6848
X4.9045Y-3.7348
X4.9045Y-3.7848
X4.9045Y-3.8348
X4.9045Y-3.8848
T4
X5.4256Y-3.0665
X5.524Y-3.0665
X5.6224Y-3.0665
X5.7209Y-3.0665
X5.9783Y-3.0598
X6.0768Y-3.0598
X6.1752Y-3.0598
T5
X5.0756Y-4.6437
X5.174Y-4.6437
T2
G00X6.3398Y-3.8039
M15
G01X6.3398Y-3.8315
M16
G05
G00X6.3402Y-3.6673
M15
G01X6.3402Y-3.6949
M16
G05
G00X6.6232Y-3.6669
M15
G01X6.6232Y-3.6945
M16
G05
G00X6.624Y-3.8039
M15
G01X6.624Y-3.8315
M16
G05
T0
M30
